<svg width="640" height="436" viewBox="0 0 640 436" fill="none" xmlns="http://www.w3.org/2000/svg">
<path d="M44 241.5L35 246.263V236.737L44 241.5Z" fill="#466BB0"/>
<path d="M5 242H35" stroke="#466BB0" stroke-width="3"/>
<path d="M47.8232 246V236.047H50.8857C51.7607 236.047 52.5423 236.245 53.2305 236.642C53.9232 237.034 54.4632 237.594 54.8506 238.323C55.238 239.048 55.4316 239.873 55.4316 240.798V241.256C55.4316 242.181 55.2402 243.004 54.8574 243.724C54.4792 244.444 53.9437 245.002 53.251 245.398C52.5583 245.795 51.7767 245.995 50.9062 246H47.8232ZM49.874 237.708V244.353H50.8652C51.6673 244.353 52.2803 244.09 52.7041 243.566C53.1279 243.042 53.3444 242.293 53.3535 241.317V240.791C53.3535 239.779 53.1439 239.014 52.7246 238.494C52.3053 237.97 51.6924 237.708 50.8857 237.708H49.874ZM61.085 246C60.9938 245.822 60.9277 245.601 60.8867 245.337C60.4082 245.87 59.7861 246.137 59.0205 246.137C58.2959 246.137 57.6943 245.927 57.2158 245.508C56.7419 245.089 56.5049 244.56 56.5049 243.922C56.5049 243.138 56.7943 242.536 57.373 242.117C57.9564 241.698 58.7972 241.486 59.8955 241.481H60.8047V241.058C60.8047 240.716 60.7158 240.442 60.5381 240.237C60.3649 240.032 60.0892 239.93 59.7109 239.93C59.3783 239.93 59.1162 240.009 58.9248 240.169C58.738 240.328 58.6445 240.547 58.6445 240.825H56.6689C56.6689 240.397 56.8011 240 57.0654 239.636C57.3298 239.271 57.7035 238.986 58.1865 238.781C58.6696 238.572 59.2119 238.467 59.8135 238.467C60.7249 238.467 61.4473 238.697 61.9805 239.157C62.5182 239.613 62.7871 240.256 62.7871 241.085V244.291C62.7917 244.993 62.8896 245.524 63.0811 245.884V246H61.085ZM59.4512 244.626C59.7428 244.626 60.0117 244.562 60.2578 244.435C60.5039 244.302 60.6862 244.127 60.8047 243.908V242.637H60.0664C59.0775 242.637 58.5511 242.979 58.4873 243.662L58.4805 243.778C58.4805 244.024 58.5671 244.227 58.7402 244.387C58.9134 244.546 59.1504 244.626 59.4512 244.626ZM66.6699 236.785V238.604H67.9346V240.053H66.6699V243.744C66.6699 244.018 66.7223 244.214 66.8271 244.332C66.932 244.451 67.1325 244.51 67.4287 244.51C67.6475 244.51 67.8411 244.494 68.0098 244.462V245.959C67.6224 246.077 67.2236 246.137 66.8135 246.137C65.4281 246.137 64.7217 245.437 64.6943 244.038V240.053H63.6143V238.604H64.6943V236.785H66.6699ZM73.3213 246C73.2301 245.822 73.1641 245.601 73.123 245.337C72.6445 245.87 72.0225 246.137 71.2568 246.137C70.5322 246.137 69.9307 245.927 69.4521 245.508C68.9782 245.089 68.7412 244.56 68.7412 243.922C68.7412 243.138 69.0306 242.536 69.6094 242.117C70.1927 241.698 71.0335 241.486 72.1318 241.481H73.041V241.058C73.041 240.716 72.9521 240.442 72.7744 240.237C72.6012 240.032 72.3255 239.93 71.9473 239.93C71.6146 239.93 71.3525 240.009 71.1611 240.169C70.9743 240.328 70.8809 240.547 70.8809 240.825H68.9053C68.9053 240.397 69.0374 240 69.3018 239.636C69.5661 239.271 69.9398 238.986 70.4229 238.781C70.9059 238.572 71.4482 238.467 72.0498 238.467C72.9613 238.467 73.6836 238.697 74.2168 239.157C74.7546 239.613 75.0234 240.256 75.0234 241.085V244.291C75.028 244.993 75.126 245.524 75.3174 245.884V246H73.3213ZM71.6875 244.626C71.9792 244.626 72.248 244.562 72.4941 244.435C72.7402 244.302 72.9225 244.127 73.041 243.908V242.637H72.3027C71.3138 242.637 70.7874 242.979 70.7236 243.662L70.7168 243.778C70.7168 244.024 70.8034 244.227 70.9766 244.387C71.1497 244.546 71.3867 244.626 71.6875 244.626ZM84.9834 237.031C84.5915 236.986 84.2269 236.963 83.8896 236.963C82.9964 236.963 82.5498 237.343 82.5498 238.104V238.604H84.0195V240.053H82.5498V246H80.5674V240.053H79.4668V238.604H80.5674V238.029C80.5765 237.173 80.8454 236.514 81.374 236.054C81.9027 235.589 82.6501 235.356 83.6162 235.356C84.3044 235.356 85.4209 235.429 86.9658 235.575V246H84.9834V237.031ZM88.3057 242.233C88.3057 241.5 88.4469 240.846 88.7295 240.271C89.012 239.697 89.4176 239.253 89.9463 238.938C90.4795 238.624 91.097 238.467 91.7988 238.467C92.7969 238.467 93.6104 238.772 94.2393 239.383C94.8727 239.993 95.2259 240.823 95.2988 241.871L95.3125 242.377C95.3125 243.512 94.9958 244.423 94.3623 245.111C93.7288 245.795 92.8789 246.137 91.8125 246.137C90.7461 246.137 89.8939 245.795 89.2559 245.111C88.6224 244.428 88.3057 243.498 88.3057 242.322V242.233ZM90.2812 242.377C90.2812 243.079 90.4134 243.617 90.6777 243.99C90.9421 244.359 91.3203 244.544 91.8125 244.544C92.291 244.544 92.6647 244.362 92.9336 243.997C93.2025 243.628 93.3369 243.04 93.3369 242.233C93.3369 241.545 93.2025 241.012 92.9336 240.634C92.6647 240.256 92.2865 240.066 91.7988 240.066C91.3158 240.066 90.9421 240.256 90.6777 240.634C90.4134 241.007 90.2812 241.589 90.2812 242.377ZM102.962 243.313L103.933 238.604H105.84L103.953 246H102.299L100.897 241.345L99.4961 246H97.8486L95.9619 238.604H97.8691L98.833 243.307L100.187 238.604H101.615L102.962 243.313Z" fill="black"/>
<path d="M44 278.5L35 283.263V273.737L44 278.5Z" fill="#D34735"/>
<path d="M5 279H35" stroke="#D34735" stroke-width="3" stroke-dasharray="8 8"/>
<path d="M69.0596 271.685C68.9821 272.756 68.5856 273.599 67.8701 274.214C67.1592 274.829 66.2204 275.137 65.0537 275.137C63.7777 275.137 62.7728 274.708 62.0391 273.852C61.3099 272.99 60.9453 271.81 60.9453 270.311V269.702C60.9453 268.745 61.1139 267.902 61.4512 267.173C61.7884 266.444 62.2692 265.885 62.8936 265.498C63.5225 265.106 64.2516 264.91 65.0811 264.91C66.2295 264.91 67.1546 265.218 67.8564 265.833C68.5583 266.448 68.9639 267.312 69.0732 268.424H67.0225C66.9723 267.781 66.7923 267.316 66.4824 267.029C66.1771 266.738 65.71 266.592 65.0811 266.592C64.3975 266.592 63.8848 266.838 63.543 267.33C63.2057 267.818 63.0326 268.576 63.0234 269.606V270.358C63.0234 271.434 63.1852 272.22 63.5088 272.717C63.8369 273.214 64.3519 273.462 65.0537 273.462C65.6872 273.462 66.1589 273.318 66.4688 273.031C66.7832 272.74 66.9632 272.291 67.0088 271.685H69.0596ZM69.9688 271.233C69.9688 270.5 70.11 269.846 70.3926 269.271C70.6751 268.697 71.0807 268.253 71.6094 267.938C72.1426 267.624 72.7601 267.467 73.4619 267.467C74.46 267.467 75.2734 267.772 75.9023 268.383C76.5358 268.993 76.889 269.823 76.9619 270.871L76.9756 271.377C76.9756 272.512 76.6589 273.423 76.0254 274.111C75.3919 274.795 74.542 275.137 73.4756 275.137C72.4092 275.137 71.557 274.795 70.9189 274.111C70.2855 273.428 69.9688 272.498 69.9688 271.322V271.233ZM71.9443 271.377C71.9443 272.079 72.0765 272.617 72.3408 272.99C72.6051 273.359 72.9834 273.544 73.4756 273.544C73.9541 273.544 74.3278 273.362 74.5967 272.997C74.8656 272.628 75 272.04 75 271.233C75 270.545 74.8656 270.012 74.5967 269.634C74.3278 269.256 73.9495 269.066 73.4619 269.066C72.9788 269.066 72.6051 269.256 72.3408 269.634C72.0765 270.007 71.9443 270.589 71.9443 271.377ZM80.0107 267.604L80.0723 268.458C80.6009 267.797 81.3096 267.467 82.1982 267.467C82.9821 267.467 83.5654 267.697 83.9482 268.157C84.3311 268.618 84.527 269.306 84.5361 270.222V275H82.5605V270.27C82.5605 269.85 82.4694 269.547 82.2871 269.36C82.1048 269.169 81.8018 269.073 81.3779 269.073C80.8219 269.073 80.4049 269.31 80.127 269.784V275H78.1514V267.604H80.0107ZM88.4053 265.785V267.604H89.6699V269.053H88.4053V272.744C88.4053 273.018 88.4577 273.214 88.5625 273.332C88.6673 273.451 88.8678 273.51 89.1641 273.51C89.3828 273.51 89.5765 273.494 89.7451 273.462V274.959C89.3577 275.077 88.959 275.137 88.5488 275.137C87.1634 275.137 86.457 274.437 86.4297 273.038V269.053H85.3496V267.604H86.4297V265.785H88.4053ZM94.9268 269.456C94.6579 269.42 94.4209 269.401 94.2158 269.401C93.4684 269.401 92.9785 269.654 92.7461 270.16V275H90.7705V267.604H92.6367L92.6914 268.485C93.0879 267.806 93.637 267.467 94.3389 267.467C94.5576 267.467 94.7627 267.496 94.9541 267.556L94.9268 269.456ZM95.3301 271.233C95.3301 270.5 95.4714 269.846 95.7539 269.271C96.0365 268.697 96.4421 268.253 96.9707 267.938C97.5039 267.624 98.1214 267.467 98.8232 267.467C99.8213 267.467 100.635 267.772 101.264 268.383C101.897 268.993 102.25 269.823 102.323 270.871L102.337 271.377C102.337 272.512 102.02 273.423 101.387 274.111C100.753 274.795 99.9033 275.137 98.8369 275.137C97.7705 275.137 96.9183 274.795 96.2803 274.111C95.6468 273.428 95.3301 272.498 95.3301 271.322V271.233ZM97.3057 271.377C97.3057 272.079 97.4378 272.617 97.7021 272.99C97.9665 273.359 98.3447 273.544 98.8369 273.544C99.3154 273.544 99.6891 273.362 99.958 272.997C100.227 272.628 100.361 272.04 100.361 271.233C100.361 270.545 100.227 270.012 99.958 269.634C99.6891 269.256 99.3109 269.066 98.8232 269.066C98.3402 269.066 97.9665 269.256 97.7021 269.634C97.4378 270.007 97.3057 270.589 97.3057 271.377ZM105.639 275H103.656V264.5H105.639V275ZM114.744 269.429H117.212V271.213H114.744V274.002H112.864V271.213H110.39V269.429H112.864V266.756H114.744V269.429ZM56.1875 283.604L56.249 284.431C56.7731 283.788 57.4818 283.467 58.375 283.467C59.3275 283.467 59.9814 283.843 60.3369 284.595C60.8564 283.843 61.597 283.467 62.5586 283.467C63.3607 283.467 63.9577 283.701 64.3496 284.171C64.7415 284.636 64.9375 285.338 64.9375 286.276V291H62.9551V286.283C62.9551 285.864 62.873 285.559 62.709 285.367C62.5449 285.171 62.2555 285.073 61.8408 285.073C61.2484 285.073 60.8382 285.356 60.6104 285.921L60.6172 291H58.6416V286.29C58.6416 285.862 58.5573 285.552 58.3887 285.36C58.2201 285.169 57.9329 285.073 57.5273 285.073C56.9668 285.073 56.5612 285.306 56.3105 285.771V291H54.335V283.604H56.1875ZM69.8662 291.137C68.7816 291.137 67.8975 290.804 67.2139 290.139C66.5348 289.473 66.1953 288.587 66.1953 287.479V287.288C66.1953 286.545 66.3389 285.882 66.626 285.299C66.9131 284.711 67.3187 284.26 67.8428 283.945C68.3714 283.626 68.973 283.467 69.6475 283.467C70.6592 283.467 71.4544 283.786 72.0332 284.424C72.6165 285.062 72.9082 285.966 72.9082 287.138V287.944H68.1982C68.262 288.427 68.4535 288.815 68.7725 289.106C69.096 289.398 69.5039 289.544 69.9961 289.544C70.7572 289.544 71.3519 289.268 71.7803 288.717L72.751 289.804C72.4548 290.223 72.0537 290.551 71.5479 290.788C71.042 291.021 70.4814 291.137 69.8662 291.137ZM69.6406 285.066C69.2487 285.066 68.9297 285.199 68.6836 285.463C68.4421 285.727 68.2871 286.105 68.2188 286.598H70.9668V286.44C70.9577 286.003 70.8392 285.666 70.6113 285.429C70.3835 285.187 70.0599 285.066 69.6406 285.066ZM76.4014 281.785V283.604H77.666V285.053H76.4014V288.744C76.4014 289.018 76.4538 289.214 76.5586 289.332C76.6634 289.451 76.8639 289.51 77.1602 289.51C77.3789 289.51 77.5726 289.494 77.7412 289.462V290.959C77.3538 291.077 76.9551 291.137 76.5449 291.137C75.1595 291.137 74.4531 290.437 74.4258 289.038V285.053H73.3457V283.604H74.4258V281.785H76.4014ZM82.9229 285.456C82.654 285.42 82.417 285.401 82.2119 285.401C81.4645 285.401 80.9746 285.654 80.7422 286.16V291H78.7666V283.604H80.6328L80.6875 284.485C81.084 283.806 81.6331 283.467 82.335 283.467C82.5537 283.467 82.7588 283.496 82.9502 283.556L82.9229 285.456ZM85.9648 291H83.9824V283.604H85.9648V291ZM83.8662 281.689C83.8662 281.393 83.9642 281.149 84.1602 280.958C84.3607 280.767 84.6318 280.671 84.9736 280.671C85.3109 280.671 85.5798 280.767 85.7803 280.958C85.9808 281.149 86.0811 281.393 86.0811 281.689C86.0811 281.99 85.9785 282.236 85.7734 282.428C85.5729 282.619 85.3063 282.715 84.9736 282.715C84.641 282.715 84.3721 282.619 84.167 282.428C83.9665 282.236 83.8662 281.99 83.8662 281.689ZM90.6748 289.544C91.0394 289.544 91.3356 289.444 91.5635 289.243C91.7913 289.043 91.9098 288.776 91.9189 288.443H93.7715C93.7669 288.945 93.6302 289.405 93.3613 289.824C93.0924 290.239 92.7233 290.562 92.2539 290.795C91.7891 291.023 91.2741 291.137 90.709 291.137C89.6517 291.137 88.8177 290.802 88.207 290.132C87.5964 289.457 87.291 288.528 87.291 287.343V287.213C87.291 286.074 87.5941 285.164 88.2002 284.485C88.8063 283.806 89.638 283.467 90.6953 283.467C91.6204 283.467 92.361 283.731 92.917 284.26C93.4775 284.784 93.7624 285.483 93.7715 286.358H91.9189C91.9098 285.976 91.7913 285.666 91.5635 285.429C91.3356 285.187 91.0348 285.066 90.6611 285.066C90.2008 285.066 89.8522 285.235 89.6152 285.572C89.3828 285.905 89.2666 286.447 89.2666 287.199V287.404C89.2666 288.165 89.3828 288.712 89.6152 289.045C89.8477 289.378 90.2008 289.544 90.6748 289.544ZM103.342 282.031C102.95 281.986 102.585 281.963 102.248 281.963C101.355 281.963 100.908 282.343 100.908 283.104V283.604H102.378V285.053H100.908V291H98.9258V285.053H97.8252V283.604H98.9258V283.029C98.9349 282.173 99.2038 281.514 99.7324 281.054C100.261 280.589 101.008 280.356 101.975 280.356C102.663 280.356 103.779 280.429 105.324 280.575V291H103.342V282.031ZM106.664 287.233C106.664 286.5 106.805 285.846 107.088 285.271C107.37 284.697 107.776 284.253 108.305 283.938C108.838 283.624 109.455 283.467 110.157 283.467C111.155 283.467 111.969 283.772 112.598 284.383C113.231 284.993 113.584 285.823 113.657 286.871L113.671 287.377C113.671 288.512 113.354 289.423 112.721 290.111C112.087 290.795 111.237 291.137 110.171 291.137C109.104 291.137 108.252 290.795 107.614 290.111C106.981 289.428 106.664 288.498 106.664 287.322V287.233ZM108.64 287.377C108.64 288.079 108.772 288.617 109.036 288.99C109.3 289.359 109.679 289.544 110.171 289.544C110.649 289.544 111.023 289.362 111.292 288.997C111.561 288.628 111.695 288.04 111.695 287.233C111.695 286.545 111.561 286.012 111.292 285.634C111.023 285.256 110.645 285.066 110.157 285.066C109.674 285.066 109.3 285.256 109.036 285.634C108.772 286.007 108.64 286.589 108.64 287.377ZM121.32 288.313L122.291 283.604H124.198L122.312 291H120.657L119.256 286.345L117.854 291H116.207L114.32 283.604H116.228L117.191 288.307L118.545 283.604H119.974L121.32 288.313Z" fill="black"/>
</svg>
