<svg width="640" height="256" viewBox="0 0 640 256" fill="none" xmlns="http://www.w3.org/2000/svg">
<g clip-path="url(#clip0)">
<path d="M419.841 6.71838L409.74 10.6823L416.759 17.1228L419.841 6.71838Z" fill="#D34735"/>
<rect x="99" y="5" width="8.60331" height="10.8356" fill="#FEF9E2" stroke="#E7CD7C" stroke-width="2"/>
<path d="M100.232 13.4872H103.581" stroke="#808080" stroke-width="1.2"/>
<path d="M100.232 10.6968H106.371" stroke="#545454" stroke-width="1.2"/>
<path d="M100.232 7.90648H106.371" stroke="#545454" stroke-width="1.2"/>
<path d="M105.615 15.7846L103.942 14.6231L102.328 17.1718L103.685 16.8189L104.001 18.3334L105.615 15.7846Z" fill="#C6142F" stroke="#AB1D33"/>
<path d="M105.619 15.8758L107.388 14.9092L108.763 17.6272L107.445 17.1228L106.993 18.5938L105.619 15.8758Z" fill="#C6142F" stroke="#AB1D33"/>
<path d="M107.202 14.1456C107.202 15.2372 106.519 15.8782 105.945 15.8782C105.371 15.8782 104.687 15.2372 104.687 14.1456C104.687 13.054 105.371 12.413 105.945 12.413C106.519 12.413 107.202 13.054 107.202 14.1456Z" stroke="#C6142F" stroke-width="1.2"/>
<rect x="246" y="2" width="8.60331" height="10.8356" fill="#FEF9E2" stroke="#E7CD7C" stroke-width="2"/>
<path d="M247.232 10.4872H250.581" stroke="#808080" stroke-width="1.2"/>
<path d="M247.232 7.69682H253.371" stroke="#545454" stroke-width="1.2"/>
<path d="M247.232 4.90648H253.371" stroke="#545454" stroke-width="1.2"/>
<path d="M252.615 12.7846L250.942 11.6231L249.328 14.1718L250.685 13.8189L251.001 15.3334L252.615 12.7846Z" fill="#C6142F" stroke="#AB1D33"/>
<path d="M252.619 12.8758L254.388 11.9092L255.763 14.6272L254.445 14.1228L253.993 15.5938L252.619 12.8758Z" fill="#C6142F" stroke="#AB1D33"/>
<path d="M254.202 11.1456C254.202 12.2372 253.519 12.8782 252.945 12.8782C252.371 12.8782 251.687 12.2372 251.687 11.1456C251.687 10.054 252.371 9.41296 252.945 9.41296C253.519 9.41296 254.202 10.054 254.202 11.1456Z" stroke="#C6142F" stroke-width="1.2"/>
<rect x="377" y="5" width="8.60331" height="10.8356" fill="#FEF9E2" stroke="#E7CD7C" stroke-width="2"/>
<path d="M378.232 13.4872H381.581" stroke="#808080" stroke-width="1.2"/>
<path d="M378.232 10.6968H384.371" stroke="#545454" stroke-width="1.2"/>
<path d="M378.232 7.90648H384.371" stroke="#545454" stroke-width="1.2"/>
<path d="M383.615 15.7846L381.942 14.6231L380.328 17.1718L381.685 16.8189L382.001 18.3334L383.615 15.7846Z" fill="#C6142F" stroke="#AB1D33"/>
<path d="M383.619 15.8758L385.388 14.9092L386.763 17.6272L385.445 17.1228L384.993 18.5938L383.619 15.8758Z" fill="#C6142F" stroke="#AB1D33"/>
<path d="M385.202 14.1456C385.202 15.2372 384.519 15.8782 383.945 15.8782C383.371 15.8782 382.687 15.2372 382.687 14.1456C382.687 13.054 383.371 12.413 383.945 12.413C384.519 12.413 385.202 13.054 385.202 14.1456Z" stroke="#C6142F" stroke-width="1.2"/>
<rect x="537" y="1" width="8.60331" height="10.8356" fill="#FEF9E2" stroke="#E7CD7C" stroke-width="2"/>
<path d="M538.232 9.48718H541.581" stroke="#808080" stroke-width="1.2"/>
<path d="M538.232 6.69682H544.371" stroke="#545454" stroke-width="1.2"/>
<path d="M538.232 3.90648H544.371" stroke="#545454" stroke-width="1.2"/>
<path d="M543.615 11.7846L541.942 10.6231L540.328 13.1718L541.685 12.8189L542.001 14.3334L543.615 11.7846Z" fill="#C6142F" stroke="#AB1D33"/>
<path d="M543.619 11.8758L545.388 10.9092L546.763 13.6272L545.445 13.1228L544.993 14.5938L543.619 11.8758Z" fill="#C6142F" stroke="#AB1D33"/>
<path d="M545.202 10.1456C545.202 11.2372 544.519 11.8782 543.945 11.8782C543.371 11.8782 542.687 11.2372 542.687 10.1456C542.687 9.05401 543.371 8.41296 543.945 8.41296C544.519 8.41296 545.202 9.05401 545.202 10.1456Z" stroke="#C6142F" stroke-width="1.2"/>
<g filter="url(#filter0_d)">
<rect x="271" y="115.812" width="101" height="51.1875" rx="8" fill="white"/>
<rect x="271.5" y="116.312" width="100" height="50.1875" rx="7.5" stroke="black"/>
</g>
<path d="M322.054 142.685C321.976 143.756 321.58 144.599 320.864 145.214C320.153 145.829 319.215 146.137 318.048 146.137C316.772 146.137 315.767 145.708 315.033 144.852C314.304 143.99 313.939 142.81 313.939 141.311V140.702C313.939 139.745 314.108 138.902 314.445 138.173C314.783 137.444 315.263 136.885 315.888 136.498C316.517 136.106 317.246 135.91 318.075 135.91C319.224 135.91 320.149 136.218 320.851 136.833C321.552 137.448 321.958 138.312 322.067 139.424H320.017C319.966 138.781 319.786 138.316 319.477 138.029C319.171 137.738 318.704 137.592 318.075 137.592C317.392 137.592 316.879 137.838 316.537 138.33C316.2 138.818 316.027 139.576 316.018 140.606V141.358C316.018 142.434 316.179 143.22 316.503 143.717C316.831 144.214 317.346 144.462 318.048 144.462C318.681 144.462 319.153 144.318 319.463 144.031C319.777 143.74 319.957 143.291 320.003 142.685H322.054ZM325.355 146H323.373V138.604H325.355V146ZM323.257 136.689C323.257 136.393 323.355 136.149 323.551 135.958C323.751 135.767 324.022 135.671 324.364 135.671C324.701 135.671 324.97 135.767 325.171 135.958C325.371 136.149 325.472 136.393 325.472 136.689C325.472 136.99 325.369 137.236 325.164 137.428C324.964 137.619 324.697 137.715 324.364 137.715C324.032 137.715 323.763 137.619 323.558 137.428C323.357 137.236 323.257 136.99 323.257 136.689ZM329.354 136.785V138.604H330.619V140.053H329.354V143.744C329.354 144.018 329.407 144.214 329.512 144.332C329.617 144.451 329.817 144.51 330.113 144.51C330.332 144.51 330.526 144.494 330.694 144.462V145.959C330.307 146.077 329.908 146.137 329.498 146.137C328.113 146.137 327.406 145.437 327.379 144.038V140.053H326.299V138.604H327.379V136.785H329.354ZM336.006 146C335.915 145.822 335.849 145.601 335.808 145.337C335.329 145.87 334.707 146.137 333.941 146.137C333.217 146.137 332.615 145.927 332.137 145.508C331.663 145.089 331.426 144.56 331.426 143.922C331.426 143.138 331.715 142.536 332.294 142.117C332.877 141.698 333.718 141.486 334.816 141.481H335.726V141.058C335.726 140.716 335.637 140.442 335.459 140.237C335.286 140.032 335.01 139.93 334.632 139.93C334.299 139.93 334.037 140.009 333.846 140.169C333.659 140.328 333.565 140.547 333.565 140.825H331.59C331.59 140.397 331.722 140 331.986 139.636C332.251 139.271 332.624 138.986 333.107 138.781C333.59 138.572 334.133 138.467 334.734 138.467C335.646 138.467 336.368 138.697 336.901 139.157C337.439 139.613 337.708 140.256 337.708 141.085V144.291C337.713 144.993 337.811 145.524 338.002 145.884V146H336.006ZM334.372 144.626C334.664 144.626 334.933 144.562 335.179 144.435C335.425 144.302 335.607 144.127 335.726 143.908V142.637H334.987C333.998 142.637 333.472 142.979 333.408 143.662L333.401 143.778C333.401 144.024 333.488 144.227 333.661 144.387C333.834 144.546 334.071 144.626 334.372 144.626ZM338.918 142.247C338.918 141.094 339.175 140.176 339.69 139.492C340.21 138.809 340.919 138.467 341.816 138.467C342.536 138.467 343.131 138.736 343.601 139.273V135.5H345.583V146H343.799L343.703 145.214C343.211 145.829 342.577 146.137 341.803 146.137C340.932 146.137 340.233 145.795 339.704 145.111C339.18 144.423 338.918 143.468 338.918 142.247ZM340.894 142.391C340.894 143.083 341.014 143.614 341.256 143.983C341.497 144.353 341.848 144.537 342.309 144.537C342.919 144.537 343.35 144.28 343.601 143.765V140.846C343.354 140.331 342.928 140.073 342.322 140.073C341.37 140.073 340.894 140.846 340.894 142.391ZM350.519 146.137C349.434 146.137 348.55 145.804 347.866 145.139C347.187 144.473 346.848 143.587 346.848 142.479V142.288C346.848 141.545 346.991 140.882 347.278 140.299C347.565 139.711 347.971 139.26 348.495 138.945C349.024 138.626 349.625 138.467 350.3 138.467C351.312 138.467 352.107 138.786 352.686 139.424C353.269 140.062 353.561 140.966 353.561 142.138V142.944H348.851C348.914 143.427 349.106 143.815 349.425 144.106C349.748 144.398 350.156 144.544 350.648 144.544C351.41 144.544 352.004 144.268 352.433 143.717L353.403 144.804C353.107 145.223 352.706 145.551 352.2 145.788C351.694 146.021 351.134 146.137 350.519 146.137ZM350.293 140.066C349.901 140.066 349.582 140.199 349.336 140.463C349.094 140.727 348.939 141.105 348.871 141.598H351.619V141.44C351.61 141.003 351.492 140.666 351.264 140.429C351.036 140.187 350.712 140.066 350.293 140.066ZM356.773 146H354.791V135.5H356.773V146Z" fill="black"/>
<path d="M290.725 130.438H284.881C282.742 130.438 280.765 131.576 279.691 133.425L276.934 138.175C275.847 140.049 275.854 142.363 276.953 144.231L279.686 148.874C280.764 150.706 282.731 151.83 284.856 151.83H290.75C292.864 151.83 294.822 150.718 295.904 148.901L298.671 144.258C299.791 142.377 299.798 140.035 298.689 138.147L295.899 133.398C294.821 131.564 292.853 130.438 290.725 130.438Z" fill="#466BB0" stroke="white"/>
<g filter="url(#filter1_d)">
<path d="M282.064 146.535H293.669L286.416 148.653L282.064 146.535Z" fill="white"/>
</g>
<g filter="url(#filter2_d)">
<path d="M282.064 145.829L286.416 145.123V137.357L282.064 145.829Z" fill="white"/>
</g>
<g filter="url(#filter3_d)">
<path d="M287.142 145.123L293.669 145.829L287.142 131.708V145.123Z" fill="white"/>
</g>
<g filter="url(#filter4_d)">
<rect x="301" y="168" width="37" height="85" fill="white"/>
<rect x="301.5" y="168.5" width="36" height="84" stroke="#C4C4C4"/>
</g>
<path d="M320.113 232.406C321.184 232.493 322.023 232.898 322.631 233.619C323.24 234.336 323.538 235.278 323.527 236.444C323.515 237.72 323.077 238.721 322.213 239.447C321.345 240.167 320.161 240.521 318.662 240.506L318.053 240.5C317.096 240.491 316.255 240.314 315.529 239.97C314.803 239.626 314.249 239.14 313.868 238.512C313.482 237.879 313.293 237.148 313.301 236.319C313.312 235.17 313.629 234.248 314.251 233.552C314.873 232.857 315.74 232.459 316.853 232.361L316.833 234.411C316.19 234.455 315.724 234.631 315.434 234.938C315.139 235.24 314.989 235.706 314.983 236.335C314.976 237.019 315.217 237.534 315.706 237.88C316.191 238.222 316.948 238.402 317.977 238.421L318.729 238.429C319.805 238.439 320.593 238.285 321.092 237.966C321.592 237.643 321.846 237.13 321.852 236.428C321.858 235.795 321.719 235.322 321.435 235.009C321.147 234.692 320.699 234.508 320.094 234.456L320.113 232.406ZM321.445 225.452L321.41 229.048L323.455 229.751L323.434 231.932L313.516 228.131L313.535 226.231L323.523 222.601L323.502 224.781L321.445 225.452ZM319.755 228.478L319.779 225.99L316.041 227.205L319.755 228.478ZM320.079 216.101L323.585 216.134L323.566 218.185L313.613 218.09L313.65 214.207C313.657 213.46 313.8 212.805 314.079 212.242C314.358 211.675 314.752 211.241 315.261 210.941C315.765 210.64 316.338 210.493 316.981 210.499C317.956 210.509 318.723 210.851 319.282 211.526C319.836 212.197 320.107 213.123 320.096 214.303L320.079 216.101ZM318.417 216.085L318.435 214.253C318.44 213.711 318.317 213.297 318.064 213.012C317.812 212.722 317.449 212.575 316.975 212.571C316.487 212.566 316.091 212.706 315.788 212.99C315.484 213.274 315.326 213.669 315.312 214.175L315.294 216.055L318.417 216.085ZM323.671 207.193L323.652 209.176L313.153 209.075L313.172 207.093L323.671 207.193ZM322.977 201.123C323.565 201.616 323.855 202.294 323.847 203.155C323.839 203.948 323.605 204.552 323.146 204.967C322.686 205.377 322.016 205.582 321.137 205.583L316.29 205.537L316.309 203.561L321.087 203.607C321.857 203.614 322.246 203.267 322.253 202.565C322.259 201.895 322.031 201.433 321.569 201.178L316.332 201.128L316.351 199.145L323.748 199.216L323.73 201.076L322.977 201.123ZM320.006 197.977C318.872 197.966 317.961 197.689 317.273 197.144C316.586 196.595 316.246 195.863 316.255 194.947C316.263 194.136 316.547 193.507 317.107 193.061L316.411 192.973L316.428 191.182L323.578 191.25C324.225 191.257 324.786 191.41 325.262 191.711C325.738 192.007 326.098 192.423 326.344 192.959C326.589 193.494 326.709 194.12 326.702 194.835C326.697 195.377 326.582 195.905 326.359 196.418C326.139 196.931 325.858 197.318 325.513 197.579L324.319 196.692C324.875 196.205 325.156 195.611 325.163 194.909C325.168 194.385 325.031 193.976 324.751 193.682C324.476 193.387 324.081 193.238 323.566 193.233L323.169 193.229C323.68 193.69 323.932 194.291 323.924 195.034C323.916 195.923 323.563 196.639 322.865 197.184C322.162 197.724 321.237 197.989 320.088 197.978L320.006 197.977ZM320.169 196.003C320.839 196.009 321.366 195.88 321.752 195.615C322.133 195.35 322.325 194.982 322.33 194.513C322.336 193.911 322.114 193.479 321.665 193.215L318.555 193.185C318.102 193.445 317.872 193.869 317.866 194.456C317.862 194.93 318.052 195.306 318.437 195.583C318.821 195.856 319.399 195.996 320.169 196.003ZM323.859 187.644L323.84 189.626L316.444 189.555L316.463 187.573L323.859 187.644ZM314.528 189.653C314.232 189.65 313.989 189.55 313.8 189.352C313.61 189.149 313.517 188.877 313.521 188.536C313.524 188.198 313.622 187.93 313.815 187.732C314.009 187.533 314.254 187.435 314.55 187.438C314.85 187.441 315.096 187.546 315.285 187.753C315.474 187.955 315.568 188.222 315.564 188.555C315.561 188.888 315.463 189.156 315.27 189.359C315.076 189.558 314.829 189.656 314.528 189.653ZM316.496 184.121L317.351 184.067C316.695 183.532 316.371 182.82 316.38 181.932C316.388 181.148 316.623 180.567 317.087 180.189C317.551 179.81 318.241 179.621 319.157 179.62L323.935 179.666L323.916 181.642L319.186 181.596C318.767 181.592 318.463 181.681 318.274 181.861C318.081 182.042 317.983 182.344 317.978 182.768C317.973 183.323 318.206 183.743 318.677 184.025L323.893 184.075L323.874 186.051L316.478 185.98L316.496 184.121Z" fill="#555555"/>
<path d="M321 114L220 14" stroke="#D34735" stroke-width="2" stroke-dasharray="8 8"/>
<path d="M321 114L414 13" stroke="#D34735" stroke-width="2" stroke-dasharray="8 8"/>
<path d="M214.053 7.71838L224.154 11.6823L217.135 18.1228L214.053 7.71838Z" fill="#D34735"/>
</g>
<defs>
<filter id="filter0_d" x="267" y="115.812" width="109" height="59.1875" filterUnits="userSpaceOnUse" color-interpolation-filters="sRGB">
<feFlood flood-opacity="0" result="BackgroundImageFix"/>
<feColorMatrix in="SourceAlpha" type="matrix" values="0 0 0 0 0 0 0 0 0 0 0 0 0 0 0 0 0 0 127 0"/>
<feOffset dy="4"/>
<feGaussianBlur stdDeviation="2"/>
<feColorMatrix type="matrix" values="0 0 0 0 0 0 0 0 0 0 0 0 0 0 0 0 0 0 0.25 0"/>
<feBlend mode="normal" in2="BackgroundImageFix" result="effect1_dropShadow"/>
<feBlend mode="normal" in="SourceGraphic" in2="effect1_dropShadow" result="shape"/>
</filter>
<filter id="filter1_d" x="282.064" y="134.535" width="51.6053" height="34.1181" filterUnits="userSpaceOnUse" color-interpolation-filters="sRGB">
<feFlood flood-opacity="0" result="BackgroundImageFix"/>
<feColorMatrix in="SourceAlpha" type="matrix" values="0 0 0 0 0 0 0 0 0 0 0 0 0 0 0 0 0 0 127 0"/>
<feOffset dx="24" dy="4"/>
<feGaussianBlur stdDeviation="8"/>
<feColorMatrix type="matrix" values="0 0 0 0 0.135371 0 0 0 0 0.135371 0 0 0 0 0.135371 0 0 0 0.25 0"/>
<feBlend mode="normal" in2="BackgroundImageFix" result="effect1_dropShadow"/>
<feBlend mode="normal" in="SourceGraphic" in2="effect1_dropShadow" result="shape"/>
</filter>
<filter id="filter2_d" x="282.064" y="125.357" width="44.352" height="40.4724" filterUnits="userSpaceOnUse" color-interpolation-filters="sRGB">
<feFlood flood-opacity="0" result="BackgroundImageFix"/>
<feColorMatrix in="SourceAlpha" type="matrix" values="0 0 0 0 0 0 0 0 0 0 0 0 0 0 0 0 0 0 127 0"/>
<feOffset dx="24" dy="4"/>
<feGaussianBlur stdDeviation="8"/>
<feColorMatrix type="matrix" values="0 0 0 0 0.135371 0 0 0 0 0.135371 0 0 0 0 0.135371 0 0 0 0.25 0"/>
<feBlend mode="normal" in2="BackgroundImageFix" result="effect1_dropShadow"/>
<feBlend mode="normal" in="SourceGraphic" in2="effect1_dropShadow" result="shape"/>
</filter>
<filter id="filter3_d" x="287.142" y="119.708" width="46.528" height="46.1206" filterUnits="userSpaceOnUse" color-interpolation-filters="sRGB">
<feFlood flood-opacity="0" result="BackgroundImageFix"/>
<feColorMatrix in="SourceAlpha" type="matrix" values="0 0 0 0 0 0 0 0 0 0 0 0 0 0 0 0 0 0 127 0"/>
<feOffset dx="24" dy="4"/>
<feGaussianBlur stdDeviation="8"/>
<feColorMatrix type="matrix" values="0 0 0 0 0.135371 0 0 0 0 0.135371 0 0 0 0 0.135371 0 0 0 0.25 0"/>
<feBlend mode="normal" in2="BackgroundImageFix" result="effect1_dropShadow"/>
<feBlend mode="normal" in="SourceGraphic" in2="effect1_dropShadow" result="shape"/>
</filter>
<filter id="filter4_d" x="297" y="168" width="45" height="93" filterUnits="userSpaceOnUse" color-interpolation-filters="sRGB">
<feFlood flood-opacity="0" result="BackgroundImageFix"/>
<feColorMatrix in="SourceAlpha" type="matrix" values="0 0 0 0 0 0 0 0 0 0 0 0 0 0 0 0 0 0 127 0"/>
<feOffset dy="4"/>
<feGaussianBlur stdDeviation="2"/>
<feColorMatrix type="matrix" values="0 0 0 0 0 0 0 0 0 0 0 0 0 0 0 0 0 0 0.25 0"/>
<feBlend mode="normal" in2="BackgroundImageFix" result="effect1_dropShadow"/>
<feBlend mode="normal" in="SourceGraphic" in2="effect1_dropShadow" result="shape"/>
</filter>
<clipPath id="clip0">
<rect width="640" height="256" fill="white"/>
</clipPath>
</defs>
</svg>
