<svg width="640" height="169" viewBox="0 0 640 169" fill="none" xmlns="http://www.w3.org/2000/svg">
<path d="M63.0001 45.5C65.5001 44.4748 67.5 43 67.5 43C67.5 43 70.0001 45 72.5001 46C75.0001 47 77.5 46.9999 77.5 46.9999C77.5 46.9999 77.5 54 75.5 60C73.4999 66 68.0001 68.5 68.0001 68.5C66.9854 69.7631 62.0002 65.5 59.5001 60C57 54.5 57 46.9999 57 46.9999C57 46.9999 60.0001 46.7302 63.0001 45.5Z" fill="#5DB946" stroke="#4F9142"/>
<path d="M63.3793 61.5V54.6035H72V61.5H63.3793Z" fill="#F6CD5B" stroke="#EABE4D"/>
<path d="M65.5345 54.1724C65.5345 54.1724 65.5345 52.0172 65.5345 50.7241C65.5345 49.431 66.6118 49 67.6897 49C68.7675 49 69.8448 49.431 69.8448 50.7241C69.8448 52.0172 69.8448 54.1724 69.8448 54.1724" stroke="#D3E8CE" stroke-width="2"/>
<circle cx="67.6896" cy="57.1896" r="0.862069" fill="black"/>
<path d="M67.6896 59.7759V57.1897" stroke="black"/>
<path d="M67 5V39" stroke="#466BB0" stroke-width="2"/>
<path d="M67 72L67 96" stroke="#466BB0" stroke-width="2"/>
<path d="M67 101L63.5359 94.25H70.4641L67 101Z" fill="#466BB0"/>
<path d="M575.5 0.5L578.964 7.25L572.036 7.25L575.5 0.5Z" fill="#466BB0"/>
<path d="M575.5 98.5V5" stroke="#466BB0" stroke-width="2"/>
<path d="M137 127.5C139.5 126.475 141.5 125 141.5 125C141.5 125 144 127 146.5 128C149 129 151.5 129 151.5 129C151.5 129 151.5 136 149.5 142C147.5 148 142 150.5 142 150.5C140.985 151.763 136 147.5 133.5 142C131 136.5 131 129 131 129C131 129 134 128.73 137 127.5Z" fill="#5DB946" stroke="#4F9142"/>
<path d="M137.379 143.5V136.603H146V143.5H137.379Z" fill="#F6CD5B" stroke="#EABE4D"/>
<path d="M139.534 136.172C139.534 136.172 139.534 134.017 139.534 132.724C139.534 131.431 140.612 131 141.69 131C142.767 131 143.845 131.431 143.845 132.724C143.845 134.017 143.845 136.172 143.845 136.172" stroke="#D3E8CE" stroke-width="2"/>
<circle cx="141.69" cy="139.19" r="0.862069" fill="black"/>
<path d="M141.69 141.776V139.19" stroke="black"/>
<path d="M190.5 137.5L183.75 140.964V134.036L190.5 137.5Z" fill="#466BB0"/>
<path d="M100 138L130 138" stroke="#466BB0" stroke-width="2"/>
<path d="M152 138L189.5 137.5" stroke="#466BB0" stroke-width="2"/>
<path d="M130.152 158.717L130.196 159.308C130.571 158.849 131.077 158.619 131.715 158.619C132.395 158.619 132.862 158.888 133.116 159.425C133.487 158.888 134.016 158.619 134.703 158.619C135.276 158.619 135.702 158.787 135.982 159.122C136.262 159.454 136.402 159.955 136.402 160.626V164H134.986V160.631C134.986 160.331 134.928 160.113 134.811 159.977C134.693 159.837 134.487 159.767 134.19 159.767C133.767 159.767 133.474 159.968 133.312 160.372L133.316 164H131.905V160.636C131.905 160.33 131.845 160.108 131.725 159.972C131.604 159.835 131.399 159.767 131.109 159.767C130.709 159.767 130.419 159.933 130.24 160.265V164H128.829V158.717H130.152ZM142.936 158.077H140.758V164H139.293V158.077H137.145V156.891H142.936V158.077ZM145.24 162.823H148.351V164H143.775V156.891H145.24V162.823ZM152.882 162.135C152.882 161.858 152.784 161.646 152.589 161.5C152.394 161.35 152.042 161.194 151.534 161.031C151.026 160.865 150.624 160.702 150.328 160.543C149.521 160.107 149.117 159.519 149.117 158.78C149.117 158.396 149.225 158.054 149.439 157.755C149.658 157.452 149.968 157.216 150.372 157.047C150.779 156.878 151.235 156.793 151.739 156.793C152.247 156.793 152.7 156.886 153.097 157.071C153.494 157.254 153.801 157.512 154.02 157.848C154.241 158.183 154.352 158.564 154.352 158.99H152.887C152.887 158.665 152.784 158.412 152.579 158.233C152.374 158.051 152.086 157.96 151.715 157.96C151.357 157.96 151.078 158.036 150.88 158.189C150.681 158.339 150.582 158.538 150.582 158.785C150.582 159.016 150.698 159.21 150.929 159.366C151.163 159.522 151.507 159.669 151.959 159.806C152.792 160.056 153.399 160.367 153.78 160.738C154.161 161.109 154.352 161.572 154.352 162.125C154.352 162.74 154.119 163.224 153.653 163.575C153.188 163.924 152.561 164.098 151.773 164.098C151.227 164.098 150.729 163.998 150.279 163.8C149.83 163.598 149.487 163.323 149.249 162.975C149.015 162.626 148.897 162.223 148.897 161.764H150.367C150.367 162.548 150.836 162.94 151.773 162.94C152.122 162.94 152.394 162.87 152.589 162.73C152.784 162.587 152.882 162.389 152.882 162.135Z" fill="black"/>
<path d="M312 126.5C314.5 125.475 316.5 124 316.5 124C316.5 124 319 126 321.5 127C324 128 326.5 128 326.5 128C326.5 128 326.5 135 324.5 141C322.5 147 317 149.5 317 149.5C315.985 150.763 311 146.5 308.5 141C306 135.5 306 128 306 128C306 128 309 127.73 312 126.5Z" fill="#5DB946" stroke="#4F9142"/>
<path d="M312.379 142.5V135.603H321V142.5H312.379Z" fill="#F6CD5B" stroke="#EABE4D"/>
<path d="M314.534 135.172C314.534 135.172 314.534 133.017 314.534 131.724C314.534 130.431 315.612 130 316.69 130C317.767 130 318.845 130.431 318.845 131.724C318.845 133.017 318.845 135.172 318.845 135.172" stroke="#D3E8CE" stroke-width="2"/>
<circle cx="316.69" cy="138.19" r="0.862069" fill="black"/>
<path d="M316.69 140.776V138.19" stroke="black"/>
<path d="M382.5 136L375.75 139.464V132.536L382.5 136Z" fill="#466BB0"/>
<path d="M250 137H305" stroke="#466BB0" stroke-width="2"/>
<path d="M328 136L382 136" stroke="#466BB0" stroke-width="2"/>
<path d="M304.152 155.717L304.196 156.308C304.571 155.849 305.077 155.619 305.715 155.619C306.395 155.619 306.862 155.888 307.116 156.425C307.487 155.888 308.016 155.619 308.703 155.619C309.276 155.619 309.702 155.787 309.982 156.122C310.262 156.454 310.402 156.955 310.402 157.626V161H308.986V157.631C308.986 157.331 308.928 157.113 308.811 156.977C308.693 156.837 308.487 156.767 308.19 156.767C307.767 156.767 307.474 156.968 307.312 157.372L307.316 161H305.905V157.636C305.905 157.33 305.845 157.108 305.725 156.972C305.604 156.835 305.399 156.767 305.109 156.767C304.709 156.767 304.419 156.933 304.24 157.265V161H302.829V155.717H304.152ZM316.936 155.077H314.758V161H313.293V155.077H311.145V153.891H316.936V155.077ZM319.24 159.823H322.351V161H317.775V153.891H319.24V159.823ZM326.882 159.135C326.882 158.858 326.784 158.646 326.589 158.5C326.394 158.35 326.042 158.194 325.534 158.031C325.026 157.865 324.624 157.702 324.328 157.543C323.521 157.107 323.117 156.519 323.117 155.78C323.117 155.396 323.225 155.054 323.439 154.755C323.658 154.452 323.968 154.216 324.372 154.047C324.779 153.878 325.235 153.793 325.739 153.793C326.247 153.793 326.7 153.886 327.097 154.071C327.494 154.254 327.801 154.512 328.02 154.848C328.241 155.183 328.352 155.564 328.352 155.99H326.887C326.887 155.665 326.784 155.412 326.579 155.233C326.374 155.051 326.086 154.96 325.715 154.96C325.357 154.96 325.078 155.036 324.88 155.189C324.681 155.339 324.582 155.538 324.582 155.785C324.582 156.016 324.698 156.21 324.929 156.366C325.163 156.522 325.507 156.669 325.959 156.806C326.792 157.056 327.399 157.367 327.78 157.738C328.161 158.109 328.352 158.572 328.352 159.125C328.352 159.74 328.119 160.224 327.653 160.575C327.188 160.924 326.561 161.098 325.773 161.098C325.227 161.098 324.729 160.998 324.279 160.8C323.83 160.598 323.487 160.323 323.249 159.975C323.015 159.626 322.897 159.223 322.897 158.764H324.367C324.367 159.548 324.836 159.94 325.773 159.94C326.122 159.94 326.394 159.87 326.589 159.73C326.784 159.587 326.882 159.389 326.882 159.135Z" fill="black"/>
<path d="M489 126.5C491.5 125.475 493.5 124 493.5 124C493.5 124 496 126 498.5 127C501 128 503.5 128 503.5 128C503.5 128 503.5 135 501.5 141C499.5 147 494 149.5 494 149.5C492.985 150.763 488 146.5 485.5 141C483 135.5 483 128 483 128C483 128 486 127.73 489 126.5Z" fill="#5DB946" stroke="#4F9142"/>
<path d="M489.379 142.5V135.603H498V142.5H489.379Z" fill="#F6CD5B" stroke="#EABE4D"/>
<path d="M491.534 135.172C491.534 135.172 491.534 133.017 491.534 131.724C491.534 130.431 492.612 130 493.69 130C494.767 130 495.845 130.431 495.845 131.724C495.845 133.017 495.845 135.172 495.845 135.172" stroke="#D3E8CE" stroke-width="2"/>
<circle cx="493.69" cy="138.19" r="0.862069" fill="black"/>
<path d="M493.69 140.776V138.19" stroke="black"/>
<path d="M543.5 136.5L536.75 139.964V133.036L543.5 136.5Z" fill="#466BB0"/>
<path d="M442 137H483" stroke="#466BB0" stroke-width="2"/>
<path d="M505 137L542.5 136.5" stroke="#466BB0" stroke-width="2"/>
<path d="M481.152 156.717L481.196 157.308C481.571 156.849 482.077 156.619 482.715 156.619C483.395 156.619 483.862 156.888 484.116 157.425C484.487 156.888 485.016 156.619 485.703 156.619C486.276 156.619 486.702 156.787 486.982 157.122C487.262 157.454 487.402 157.955 487.402 158.626V162H485.986V158.631C485.986 158.331 485.928 158.113 485.811 157.977C485.693 157.837 485.487 157.767 485.19 157.767C484.767 157.767 484.474 157.968 484.312 158.372L484.316 162H482.905V158.636C482.905 158.33 482.845 158.108 482.725 157.972C482.604 157.835 482.399 157.767 482.109 157.767C481.709 157.767 481.419 157.933 481.24 158.265V162H479.829V156.717H481.152ZM493.936 156.077H491.758V162H490.293V156.077H488.145V154.891H493.936V156.077ZM496.24 160.823H499.351V162H494.775V154.891H496.24V160.823ZM503.882 160.135C503.882 159.858 503.784 159.646 503.589 159.5C503.394 159.35 503.042 159.194 502.534 159.031C502.026 158.865 501.624 158.702 501.328 158.543C500.521 158.107 500.117 157.519 500.117 156.78C500.117 156.396 500.225 156.054 500.439 155.755C500.658 155.452 500.968 155.216 501.372 155.047C501.779 154.878 502.235 154.793 502.739 154.793C503.247 154.793 503.7 154.886 504.097 155.071C504.494 155.254 504.801 155.512 505.02 155.848C505.241 156.183 505.352 156.564 505.352 156.99H503.887C503.887 156.665 503.784 156.412 503.579 156.233C503.374 156.051 503.086 155.96 502.715 155.96C502.357 155.96 502.078 156.036 501.88 156.189C501.681 156.339 501.582 156.538 501.582 156.785C501.582 157.016 501.698 157.21 501.929 157.366C502.163 157.522 502.507 157.669 502.959 157.806C503.792 158.056 504.399 158.367 504.78 158.738C505.161 159.109 505.352 159.572 505.352 160.125C505.352 160.74 505.119 161.224 504.653 161.575C504.188 161.924 503.561 162.098 502.773 162.098C502.227 162.098 501.729 161.998 501.279 161.8C500.83 161.598 500.487 161.323 500.249 160.975C500.015 160.626 499.897 160.223 499.897 159.764H501.367C501.367 160.548 501.836 160.94 502.773 160.94C503.122 160.94 503.394 160.87 503.589 160.73C503.784 160.587 503.882 160.389 503.882 160.135Z" fill="black"/>
</svg>
