<svg width="640" height="73" viewBox="0 0 640 73" fill="none" xmlns="http://www.w3.org/2000/svg">
<g clip-path="url(#clip0)">
<g filter="url(#filter0_d)">
<rect x="24" width="91" height="74.0833" rx="17" fill="#E9E9E9"/>
</g>
<rect x="35" y="6.33333" width="73.0833" height="53.25" rx="13.5" fill="white" stroke="black"/>
<rect x="29.8333" y="11.0833" width="74.0833" height="49" rx="14" fill="white"/>
<rect x="32.6667" y="8.66666" width="73.0833" height="50.9167" rx="13.5" fill="white" stroke="black"/>
<rect x="30.3333" y="11.5833" width="73.0833" height="48" rx="13.5" fill="white" stroke="black"/>
<path d="M31.5504 69.75H30.0855V62.6406H31.5504V69.75ZM34.1187 64.4668L34.1627 65.0771C34.5403 64.6051 35.0465 64.3691 35.6812 64.3691C36.2411 64.3691 36.6578 64.5335 36.9312 64.8623C37.2047 65.1911 37.3446 65.6826 37.3512 66.3369V69.75H35.94V66.3711C35.94 66.0716 35.8749 65.8551 35.7447 65.7217C35.6145 65.585 35.398 65.5166 35.0953 65.5166C34.6982 65.5166 34.4003 65.6859 34.2017 66.0244V69.75H32.7906V64.4668H34.1187ZM38.2203 67.0693C38.2203 66.2588 38.4124 65.6061 38.7965 65.1113C39.1838 64.6165 39.7047 64.3691 40.359 64.3691C40.9384 64.3691 41.3892 64.5677 41.7115 64.9648L41.7701 64.4668H43.0494V69.5742C43.0494 70.0365 42.9436 70.4385 42.732 70.7803C42.5237 71.1221 42.2291 71.3825 41.8482 71.5615C41.4674 71.7406 41.0214 71.8301 40.5103 71.8301C40.123 71.8301 39.7454 71.752 39.3775 71.5957C39.0097 71.4427 38.7314 71.2441 38.5426 71L39.1676 70.1406C39.5191 70.5345 39.9456 70.7314 40.4469 70.7314C40.8212 70.7314 41.1125 70.6305 41.3209 70.4287C41.5292 70.2301 41.6334 69.9469 41.6334 69.5791V69.2959C41.3079 69.6637 40.8798 69.8477 40.3492 69.8477C39.7144 69.8477 39.2001 69.6003 38.8062 69.1055C38.4156 68.6074 38.2203 67.9482 38.2203 67.1279V67.0693ZM39.6314 67.1719C39.6314 67.6504 39.7275 68.0264 39.9195 68.2998C40.1116 68.57 40.3752 68.7051 40.7105 68.7051C41.1402 68.7051 41.4478 68.5439 41.6334 68.2217V66C41.4446 65.6777 41.1402 65.5166 40.7203 65.5166C40.3818 65.5166 40.1148 65.6549 39.9195 65.9316C39.7275 66.2083 39.6314 66.6217 39.6314 67.1719ZM47.107 65.79C46.915 65.764 46.7457 65.751 46.5992 65.751C46.0653 65.751 45.7154 65.9316 45.5494 66.293V69.75H44.1383V64.4668H45.4713L45.5103 65.0967C45.7935 64.6117 46.1858 64.3691 46.6871 64.3691C46.8433 64.3691 46.9898 64.3903 47.1265 64.4326L47.107 65.79ZM50.1246 69.8477C49.3499 69.8477 48.7183 69.61 48.2301 69.1348C47.745 68.6595 47.5025 68.0264 47.5025 67.2354V67.0986C47.5025 66.568 47.6051 66.0944 47.8101 65.6777C48.0152 65.2578 48.3049 64.9355 48.6793 64.7109C49.0569 64.4831 49.4866 64.3691 49.9683 64.3691C50.691 64.3691 51.259 64.597 51.6724 65.0527C52.0891 65.5085 52.2974 66.1546 52.2974 66.9912V67.5674H48.9332C48.9788 67.9124 49.1155 68.1891 49.3433 68.3975C49.5745 68.6058 49.8658 68.71 50.2174 68.71C50.761 68.71 51.1858 68.513 51.4918 68.1191L52.1851 68.8955C51.9736 69.195 51.6871 69.4294 51.3258 69.5986C50.9644 69.7646 50.564 69.8477 50.1246 69.8477ZM49.9635 65.5117C49.6835 65.5117 49.4556 65.6061 49.2799 65.7949C49.1073 65.9837 48.9967 66.2539 48.9478 66.6055H50.9107V66.4932C50.9042 66.1807 50.8196 65.9398 50.6568 65.7705C50.4941 65.598 50.2629 65.5117 49.9635 65.5117ZM55.9644 68.29C55.9644 68.1175 55.8782 67.9824 55.7056 67.8848C55.5364 67.7839 55.2629 67.6943 54.8853 67.6162C53.6288 67.3525 53.0006 66.8187 53.0006 66.0146C53.0006 65.5459 53.1943 65.1553 53.5816 64.8428C53.9722 64.527 54.4817 64.3691 55.1099 64.3691C55.7805 64.3691 56.316 64.527 56.7164 64.8428C57.12 65.1585 57.3219 65.5687 57.3219 66.0732H55.9107C55.9107 65.8714 55.8456 65.7054 55.7154 65.5752C55.5852 65.4417 55.3818 65.375 55.1051 65.375C54.8674 65.375 54.6835 65.4287 54.5533 65.5361C54.4231 65.6436 54.358 65.7803 54.358 65.9463C54.358 66.1025 54.4312 66.2295 54.5777 66.3271C54.7275 66.4215 54.9781 66.5046 55.3297 66.5762C55.6812 66.6445 55.9775 66.7227 56.2183 66.8105C56.9638 67.084 57.3365 67.5576 57.3365 68.2314C57.3365 68.7132 57.1298 69.1038 56.7164 69.4033C56.303 69.6995 55.7691 69.8477 55.1148 69.8477C54.6721 69.8477 54.2782 69.7695 53.9332 69.6133C53.5914 69.4538 53.3228 69.2373 53.1275 68.9639C52.9322 68.6872 52.8346 68.3893 52.8346 68.0703H54.1724C54.1855 68.321 54.2782 68.513 54.4508 68.6465C54.6233 68.7799 54.8544 68.8467 55.1441 68.8467C55.4143 68.8467 55.6178 68.7962 55.7545 68.6953C55.8944 68.5911 55.9644 68.4561 55.9644 68.29ZM61.1109 68.29C61.1109 68.1175 61.0247 67.9824 60.8521 67.8848C60.6829 67.7839 60.4094 67.6943 60.0318 67.6162C58.7753 67.3525 58.1471 66.8187 58.1471 66.0146C58.1471 65.5459 58.3407 65.1553 58.7281 64.8428C59.1187 64.527 59.6282 64.3691 60.2564 64.3691C60.927 64.3691 61.4625 64.527 61.8629 64.8428C62.2665 65.1585 62.4683 65.5687 62.4683 66.0732H61.0572C61.0572 65.8714 60.9921 65.7054 60.8619 65.5752C60.7317 65.4417 60.5282 65.375 60.2515 65.375C60.0139 65.375 59.83 65.4287 59.6998 65.5361C59.5696 65.6436 59.5045 65.7803 59.5045 65.9463C59.5045 66.1025 59.5777 66.2295 59.7242 66.3271C59.8739 66.4215 60.1246 66.5046 60.4762 66.5762C60.8277 66.6445 61.1239 66.7227 61.3648 66.8105C62.1103 67.084 62.483 67.5576 62.483 68.2314C62.483 68.7132 62.2763 69.1038 61.8629 69.4033C61.4495 69.6995 60.9156 69.8477 60.2613 69.8477C59.8186 69.8477 59.4247 69.7695 59.0797 69.6133C58.7379 69.4538 58.4693 69.2373 58.274 68.9639C58.0787 68.6872 57.981 68.3893 57.981 68.0703H59.3189C59.3319 68.321 59.4247 68.513 59.5972 68.6465C59.7698 68.7799 60.0009 68.8467 60.2906 68.8467C60.5608 68.8467 60.7642 68.7962 60.901 68.6953C61.0409 68.5911 61.1109 68.4561 61.1109 68.29ZM71.6041 68.8516C71.3404 69.1673 70.9677 69.4131 70.4859 69.5889C70.0041 69.7614 69.4703 69.8477 68.8844 69.8477C68.2691 69.8477 67.7288 69.7142 67.2633 69.4473C66.801 69.1771 66.443 68.7865 66.189 68.2754C65.9384 67.7643 65.8098 67.1637 65.8033 66.4736V65.9902C65.8033 65.2806 65.9221 64.667 66.1597 64.1494C66.4006 63.6286 66.7457 63.2314 67.1949 62.958C67.6474 62.6813 68.1763 62.543 68.7818 62.543C69.6249 62.543 70.2841 62.7448 70.7594 63.1484C71.2346 63.5488 71.5162 64.1331 71.6041 64.9014H70.1783C70.1132 64.4945 69.9683 64.1966 69.7437 64.0078C69.5224 63.819 69.2164 63.7246 68.8258 63.7246C68.3277 63.7246 67.9485 63.9118 67.6881 64.2861C67.4277 64.6605 67.2958 65.2171 67.2926 65.9561V66.4102C67.2926 67.1556 67.4342 67.7188 67.7174 68.0996C68.0006 68.4805 68.4156 68.6709 68.9625 68.6709C69.5126 68.6709 69.9049 68.5537 70.1392 68.3193V67.0938H68.8062V66.0146H71.6041V68.8516ZM75.7642 69.75C75.6991 69.623 75.6519 69.4652 75.6226 69.2764C75.2808 69.6572 74.8365 69.8477 74.2896 69.8477C73.7721 69.8477 73.3424 69.6979 73.0006 69.3984C72.662 69.099 72.4928 68.7214 72.4928 68.2656C72.4928 67.7057 72.6995 67.276 73.1129 66.9766C73.5295 66.6771 74.1301 66.5257 74.9146 66.5225H75.564V66.2197C75.564 65.9756 75.5006 65.7803 75.3736 65.6338C75.2499 65.4873 75.053 65.4141 74.7828 65.4141C74.5452 65.4141 74.358 65.471 74.2213 65.585C74.0878 65.6989 74.0211 65.8551 74.0211 66.0537H72.6099C72.6099 65.7477 72.7043 65.4645 72.8931 65.2041C73.0819 64.9437 73.3489 64.7402 73.6939 64.5938C74.039 64.444 74.4263 64.3691 74.856 64.3691C75.5071 64.3691 76.023 64.5335 76.4039 64.8623C76.788 65.1878 76.9801 65.6468 76.9801 66.2393V68.5293C76.9833 69.0306 77.0533 69.4098 77.19 69.667V69.75H75.7642ZM74.5972 68.7686C74.8056 68.7686 74.9976 68.723 75.1734 68.6318C75.3492 68.5374 75.4794 68.4121 75.564 68.2559V67.3477H75.0367C74.3303 67.3477 73.9543 67.5918 73.9088 68.0801L73.9039 68.1631C73.9039 68.3389 73.9657 68.4837 74.0894 68.5977C74.2131 68.7116 74.3824 68.7686 74.5972 68.7686ZM79.7535 63.168V64.4668H80.6568V65.502H79.7535V68.1387C79.7535 68.334 79.7909 68.474 79.8658 68.5586C79.9407 68.6432 80.0839 68.6855 80.2955 68.6855C80.4517 68.6855 80.5901 68.6742 80.7105 68.6514V69.7207C80.4338 69.8053 80.149 69.8477 79.856 69.8477C78.8665 69.8477 78.3619 69.348 78.3424 68.3486V65.502H77.5709V64.4668H78.3424V63.168H79.7535ZM83.8746 69.8477C83.0999 69.8477 82.4683 69.61 81.9801 69.1348C81.495 68.6595 81.2525 68.0264 81.2525 67.2354V67.0986C81.2525 66.568 81.3551 66.0944 81.5601 65.6777C81.7652 65.2578 82.0549 64.9355 82.4293 64.7109C82.8069 64.4831 83.2366 64.3691 83.7183 64.3691C84.441 64.3691 85.009 64.597 85.4224 65.0527C85.8391 65.5085 86.0474 66.1546 86.0474 66.9912V67.5674H82.6832C82.7288 67.9124 82.8655 68.1891 83.0933 68.3975C83.3245 68.6058 83.6158 68.71 83.9674 68.71C84.511 68.71 84.9358 68.513 85.2418 68.1191L85.9351 68.8955C85.7236 69.195 85.4371 69.4294 85.0758 69.5986C84.7144 69.7646 84.314 69.8477 83.8746 69.8477ZM83.7135 65.5117C83.4335 65.5117 83.2056 65.6061 83.0299 65.7949C82.8573 65.9837 82.7467 66.2539 82.6978 66.6055H84.6607V66.4932C84.6542 66.1807 84.5696 65.9398 84.4068 65.7705C84.2441 65.598 84.0129 65.5117 83.7135 65.5117ZM91.4478 67.8311L92.1412 64.4668H93.5035L92.1558 69.75H90.9742L89.9732 66.4248L88.9722 69.75H87.7955L86.4478 64.4668H87.8101L88.4986 67.8262L89.4654 64.4668H90.4859L91.4478 67.8311ZM97.2681 69.75C97.203 69.623 97.1558 69.4652 97.1265 69.2764C96.7847 69.6572 96.3404 69.8477 95.7935 69.8477C95.276 69.8477 94.8463 69.6979 94.5045 69.3984C94.1659 69.099 93.9967 68.7214 93.9967 68.2656C93.9967 67.7057 94.2034 67.276 94.6168 66.9766C95.0334 66.6771 95.634 66.5257 96.4185 66.5225H97.0679V66.2197C97.0679 65.9756 97.0045 65.7803 96.8775 65.6338C96.7538 65.4873 96.5569 65.4141 96.2867 65.4141C96.0491 65.4141 95.8619 65.471 95.7252 65.585C95.5917 65.6989 95.525 65.8551 95.525 66.0537H94.1138C94.1138 65.7477 94.2082 65.4645 94.397 65.2041C94.5859 64.9437 94.8528 64.7402 95.1978 64.5938C95.5429 64.444 95.9303 64.3691 96.3599 64.3691C97.011 64.3691 97.5269 64.5335 97.9078 64.8623C98.2919 65.1878 98.484 65.6468 98.484 66.2393V68.5293C98.4872 69.0306 98.5572 69.4098 98.6939 69.667V69.75H97.2681ZM96.1012 68.7686C96.3095 68.7686 96.5015 68.723 96.6773 68.6318C96.8531 68.5374 96.9833 68.4121 97.0679 68.2559V67.3477H96.5406C95.8342 67.3477 95.4582 67.5918 95.4127 68.0801L95.4078 68.1631C95.4078 68.3389 95.4696 68.4837 95.5933 68.5977C95.717 68.7116 95.8863 68.7686 96.1012 68.7686ZM101.462 67.7529L102.439 64.4668H103.953L101.829 70.5703L101.712 70.8486C101.396 71.5387 100.875 71.8838 100.149 71.8838C99.9439 71.8838 99.7356 71.8529 99.524 71.791V70.7217L99.7388 70.7266C100.006 70.7266 100.204 70.6859 100.335 70.6045C100.468 70.5231 100.572 70.388 100.647 70.1992L100.813 69.7646L98.9625 64.4668H100.481L101.462 67.7529Z" fill="black"/>
<rect x="36.1951" y="30.3333" width="62.1076" height="22.75" fill="#A0BFF9"/>
<path d="M64.3105 42.1361H60.9355V44.4212H64.8965V45.8333H59.1777V37.3021H64.8848V38.7259H60.9355V40.7591H64.3105V42.1361ZM67.375 39.4935L67.4277 40.2259C67.8809 39.6595 68.4883 39.3763 69.25 39.3763C69.9219 39.3763 70.4219 39.5736 70.75 39.9681C71.0781 40.3626 71.2461 40.9525 71.2539 41.7376V45.8333H69.5605V41.7786C69.5605 41.4193 69.4824 41.1595 69.3262 40.9993C69.1699 40.8353 68.9102 40.7533 68.5469 40.7533C68.0703 40.7533 67.7129 40.9564 67.4746 41.3626V45.8333H65.7812V39.4935H67.375ZM74.916 43.765L76.0938 39.4935H77.8633L75.7246 45.8333H74.1074L71.9688 39.4935H73.7383L74.916 43.765ZM78.2559 42.6048C78.2559 41.9759 78.377 41.4154 78.6191 40.9232C78.8613 40.431 79.209 40.0501 79.6621 39.7806C80.1191 39.5111 80.6484 39.3763 81.25 39.3763C82.1055 39.3763 82.8027 39.638 83.3418 40.1615C83.8848 40.6849 84.1875 41.3958 84.25 42.2943L84.2617 42.7279C84.2617 43.7005 83.9902 44.4818 83.4473 45.0716C82.9043 45.6575 82.1758 45.9505 81.2617 45.9505C80.3477 45.9505 79.6172 45.6575 79.0703 45.0716C78.5273 44.4857 78.2559 43.6888 78.2559 42.681V42.6048ZM79.9492 42.7279C79.9492 43.3294 80.0625 43.7904 80.2891 44.1107C80.5156 44.4271 80.8398 44.5853 81.2617 44.5853C81.6719 44.5853 81.9922 44.429 82.2227 44.1165C82.4531 43.8001 82.5684 43.2962 82.5684 42.6048C82.5684 42.015 82.4531 41.5579 82.2227 41.2337C81.9922 40.9095 81.668 40.7474 81.25 40.7474C80.8359 40.7474 80.5156 40.9095 80.2891 41.2337C80.0625 41.554 79.9492 42.0521 79.9492 42.7279ZM87.5781 43.4368L88.75 39.4935H90.5664L88.0176 46.8177L87.877 47.1517C87.498 47.9798 86.873 48.3939 86.002 48.3939C85.7559 48.3939 85.5059 48.3568 85.252 48.2825V46.9993L85.5098 47.0052C85.8301 47.0052 86.0684 46.9564 86.2246 46.8587C86.3848 46.7611 86.5098 46.599 86.5996 46.3724L86.7988 45.8509L84.5781 39.4935H86.4004L87.5781 43.4368Z" fill="black"/>
<path d="M45.875 35.5833L40.9167 38.25V44.25L45.875 47.25L50.8333 44.25V38.25L45.875 35.5833Z" stroke="#F822D5" stroke-width="2"/>
<path d="M40.1003 22.8275V25.8333H38.3425V17.3021H41.6706C42.3112 17.3021 42.8737 17.4193 43.3581 17.6536C43.8464 17.888 44.2214 18.222 44.4831 18.6556C44.7448 19.0853 44.8757 19.5755 44.8757 20.1263C44.8757 20.9622 44.5886 21.6224 44.0143 22.1068C43.444 22.5872 42.653 22.8275 41.6413 22.8275H40.1003ZM40.1003 21.4036H41.6706C42.1354 21.4036 42.489 21.2943 42.7311 21.0755C42.9772 20.8568 43.1003 20.5443 43.1003 20.138C43.1003 19.72 42.9772 19.3822 42.7311 19.1243C42.4851 18.8665 42.1452 18.7337 41.7116 18.7259H40.1003V21.4036ZM45.6315 22.6048C45.6315 21.9759 45.7526 21.4154 45.9948 20.9232C46.237 20.431 46.5847 20.0501 47.0378 19.7806C47.4948 19.5111 48.0241 19.3763 48.6257 19.3763C49.4811 19.3763 50.1784 19.638 50.7175 20.1615C51.2604 20.6849 51.5632 21.3958 51.6257 22.2943L51.6374 22.7279C51.6374 23.7005 51.3659 24.4818 50.8229 25.0716C50.28 25.6575 49.5515 25.9505 48.6374 25.9505C47.7233 25.9505 46.9929 25.6575 46.446 25.0716C45.903 24.4857 45.6315 23.6888 45.6315 22.681V22.6048ZM47.3249 22.7279C47.3249 23.3294 47.4382 23.7904 47.6647 24.1107C47.8913 24.4271 48.2155 24.5853 48.6374 24.5853C49.0476 24.5853 49.3679 24.429 49.5983 24.1165C49.8288 23.8001 49.944 23.2962 49.944 22.6048C49.944 22.015 49.8288 21.5579 49.5983 21.2337C49.3679 20.9095 49.0436 20.7474 48.6257 20.7474C48.2116 20.7474 47.8913 20.9095 47.6647 21.2337C47.4382 21.554 47.3249 22.0521 47.3249 22.7279ZM52.4167 22.6165C52.4167 21.6283 52.6374 20.8411 53.0788 20.2552C53.5241 19.6693 54.1315 19.3763 54.9011 19.3763C55.5183 19.3763 56.028 19.6068 56.4304 20.0677V16.8333H58.1296V25.8333H56.6003L56.5183 25.1595C56.0964 25.6868 55.5534 25.9505 54.8893 25.9505C54.1433 25.9505 53.5436 25.6575 53.0905 25.0716C52.6413 24.4818 52.4167 23.6634 52.4167 22.6165ZM54.1101 22.7396C54.1101 23.3333 54.2136 23.7884 54.4206 24.1048C54.6276 24.4212 54.9284 24.5794 55.3229 24.5794C55.8464 24.5794 56.2155 24.3587 56.4304 23.9173V21.4154C56.2194 20.974 55.8542 20.7533 55.3347 20.7533C54.5183 20.7533 54.1101 21.4154 54.1101 22.7396Z" fill="black"/>
<rect x="99" y="49" width="8.60331" height="10.8356" fill="#FEF9E2" stroke="#E7CD7C" stroke-width="2"/>
<path d="M100.232 57.4872H103.581" stroke="#808080" stroke-width="1.2"/>
<path d="M100.232 54.6968H106.371" stroke="#545454" stroke-width="1.2"/>
<path d="M100.232 51.9065H106.371" stroke="#545454" stroke-width="1.2"/>
<path d="M105.615 59.7846L103.942 58.6231L102.328 61.1718L103.685 60.8189L104.001 62.3334L105.615 59.7846Z" fill="#C6142F" stroke="#AB1D33"/>
<path d="M105.619 59.8758L107.388 58.9092L108.763 61.6272L107.445 61.1228L106.993 62.5938L105.619 59.8758Z" fill="#C6142F" stroke="#AB1D33"/>
<path d="M107.202 58.1456C107.202 59.2372 106.519 59.8782 105.945 59.8782C105.371 59.8782 104.687 59.2372 104.687 58.1456C104.687 57.054 105.371 56.413 105.945 56.413C106.519 56.413 107.202 57.054 107.202 58.1456Z" stroke="#C6142F" stroke-width="1.2"/>
</g>
<defs>
<filter id="filter0_d" x="20" y="0" width="99" height="82.0833" filterUnits="userSpaceOnUse" color-interpolation-filters="sRGB">
<feFlood flood-opacity="0" result="BackgroundImageFix"/>
<feColorMatrix in="SourceAlpha" type="matrix" values="0 0 0 0 0 0 0 0 0 0 0 0 0 0 0 0 0 0 127 0"/>
<feOffset dy="4"/>
<feGaussianBlur stdDeviation="2"/>
<feColorMatrix type="matrix" values="0 0 0 0 0 0 0 0 0 0 0 0 0 0 0 0 0 0 0.25 0"/>
<feBlend mode="normal" in2="BackgroundImageFix" result="effect1_dropShadow"/>
<feBlend mode="normal" in="SourceGraphic" in2="effect1_dropShadow" result="shape"/>
</filter>
<clipPath id="clip0">
<rect width="640" height="73" fill="white"/>
</clipPath>
</defs>
</svg>
