<svg width="640" height="245" viewBox="0 0 640 245" fill="none" xmlns="http://www.w3.org/2000/svg">
<g clip-path="url(#clip0)">
<g filter="url(#filter0_d)">
<rect x="386" y="105" width="101" height="52" rx="8" fill="white"/>
<rect x="386.5" y="105.5" width="100" height="51" rx="7.5" stroke="black"/>
</g>
<path d="M438.74 126.047L441.297 133.266L443.84 126.047H446.533V136H444.476V133.279L444.681 128.583L441.994 136H440.586L437.906 128.59L438.111 133.279V136H436.061V126.047H438.74ZM450.279 136H448.297V128.604H450.279V136ZM448.181 126.689C448.181 126.393 448.279 126.149 448.475 125.958C448.675 125.767 448.946 125.671 449.288 125.671C449.625 125.671 449.894 125.767 450.095 125.958C450.295 126.149 450.396 126.393 450.396 126.689C450.396 126.99 450.293 127.236 450.088 127.428C449.887 127.619 449.621 127.715 449.288 127.715C448.955 127.715 448.687 127.619 448.481 127.428C448.281 127.236 448.181 126.99 448.181 126.689ZM454.729 130.812L455.974 128.604H458.086L455.98 132.227L458.175 136H456.056L454.736 133.676L453.424 136H451.298L453.492 132.227L451.394 128.604H453.513L454.729 130.812ZM462.304 136.137C461.219 136.137 460.335 135.804 459.651 135.139C458.972 134.473 458.633 133.587 458.633 132.479V132.288C458.633 131.545 458.776 130.882 459.063 130.299C459.351 129.711 459.756 129.26 460.28 128.945C460.809 128.626 461.41 128.467 462.085 128.467C463.097 128.467 463.892 128.786 464.471 129.424C465.054 130.062 465.346 130.966 465.346 132.138V132.944H460.636C460.7 133.427 460.891 133.815 461.21 134.106C461.534 134.398 461.941 134.544 462.434 134.544C463.195 134.544 463.789 134.268 464.218 133.717L465.188 134.804C464.892 135.223 464.491 135.551 463.985 135.788C463.479 136.021 462.919 136.137 462.304 136.137ZM462.078 130.066C461.686 130.066 461.367 130.199 461.121 130.463C460.88 130.727 460.725 131.105 460.656 131.598H463.404V131.44C463.395 131.003 463.277 130.666 463.049 130.429C462.821 130.187 462.497 130.066 462.078 130.066ZM470.63 130.456C470.361 130.42 470.124 130.401 469.919 130.401C469.172 130.401 468.682 130.654 468.449 131.16V136H466.474V128.604H468.34L468.395 129.485C468.791 128.806 469.34 128.467 470.042 128.467C470.261 128.467 470.466 128.496 470.657 128.556L470.63 130.456Z" fill="black"/>
<path d="M409.037 119.857H403.247C401.093 119.857 399.105 121.011 398.037 122.88L395.225 127.801C394.165 129.657 394.172 131.937 395.243 133.786L398.031 138.597C399.104 140.449 401.082 141.589 403.223 141.589H409.061C411.19 141.589 413.16 140.461 414.237 138.625L417.059 133.813C418.151 131.95 418.158 129.643 417.077 127.774L414.231 122.853C413.158 120.999 411.179 119.857 409.037 119.857Z" fill="#466BB0" stroke="white"/>
<g filter="url(#filter1_d)">
<path d="M400.403 136.21H412.008L404.755 138.362L400.403 136.21Z" fill="white"/>
</g>
<g filter="url(#filter2_d)">
<path d="M400.403 135.493L404.755 134.776V126.886L400.403 135.493Z" fill="white"/>
</g>
<g filter="url(#filter3_d)">
<path d="M405.48 134.776L412.008 135.493L405.48 121.148V134.776Z" fill="white"/>
</g>
<g filter="url(#filter4_d)">
<rect x="398" y="157" width="37" height="85" fill="white"/>
<rect x="398.5" y="157.5" width="36" height="84" stroke="#C4C4C4"/>
</g>
<path d="M410.78 221.529L410.822 217.175L412.469 217.191L412.408 223.596L402.455 223.5L402.475 221.45L410.78 221.529ZM408.71 216.41C407.976 216.403 407.324 216.255 406.752 215.967C406.181 215.679 405.74 215.269 405.431 214.737C405.122 214.201 404.97 213.582 404.977 212.88C404.987 211.882 405.3 211.072 405.916 210.449C406.533 209.821 407.366 209.476 408.415 209.413L408.921 209.404C410.055 209.415 410.964 209.741 411.646 210.381C412.323 211.021 412.657 211.874 412.647 212.94C412.636 214.007 412.286 214.856 411.597 215.487C410.907 216.114 409.974 216.422 408.799 216.41L408.71 216.41ZM408.872 214.435C409.574 214.442 410.113 214.315 410.489 214.054C410.861 213.794 411.049 213.417 411.054 212.925C411.059 212.447 410.88 212.071 410.518 211.799C410.151 211.526 409.565 211.386 408.758 211.379C408.07 211.372 407.536 211.501 407.155 211.767C406.774 212.032 406.581 212.408 406.576 212.896C406.572 213.379 406.757 213.754 407.133 214.022C407.504 214.29 408.084 214.428 408.872 214.435ZM408.8 208.474C407.665 208.463 406.754 208.185 406.066 207.641C405.379 207.092 405.04 206.359 405.048 205.443C405.056 204.632 405.34 204.004 405.9 203.558L405.204 203.469L405.221 201.678L412.371 201.747C413.018 201.753 413.58 201.907 414.055 202.207C414.531 202.504 414.892 202.919 415.137 203.455C415.383 203.991 415.502 204.616 415.495 205.332C415.49 205.874 415.376 206.401 415.152 206.914C414.933 207.427 414.651 207.814 414.307 208.075L413.112 207.189C413.668 206.702 413.95 206.108 413.956 205.406C413.961 204.882 413.824 204.472 413.544 204.178C413.269 203.884 412.874 203.734 412.359 203.729L411.963 203.725C412.473 204.186 412.725 204.788 412.718 205.531C412.709 206.419 412.356 207.136 411.658 207.681C410.956 208.221 410.03 208.485 408.882 208.474L408.8 208.474ZM408.962 206.499C409.632 206.506 410.16 206.376 410.545 206.111C410.926 205.846 411.119 205.479 411.123 205.009C411.129 204.408 410.907 203.975 410.459 203.711L407.349 203.681C406.895 203.941 406.665 204.365 406.66 204.953C406.655 205.427 406.845 205.802 407.23 206.079C407.615 206.352 408.192 206.492 408.962 206.499ZM408.876 200.476C407.742 200.465 406.831 200.187 406.143 199.643C405.456 199.094 405.116 198.362 405.125 197.446C405.133 196.634 405.417 196.006 405.977 195.56L405.281 195.471L405.298 193.68L412.448 193.749C413.095 193.755 413.657 193.909 414.132 194.21C414.608 194.506 414.968 194.922 415.214 195.457C415.46 195.993 415.579 196.618 415.572 197.334C415.567 197.876 415.452 198.404 415.229 198.917C415.01 199.43 414.728 199.817 414.383 200.078L413.189 199.191C413.745 198.704 414.026 198.11 414.033 197.408C414.038 196.884 413.901 196.475 413.621 196.18C413.346 195.886 412.951 195.736 412.436 195.732L412.039 195.728C412.55 196.188 412.802 196.79 412.795 197.533C412.786 198.422 412.433 199.138 411.735 199.683C411.032 200.223 410.107 200.488 408.958 200.477L408.876 200.476ZM409.039 198.502C409.709 198.508 410.237 198.379 410.622 198.114C411.003 197.848 411.195 197.481 411.2 197.012C411.206 196.41 410.984 195.977 410.536 195.713L407.425 195.683C406.972 195.943 406.742 196.367 406.736 196.955C406.732 197.429 406.922 197.805 407.307 198.082C407.691 198.354 408.269 198.494 409.039 198.502ZM412.729 190.142L412.71 192.125L405.314 192.054L405.333 190.071L412.729 190.142ZM403.399 192.151C403.102 192.149 402.859 192.048 402.67 191.85C402.48 191.648 402.387 191.376 402.391 191.034C402.394 190.697 402.492 190.429 402.685 190.23C402.879 190.032 403.124 189.934 403.42 189.937C403.721 189.94 403.966 190.044 404.155 190.251C404.345 190.454 404.438 190.721 404.434 191.054C404.431 191.387 404.333 191.655 404.14 191.858C403.946 192.056 403.699 192.154 403.399 192.151ZM405.366 186.619L406.221 186.566C405.565 186.031 405.242 185.319 405.25 184.431C405.258 183.647 405.493 183.066 405.957 182.687C406.421 182.309 407.111 182.12 408.027 182.119L412.805 182.165L412.786 184.141L408.056 184.095C407.637 184.091 407.333 184.179 407.144 184.36C406.951 184.54 406.853 184.842 406.849 185.266C406.843 185.822 407.076 186.241 407.547 186.524L412.763 186.574L412.744 188.55L405.348 188.479L405.366 186.619ZM409.064 180.912C407.93 180.901 407.018 180.624 406.331 180.079C405.643 179.53 405.304 178.798 405.313 177.882C405.321 177.071 405.605 176.442 406.165 175.997L405.469 175.908L405.486 174.117L412.636 174.186C413.283 174.192 413.844 174.345 414.32 174.646C414.796 174.942 415.156 175.358 415.402 175.894C415.647 176.429 415.767 177.055 415.76 177.77C415.755 178.313 415.64 178.84 415.416 179.353C415.197 179.866 414.916 180.253 414.571 180.514L413.377 179.627C413.933 179.141 414.214 178.546 414.221 177.845C414.226 177.32 414.089 176.911 413.809 176.617C413.534 176.323 413.139 176.173 412.624 176.168L412.227 176.164C412.738 176.625 412.989 177.227 412.982 177.969C412.974 178.858 412.621 179.575 411.923 180.119C411.22 180.66 410.295 180.924 409.146 180.913L409.064 180.912ZM409.227 178.938C409.897 178.945 410.424 178.815 410.81 178.55C411.19 178.285 411.383 177.918 411.388 177.448C411.393 176.847 411.172 176.414 410.723 176.15L407.613 176.12C407.159 176.38 406.93 176.804 406.924 177.392C406.92 177.866 407.11 178.241 407.494 178.518C407.879 178.791 408.457 178.931 409.227 178.938ZM424.972 216.21L428.479 216.244L428.459 218.295L418.507 218.199L418.544 214.316C418.551 213.569 418.694 212.914 418.973 212.352C419.252 211.785 419.646 211.351 420.154 211.05C420.659 210.75 421.232 210.603 421.875 210.609C422.85 210.618 423.617 210.961 424.175 211.636C424.729 212.307 425.001 213.232 424.99 214.412L424.972 216.21ZM423.311 216.194L423.329 214.362C423.334 213.82 423.21 213.406 422.958 213.121C422.705 212.832 422.342 212.685 421.868 212.68C421.381 212.676 420.985 212.815 420.682 213.1C420.378 213.384 420.219 213.779 420.205 214.284L420.187 216.164L423.311 216.194ZM428.565 207.303L428.546 209.285L418.046 209.184L418.065 207.202L428.565 207.303ZM427.871 201.232C428.459 201.726 428.749 202.403 428.74 203.264C428.733 204.057 428.499 204.661 428.039 205.076C427.58 205.486 426.91 205.692 426.03 205.693L421.184 205.646L421.203 203.671L425.981 203.716C426.751 203.724 427.14 203.377 427.146 202.675C427.153 202.005 426.925 201.542 426.462 201.287L421.226 201.237L421.245 199.255L428.641 199.326L428.624 201.185L427.871 201.232ZM424.9 198.087C423.765 198.076 422.854 197.798 422.167 197.254C421.479 196.705 421.14 195.972 421.149 195.056C421.157 194.245 421.441 193.617 422.001 193.171L421.304 193.082L421.322 191.291L428.472 191.36C429.119 191.366 429.68 191.52 430.156 191.82C430.632 192.117 430.992 192.533 431.238 193.068C431.483 193.604 431.603 194.229 431.596 194.945C431.59 195.487 431.476 196.015 431.252 196.527C431.033 197.04 430.751 197.427 430.407 197.688L429.212 196.802C429.769 196.315 430.05 195.721 430.057 195.019C430.062 194.495 429.924 194.086 429.645 193.791C429.37 193.497 428.974 193.347 428.46 193.342L428.063 193.338C428.574 193.799 428.825 194.401 428.818 195.144C428.81 196.032 428.456 196.749 427.758 197.294C427.056 197.834 426.131 198.098 424.982 198.087L424.9 198.087ZM425.063 196.112C425.733 196.119 426.26 195.99 426.646 195.724C427.026 195.459 427.219 195.092 427.224 194.622C427.229 194.021 427.008 193.588 426.559 193.324L423.449 193.294C422.995 193.554 422.766 193.978 422.76 194.566C422.755 195.04 422.946 195.415 423.33 195.693C423.715 195.965 424.293 196.105 425.063 196.112ZM428.752 187.753L428.733 189.735L421.337 189.664L421.356 187.682L428.752 187.753ZM419.422 189.762C419.126 189.759 418.883 189.659 418.694 189.461C418.504 189.259 418.411 188.987 418.414 188.645C418.418 188.308 418.516 188.04 418.709 187.841C418.902 187.642 419.147 187.545 419.443 187.547C419.744 187.55 419.989 187.655 420.179 187.862C420.368 188.064 420.461 188.332 420.458 188.665C420.455 188.997 420.357 189.265 420.163 189.468C419.97 189.667 419.723 189.765 419.422 189.762ZM421.389 184.23L422.244 184.177C421.589 183.642 421.265 182.93 421.274 182.041C421.281 181.257 421.517 180.676 421.981 180.298C422.445 179.92 423.135 179.73 424.051 179.73L428.829 179.776L428.81 181.751L424.08 181.706C423.661 181.702 423.357 181.79 423.168 181.971C422.975 182.151 422.876 182.453 422.872 182.877C422.867 183.433 423.1 183.852 423.571 184.135L428.787 184.185L428.768 186.16L421.372 186.089L421.389 184.23Z" fill="#555555"/>
<g filter="url(#filter5_d)">
<rect x="437" y="157" width="37" height="85" fill="white"/>
<rect x="437.5" y="157.5" width="36" height="84" stroke="#C4C4C4"/>
</g>
<path d="M441.395 229.721L448.638 227.233L441.444 224.621L441.47 221.928L451.423 222.024L451.403 224.081L448.682 224.055L443.988 223.805L451.379 226.562L451.366 227.971L443.93 230.579L448.621 230.419L451.342 230.445L451.322 232.496L441.37 232.4L441.395 229.721ZM447.669 220.634C446.936 220.627 446.283 220.479 445.712 220.191C445.14 219.903 444.7 219.493 444.39 218.962C444.081 218.426 443.93 217.807 443.936 217.105C443.946 216.107 444.259 215.296 444.876 214.673C445.493 214.046 446.325 213.701 447.374 213.638L447.88 213.629C449.015 213.64 449.923 213.965 450.605 214.605C451.283 215.245 451.616 216.098 451.606 217.165C451.596 218.231 451.246 219.08 450.556 219.711C449.867 220.338 448.934 220.646 447.758 220.635L447.669 220.634ZM447.832 218.66C448.534 218.667 449.073 218.54 449.449 218.279C449.82 218.018 450.009 217.642 450.013 217.15C450.018 216.671 449.839 216.296 449.477 216.023C449.111 215.751 448.524 215.611 447.718 215.603C447.029 215.596 446.495 215.726 446.114 215.991C445.733 216.256 445.541 216.633 445.536 217.12C445.531 217.603 445.717 217.979 446.093 218.247C446.464 218.515 447.043 218.652 447.832 218.66ZM444.136 210.558L444.991 210.504C444.335 209.969 444.012 209.258 444.02 208.369C444.028 207.585 444.264 207.004 444.727 206.626C445.191 206.247 445.881 206.058 446.797 206.058L451.576 206.103L451.557 208.079L446.826 208.034C446.407 208.03 446.103 208.118 445.915 208.298C445.721 208.479 445.623 208.781 445.619 209.205C445.613 209.761 445.846 210.18 446.318 210.462L451.533 210.512L451.514 212.488L444.118 212.417L444.136 210.558ZM451.61 202.515L451.591 204.497L444.195 204.426L444.214 202.444L451.61 202.515ZM442.28 204.524C441.984 204.521 441.741 204.421 441.551 204.223C441.362 204.021 441.269 203.749 441.272 203.407C441.275 203.07 441.373 202.802 441.567 202.603C441.76 202.404 442.005 202.306 442.301 202.309C442.602 202.312 442.847 202.417 443.036 202.624C443.226 202.826 443.319 203.094 443.316 203.426C443.313 203.759 443.214 204.027 443.021 204.23C442.828 204.429 442.581 204.527 442.28 204.524ZM442.434 198.427L444.252 198.445L444.264 197.18L445.714 197.194L445.701 198.459L449.393 198.494C449.666 198.497 449.863 198.446 449.982 198.343C450.101 198.239 450.163 198.039 450.166 197.743C450.168 197.524 450.154 197.33 450.123 197.161L451.62 197.176C451.735 197.564 451.79 197.964 451.786 198.374C451.773 199.759 451.067 200.459 449.668 200.473L445.682 200.434L445.672 201.514L444.223 201.5L444.233 200.42L442.415 200.403L442.434 198.427ZM447.9 196.627C447.166 196.62 446.513 196.473 445.942 196.185C445.371 195.897 444.93 195.487 444.621 194.955C444.311 194.419 444.16 193.8 444.167 193.098C444.176 192.1 444.49 191.29 445.106 190.667C445.723 190.039 446.556 189.694 447.605 189.631L448.111 189.622C449.245 189.633 450.154 189.959 450.836 190.599C451.513 191.239 451.847 192.092 451.837 193.158C451.826 194.224 451.476 195.073 450.787 195.705C450.097 196.332 449.164 196.639 447.989 196.628L447.9 196.627ZM448.062 194.653C448.764 194.66 449.303 194.533 449.679 194.272C450.051 194.011 450.239 193.635 450.244 193.143C450.248 192.664 450.07 192.289 449.708 192.017C449.341 191.744 448.755 191.604 447.948 191.596C447.26 191.59 446.725 191.719 446.345 191.984C445.964 192.249 445.771 192.626 445.766 193.113C445.762 193.597 445.947 193.972 446.323 194.24C446.694 194.508 447.274 194.646 448.062 194.653ZM446.241 184.231C446.202 184.499 446.182 184.736 446.18 184.941C446.173 185.689 446.421 186.181 446.924 186.418L451.764 186.465L451.745 188.44L444.349 188.369L444.367 186.503L445.249 186.457C444.574 186.054 444.24 185.501 444.247 184.8C444.249 184.581 444.28 184.376 444.341 184.185L446.241 184.231ZM451.814 181.242L451.795 183.225L444.399 183.154L444.418 181.171L451.814 181.242ZM442.484 183.251C442.188 183.249 441.945 183.148 441.755 182.95C441.566 182.748 441.473 182.476 441.476 182.134C441.479 181.797 441.578 181.529 441.771 181.33C441.964 181.132 442.209 181.034 442.505 181.037C442.806 181.04 443.051 181.144 443.24 181.351C443.43 181.554 443.523 181.821 443.52 182.154C443.517 182.487 443.418 182.755 443.225 182.958C443.032 183.156 442.785 183.254 442.484 183.251ZM444.451 177.719L445.306 177.666C444.651 177.131 444.327 176.419 444.335 175.531C444.343 174.747 444.579 174.166 445.043 173.787C445.507 173.409 446.197 173.22 447.113 173.219L451.891 173.265L451.872 175.241L447.142 175.195C446.722 175.191 446.418 175.279 446.23 175.46C446.037 175.64 445.938 175.942 445.934 176.366C445.929 176.922 446.162 177.341 446.633 177.624L451.848 177.674L451.829 179.65L444.433 179.579L444.451 177.719ZM448.15 172.012C447.015 172.001 446.104 171.724 445.416 171.179C444.729 170.63 444.39 169.898 444.398 168.982C444.406 168.171 444.69 167.542 445.25 167.097L444.554 167.008L444.571 165.217L451.721 165.286C452.368 165.292 452.93 165.445 453.405 165.746C453.881 166.042 454.242 166.458 454.487 166.994C454.733 167.529 454.852 168.155 454.845 168.87C454.84 169.413 454.726 169.94 454.502 170.453C454.283 170.966 454.001 171.353 453.657 171.614L452.462 170.728C453.018 170.241 453.3 169.646 453.306 168.945C453.311 168.42 453.174 168.011 452.894 167.717C452.619 167.423 452.224 167.273 451.709 167.268L451.313 167.264C451.823 167.725 452.075 168.327 452.068 169.069C452.059 169.958 451.706 170.675 451.008 171.219C450.306 171.76 449.38 172.024 448.232 172.013L448.15 172.012ZM448.312 170.038C448.982 170.045 449.51 169.915 449.895 169.65C450.276 169.385 450.469 169.018 450.473 168.548C450.479 167.947 450.257 167.514 449.809 167.25L446.699 167.22C446.245 167.48 446.015 167.904 446.01 168.492C446.005 168.966 446.195 169.341 446.58 169.618C446.965 169.891 447.542 170.031 448.312 170.038ZM463.972 216.21L467.479 216.244L467.459 218.295L457.507 218.199L457.544 214.316C457.551 213.569 457.694 212.914 457.973 212.352C458.252 211.785 458.646 211.351 459.154 211.05C459.659 210.75 460.232 210.603 460.875 210.609C461.85 210.618 462.617 210.961 463.175 211.636C463.729 212.307 464.001 213.232 463.99 214.412L463.972 216.21ZM462.311 216.194L462.329 214.362C462.334 213.82 462.21 213.406 461.958 213.121C461.705 212.832 461.342 212.685 460.868 212.68C460.381 212.676 459.985 212.815 459.682 213.1C459.378 213.384 459.219 213.779 459.205 214.284L459.187 216.164L462.311 216.194ZM467.565 207.303L467.546 209.285L457.046 209.184L457.065 207.202L467.565 207.303ZM466.871 201.232C467.459 201.726 467.749 202.403 467.74 203.264C467.733 204.057 467.499 204.661 467.039 205.076C466.58 205.486 465.91 205.692 465.03 205.693L460.184 205.646L460.203 203.671L464.981 203.716C465.751 203.724 466.14 203.377 466.146 202.675C466.153 202.005 465.925 201.542 465.462 201.287L460.226 201.237L460.245 199.255L467.641 199.326L467.624 201.185L466.871 201.232ZM463.9 198.087C462.765 198.076 461.854 197.798 461.167 197.254C460.479 196.705 460.14 195.972 460.149 195.056C460.157 194.245 460.441 193.617 461.001 193.171L460.304 193.082L460.322 191.291L467.472 191.36C468.119 191.366 468.68 191.52 469.156 191.82C469.632 192.117 469.992 192.533 470.238 193.068C470.483 193.604 470.603 194.229 470.596 194.945C470.59 195.487 470.476 196.015 470.252 196.527C470.033 197.04 469.751 197.427 469.407 197.688L468.212 196.802C468.769 196.315 469.05 195.721 469.057 195.019C469.062 194.495 468.924 194.086 468.645 193.791C468.37 193.497 467.974 193.347 467.46 193.342L467.063 193.338C467.574 193.799 467.825 194.401 467.818 195.144C467.81 196.032 467.456 196.749 466.758 197.294C466.056 197.834 465.131 198.098 463.982 198.087L463.9 198.087ZM464.063 196.112C464.733 196.119 465.26 195.99 465.646 195.724C466.026 195.459 466.219 195.092 466.224 194.622C466.229 194.021 466.008 193.588 465.559 193.324L462.449 193.294C461.995 193.554 461.766 193.978 461.76 194.566C461.755 195.04 461.946 195.415 462.33 195.693C462.715 195.965 463.293 196.105 464.063 196.112ZM467.752 187.753L467.733 189.735L460.337 189.664L460.356 187.682L467.752 187.753ZM458.422 189.762C458.126 189.759 457.883 189.659 457.694 189.461C457.504 189.259 457.411 188.987 457.414 188.645C457.418 188.308 457.516 188.04 457.709 187.841C457.902 187.642 458.147 187.545 458.443 187.547C458.744 187.55 458.989 187.655 459.179 187.862C459.368 188.064 459.461 188.332 459.458 188.665C459.455 188.997 459.357 189.265 459.163 189.468C458.97 189.667 458.723 189.765 458.422 189.762ZM460.389 184.23L461.244 184.177C460.589 183.642 460.265 182.93 460.274 182.041C460.281 181.257 460.517 180.676 460.981 180.298C461.445 179.92 462.135 179.73 463.051 179.73L467.829 179.776L467.81 181.751L463.08 181.706C462.661 181.702 462.357 181.79 462.168 181.971C461.975 182.151 461.876 182.453 461.872 182.877C461.867 183.433 462.1 183.852 462.571 184.135L467.787 184.185L467.768 186.16L460.372 186.089L460.389 184.23Z" fill="#555555"/>
<path d="M424 105L418.804 95.25H429.196L424 105Z" fill="#D34735"/>
<path d="M424 0V101.5" stroke="#D34735" stroke-width="2" stroke-dasharray="8 8"/>
</g>
<defs>
<filter id="filter0_d" x="382" y="105" width="109" height="60" filterUnits="userSpaceOnUse" color-interpolation-filters="sRGB">
<feFlood flood-opacity="0" result="BackgroundImageFix"/>
<feColorMatrix in="SourceAlpha" type="matrix" values="0 0 0 0 0 0 0 0 0 0 0 0 0 0 0 0 0 0 127 0"/>
<feOffset dy="4"/>
<feGaussianBlur stdDeviation="2"/>
<feColorMatrix type="matrix" values="0 0 0 0 0 0 0 0 0 0 0 0 0 0 0 0 0 0 0.25 0"/>
<feBlend mode="normal" in2="BackgroundImageFix" result="effect1_dropShadow"/>
<feBlend mode="normal" in="SourceGraphic" in2="effect1_dropShadow" result="shape"/>
</filter>
<filter id="filter1_d" x="400.403" y="124.21" width="51.6053" height="34.1517" filterUnits="userSpaceOnUse" color-interpolation-filters="sRGB">
<feFlood flood-opacity="0" result="BackgroundImageFix"/>
<feColorMatrix in="SourceAlpha" type="matrix" values="0 0 0 0 0 0 0 0 0 0 0 0 0 0 0 0 0 0 127 0"/>
<feOffset dx="24" dy="4"/>
<feGaussianBlur stdDeviation="8"/>
<feColorMatrix type="matrix" values="0 0 0 0 0.135371 0 0 0 0 0.135371 0 0 0 0 0.135371 0 0 0 0.25 0"/>
<feBlend mode="normal" in2="BackgroundImageFix" result="effect1_dropShadow"/>
<feBlend mode="normal" in="SourceGraphic" in2="effect1_dropShadow" result="shape"/>
</filter>
<filter id="filter2_d" x="400.403" y="114.886" width="44.352" height="40.6068" filterUnits="userSpaceOnUse" color-interpolation-filters="sRGB">
<feFlood flood-opacity="0" result="BackgroundImageFix"/>
<feColorMatrix in="SourceAlpha" type="matrix" values="0 0 0 0 0 0 0 0 0 0 0 0 0 0 0 0 0 0 127 0"/>
<feOffset dx="24" dy="4"/>
<feGaussianBlur stdDeviation="8"/>
<feColorMatrix type="matrix" values="0 0 0 0 0.135371 0 0 0 0 0.135371 0 0 0 0 0.135371 0 0 0 0.25 0"/>
<feBlend mode="normal" in2="BackgroundImageFix" result="effect1_dropShadow"/>
<feBlend mode="normal" in="SourceGraphic" in2="effect1_dropShadow" result="shape"/>
</filter>
<filter id="filter3_d" x="405.48" y="109.148" width="46.528" height="46.3448" filterUnits="userSpaceOnUse" color-interpolation-filters="sRGB">
<feFlood flood-opacity="0" result="BackgroundImageFix"/>
<feColorMatrix in="SourceAlpha" type="matrix" values="0 0 0 0 0 0 0 0 0 0 0 0 0 0 0 0 0 0 127 0"/>
<feOffset dx="24" dy="4"/>
<feGaussianBlur stdDeviation="8"/>
<feColorMatrix type="matrix" values="0 0 0 0 0.135371 0 0 0 0 0.135371 0 0 0 0 0.135371 0 0 0 0.25 0"/>
<feBlend mode="normal" in2="BackgroundImageFix" result="effect1_dropShadow"/>
<feBlend mode="normal" in="SourceGraphic" in2="effect1_dropShadow" result="shape"/>
</filter>
<filter id="filter4_d" x="394" y="157" width="45" height="93" filterUnits="userSpaceOnUse" color-interpolation-filters="sRGB">
<feFlood flood-opacity="0" result="BackgroundImageFix"/>
<feColorMatrix in="SourceAlpha" type="matrix" values="0 0 0 0 0 0 0 0 0 0 0 0 0 0 0 0 0 0 127 0"/>
<feOffset dy="4"/>
<feGaussianBlur stdDeviation="2"/>
<feColorMatrix type="matrix" values="0 0 0 0 0 0 0 0 0 0 0 0 0 0 0 0 0 0 0.25 0"/>
<feBlend mode="normal" in2="BackgroundImageFix" result="effect1_dropShadow"/>
<feBlend mode="normal" in="SourceGraphic" in2="effect1_dropShadow" result="shape"/>
</filter>
<filter id="filter5_d" x="433" y="157" width="45" height="93" filterUnits="userSpaceOnUse" color-interpolation-filters="sRGB">
<feFlood flood-opacity="0" result="BackgroundImageFix"/>
<feColorMatrix in="SourceAlpha" type="matrix" values="0 0 0 0 0 0 0 0 0 0 0 0 0 0 0 0 0 0 127 0"/>
<feOffset dy="4"/>
<feGaussianBlur stdDeviation="2"/>
<feColorMatrix type="matrix" values="0 0 0 0 0 0 0 0 0 0 0 0 0 0 0 0 0 0 0.25 0"/>
<feBlend mode="normal" in2="BackgroundImageFix" result="effect1_dropShadow"/>
<feBlend mode="normal" in="SourceGraphic" in2="effect1_dropShadow" result="shape"/>
</filter>
<clipPath id="clip0">
<rect width="640" height="245" fill="white"/>
</clipPath>
</defs>
</svg>
