<svg width="552" height="57" viewBox="0 0 552 57" fill="none" xmlns="http://www.w3.org/2000/svg">
<rect x="4.90475" y="1" width="74.19" height="47.136" rx="7" fill="#A0BFF9"/>
<path d="M23.979 20.5352H21.4107L20.9224 22H19.3648L22.0112 14.8906H23.3687L26.0298 22H24.4722L23.979 20.5352ZM21.8062 19.3486H23.5835L22.6899 16.6875L21.8062 19.3486ZM28.1587 19.4951V22H26.6939V14.8906H29.4673C30.0011 14.8906 30.4699 14.9883 30.8735 15.1836C31.2804 15.3789 31.5929 15.6572 31.811 16.0186C32.0291 16.3766 32.1382 16.7852 32.1382 17.2441C32.1382 17.9408 31.8989 18.4909 31.4204 18.8945C30.9452 19.2949 30.286 19.4951 29.4429 19.4951H28.1587ZM28.1587 18.3086H29.4673C29.8547 18.3086 30.1493 18.2174 30.3511 18.0352C30.5562 17.8529 30.6587 17.5924 30.6587 17.2539C30.6587 16.9056 30.5562 16.624 30.3511 16.4092C30.146 16.1943 29.8628 16.0837 29.5015 16.0771H28.1587V18.3086ZM34.7066 22H33.2417V14.8906H34.7066V22ZM44.3452 22H42.8804V18.9531H40.0239V22H38.5591V14.8906H40.0239V17.7715H42.8804V14.8906H44.3452V22ZM50.8345 16.0771H48.6567V22H47.1919V16.0771H45.0435V14.8906H50.8345V16.0771ZM57.104 16.0771H54.9263V22H53.4614V16.0771H51.313V14.8906H57.104V16.0771ZM59.4087 19.4951V22H57.9439V14.8906H60.7173C61.2511 14.8906 61.7199 14.9883 62.1235 15.1836C62.5304 15.3789 62.8429 15.6572 63.061 16.0186C63.2791 16.3766 63.3882 16.7852 63.3882 17.2441C63.3882 17.9408 63.1489 18.4909 62.6704 18.8945C62.1952 19.2949 61.536 19.4951 60.6929 19.4951H59.4087ZM59.4087 18.3086H60.7173C61.1047 18.3086 61.3993 18.2174 61.6011 18.0352C61.8062 17.8529 61.9087 17.5924 61.9087 17.2539C61.9087 16.9056 61.8062 16.624 61.6011 16.4092C61.396 16.1943 61.1128 16.0837 60.7515 16.0771H59.4087V18.3086ZM26.5083 29.293C26.8827 28.8438 27.353 28.6191 27.9194 28.6191C29.0653 28.6191 29.6463 29.2848 29.6626 30.6162V34H28.2515V30.6553C28.2515 30.3525 28.1864 30.1296 28.0562 29.9863C27.926 29.8398 27.7095 29.7666 27.4067 29.7666C26.9933 29.7666 26.6939 29.9261 26.5083 30.2451V34H25.0972V26.5H26.5083V29.293ZM33.7886 34C33.7235 33.873 33.6763 33.7152 33.647 33.5264C33.3052 33.9072 32.8608 34.0977 32.314 34.0977C31.7964 34.0977 31.3667 33.9479 31.0249 33.6484C30.6864 33.349 30.5171 32.9714 30.5171 32.5156C30.5171 31.9557 30.7238 31.526 31.1372 31.2266C31.5539 30.9271 32.1545 30.7757 32.939 30.7725H33.5884V30.4697C33.5884 30.2256 33.5249 30.0303 33.398 29.8838C33.2743 29.7373 33.0773 29.6641 32.8071 29.6641C32.5695 29.6641 32.3823 29.721 32.2456 29.835C32.1121 29.9489 32.0454 30.1051 32.0454 30.3037H30.6343C30.6343 29.9977 30.7287 29.7145 30.9175 29.4541C31.1063 29.1937 31.3732 28.9902 31.7183 28.8438C32.0633 28.694 32.4507 28.6191 32.8804 28.6191C33.5314 28.6191 34.0474 28.7835 34.4282 29.1123C34.8123 29.4378 35.0044 29.8968 35.0044 30.4893V32.7793C35.0077 33.2806 35.0776 33.6598 35.2144 33.917V34H33.7886ZM32.6216 33.0186C32.8299 33.0186 33.022 32.973 33.1978 32.8818C33.3735 32.7874 33.5038 32.6621 33.5884 32.5059V31.5977H33.061C32.3547 31.5977 31.9787 31.8418 31.9331 32.3301L31.9282 32.4131C31.9282 32.5889 31.9901 32.7337 32.1138 32.8477C32.2375 32.9616 32.4067 33.0186 32.6216 33.0186ZM37.3872 28.7168L37.4312 29.3271C37.8088 28.8551 38.3149 28.6191 38.9497 28.6191C39.5096 28.6191 39.9263 28.7835 40.1997 29.1123C40.4732 29.4411 40.6131 29.9326 40.6196 30.5869V34H39.2085V30.6211C39.2085 30.3216 39.1434 30.1051 39.0132 29.9717C38.883 29.835 38.6665 29.7666 38.3638 29.7666C37.9666 29.7666 37.6688 29.9359 37.4702 30.2744V34H36.0591V28.7168H37.3872ZM41.4741 31.3193C41.4741 30.4958 41.658 29.8398 42.0259 29.3516C42.397 28.8633 42.9032 28.6191 43.5444 28.6191C44.0588 28.6191 44.4836 28.8112 44.8189 29.1953V26.5H46.2349V34H44.9605L44.8921 33.4385C44.5405 33.8779 44.0881 34.0977 43.5347 34.0977C42.9129 34.0977 42.4133 33.8535 42.0357 33.3652C41.6613 32.8737 41.4741 32.1917 41.4741 31.3193ZM42.8853 31.4219C42.8853 31.9167 42.9715 32.2959 43.1441 32.5596C43.3166 32.8232 43.5672 32.9551 43.896 32.9551C44.3322 32.9551 44.6398 32.7712 44.8189 32.4033V30.3184C44.6431 29.9505 44.3387 29.7666 43.9058 29.7666C43.2254 29.7666 42.8853 30.3184 42.8853 31.4219ZM48.8179 34H47.4019V26.5H48.8179V34ZM52.4165 34.0977C51.6418 34.0977 51.0103 33.86 50.522 33.3848C50.037 32.9095 49.7944 32.2764 49.7944 31.4854V31.3486C49.7944 30.818 49.897 30.3444 50.1021 29.9277C50.3071 29.5078 50.5969 29.1855 50.9712 28.9609C51.3488 28.7331 51.7785 28.6191 52.2603 28.6191C52.9829 28.6191 53.551 28.847 53.9644 29.3027C54.381 29.7585 54.5894 30.4046 54.5894 31.2412V31.8174H51.2251C51.2707 32.1624 51.4074 32.4391 51.6353 32.6475C51.8664 32.8558 52.1577 32.96 52.5093 32.96C53.0529 32.96 53.4777 32.763 53.7837 32.3691L54.4771 33.1455C54.2655 33.445 53.979 33.6794 53.6177 33.8486C53.2564 34.0146 52.856 34.0977 52.4165 34.0977ZM52.2554 29.7617C51.9754 29.7617 51.7476 29.8561 51.5718 30.0449C51.3993 30.2337 51.2886 30.5039 51.2398 30.8555H53.2026V30.7432C53.1961 30.4307 53.1115 30.1898 52.9487 30.0205C52.786 29.848 52.5549 29.7617 52.2554 29.7617ZM58.3638 30.04C58.1717 30.014 58.0024 30.001 57.856 30.001C57.3221 30.001 56.9722 30.1816 56.8062 30.543V34H55.395V28.7168H56.728L56.7671 29.3467C57.0503 28.8617 57.4426 28.6191 57.9439 28.6191C58.1001 28.6191 58.2466 28.6403 58.3833 28.6826L58.3638 30.04Z" fill="white"/>
<rect x="79" y="23.5" width="16.0444" height="4" fill="white"/>
<path d="M98 25L92.5111 31C92.5111 31 93.7778 27.7263 93.7778 25.5C93.7778 23.2737 92.5111 20 92.5111 20L98 25Z" fill="white" stroke="white"/>
</svg>
