<svg width="551" height="66" viewBox="0 0 551 66" fill="none" xmlns="http://www.w3.org/2000/svg">
<g clip-path="url(#clip0)">
<rect x="43.5" y="7" width="49.8222" height="4" transform="rotate(90 43.5 7)" fill="white"/>
<path d="M42 66L36 48.9555C36 48.9555 39.2737 52.8889 41.5 52.8889C43.7263 52.8889 47 48.9555 47 48.9555L42 66Z" fill="white" stroke="white"/>
<path d="M54.8604 31.5352H52.292L51.8037 33H50.2461L52.8926 25.8906H54.25L56.9111 33H55.3535L54.8604 31.5352ZM52.6875 30.3486H54.4648L53.5713 27.6875L52.6875 30.3486ZM59.04 30.4951V33H57.5752V25.8906H60.3486C60.8825 25.8906 61.3512 25.9883 61.7549 26.1836C62.1618 26.3789 62.4743 26.6572 62.6924 27.0186C62.9105 27.3766 63.0195 27.7852 63.0195 28.2441C63.0195 28.9408 62.7803 29.4909 62.3018 29.8945C61.8265 30.2949 61.1673 30.4951 60.3242 30.4951H59.04ZM59.04 29.3086H60.3486C60.736 29.3086 61.0306 29.2174 61.2324 29.0352C61.4375 28.8529 61.54 28.5924 61.54 28.2539C61.54 27.9056 61.4375 27.624 61.2324 27.4092C61.0273 27.1943 60.7441 27.0837 60.3828 27.0771H59.04V29.3086ZM65.5879 33H64.123V25.8906H65.5879V33ZM72.0723 30.3975H70.9053V33H69.4404V25.8906H72.082C72.9219 25.8906 73.5697 26.0778 74.0254 26.4521C74.4811 26.8265 74.709 27.3555 74.709 28.0391C74.709 28.5241 74.6032 28.9294 74.3916 29.2549C74.1833 29.5771 73.8659 29.8343 73.4395 30.0264L74.9775 32.9316V33H73.4053L72.0723 30.3975ZM70.9053 29.2109H72.0869C72.4548 29.2109 72.7396 29.1182 72.9414 28.9326C73.1432 28.7438 73.2441 28.485 73.2441 28.1562C73.2441 27.821 73.1481 27.5573 72.9561 27.3652C72.7673 27.1732 72.4759 27.0771 72.082 27.0771H70.9053V29.2109ZM78.166 33.0977C77.3913 33.0977 76.7598 32.86 76.2715 32.3848C75.7865 31.9095 75.5439 31.2764 75.5439 30.4854V30.3486C75.5439 29.818 75.6465 29.3444 75.8516 28.9277C76.0566 28.5078 76.3464 28.1855 76.7207 27.9609C77.0983 27.7331 77.528 27.6191 78.0098 27.6191C78.7324 27.6191 79.3005 27.847 79.7139 28.3027C80.1305 28.7585 80.3389 29.4046 80.3389 30.2412V30.8174H76.9746C77.0202 31.1624 77.1569 31.4391 77.3848 31.6475C77.6159 31.8558 77.9072 31.96 78.2588 31.96C78.8024 31.96 79.2272 31.763 79.5332 31.3691L80.2266 32.1455C80.015 32.445 79.7285 32.6794 79.3672 32.8486C79.0059 33.0146 78.6055 33.0977 78.166 33.0977ZM78.0049 28.7617C77.7249 28.7617 77.4971 28.8561 77.3213 29.0449C77.1488 29.2337 77.0381 29.5039 76.9893 29.8555H78.9521V29.7432C78.9456 29.4307 78.861 29.1898 78.6982 29.0205C78.5355 28.848 78.3044 28.7617 78.0049 28.7617ZM80.9248 30.3096C80.9248 29.4795 81.1087 28.8236 81.4766 28.3418C81.8477 27.86 82.3555 27.6191 83 27.6191C83.5664 27.6191 84.0173 27.8356 84.3525 28.2686L84.4453 27.7168H85.6855V35.0312H84.2695V32.5459C83.944 32.9137 83.5176 33.0977 82.9902 33.0977C82.362 33.0977 81.8607 32.8535 81.4863 32.3652C81.112 31.877 80.9248 31.1917 80.9248 30.3096ZM82.3359 30.4121C82.3359 30.9167 82.4238 31.3008 82.5996 31.5645C82.7786 31.8281 83.0293 31.96 83.3516 31.96C83.7845 31.96 84.0905 31.7874 84.2695 31.4424V29.2598C84.0938 28.9277 83.791 28.7617 83.3613 28.7617C83.0358 28.7617 82.7835 28.8936 82.6045 29.1572C82.4255 29.4209 82.3359 29.8392 82.3359 30.4121ZM89.9629 32.4629C89.6146 32.8861 89.1328 33.0977 88.5176 33.0977C87.9512 33.0977 87.5182 32.9349 87.2188 32.6094C86.9225 32.2839 86.7712 31.807 86.7646 31.1787V27.7168H88.1758V31.1299C88.1758 31.68 88.4264 31.9551 88.9277 31.9551C89.4062 31.9551 89.735 31.7891 89.9141 31.457V27.7168H91.3301V33H90.002L89.9629 32.4629ZM94.8262 33.0977C94.0514 33.0977 93.4199 32.86 92.9316 32.3848C92.4466 31.9095 92.2041 31.2764 92.2041 30.4854V30.3486C92.2041 29.818 92.3066 29.3444 92.5117 28.9277C92.7168 28.5078 93.0065 28.1855 93.3809 27.9609C93.7585 27.7331 94.1882 27.6191 94.6699 27.6191C95.3926 27.6191 95.9606 27.847 96.374 28.3027C96.7907 28.7585 96.999 29.4046 96.999 30.2412V30.8174H93.6348C93.6803 31.1624 93.8171 31.4391 94.0449 31.6475C94.276 31.8558 94.5674 31.96 94.9189 31.96C95.4626 31.96 95.8874 31.763 96.1934 31.3691L96.8867 32.1455C96.6751 32.445 96.3887 32.6794 96.0273 32.8486C95.666 33.0146 95.2656 33.0977 94.8262 33.0977ZM94.665 28.7617C94.3851 28.7617 94.1572 28.8561 93.9814 29.0449C93.8089 29.2337 93.6982 29.5039 93.6494 29.8555H95.6123V29.7432C95.6058 29.4307 95.5212 29.1898 95.3584 29.0205C95.1956 28.848 94.9645 28.7617 94.665 28.7617ZM100.666 31.54C100.666 31.3675 100.58 31.2324 100.407 31.1348C100.238 31.0339 99.9645 30.9443 99.5869 30.8662C98.3304 30.6025 97.7021 30.0687 97.7021 29.2646C97.7021 28.7959 97.8958 28.4053 98.2832 28.0928C98.6738 27.777 99.1833 27.6191 99.8115 27.6191C100.482 27.6191 101.018 27.777 101.418 28.0928C101.822 28.4085 102.023 28.8187 102.023 29.3232H100.612C100.612 29.1214 100.547 28.9554 100.417 28.8252C100.287 28.6917 100.083 28.625 99.8066 28.625C99.569 28.625 99.3851 28.6787 99.2549 28.7861C99.1247 28.8936 99.0596 29.0303 99.0596 29.1963C99.0596 29.3525 99.1328 29.4795 99.2793 29.5771C99.429 29.6715 99.6797 29.7546 100.031 29.8262C100.383 29.8945 100.679 29.9727 100.92 30.0605C101.665 30.334 102.038 30.8076 102.038 31.4814C102.038 31.9632 101.831 32.3538 101.418 32.6533C101.005 32.9495 100.471 33.0977 99.8164 33.0977C99.3737 33.0977 98.9798 33.0195 98.6348 32.8633C98.293 32.7038 98.0244 32.4873 97.8291 32.2139C97.6338 31.9372 97.5361 31.6393 97.5361 31.3203H98.874C98.887 31.571 98.9798 31.763 99.1523 31.8965C99.3249 32.0299 99.556 32.0967 99.8457 32.0967C100.116 32.0967 100.319 32.0462 100.456 31.9453C100.596 31.8411 100.666 31.7061 100.666 31.54ZM104.641 26.418V27.7168H105.544V28.752H104.641V31.3887C104.641 31.584 104.678 31.724 104.753 31.8086C104.828 31.8932 104.971 31.9355 105.183 31.9355C105.339 31.9355 105.477 31.9242 105.598 31.9014V32.9707C105.321 33.0553 105.036 33.0977 104.743 33.0977C103.754 33.0977 103.249 32.598 103.229 31.5986V28.752H102.458V27.7168H103.229V26.418H104.641Z" fill="white"/>
</g>
<defs>
<clipPath id="clip0">
<rect width="551" height="66" fill="white"/>
</clipPath>
</defs>
</svg>
