<svg width="552" height="57" viewBox="0 0 552 57" fill="none" xmlns="http://www.w3.org/2000/svg">
<rect x="98.8668" y="3" width="74.19" height="47.136" rx="7" fill="#A0BFF9"/>
<path d="M105.441 24C105.376 23.873 105.329 23.7152 105.299 23.5264C104.958 23.9072 104.513 24.0977 103.966 24.0977C103.449 24.0977 103.019 23.9479 102.677 23.6484C102.339 23.349 102.17 22.9714 102.17 22.5156C102.17 21.9557 102.376 21.526 102.79 21.2266C103.206 20.9271 103.807 20.7757 104.591 20.7725H105.241V20.4697C105.241 20.2256 105.177 20.0303 105.05 19.8838C104.927 19.7373 104.73 19.6641 104.46 19.6641C104.222 19.6641 104.035 19.721 103.898 19.835C103.765 19.9489 103.698 20.1051 103.698 20.3037H102.287C102.287 19.9977 102.381 19.7145 102.57 19.4541C102.759 19.1937 103.026 18.9902 103.371 18.8438C103.716 18.694 104.103 18.6191 104.533 18.6191C105.184 18.6191 105.7 18.7835 106.081 19.1123C106.465 19.4378 106.657 19.8968 106.657 20.4893V22.7793C106.66 23.2806 106.73 23.6598 106.867 23.917V24H105.441ZM104.274 23.0186C104.482 23.0186 104.674 22.973 104.85 22.8818C105.026 22.7874 105.156 22.6621 105.241 22.5059V21.5977H104.713C104.007 21.5977 103.631 21.8418 103.586 22.3301L103.581 22.4131C103.581 22.5889 103.643 22.7337 103.766 22.8477C103.89 22.9616 104.059 23.0186 104.274 23.0186ZM110.905 23.4629C110.557 23.8861 110.075 24.0977 109.46 24.0977C108.893 24.0977 108.46 23.9349 108.161 23.6094C107.865 23.2839 107.713 22.807 107.707 22.1787V18.7168H109.118V22.1299C109.118 22.68 109.368 22.9551 109.87 22.9551C110.348 22.9551 110.677 22.7891 110.856 22.457V18.7168H112.272V24H110.944L110.905 23.4629ZM115.026 17.418V18.7168H115.929V19.752H115.026V22.3887C115.026 22.584 115.063 22.724 115.138 22.8086C115.213 22.8932 115.356 22.9355 115.568 22.9355C115.724 22.9355 115.863 22.9242 115.983 22.9014V23.9707C115.706 24.0553 115.421 24.0977 115.129 24.0977C114.139 24.0977 113.634 23.598 113.615 22.5986V19.752H112.843V18.7168H113.615V17.418H115.026ZM118.092 19.293C118.467 18.8438 118.937 18.6191 119.504 18.6191C120.649 18.6191 121.23 19.2848 121.247 20.6162V24H119.836V20.6553C119.836 20.3525 119.77 20.1296 119.64 19.9863C119.51 19.8398 119.294 19.7666 118.991 19.7666C118.577 19.7666 118.278 19.9261 118.092 20.2451V24H116.681V16.5H118.092V19.293ZM124.743 24.0977C123.968 24.0977 123.337 23.86 122.848 23.3848C122.363 22.9095 122.121 22.2764 122.121 21.4854V21.3486C122.121 20.818 122.223 20.3444 122.428 19.9277C122.633 19.5078 122.923 19.1855 123.297 18.9609C123.675 18.7331 124.105 18.6191 124.587 18.6191C125.309 18.6191 125.877 18.847 126.291 19.3027C126.707 19.7585 126.916 20.4046 126.916 21.2412V21.8174H123.551C123.597 22.1624 123.734 22.4391 123.962 22.6475C124.193 22.8558 124.484 22.96 124.836 22.96C125.379 22.96 125.804 22.763 126.11 22.3691L126.803 23.1455C126.592 23.445 126.305 23.6794 125.944 23.8486C125.583 24.0146 125.182 24.0977 124.743 24.0977ZM124.582 19.7617C124.302 19.7617 124.074 19.8561 123.898 20.0449C123.726 20.2337 123.615 20.5039 123.566 20.8555H125.529V20.7432C125.522 20.4307 125.438 20.1898 125.275 20.0205C125.112 19.848 124.881 19.7617 124.582 19.7617ZM129.02 18.7168L129.064 19.3271C129.442 18.8551 129.948 18.6191 130.583 18.6191C131.143 18.6191 131.559 18.7835 131.833 19.1123C132.106 19.4411 132.246 19.9326 132.253 20.5869V24H130.841V20.6211C130.841 20.3216 130.776 20.1051 130.646 19.9717C130.516 19.835 130.299 19.7666 129.997 19.7666C129.6 19.7666 129.302 19.9359 129.103 20.2744V24H127.692V18.7168H129.02ZM135.016 17.418V18.7168H135.92V19.752H135.016V22.3887C135.016 22.584 135.054 22.724 135.129 22.8086C135.203 22.8932 135.347 22.9355 135.558 22.9355C135.714 22.9355 135.853 22.9242 135.973 22.9014V23.9707C135.697 24.0553 135.412 24.0977 135.119 24.0977C134.129 24.0977 133.625 23.598 133.605 22.5986V19.752H132.834V18.7168H133.605V17.418H135.016ZM138.195 24H136.779V18.7168H138.195V24ZM136.696 17.3496C136.696 17.138 136.766 16.9639 136.906 16.8271C137.049 16.6904 137.243 16.6221 137.487 16.6221C137.728 16.6221 137.92 16.6904 138.063 16.8271C138.206 16.9639 138.278 17.138 138.278 17.3496C138.278 17.5645 138.205 17.7402 138.058 17.877C137.915 18.0137 137.725 18.082 137.487 18.082C137.249 18.082 137.057 18.0137 136.911 17.877C136.768 17.7402 136.696 17.5645 136.696 17.3496ZM141.559 22.96C141.82 22.96 142.031 22.8883 142.194 22.7451C142.357 22.6019 142.441 22.4115 142.448 22.1738H143.771C143.768 22.5319 143.67 22.8607 143.478 23.1602C143.286 23.4564 143.022 23.6875 142.687 23.8535C142.355 24.0163 141.987 24.0977 141.584 24.0977C140.828 24.0977 140.233 23.8584 139.796 23.3799C139.36 22.8981 139.142 22.234 139.142 21.3877V21.2949C139.142 20.4811 139.359 19.8317 139.792 19.3467C140.225 18.8617 140.819 18.6191 141.574 18.6191C142.235 18.6191 142.764 18.8079 143.161 19.1855C143.561 19.5599 143.765 20.0596 143.771 20.6846H142.448C142.441 20.4111 142.357 20.1898 142.194 20.0205C142.031 19.848 141.816 19.7617 141.549 19.7617C141.221 19.7617 140.972 19.8822 140.802 20.123C140.636 20.3607 140.553 20.748 140.553 21.2852V21.4316C140.553 21.9753 140.636 22.3659 140.802 22.6035C140.968 22.8411 141.221 22.96 141.559 22.96ZM147.638 24C147.573 23.873 147.526 23.7152 147.497 23.5264C147.155 23.9072 146.711 24.0977 146.164 24.0977C145.646 24.0977 145.216 23.9479 144.875 23.6484C144.536 23.349 144.367 22.9714 144.367 22.5156C144.367 21.9557 144.574 21.526 144.987 21.2266C145.404 20.9271 146.004 20.7757 146.789 20.7725H147.438V20.4697C147.438 20.2256 147.375 20.0303 147.248 19.8838C147.124 19.7373 146.927 19.6641 146.657 19.6641C146.419 19.6641 146.232 19.721 146.095 19.835C145.962 19.9489 145.895 20.1051 145.895 20.3037H144.484C144.484 19.9977 144.578 19.7145 144.767 19.4541C144.956 19.1937 145.223 18.9902 145.568 18.8438C145.913 18.694 146.3 18.6191 146.73 18.6191C147.381 18.6191 147.897 18.7835 148.278 19.1123C148.662 19.4378 148.854 19.8968 148.854 20.4893V22.7793C148.857 23.2806 148.927 23.6598 149.064 23.917V24H147.638ZM146.471 23.0186C146.68 23.0186 146.872 22.973 147.047 22.8818C147.223 22.7874 147.353 22.6621 147.438 22.5059V21.5977H146.911C146.204 21.5977 145.828 21.8418 145.783 22.3301L145.778 22.4131C145.778 22.5889 145.84 22.7337 145.963 22.8477C146.087 22.9616 146.256 23.0186 146.471 23.0186ZM151.628 17.418V18.7168H152.531V19.752H151.628V22.3887C151.628 22.584 151.665 22.724 151.74 22.8086C151.815 22.8932 151.958 22.9355 152.17 22.9355C152.326 22.9355 152.464 22.9242 152.585 22.9014V23.9707C152.308 24.0553 152.023 24.0977 151.73 24.0977C150.74 24.0977 150.236 23.598 150.216 22.5986V19.752H149.445V18.7168H150.216V17.418H151.628ZM154.806 24H153.39V18.7168H154.806V24ZM153.307 17.3496C153.307 17.138 153.377 16.9639 153.517 16.8271C153.66 16.6904 153.854 16.6221 154.098 16.6221C154.339 16.6221 154.531 16.6904 154.674 16.8271C154.818 16.9639 154.889 17.138 154.889 17.3496C154.889 17.5645 154.816 17.7402 154.67 17.877C154.526 18.0137 154.336 18.082 154.098 18.082C153.861 18.082 153.669 18.0137 153.522 17.877C153.379 17.7402 153.307 17.5645 153.307 17.3496ZM155.754 21.3096C155.754 20.7855 155.854 20.3184 156.056 19.9082C156.258 19.498 156.548 19.1807 156.925 18.9561C157.306 18.7314 157.747 18.6191 158.249 18.6191C158.962 18.6191 159.543 18.8372 159.992 19.2734C160.444 19.7096 160.697 20.3021 160.749 21.0508L160.758 21.4121C160.758 22.2227 160.532 22.8737 160.08 23.3652C159.627 23.8535 159.02 24.0977 158.258 24.0977C157.497 24.0977 156.888 23.8535 156.432 23.3652C155.98 22.877 155.754 22.2129 155.754 21.373V21.3096ZM157.165 21.4121C157.165 21.9134 157.259 22.2975 157.448 22.5645C157.637 22.8281 157.907 22.96 158.258 22.96C158.6 22.96 158.867 22.8298 159.059 22.5693C159.251 22.3057 159.347 21.8857 159.347 21.3096C159.347 20.818 159.251 20.4372 159.059 20.167C158.867 19.8968 158.597 19.7617 158.249 19.7617C157.904 19.7617 157.637 19.8968 157.448 20.167C157.259 20.4339 157.165 20.849 157.165 21.4121ZM162.926 18.7168L162.97 19.3271C163.348 18.8551 163.854 18.6191 164.489 18.6191C165.049 18.6191 165.465 18.7835 165.739 19.1123C166.012 19.4411 166.152 19.9326 166.159 20.5869V24H164.748V20.6211C164.748 20.3216 164.683 20.1051 164.552 19.9717C164.422 19.835 164.206 19.7666 163.903 19.7666C163.506 19.7666 163.208 19.9359 163.009 20.2744V24H161.598V18.7168H162.926ZM104.806 36.6104H103.756L106.374 28.8906H107.423L104.806 36.6104ZM111.164 36C111.099 35.873 111.051 35.7152 111.022 35.5264C110.68 35.9072 110.236 36.0977 109.689 36.0977C109.171 36.0977 108.742 35.9479 108.4 35.6484C108.061 35.349 107.892 34.9714 107.892 34.5156C107.892 33.9557 108.099 33.526 108.512 33.2266C108.929 32.9271 109.53 32.7757 110.314 32.7725H110.963V32.4697C110.963 32.2256 110.9 32.0303 110.773 31.8838C110.649 31.7373 110.452 31.6641 110.182 31.6641C109.945 31.6641 109.757 31.721 109.621 31.835C109.487 31.9489 109.421 32.1051 109.421 32.3037H108.009C108.009 31.9977 108.104 31.7145 108.293 31.4541C108.481 31.1937 108.748 30.9902 109.093 30.8438C109.438 30.694 109.826 30.6191 110.255 30.6191C110.907 30.6191 111.422 30.7835 111.803 31.1123C112.187 31.4378 112.379 31.8968 112.379 32.4893V34.7793C112.383 35.2806 112.453 35.6598 112.589 35.917V36H111.164ZM109.997 35.0186C110.205 35.0186 110.397 34.973 110.573 34.8818C110.749 34.7874 110.879 34.6621 110.963 34.5059V33.5977H110.436C109.73 33.5977 109.354 33.8418 109.308 34.3301L109.303 34.4131C109.303 34.5889 109.365 34.7337 109.489 34.8477C109.613 34.9616 109.782 35.0186 109.997 35.0186ZM116.628 35.4629C116.279 35.8861 115.797 36.0977 115.182 36.0977C114.616 36.0977 114.183 35.9349 113.883 35.6094C113.587 35.2839 113.436 34.807 113.429 34.1787V30.7168H114.84V34.1299C114.84 34.68 115.091 34.9551 115.592 34.9551C116.071 34.9551 116.4 34.7891 116.579 34.457V30.7168H117.995V36H116.667L116.628 35.4629ZM120.749 29.418V30.7168H121.652V31.752H120.749V34.3887C120.749 34.584 120.786 34.724 120.861 34.8086C120.936 34.8932 121.079 34.9355 121.291 34.9355C121.447 34.9355 121.585 34.9242 121.706 34.9014V35.9707C121.429 36.0553 121.144 36.0977 120.851 36.0977C119.862 36.0977 119.357 35.598 119.338 34.5986V31.752H118.566V30.7168H119.338V29.418H120.749ZM123.815 31.293C124.189 30.8438 124.66 30.6191 125.226 30.6191C126.372 30.6191 126.953 31.2848 126.969 32.6162V36H125.558V32.6553C125.558 32.3525 125.493 32.1296 125.363 31.9863C125.233 31.8398 125.016 31.7666 124.713 31.7666C124.3 31.7666 124.001 31.9261 123.815 32.2451V36H122.404V28.5H123.815V31.293ZM127.814 33.3096C127.814 32.7855 127.915 32.3184 128.117 31.9082C128.319 31.498 128.608 31.1807 128.986 30.9561C129.367 30.7314 129.808 30.6191 130.309 30.6191C131.022 30.6191 131.603 30.8372 132.052 31.2734C132.505 31.7096 132.757 32.3021 132.809 33.0508L132.819 33.4121C132.819 34.2227 132.593 34.8737 132.14 35.3652C131.688 35.8535 131.081 36.0977 130.319 36.0977C129.557 36.0977 128.949 35.8535 128.493 35.3652C128.04 34.877 127.814 34.2129 127.814 33.373V33.3096ZM129.225 33.4121C129.225 33.9134 129.32 34.2975 129.508 34.5645C129.697 34.8281 129.967 34.96 130.319 34.96C130.661 34.96 130.928 34.8298 131.12 34.5693C131.312 34.3057 131.408 33.8857 131.408 33.3096C131.408 32.818 131.312 32.4372 131.12 32.167C130.928 31.8968 130.657 31.7617 130.309 31.7617C129.964 31.7617 129.697 31.8968 129.508 32.167C129.32 32.4339 129.225 32.849 129.225 33.4121ZM136.657 32.04C136.465 32.014 136.296 32.001 136.149 32.001C135.615 32.001 135.265 32.1816 135.099 32.543V36H133.688V30.7168H135.021L135.06 31.3467C135.343 30.8617 135.736 30.6191 136.237 30.6191C136.393 30.6191 136.54 30.6403 136.676 30.6826L136.657 32.04ZM138.83 36H137.414V30.7168H138.83V36ZM137.331 29.3496C137.331 29.138 137.401 28.9639 137.541 28.8271C137.684 28.6904 137.878 28.6221 138.122 28.6221C138.363 28.6221 138.555 28.6904 138.698 28.8271C138.841 28.9639 138.913 29.138 138.913 29.3496C138.913 29.5645 138.839 29.7402 138.693 29.877C138.55 30.0137 138.359 30.082 138.122 30.082C137.884 30.082 137.692 30.0137 137.546 29.877C137.402 29.7402 137.331 29.5645 137.331 29.3496ZM141.618 34.8623H144.201V36H139.816V35.1406L142.301 31.8594H139.889V30.7168H144.123V31.5518L141.618 34.8623ZM148.146 36C148.081 35.873 148.034 35.7152 148.004 35.5264C147.663 35.9072 147.218 36.0977 146.671 36.0977C146.154 36.0977 145.724 35.9479 145.382 35.6484C145.044 35.349 144.875 34.9714 144.875 34.5156C144.875 33.9557 145.081 33.526 145.495 33.2266C145.911 32.9271 146.512 32.7757 147.296 32.7725H147.946V32.4697C147.946 32.2256 147.882 32.0303 147.755 31.8838C147.632 31.7373 147.435 31.6641 147.165 31.6641C146.927 31.6641 146.74 31.721 146.603 31.835C146.47 31.9489 146.403 32.1051 146.403 32.3037H144.992C144.992 31.9977 145.086 31.7145 145.275 31.4541C145.464 31.1937 145.731 30.9902 146.076 30.8438C146.421 30.694 146.808 30.6191 147.238 30.6191C147.889 30.6191 148.405 30.7835 148.786 31.1123C149.17 31.4378 149.362 31.8968 149.362 32.4893V34.7793C149.365 35.2806 149.435 35.6598 149.572 35.917V36H148.146ZM146.979 35.0186C147.187 35.0186 147.379 34.973 147.555 34.8818C147.731 34.7874 147.861 34.6621 147.946 34.5059V33.5977H147.419C146.712 33.5977 146.336 33.8418 146.291 34.3301L146.286 34.4131C146.286 34.5889 146.348 34.7337 146.471 34.8477C146.595 34.9616 146.764 35.0186 146.979 35.0186ZM152.135 29.418V30.7168H153.039V31.752H152.135V34.3887C152.135 34.584 152.173 34.724 152.248 34.8086C152.323 34.8932 152.466 34.9355 152.677 34.9355C152.834 34.9355 152.972 34.9242 153.092 34.9014V35.9707C152.816 36.0553 152.531 36.0977 152.238 36.0977C151.248 36.0977 150.744 35.598 150.724 34.5986V31.752H149.953V30.7168H150.724V29.418H152.135ZM155.314 36H153.898V30.7168H155.314V36ZM153.815 29.3496C153.815 29.138 153.885 28.9639 154.025 28.8271C154.168 28.6904 154.362 28.6221 154.606 28.6221C154.847 28.6221 155.039 28.6904 155.182 28.8271C155.325 28.9639 155.397 29.138 155.397 29.3496C155.397 29.5645 155.324 29.7402 155.177 29.877C155.034 30.0137 154.844 30.082 154.606 30.082C154.368 30.082 154.176 30.0137 154.03 29.877C153.887 29.7402 153.815 29.5645 153.815 29.3496ZM156.261 33.3096C156.261 32.7855 156.362 32.3184 156.564 31.9082C156.766 31.498 157.056 31.1807 157.433 30.9561C157.814 30.7314 158.255 30.6191 158.756 30.6191C159.469 30.6191 160.05 30.8372 160.5 31.2734C160.952 31.7096 161.204 32.3021 161.256 33.0508L161.266 33.4121C161.266 34.2227 161.04 34.8737 160.588 35.3652C160.135 35.8535 159.528 36.0977 158.766 36.0977C158.004 36.0977 157.396 35.8535 156.94 35.3652C156.488 34.877 156.261 34.2129 156.261 33.373V33.3096ZM157.672 33.4121C157.672 33.9134 157.767 34.2975 157.956 34.5645C158.144 34.8281 158.415 34.96 158.766 34.96C159.108 34.96 159.375 34.8298 159.567 34.5693C159.759 34.3057 159.855 33.8857 159.855 33.3096C159.855 32.818 159.759 32.4372 159.567 32.167C159.375 31.8968 159.105 31.7617 158.756 31.7617C158.411 31.7617 158.144 31.8968 157.956 32.167C157.767 32.4339 157.672 32.849 157.672 33.4121ZM163.434 30.7168L163.478 31.3271C163.856 30.8551 164.362 30.6191 164.997 30.6191C165.557 30.6191 165.973 30.7835 166.247 31.1123C166.52 31.4411 166.66 31.9326 166.667 32.5869V36H165.255V32.6211C165.255 32.3216 165.19 32.1051 165.06 31.9717C164.93 31.835 164.713 31.7666 164.411 31.7666C164.014 31.7666 163.716 31.9359 163.517 32.2744V36H162.106V30.7168H163.434Z" fill="white"/>
<rect x="173" y="25.5" width="16.0444" height="4" fill="white"/>
<path d="M192 27L186.511 33C186.511 33 187.778 29.7263 187.778 27.5C187.778 25.2737 186.511 22 186.511 22L192 27Z" fill="white" stroke="white"/>
</svg>
