<svg width="552" height="236" viewBox="0 0 552 236" fill="none" xmlns="http://www.w3.org/2000/svg">
<rect width="552" height="236" rx="32" fill="#507ED4"/>
<path d="M241.039 17.9492H237.443L236.76 20H234.579L238.284 10.0469H240.185L243.91 20H241.729L241.039 17.9492ZM237.997 16.2881H240.485L239.234 12.5625L237.997 16.2881ZM246.891 16.4932V20H244.84V10.0469H248.723C249.47 10.0469 250.126 10.1836 250.691 10.457C251.261 10.7305 251.699 11.1201 252.004 11.626C252.309 12.1273 252.462 12.6992 252.462 13.3418C252.462 14.3171 252.127 15.0872 251.457 15.6523C250.792 16.2129 249.869 16.4932 248.688 16.4932H246.891ZM246.891 14.832H248.723C249.265 14.832 249.677 14.7044 249.96 14.4492C250.247 14.194 250.391 13.8294 250.391 13.3555C250.391 12.8678 250.247 12.4736 249.96 12.1729C249.673 11.8721 249.276 11.7171 248.771 11.708H246.891V14.832ZM256.058 20H254.007V10.0469H256.058V20ZM263.502 18.3525H267.856V20H261.451V10.0469H263.502V18.3525ZM270.994 20H269.012V12.6035H270.994V20ZM268.896 10.6895C268.896 10.3932 268.993 10.1494 269.189 9.95801C269.39 9.7666 269.661 9.6709 270.003 9.6709C270.34 9.6709 270.609 9.7666 270.81 9.95801C271.01 10.1494 271.11 10.3932 271.11 10.6895C271.11 10.9902 271.008 11.2363 270.803 11.4277C270.602 11.6191 270.336 11.7148 270.003 11.7148C269.67 11.7148 269.401 11.6191 269.196 11.4277C268.996 11.2363 268.896 10.9902 268.896 10.6895ZM273.168 20V14.0527H272.067V12.6035H273.168V11.9746C273.168 11.1452 273.405 10.5026 273.879 10.0469C274.357 9.58659 275.025 9.35645 275.882 9.35645C276.155 9.35645 276.49 9.40202 276.887 9.49316L276.866 11.0244C276.702 10.9834 276.502 10.9629 276.265 10.9629C275.522 10.9629 275.15 11.3115 275.15 12.0088V12.6035H276.62V14.0527H275.15V20H273.168ZM280.886 20.1367C279.801 20.1367 278.917 19.804 278.233 19.1387C277.554 18.4733 277.215 17.5869 277.215 16.4795V16.2881C277.215 15.5452 277.358 14.8822 277.646 14.2988C277.933 13.7109 278.338 13.2598 278.862 12.9453C279.391 12.6263 279.993 12.4668 280.667 12.4668C281.679 12.4668 282.474 12.7858 283.053 13.4238C283.636 14.0618 283.928 14.9665 283.928 16.1377V16.9443H279.218C279.282 17.4274 279.473 17.8148 279.792 18.1064C280.116 18.3981 280.523 18.5439 281.016 18.5439C281.777 18.5439 282.371 18.2682 282.8 17.7168L283.771 18.8037C283.474 19.223 283.073 19.5511 282.567 19.7881C282.062 20.0205 281.501 20.1367 280.886 20.1367ZM280.66 14.0664C280.268 14.0664 279.949 14.1986 279.703 14.4629C279.462 14.7272 279.307 15.1055 279.238 15.5977H281.986V15.4404C281.977 15.0029 281.859 14.6657 281.631 14.4287C281.403 14.1872 281.079 14.0664 280.66 14.0664ZM296.485 16.6846C296.408 17.7555 296.011 18.5986 295.296 19.2139C294.585 19.8291 293.646 20.1367 292.479 20.1367C291.203 20.1367 290.199 19.7083 289.465 18.8516C288.736 17.9902 288.371 16.8099 288.371 15.3105V14.7021C288.371 13.7451 288.54 12.902 288.877 12.1729C289.214 11.4437 289.695 10.8854 290.319 10.498C290.948 10.1061 291.677 9.91016 292.507 9.91016C293.655 9.91016 294.58 10.2178 295.282 10.833C295.984 11.4482 296.39 12.3118 296.499 13.4238H294.448C294.398 12.7812 294.218 12.3164 293.908 12.0293C293.603 11.7376 293.136 11.5918 292.507 11.5918C291.823 11.5918 291.311 11.8379 290.969 12.3301C290.632 12.8177 290.458 13.5765 290.449 14.6064V15.3584C290.449 16.4339 290.611 17.2201 290.935 17.7168C291.263 18.2135 291.778 18.4619 292.479 18.4619C293.113 18.4619 293.585 18.3184 293.895 18.0312C294.209 17.7396 294.389 17.2907 294.435 16.6846H296.485ZM300.464 17.2041L301.831 12.6035H303.95L300.977 21.1484L300.812 21.5381C300.37 22.5042 299.641 22.9873 298.625 22.9873C298.338 22.9873 298.046 22.944 297.75 22.8574V21.3604L298.051 21.3672C298.424 21.3672 298.702 21.3102 298.885 21.1963C299.072 21.0824 299.217 20.8932 299.322 20.6289L299.555 20.0205L296.964 12.6035H299.09L300.464 17.2041ZM307.71 18.5439C308.075 18.5439 308.371 18.4437 308.599 18.2432C308.826 18.0426 308.945 17.776 308.954 17.4434H310.807C310.802 17.9447 310.665 18.4049 310.396 18.8242C310.128 19.2389 309.758 19.5625 309.289 19.7949C308.824 20.0228 308.309 20.1367 307.744 20.1367C306.687 20.1367 305.853 19.8018 305.242 19.1318C304.632 18.4574 304.326 17.5277 304.326 16.3428V16.2129C304.326 15.0736 304.629 14.1644 305.235 13.4854C305.841 12.8063 306.673 12.4668 307.73 12.4668C308.656 12.4668 309.396 12.7311 309.952 13.2598C310.513 13.7839 310.798 14.4834 310.807 15.3584H308.954C308.945 14.9756 308.826 14.6657 308.599 14.4287C308.371 14.1872 308.07 14.0664 307.696 14.0664C307.236 14.0664 306.887 14.235 306.65 14.5723C306.418 14.9049 306.302 15.4473 306.302 16.1992V16.4043C306.302 17.1654 306.418 17.7122 306.65 18.0449C306.883 18.3776 307.236 18.5439 307.71 18.5439ZM314.02 20H312.037V9.5H314.02V20ZM319.058 20.1367C317.973 20.1367 317.089 19.804 316.405 19.1387C315.726 18.4733 315.387 17.5869 315.387 16.4795V16.2881C315.387 15.5452 315.53 14.8822 315.817 14.2988C316.104 13.7109 316.51 13.2598 317.034 12.9453C317.563 12.6263 318.164 12.4668 318.839 12.4668C319.851 12.4668 320.646 12.7858 321.225 13.4238C321.808 14.0618 322.1 14.9665 322.1 16.1377V16.9443H317.39C317.453 17.4274 317.645 17.8148 317.964 18.1064C318.287 18.3981 318.695 18.5439 319.188 18.5439C319.949 18.5439 320.543 18.2682 320.972 17.7168L321.942 18.8037C321.646 19.223 321.245 19.5511 320.739 19.7881C320.233 20.0205 319.673 20.1367 319.058 20.1367ZM318.832 14.0664C318.44 14.0664 318.121 14.1986 317.875 14.4629C317.633 14.7272 317.479 15.1055 317.41 15.5977H320.158V15.4404C320.149 15.0029 320.031 14.6657 319.803 14.4287C319.575 14.1872 319.251 14.0664 318.832 14.0664Z" fill="white"/>
</svg>
