<svg width="276" height="57" viewBox="0 0 276 57" fill="none" xmlns="http://www.w3.org/2000/svg">
<rect x="197" y="4" width="74.19" height="46" rx="7" fill="#A0BFF9"/>
<path d="M218.287 21.4072C218.287 22.221 218.101 22.8737 217.73 23.3652C217.362 23.8535 216.864 24.0977 216.236 24.0977C215.702 24.0977 215.271 23.9121 214.942 23.541V26.0312H213.531V18.7168H214.839L214.888 19.2344C215.23 18.8242 215.676 18.6191 216.226 18.6191C216.877 18.6191 217.383 18.86 217.745 19.3418C218.106 19.8236 218.287 20.4876 218.287 21.334V21.4072ZM216.876 21.3047C216.876 20.8132 216.788 20.4339 216.612 20.167C216.439 19.9001 216.187 19.7666 215.855 19.7666C215.412 19.7666 215.108 19.9359 214.942 20.2744V22.4375C215.114 22.7858 215.422 22.96 215.865 22.96C216.539 22.96 216.876 22.4082 216.876 21.3047ZM221.597 24.0977C220.822 24.0977 220.191 23.86 219.703 23.3848C219.218 22.9095 218.975 22.2764 218.975 21.4854V21.3486C218.975 20.818 219.078 20.3444 219.283 19.9277C219.488 19.5078 219.778 19.1855 220.152 18.9609C220.529 18.7331 220.959 18.6191 221.441 18.6191C222.164 18.6191 222.732 18.847 223.145 19.3027C223.562 19.7585 223.77 20.4046 223.77 21.2412V21.8174H220.406C220.451 22.1624 220.588 22.4391 220.816 22.6475C221.047 22.8558 221.338 22.96 221.69 22.96C222.234 22.96 222.658 22.763 222.964 22.3691L223.658 23.1455C223.446 23.445 223.16 23.6794 222.798 23.8486C222.437 24.0146 222.037 24.0977 221.597 24.0977ZM221.436 19.7617C221.156 19.7617 220.928 19.8561 220.752 20.0449C220.58 20.2337 220.469 20.5039 220.42 20.8555H222.383V20.7432C222.377 20.4307 222.292 20.1898 222.129 20.0205C221.967 19.848 221.736 19.7617 221.436 19.7617ZM227.544 20.04C227.352 20.014 227.183 20.001 227.037 20.001C226.503 20.001 226.153 20.1816 225.987 20.543V24H224.576V18.7168H225.909L225.948 19.3467C226.231 18.8617 226.623 18.6191 227.125 18.6191C227.281 18.6191 227.427 18.6403 227.564 18.6826L227.544 20.04ZM231.089 22.54C231.089 22.3675 231.003 22.2324 230.831 22.1348C230.661 22.0339 230.388 21.9443 230.01 21.8662C228.754 21.6025 228.126 21.0687 228.126 20.2646C228.126 19.7959 228.319 19.4053 228.707 19.0928C229.097 18.777 229.607 18.6191 230.235 18.6191C230.905 18.6191 231.441 18.777 231.841 19.0928C232.245 19.4085 232.447 19.8187 232.447 20.3232H231.036C231.036 20.1214 230.971 19.9554 230.84 19.8252C230.71 19.6917 230.507 19.625 230.23 19.625C229.992 19.625 229.808 19.6787 229.678 19.7861C229.548 19.8936 229.483 20.0303 229.483 20.1963C229.483 20.3525 229.556 20.4795 229.703 20.5771C229.852 20.6715 230.103 20.7546 230.455 20.8262C230.806 20.8945 231.102 20.9727 231.343 21.0605C232.089 21.334 232.461 21.8076 232.461 22.4814C232.461 22.9632 232.255 23.3538 231.841 23.6533C231.428 23.9495 230.894 24.0977 230.24 24.0977C229.797 24.0977 229.403 24.0195 229.058 23.8633C228.716 23.7038 228.448 23.4873 228.252 23.2139C228.057 22.9372 227.96 22.6393 227.96 22.3203H229.297C229.31 22.571 229.403 22.763 229.576 22.8965C229.748 23.0299 229.979 23.0967 230.269 23.0967C230.539 23.0967 230.743 23.0462 230.879 22.9453C231.019 22.8411 231.089 22.7061 231.089 22.54ZM234.864 24H233.448V18.7168H234.864V24ZM233.365 17.3496C233.365 17.138 233.435 16.9639 233.575 16.8271C233.718 16.6904 233.912 16.6221 234.156 16.6221C234.397 16.6221 234.589 16.6904 234.732 16.8271C234.875 16.9639 234.947 17.138 234.947 17.3496C234.947 17.5645 234.874 17.7402 234.727 17.877C234.584 18.0137 234.393 18.082 234.156 18.082C233.918 18.082 233.726 18.0137 233.58 17.877C233.436 17.7402 233.365 17.5645 233.365 17.3496ZM238.892 22.54C238.892 22.3675 238.806 22.2324 238.633 22.1348C238.464 22.0339 238.191 21.9443 237.813 21.8662C236.557 21.6025 235.928 21.0687 235.928 20.2646C235.928 19.7959 236.122 19.4053 236.509 19.0928C236.9 18.777 237.409 18.6191 238.038 18.6191C238.708 18.6191 239.244 18.777 239.644 19.0928C240.048 19.4085 240.25 19.8187 240.25 20.3232H238.838C238.838 20.1214 238.773 19.9554 238.643 19.8252C238.513 19.6917 238.309 19.625 238.033 19.625C237.795 19.625 237.611 19.6787 237.481 19.7861C237.351 19.8936 237.286 20.0303 237.286 20.1963C237.286 20.3525 237.359 20.4795 237.505 20.5771C237.655 20.6715 237.906 20.7546 238.257 20.8262C238.609 20.8945 238.905 20.9727 239.146 21.0605C239.891 21.334 240.264 21.8076 240.264 22.4814C240.264 22.9632 240.057 23.3538 239.644 23.6533C239.231 23.9495 238.697 24.0977 238.043 24.0977C237.6 24.0977 237.206 24.0195 236.861 23.8633C236.519 23.7038 236.251 23.4873 236.055 23.2139C235.86 22.9372 235.762 22.6393 235.762 22.3203H237.1C237.113 22.571 237.206 22.763 237.378 22.8965C237.551 23.0299 237.782 23.0967 238.072 23.0967C238.342 23.0967 238.545 23.0462 238.682 22.9453C238.822 22.8411 238.892 22.7061 238.892 22.54ZM242.867 17.418V18.7168H243.77V19.752H242.867V22.3887C242.867 22.584 242.904 22.724 242.979 22.8086C243.054 22.8932 243.197 22.9355 243.409 22.9355C243.565 22.9355 243.703 22.9242 243.824 22.9014V23.9707C243.547 24.0553 243.262 24.0977 242.969 24.0977C241.98 24.0977 241.475 23.598 241.456 22.5986V19.752H240.684V18.7168H241.456V17.418H242.867ZM248.736 17.418V18.7168H249.639V19.752H248.736V22.3887C248.736 22.584 248.773 22.724 248.848 22.8086C248.923 22.8932 249.066 22.9355 249.278 22.9355C249.434 22.9355 249.572 22.9242 249.693 22.9014V23.9707C249.416 24.0553 249.131 24.0977 248.838 24.0977C247.849 24.0977 247.344 23.598 247.325 22.5986V19.752H246.553V18.7168H247.325V17.418H248.736ZM250.059 21.3096C250.059 20.7855 250.16 20.3184 250.362 19.9082C250.564 19.498 250.853 19.1807 251.231 18.9561C251.612 18.7314 252.053 18.6191 252.554 18.6191C253.267 18.6191 253.848 18.8372 254.297 19.2734C254.75 19.7096 255.002 20.3021 255.054 21.0508L255.064 21.4121C255.064 22.2227 254.838 22.8737 254.385 23.3652C253.933 23.8535 253.326 24.0977 252.564 24.0977C251.802 24.0977 251.194 23.8535 250.738 23.3652C250.285 22.877 250.059 22.2129 250.059 21.373V21.3096ZM251.47 21.4121C251.47 21.9134 251.565 22.2975 251.753 22.5645C251.942 22.8281 252.212 22.96 252.564 22.96C252.906 22.96 253.173 22.8298 253.365 22.5693C253.557 22.3057 253.653 21.8857 253.653 21.3096C253.653 20.818 253.557 20.4372 253.365 20.167C253.173 19.8968 252.903 19.7617 252.554 19.7617C252.209 19.7617 251.942 19.8968 251.753 20.167C251.565 20.4339 251.47 20.849 251.47 21.4121ZM226.69 32.9189H223.877V34.8232H227.178V36H222.413V28.8906H227.168V30.0771H223.877V31.7715H226.69V32.9189ZM233.487 30.0771H231.309V36H229.844V30.0771H227.696V28.8906H233.487V30.0771ZM239.771 33.6318C239.716 34.3968 239.432 34.999 238.921 35.4385C238.414 35.8779 237.743 36.0977 236.91 36.0977C235.998 36.0977 235.28 35.7917 234.756 35.1797C234.236 34.5645 233.975 33.7214 233.975 32.6504V32.2158C233.975 31.5322 234.096 30.93 234.336 30.4092C234.577 29.8883 234.921 29.4896 235.367 29.2129C235.816 28.9329 236.337 28.793 236.929 28.793C237.75 28.793 238.41 29.0127 238.912 29.4521C239.413 29.8916 239.703 30.5085 239.781 31.3027H238.316C238.28 30.8438 238.152 30.5117 237.93 30.3066C237.712 30.0983 237.378 29.9941 236.929 29.9941C236.441 29.9941 236.075 30.1699 235.831 30.5215C235.59 30.8698 235.466 31.4118 235.46 32.1475V32.6846C235.46 33.4528 235.575 34.0143 235.806 34.3691C236.041 34.724 236.408 34.9014 236.91 34.9014C237.362 34.9014 237.699 34.7988 237.92 34.5938C238.145 34.3854 238.274 34.0648 238.306 33.6318H239.771ZM240.733 36V28.8906H242.92C243.545 28.8906 244.104 29.0322 244.595 29.3154C245.09 29.5954 245.476 29.9958 245.752 30.5166C246.029 31.0342 246.168 31.6234 246.168 32.2842V32.6113C246.168 33.2721 246.031 33.8597 245.757 34.374C245.487 34.8883 245.105 35.2871 244.61 35.5703C244.115 35.8535 243.557 35.9967 242.935 36H240.733ZM242.198 30.0771V34.8232H242.906C243.479 34.8232 243.917 34.6361 244.219 34.2617C244.522 33.8874 244.677 33.3519 244.683 32.6553V32.2793C244.683 31.5566 244.533 31.0098 244.234 30.6387C243.934 30.2643 243.497 30.0771 242.92 30.0771H242.198Z" fill="white"/>
</svg>
