<svg width="552" height="87" viewBox="0 0 552 87" fill="none" xmlns="http://www.w3.org/2000/svg">
<g clip-path="url(#clip0)">
<rect x="191.905" y="40" width="74.19" height="47.136" rx="7" fill="#173A7C"/>
<path d="M210.237 49.7168L210.281 50.3076C210.655 49.8486 211.161 49.6191 211.799 49.6191C212.48 49.6191 212.947 49.8877 213.201 50.4248C213.572 49.8877 214.101 49.6191 214.788 49.6191C215.361 49.6191 215.787 49.7868 216.067 50.1221C216.347 50.4541 216.487 50.9554 216.487 51.626V55H215.071V51.6309C215.071 51.3314 215.012 51.1133 214.895 50.9766C214.778 50.8366 214.571 50.7666 214.275 50.7666C213.852 50.7666 213.559 50.9684 213.396 51.3721L213.401 55H211.99V51.6357C211.99 51.3298 211.93 51.1084 211.809 50.9717C211.689 50.835 211.484 50.7666 211.194 50.7666C210.793 50.7666 210.504 50.9326 210.325 51.2646V55H208.914V49.7168H210.237ZM220.74 54.4629C220.391 54.8861 219.91 55.0977 219.294 55.0977C218.728 55.0977 218.295 54.9349 217.996 54.6094C217.699 54.2839 217.548 53.807 217.542 53.1787V49.7168H218.953V53.1299C218.953 53.68 219.203 53.9551 219.705 53.9551C220.183 53.9551 220.512 53.7891 220.691 53.457V49.7168H222.107V55H220.779L220.74 54.4629ZM224.861 48.418V49.7168H225.764V50.752H224.861V53.3887C224.861 53.584 224.898 53.724 224.973 53.8086C225.048 53.8932 225.191 53.9355 225.403 53.9355C225.559 53.9355 225.697 53.9242 225.818 53.9014V54.9707C225.541 55.0553 225.256 55.0977 224.963 55.0977C223.974 55.0977 223.469 54.598 223.45 53.5986V50.752H222.678V49.7168H223.45V48.418H224.861ZM229.612 55C229.547 54.873 229.5 54.7152 229.47 54.5264C229.128 54.9072 228.684 55.0977 228.137 55.0977C227.62 55.0977 227.19 54.9479 226.848 54.6484C226.51 54.349 226.34 53.9714 226.34 53.5156C226.34 52.9557 226.547 52.526 226.96 52.2266C227.377 51.9271 227.978 51.7757 228.762 51.7725H229.412V51.4697C229.412 51.2256 229.348 51.0303 229.221 50.8838C229.098 50.7373 228.901 50.6641 228.63 50.6641C228.393 50.6641 228.206 50.721 228.069 50.835C227.935 50.9489 227.869 51.1051 227.869 51.3037H226.458C226.458 50.9977 226.552 50.7145 226.741 50.4541C226.93 50.1937 227.196 49.9902 227.542 49.8438C227.887 49.694 228.274 49.6191 228.704 49.6191C229.355 49.6191 229.871 49.7835 230.251 50.1123C230.636 50.4378 230.828 50.8968 230.828 51.4893V53.7793C230.831 54.2806 230.901 54.6598 231.038 54.917V55H229.612ZM228.445 54.0186C228.653 54.0186 228.845 53.973 229.021 53.8818C229.197 53.7874 229.327 53.6621 229.412 53.5059V52.5977H228.884C228.178 52.5977 227.802 52.8418 227.756 53.3301L227.751 53.4131C227.751 53.5889 227.813 53.7337 227.937 53.8477C228.061 53.9616 228.23 54.0186 228.445 54.0186ZM233.601 48.418V49.7168H234.504V50.752H233.601V53.3887C233.601 53.584 233.639 53.724 233.713 53.8086C233.788 53.8932 233.931 53.9355 234.143 53.9355C234.299 53.9355 234.438 53.9242 234.558 53.9014V54.9707C234.281 55.0553 233.997 55.0977 233.704 55.0977C232.714 55.0977 232.209 54.598 232.19 53.5986V50.752H231.418V49.7168H232.19V48.418H233.601ZM236.78 55H235.364V49.7168H236.78V55ZM235.281 48.3496C235.281 48.138 235.351 47.9639 235.491 47.8271C235.634 47.6904 235.828 47.6221 236.072 47.6221C236.313 47.6221 236.505 47.6904 236.648 47.8271C236.791 47.9639 236.863 48.138 236.863 48.3496C236.863 48.5645 236.79 48.7402 236.643 48.877C236.5 49.0137 236.309 49.082 236.072 49.082C235.834 49.082 235.642 49.0137 235.496 48.877C235.352 48.7402 235.281 48.5645 235.281 48.3496ZM239.246 49.7168L239.29 50.3271C239.667 49.8551 240.173 49.6191 240.808 49.6191C241.368 49.6191 241.785 49.7835 242.058 50.1123C242.332 50.4411 242.472 50.9326 242.478 51.5869V55H241.067V51.6211C241.067 51.3216 241.002 51.1051 240.872 50.9717C240.741 50.835 240.525 50.7666 240.222 50.7666C239.825 50.7666 239.527 50.9359 239.329 51.2744V55H237.917V49.7168H239.246ZM243.347 52.3193C243.347 51.5088 243.539 50.8561 243.923 50.3613C244.311 49.8665 244.832 49.6191 245.486 49.6191C246.065 49.6191 246.516 49.8177 246.838 50.2148L246.897 49.7168H248.176V54.8242C248.176 55.2865 248.07 55.6885 247.859 56.0303C247.651 56.3721 247.356 56.6325 246.975 56.8115C246.594 56.9906 246.148 57.0801 245.637 57.0801C245.25 57.0801 244.872 57.002 244.504 56.8457C244.137 56.6927 243.858 56.4941 243.669 56.25L244.294 55.3906C244.646 55.7845 245.072 55.9814 245.574 55.9814C245.948 55.9814 246.239 55.8805 246.448 55.6787C246.656 55.4801 246.76 55.1969 246.76 54.8291V54.5459C246.435 54.9137 246.007 55.0977 245.476 55.0977C244.841 55.0977 244.327 54.8503 243.933 54.3555C243.542 53.8574 243.347 53.1982 243.347 52.3779V52.3193ZM244.758 52.4219C244.758 52.9004 244.854 53.2764 245.046 53.5498C245.238 53.82 245.502 53.9551 245.837 53.9551C246.267 53.9551 246.575 53.7939 246.76 53.4717V51.25C246.571 50.9277 246.267 50.7666 245.847 50.7666C245.509 50.7666 245.242 50.9049 245.046 51.1816C244.854 51.4583 244.758 51.8717 244.758 52.4219ZM208.889 67C208.824 66.873 208.777 66.7152 208.748 66.5264C208.406 66.9072 207.961 67.0977 207.415 67.0977C206.897 67.0977 206.467 66.9479 206.125 66.6484C205.787 66.349 205.618 65.9714 205.618 65.5156C205.618 64.9557 205.824 64.526 206.238 64.2266C206.654 63.9271 207.255 63.7757 208.04 63.7725H208.689V63.4697C208.689 63.2256 208.625 63.0303 208.499 62.8838C208.375 62.7373 208.178 62.6641 207.908 62.6641C207.67 62.6641 207.483 62.721 207.346 62.835C207.213 62.9489 207.146 63.1051 207.146 63.3037H205.735C205.735 62.9977 205.829 62.7145 206.018 62.4541C206.207 62.1937 206.474 61.9902 206.819 61.8438C207.164 61.694 207.551 61.6191 207.981 61.6191C208.632 61.6191 209.148 61.7835 209.529 62.1123C209.913 62.4378 210.105 62.8968 210.105 63.4893V65.7793C210.108 66.2806 210.178 66.6598 210.315 66.917V67H208.889ZM207.722 66.0186C207.931 66.0186 208.123 65.973 208.298 65.8818C208.474 65.7874 208.604 65.6621 208.689 65.5059V64.5977H208.162C207.455 64.5977 207.079 64.8418 207.034 65.3301L207.029 65.4131C207.029 65.5889 207.091 65.7337 207.214 65.8477C207.338 65.9616 207.507 66.0186 207.722 66.0186ZM210.969 64.3193C210.969 63.4958 211.153 62.8398 211.521 62.3516C211.892 61.8633 212.398 61.6191 213.04 61.6191C213.554 61.6191 213.979 61.8112 214.314 62.1953V59.5H215.73V67H214.456L214.387 66.4385C214.036 66.8779 213.583 67.0977 213.03 67.0977C212.408 67.0977 211.908 66.8535 211.531 66.3652C211.156 65.8737 210.969 65.1917 210.969 64.3193ZM212.38 64.4219C212.38 64.9167 212.467 65.2959 212.639 65.5596C212.812 65.8232 213.062 65.9551 213.391 65.9551C213.827 65.9551 214.135 65.7712 214.314 65.4033V63.3184C214.138 62.9505 213.834 62.7666 213.401 62.7666C212.721 62.7666 212.38 63.3184 212.38 64.4219ZM218.147 61.7168L218.191 62.3076C218.565 61.8486 219.071 61.6191 219.709 61.6191C220.39 61.6191 220.857 61.8877 221.111 62.4248C221.482 61.8877 222.011 61.6191 222.698 61.6191C223.271 61.6191 223.697 61.7868 223.977 62.1221C224.257 62.4541 224.397 62.9554 224.397 63.626V67H222.981V63.6309C222.981 63.3314 222.922 63.1133 222.805 62.9766C222.688 62.8366 222.481 62.7666 222.185 62.7666C221.762 62.7666 221.469 62.9684 221.306 63.3721L221.311 67H219.9V63.6357C219.9 63.3298 219.84 63.1084 219.719 62.9717C219.599 62.835 219.394 62.7666 219.104 62.7666C218.704 62.7666 218.414 62.9326 218.235 63.2646V67H216.824V61.7168H218.147ZM226.975 67H225.559V61.7168H226.975V67ZM225.476 60.3496C225.476 60.138 225.546 59.9639 225.686 59.8271C225.829 59.6904 226.023 59.6221 226.267 59.6221C226.508 59.6221 226.7 59.6904 226.843 59.8271C226.986 59.9639 227.058 60.138 227.058 60.3496C227.058 60.5645 226.985 60.7402 226.838 60.877C226.695 61.0137 226.505 61.082 226.267 61.082C226.029 61.082 225.837 61.0137 225.691 60.877C225.548 60.7402 225.476 60.5645 225.476 60.3496ZM231.003 65.54C231.003 65.3675 230.917 65.2324 230.745 65.1348C230.575 65.0339 230.302 64.9443 229.924 64.8662C228.668 64.6025 228.04 64.0687 228.04 63.2646C228.04 62.7959 228.233 62.4053 228.621 62.0928C229.011 61.777 229.521 61.6191 230.149 61.6191C230.82 61.6191 231.355 61.777 231.755 62.0928C232.159 62.4085 232.361 62.8187 232.361 63.3232H230.95C230.95 63.1214 230.885 62.9554 230.754 62.8252C230.624 62.6917 230.421 62.625 230.144 62.625C229.906 62.625 229.723 62.6787 229.592 62.7861C229.462 62.8936 229.397 63.0303 229.397 63.1963C229.397 63.3525 229.47 63.4795 229.617 63.5771C229.766 63.6715 230.017 63.7546 230.369 63.8262C230.72 63.8945 231.016 63.9727 231.257 64.0605C232.003 64.334 232.375 64.8076 232.375 65.4814C232.375 65.9632 232.169 66.3538 231.755 66.6533C231.342 66.9495 230.808 67.0977 230.154 67.0977C229.711 67.0977 229.317 67.0195 228.972 66.8633C228.63 66.7038 228.362 66.4873 228.167 66.2139C227.971 65.9372 227.874 65.6393 227.874 65.3203H229.211C229.224 65.571 229.317 65.763 229.49 65.8965C229.662 66.0299 229.893 66.0967 230.183 66.0967C230.453 66.0967 230.657 66.0462 230.793 65.9453C230.933 65.8411 231.003 65.7061 231.003 65.54ZM236.15 65.54C236.15 65.3675 236.064 65.2324 235.891 65.1348C235.722 65.0339 235.448 64.9443 235.071 64.8662C233.814 64.6025 233.186 64.0687 233.186 63.2646C233.186 62.7959 233.38 62.4053 233.767 62.0928C234.158 61.777 234.667 61.6191 235.295 61.6191C235.966 61.6191 236.501 61.777 236.902 62.0928C237.306 62.4085 237.507 62.8187 237.507 63.3232H236.096C236.096 63.1214 236.031 62.9554 235.901 62.8252C235.771 62.6917 235.567 62.625 235.291 62.625C235.053 62.625 234.869 62.6787 234.739 62.7861C234.609 62.8936 234.543 63.0303 234.543 63.1963C234.543 63.3525 234.617 63.4795 234.763 63.5771C234.913 63.6715 235.164 63.7546 235.515 63.8262C235.867 63.8945 236.163 63.9727 236.404 64.0605C237.149 64.334 237.522 64.8076 237.522 65.4814C237.522 65.9632 237.315 66.3538 236.902 66.6533C236.488 66.9495 235.955 67.0977 235.3 67.0977C234.858 67.0977 234.464 67.0195 234.119 66.8633C233.777 66.7038 233.508 66.4873 233.313 66.2139C233.118 65.9372 233.02 65.6393 233.02 65.3203H234.358C234.371 65.571 234.464 65.763 234.636 65.8965C234.809 66.0299 235.04 66.0967 235.33 66.0967C235.6 66.0967 235.803 66.0462 235.94 65.9453C236.08 65.8411 236.15 65.7061 236.15 65.54ZM239.924 67H238.508V61.7168H239.924V67ZM238.425 60.3496C238.425 60.138 238.495 59.9639 238.635 59.8271C238.778 59.6904 238.972 59.6221 239.216 59.6221C239.457 59.6221 239.649 59.6904 239.792 59.8271C239.936 59.9639 240.007 60.138 240.007 60.3496C240.007 60.5645 239.934 60.7402 239.788 60.877C239.644 61.0137 239.454 61.082 239.216 61.082C238.979 61.082 238.787 61.0137 238.64 60.877C238.497 60.7402 238.425 60.5645 238.425 60.3496ZM240.872 64.3096C240.872 63.7855 240.973 63.3184 241.174 62.9082C241.376 62.498 241.666 62.1807 242.043 61.9561C242.424 61.7314 242.865 61.6191 243.367 61.6191C244.08 61.6191 244.661 61.8372 245.11 62.2734C245.562 62.7096 245.815 63.3021 245.867 64.0508L245.876 64.4121C245.876 65.2227 245.65 65.8737 245.198 66.3652C244.745 66.8535 244.138 67.0977 243.376 67.0977C242.615 67.0977 242.006 66.8535 241.55 66.3652C241.098 65.877 240.872 65.2129 240.872 64.373V64.3096ZM242.283 64.4121C242.283 64.9134 242.377 65.2975 242.566 65.5645C242.755 65.8281 243.025 65.96 243.376 65.96C243.718 65.96 243.985 65.8298 244.177 65.5693C244.369 65.3057 244.465 64.8857 244.465 64.3096C244.465 63.818 244.369 63.4372 244.177 63.167C243.985 62.8968 243.715 62.7617 243.367 62.7617C243.022 62.7617 242.755 62.8968 242.566 63.167C242.377 63.4339 242.283 63.849 242.283 64.4121ZM248.044 61.7168L248.088 62.3271C248.466 61.8551 248.972 61.6191 249.607 61.6191C250.167 61.6191 250.584 61.7835 250.857 62.1123C251.13 62.4411 251.27 62.9326 251.277 63.5869V67H249.866V63.6211C249.866 63.3216 249.801 63.1051 249.67 62.9717C249.54 62.835 249.324 62.7666 249.021 62.7666C248.624 62.7666 248.326 62.9359 248.127 63.2744V67H246.716V61.7168H248.044ZM210.789 77.0811L211.482 73.7168H212.844L211.497 79H210.315L209.314 75.6748L208.313 79H207.136L205.789 73.7168H207.151L207.839 77.0762L208.806 73.7168H209.827L210.789 77.0811ZM215.979 79.0977C215.204 79.0977 214.573 78.86 214.084 78.3848C213.599 77.9095 213.357 77.2764 213.357 76.4854V76.3486C213.357 75.818 213.459 75.3444 213.665 74.9277C213.87 74.5078 214.159 74.1855 214.534 73.9609C214.911 73.7331 215.341 73.6191 215.823 73.6191C216.545 73.6191 217.113 73.847 217.527 74.3027C217.944 74.7585 218.152 75.4046 218.152 76.2412V76.8174H214.788C214.833 77.1624 214.97 77.4391 215.198 77.6475C215.429 77.8558 215.72 77.96 216.072 77.96C216.615 77.96 217.04 77.763 217.346 77.3691L218.04 78.1455C217.828 78.445 217.542 78.6794 217.18 78.8486C216.819 79.0146 216.418 79.0977 215.979 79.0977ZM215.818 74.7617C215.538 74.7617 215.31 74.8561 215.134 75.0449C214.962 75.2337 214.851 75.5039 214.802 75.8555H216.765V75.7432C216.759 75.4307 216.674 75.1898 216.511 75.0205C216.348 74.848 216.117 74.7617 215.818 74.7617ZM223.718 76.4072C223.718 77.2536 223.538 77.9144 223.176 78.3896C222.815 78.8617 222.31 79.0977 221.663 79.0977C221.09 79.0977 220.632 78.8779 220.291 78.4385L220.227 79H218.958V71.5H220.369V74.1904C220.694 73.8096 221.122 73.6191 221.653 73.6191C222.297 73.6191 222.802 73.8568 223.167 74.332C223.534 74.804 223.718 75.4697 223.718 76.3291V76.4072ZM222.307 76.3047C222.307 75.7708 222.223 75.3818 222.053 75.1377C221.884 74.8903 221.632 74.7666 221.296 74.7666C220.847 74.7666 220.538 74.9505 220.369 75.3184V77.4033C220.541 77.7744 220.854 77.96 221.306 77.96C221.762 77.96 222.061 77.7354 222.205 77.2861C222.273 77.0713 222.307 76.7441 222.307 76.3047ZM225.969 74.293C226.344 73.8438 226.814 73.6191 227.38 73.6191C228.526 73.6191 229.107 74.2848 229.124 75.6162V79H227.712V75.6553C227.712 75.3525 227.647 75.1296 227.517 74.9863C227.387 74.8398 227.17 74.7666 226.868 74.7666C226.454 74.7666 226.155 74.9261 225.969 75.2451V79H224.558V71.5H225.969V74.293ZM229.968 76.3096C229.968 75.7855 230.069 75.3184 230.271 74.9082C230.473 74.498 230.763 74.1807 231.14 73.9561C231.521 73.7314 231.962 73.6191 232.463 73.6191C233.176 73.6191 233.757 73.8372 234.207 74.2734C234.659 74.7096 234.911 75.3021 234.963 76.0508L234.973 76.4121C234.973 77.2227 234.747 77.8737 234.294 78.3652C233.842 78.8535 233.235 79.0977 232.473 79.0977C231.711 79.0977 231.103 78.8535 230.647 78.3652C230.195 77.877 229.968 77.2129 229.968 76.373V76.3096ZM231.379 76.4121C231.379 76.9134 231.474 77.2975 231.663 77.5645C231.851 77.8281 232.122 77.96 232.473 77.96C232.815 77.96 233.082 77.8298 233.274 77.5693C233.466 77.3057 233.562 76.8857 233.562 76.3096C233.562 75.818 233.466 75.4372 233.274 75.167C233.082 74.8968 232.812 74.7617 232.463 74.7617C232.118 74.7617 231.851 74.8968 231.663 75.167C231.474 75.4339 231.379 75.849 231.379 76.4121ZM235.623 76.3096C235.623 75.7855 235.723 75.3184 235.925 74.9082C236.127 74.498 236.417 74.1807 236.794 73.9561C237.175 73.7314 237.616 73.6191 238.118 73.6191C238.831 73.6191 239.412 73.8372 239.861 74.2734C240.313 74.7096 240.566 75.3021 240.618 76.0508L240.627 76.4121C240.627 77.2227 240.401 77.8737 239.949 78.3652C239.496 78.8535 238.889 79.0977 238.127 79.0977C237.366 79.0977 236.757 78.8535 236.301 78.3652C235.849 77.877 235.623 77.2129 235.623 76.373V76.3096ZM237.034 76.4121C237.034 76.9134 237.128 77.2975 237.317 77.5645C237.506 77.8281 237.776 77.96 238.127 77.96C238.469 77.96 238.736 77.8298 238.928 77.5693C239.12 77.3057 239.216 76.8857 239.216 76.3096C239.216 75.818 239.12 75.4372 238.928 75.167C238.736 74.8968 238.466 74.7617 238.118 74.7617C237.773 74.7617 237.506 74.8968 237.317 75.167C237.128 75.4339 237.034 75.849 237.034 76.4121ZM243.416 76.8809L242.908 77.3887V79H241.497V71.5H242.908V75.6553L243.181 75.3037L244.534 73.7168H246.228L244.319 75.9189L246.394 79H244.773L243.416 76.8809ZM249.7 77.54C249.7 77.3675 249.613 77.2324 249.441 77.1348C249.272 77.0339 248.998 76.9443 248.621 76.8662C247.364 76.6025 246.736 76.0687 246.736 75.2646C246.736 74.7959 246.93 74.4053 247.317 74.0928C247.708 73.777 248.217 73.6191 248.845 73.6191C249.516 73.6191 250.051 73.777 250.452 74.0928C250.855 74.4085 251.057 74.8187 251.057 75.3232H249.646C249.646 75.1214 249.581 74.9554 249.451 74.8252C249.32 74.6917 249.117 74.625 248.84 74.625C248.603 74.625 248.419 74.6787 248.289 74.7861C248.158 74.8936 248.093 75.0303 248.093 75.1963C248.093 75.3525 248.167 75.4795 248.313 75.5771C248.463 75.6715 248.713 75.7546 249.065 75.8262C249.417 75.8945 249.713 75.9727 249.954 76.0605C250.699 76.334 251.072 76.8076 251.072 77.4814C251.072 77.9632 250.865 78.3538 250.452 78.6533C250.038 78.9495 249.504 79.0977 248.85 79.0977C248.407 79.0977 248.014 79.0195 247.668 78.8633C247.327 78.7038 247.058 78.4873 246.863 78.2139C246.667 77.9372 246.57 77.6393 246.57 77.3203H247.908C247.921 77.571 248.014 77.763 248.186 77.8965C248.359 78.0299 248.59 78.0967 248.879 78.0967C249.15 78.0967 249.353 78.0462 249.49 77.9453C249.63 77.8411 249.7 77.7061 249.7 77.54Z" fill="white"/>
<rect x="220.5" y="40" width="32.9333" height="4" transform="rotate(-90 220.5 40)" fill="white"/>
<path d="M222 0.999996L228 12.2667C228 12.2667 224.726 9.66666 222.5 9.66666C220.274 9.66666 217 12.2667 217 12.2667L222 0.999996Z" fill="white" stroke="white"/>
<rect x="241.5" width="33.7778" height="4" transform="rotate(90 241.5 0)" fill="white"/>
<path d="M240 40L234 28.4444C234 28.4444 237.274 31.1111 239.5 31.1111C241.726 31.1111 245 28.4444 245 28.4444L240 40Z" fill="white" stroke="white"/>
</g>
<defs>
<clipPath id="clip0">
<rect width="552" height="87" fill="white"/>
</clipPath>
</defs>
</svg>
