<svg width="552" height="87" viewBox="0 0 552 87" fill="none" xmlns="http://www.w3.org/2000/svg">
<g clip-path="url(#clip0)">
<rect x="379.905" y="40" width="74.19" height="47.136" rx="7" fill="#173A7C"/>
<path d="M397.065 53.2764L398.046 49.7168H399.521L397.739 55H396.391L394.609 49.7168H396.084L397.065 53.2764ZM403.129 55C403.064 54.873 403.017 54.7152 402.988 54.5264C402.646 54.9072 402.202 55.0977 401.655 55.0977C401.137 55.0977 400.708 54.9479 400.366 54.6484C400.027 54.349 399.858 53.9714 399.858 53.5156C399.858 52.9557 400.065 52.526 400.478 52.2266C400.895 51.9271 401.495 51.7757 402.28 51.7725H402.929V51.4697C402.929 51.2256 402.866 51.0303 402.739 50.8838C402.615 50.7373 402.418 50.6641 402.148 50.6641C401.91 50.6641 401.723 50.721 401.586 50.835C401.453 50.9489 401.386 51.1051 401.386 51.3037H399.975C399.975 50.9977 400.07 50.7145 400.258 50.4541C400.447 50.1937 400.714 49.9902 401.059 49.8438C401.404 49.694 401.792 49.6191 402.221 49.6191C402.872 49.6191 403.388 49.7835 403.769 50.1123C404.153 50.4378 404.345 50.8968 404.345 51.4893V53.7793C404.348 54.2806 404.418 54.6598 404.555 54.917V55H403.129ZM401.962 54.0186C402.171 54.0186 402.363 53.973 402.539 53.8818C402.714 53.7874 402.845 53.6621 402.929 53.5059V52.5977H402.402C401.695 52.5977 401.32 52.8418 401.274 53.3301L401.269 53.4131C401.269 53.5889 401.331 53.7337 401.455 53.8477C401.578 53.9616 401.748 54.0186 401.962 54.0186ZM406.918 55H405.502V47.5H406.918V55ZM409.575 55H408.159V49.7168H409.575V55ZM408.076 48.3496C408.076 48.138 408.146 47.9639 408.286 47.8271C408.429 47.6904 408.623 47.6221 408.867 47.6221C409.108 47.6221 409.3 47.6904 409.443 47.8271C409.586 47.9639 409.658 48.138 409.658 48.3496C409.658 48.5645 409.584 48.7402 409.438 48.877C409.295 49.0137 409.104 49.082 408.867 49.082C408.629 49.082 408.437 49.0137 408.291 48.877C408.147 48.7402 408.076 48.5645 408.076 48.3496ZM410.522 52.3193C410.522 51.4958 410.706 50.8398 411.074 50.3516C411.445 49.8633 411.951 49.6191 412.592 49.6191C413.107 49.6191 413.531 49.8112 413.867 50.1953V47.5H415.283V55H414.008L413.94 54.4385C413.588 54.8779 413.136 55.0977 412.583 55.0977C411.961 55.0977 411.461 54.8535 411.084 54.3652C410.709 53.8737 410.522 53.1917 410.522 52.3193ZM411.933 52.4219C411.933 52.9167 412.019 53.2959 412.192 53.5596C412.364 53.8232 412.615 53.9551 412.944 53.9551C413.38 53.9551 413.688 53.7712 413.867 53.4033V51.3184C413.691 50.9505 413.387 50.7666 412.954 50.7666C412.273 50.7666 411.933 51.3184 411.933 52.4219ZM419.438 55C419.373 54.873 419.326 54.7152 419.296 54.5264C418.955 54.9072 418.51 55.0977 417.963 55.0977C417.446 55.0977 417.016 54.9479 416.674 54.6484C416.336 54.349 416.167 53.9714 416.167 53.5156C416.167 52.9557 416.373 52.526 416.787 52.2266C417.203 51.9271 417.804 51.7757 418.588 51.7725H419.238V51.4697C419.238 51.2256 419.174 51.0303 419.047 50.8838C418.924 50.7373 418.727 50.6641 418.457 50.6641C418.219 50.6641 418.032 50.721 417.895 50.835C417.762 50.9489 417.695 51.1051 417.695 51.3037H416.284C416.284 50.9977 416.378 50.7145 416.567 50.4541C416.756 50.1937 417.023 49.9902 417.368 49.8438C417.713 49.694 418.1 49.6191 418.53 49.6191C419.181 49.6191 419.697 49.7835 420.078 50.1123C420.462 50.4378 420.654 50.8968 420.654 51.4893V53.7793C420.657 54.2806 420.727 54.6598 420.864 54.917V55H419.438ZM418.271 54.0186C418.479 54.0186 418.671 53.973 418.847 53.8818C419.023 53.7874 419.153 53.6621 419.238 53.5059V52.5977H418.71C418.004 52.5977 417.628 52.8418 417.583 53.3301L417.578 53.4131C417.578 53.5889 417.639 53.7337 417.763 53.8477C417.887 53.9616 418.056 54.0186 418.271 54.0186ZM423.427 48.418V49.7168H424.331V50.752H423.427V53.3887C423.427 53.584 423.465 53.724 423.54 53.8086C423.614 53.8932 423.758 53.9355 423.969 53.9355C424.125 53.9355 424.264 53.9242 424.384 53.9014V54.9707C424.108 55.0553 423.823 55.0977 423.53 55.0977C422.54 55.0977 422.036 54.598 422.016 53.5986V50.752H421.245V49.7168H422.016V48.418H423.427ZM426.606 55H425.19V49.7168H426.606V55ZM425.107 48.3496C425.107 48.138 425.177 47.9639 425.317 47.8271C425.46 47.6904 425.654 47.6221 425.898 47.6221C426.139 47.6221 426.331 47.6904 426.474 47.8271C426.617 47.9639 426.689 48.138 426.689 48.3496C426.689 48.5645 426.616 48.7402 426.469 48.877C426.326 49.0137 426.136 49.082 425.898 49.082C425.66 49.082 425.468 49.0137 425.322 48.877C425.179 48.7402 425.107 48.5645 425.107 48.3496ZM429.072 49.7168L429.116 50.3271C429.493 49.8551 430 49.6191 430.634 49.6191C431.194 49.6191 431.611 49.7835 431.884 50.1123C432.158 50.4411 432.298 50.9326 432.304 51.5869V55H430.893V51.6211C430.893 51.3216 430.828 51.1051 430.698 50.9717C430.568 50.835 430.351 50.7666 430.048 50.7666C429.651 50.7666 429.353 50.9359 429.155 51.2744V55H427.744V49.7168H429.072ZM433.173 52.3193C433.173 51.5088 433.365 50.8561 433.75 50.3613C434.137 49.8665 434.658 49.6191 435.312 49.6191C435.891 49.6191 436.342 49.8177 436.665 50.2148L436.723 49.7168H438.002V54.8242C438.002 55.2865 437.897 55.6885 437.685 56.0303C437.477 56.3721 437.182 56.6325 436.801 56.8115C436.42 56.9906 435.974 57.0801 435.463 57.0801C435.076 57.0801 434.698 57.002 434.331 56.8457C433.963 56.6927 433.684 56.4941 433.496 56.25L434.121 55.3906C434.472 55.7845 434.899 55.9814 435.4 55.9814C435.774 55.9814 436.066 55.8805 436.274 55.6787C436.482 55.4801 436.586 55.1969 436.586 54.8291V54.5459C436.261 54.9137 435.833 55.0977 435.302 55.0977C434.667 55.0977 434.153 54.8503 433.759 54.3555C433.369 53.8574 433.173 53.1982 433.173 52.3779V52.3193ZM434.584 52.4219C434.584 52.9004 434.681 53.2764 434.873 53.5498C435.065 53.82 435.328 53.9551 435.664 53.9551C436.093 53.9551 436.401 53.7939 436.586 53.4717V51.25C436.398 50.9277 436.093 50.7666 435.673 50.7666C435.335 50.7666 435.068 50.9049 434.873 51.1816C434.681 51.4583 434.584 51.8717 434.584 52.4219ZM396.889 67C396.824 66.873 396.777 66.7152 396.748 66.5264C396.406 66.9072 395.961 67.0977 395.415 67.0977C394.897 67.0977 394.467 66.9479 394.125 66.6484C393.787 66.349 393.618 65.9714 393.618 65.5156C393.618 64.9557 393.824 64.526 394.238 64.2266C394.654 63.9271 395.255 63.7757 396.04 63.7725H396.689V63.4697C396.689 63.2256 396.625 63.0303 396.499 62.8838C396.375 62.7373 396.178 62.6641 395.908 62.6641C395.67 62.6641 395.483 62.721 395.346 62.835C395.213 62.9489 395.146 63.1051 395.146 63.3037H393.735C393.735 62.9977 393.829 62.7145 394.018 62.4541C394.207 62.1937 394.474 61.9902 394.819 61.8438C395.164 61.694 395.551 61.6191 395.981 61.6191C396.632 61.6191 397.148 61.7835 397.529 62.1123C397.913 62.4378 398.105 62.8968 398.105 63.4893V65.7793C398.108 66.2806 398.178 66.6598 398.315 66.917V67H396.889ZM395.722 66.0186C395.931 66.0186 396.123 65.973 396.298 65.8818C396.474 65.7874 396.604 65.6621 396.689 65.5059V64.5977H396.162C395.455 64.5977 395.079 64.8418 395.034 65.3301L395.029 65.4131C395.029 65.5889 395.091 65.7337 395.214 65.8477C395.338 65.9616 395.507 66.0186 395.722 66.0186ZM398.969 64.3193C398.969 63.4958 399.153 62.8398 399.521 62.3516C399.892 61.8633 400.398 61.6191 401.04 61.6191C401.554 61.6191 401.979 61.8112 402.314 62.1953V59.5H403.73V67H402.456L402.387 66.4385C402.036 66.8779 401.583 67.0977 401.03 67.0977C400.408 67.0977 399.908 66.8535 399.531 66.3652C399.156 65.8737 398.969 65.1917 398.969 64.3193ZM400.38 64.4219C400.38 64.9167 400.467 65.2959 400.639 65.5596C400.812 65.8232 401.062 65.9551 401.391 65.9551C401.827 65.9551 402.135 65.7712 402.314 65.4033V63.3184C402.138 62.9505 401.834 62.7666 401.401 62.7666C400.721 62.7666 400.38 63.3184 400.38 64.4219ZM406.147 61.7168L406.191 62.3076C406.565 61.8486 407.071 61.6191 407.709 61.6191C408.39 61.6191 408.857 61.8877 409.111 62.4248C409.482 61.8877 410.011 61.6191 410.698 61.6191C411.271 61.6191 411.697 61.7868 411.977 62.1221C412.257 62.4541 412.397 62.9554 412.397 63.626V67H410.981V63.6309C410.981 63.3314 410.922 63.1133 410.805 62.9766C410.688 62.8366 410.481 62.7666 410.185 62.7666C409.762 62.7666 409.469 62.9684 409.306 63.3721L409.311 67H407.9V63.6357C407.9 63.3298 407.84 63.1084 407.719 62.9717C407.599 62.835 407.394 62.7666 407.104 62.7666C406.704 62.7666 406.414 62.9326 406.235 63.2646V67H404.824V61.7168H406.147ZM414.975 67H413.559V61.7168H414.975V67ZM413.476 60.3496C413.476 60.138 413.546 59.9639 413.686 59.8271C413.829 59.6904 414.023 59.6221 414.267 59.6221C414.508 59.6221 414.7 59.6904 414.843 59.8271C414.986 59.9639 415.058 60.138 415.058 60.3496C415.058 60.5645 414.985 60.7402 414.838 60.877C414.695 61.0137 414.505 61.082 414.267 61.082C414.029 61.082 413.837 61.0137 413.691 60.877C413.548 60.7402 413.476 60.5645 413.476 60.3496ZM419.003 65.54C419.003 65.3675 418.917 65.2324 418.745 65.1348C418.575 65.0339 418.302 64.9443 417.924 64.8662C416.668 64.6025 416.04 64.0687 416.04 63.2646C416.04 62.7959 416.233 62.4053 416.621 62.0928C417.011 61.777 417.521 61.6191 418.149 61.6191C418.82 61.6191 419.355 61.777 419.755 62.0928C420.159 62.4085 420.361 62.8187 420.361 63.3232H418.95C418.95 63.1214 418.885 62.9554 418.754 62.8252C418.624 62.6917 418.421 62.625 418.144 62.625C417.906 62.625 417.723 62.6787 417.592 62.7861C417.462 62.8936 417.397 63.0303 417.397 63.1963C417.397 63.3525 417.47 63.4795 417.617 63.5771C417.766 63.6715 418.017 63.7546 418.369 63.8262C418.72 63.8945 419.016 63.9727 419.257 64.0605C420.003 64.334 420.375 64.8076 420.375 65.4814C420.375 65.9632 420.169 66.3538 419.755 66.6533C419.342 66.9495 418.808 67.0977 418.154 67.0977C417.711 67.0977 417.317 67.0195 416.972 66.8633C416.63 66.7038 416.362 66.4873 416.167 66.2139C415.971 65.9372 415.874 65.6393 415.874 65.3203H417.211C417.224 65.571 417.317 65.763 417.49 65.8965C417.662 66.0299 417.893 66.0967 418.183 66.0967C418.453 66.0967 418.657 66.0462 418.793 65.9453C418.933 65.8411 419.003 65.7061 419.003 65.54ZM424.15 65.54C424.15 65.3675 424.064 65.2324 423.891 65.1348C423.722 65.0339 423.448 64.9443 423.071 64.8662C421.814 64.6025 421.186 64.0687 421.186 63.2646C421.186 62.7959 421.38 62.4053 421.767 62.0928C422.158 61.777 422.667 61.6191 423.295 61.6191C423.966 61.6191 424.501 61.777 424.902 62.0928C425.306 62.4085 425.507 62.8187 425.507 63.3232H424.096C424.096 63.1214 424.031 62.9554 423.901 62.8252C423.771 62.6917 423.567 62.625 423.291 62.625C423.053 62.625 422.869 62.6787 422.739 62.7861C422.609 62.8936 422.543 63.0303 422.543 63.1963C422.543 63.3525 422.617 63.4795 422.763 63.5771C422.913 63.6715 423.164 63.7546 423.515 63.8262C423.867 63.8945 424.163 63.9727 424.404 64.0605C425.149 64.334 425.522 64.8076 425.522 65.4814C425.522 65.9632 425.315 66.3538 424.902 66.6533C424.488 66.9495 423.955 67.0977 423.3 67.0977C422.858 67.0977 422.464 67.0195 422.119 66.8633C421.777 66.7038 421.508 66.4873 421.313 66.2139C421.118 65.9372 421.02 65.6393 421.02 65.3203H422.358C422.371 65.571 422.464 65.763 422.636 65.8965C422.809 66.0299 423.04 66.0967 423.33 66.0967C423.6 66.0967 423.803 66.0462 423.94 65.9453C424.08 65.8411 424.15 65.7061 424.15 65.54ZM427.924 67H426.508V61.7168H427.924V67ZM426.425 60.3496C426.425 60.138 426.495 59.9639 426.635 59.8271C426.778 59.6904 426.972 59.6221 427.216 59.6221C427.457 59.6221 427.649 59.6904 427.792 59.8271C427.936 59.9639 428.007 60.138 428.007 60.3496C428.007 60.5645 427.934 60.7402 427.788 60.877C427.644 61.0137 427.454 61.082 427.216 61.082C426.979 61.082 426.787 61.0137 426.64 60.877C426.497 60.7402 426.425 60.5645 426.425 60.3496ZM428.872 64.3096C428.872 63.7855 428.973 63.3184 429.174 62.9082C429.376 62.498 429.666 62.1807 430.043 61.9561C430.424 61.7314 430.865 61.6191 431.367 61.6191C432.08 61.6191 432.661 61.8372 433.11 62.2734C433.562 62.7096 433.815 63.3021 433.867 64.0508L433.876 64.4121C433.876 65.2227 433.65 65.8737 433.198 66.3652C432.745 66.8535 432.138 67.0977 431.376 67.0977C430.615 67.0977 430.006 66.8535 429.55 66.3652C429.098 65.877 428.872 65.2129 428.872 64.373V64.3096ZM430.283 64.4121C430.283 64.9134 430.377 65.2975 430.566 65.5645C430.755 65.8281 431.025 65.96 431.376 65.96C431.718 65.96 431.985 65.8298 432.177 65.5693C432.369 65.3057 432.465 64.8857 432.465 64.3096C432.465 63.818 432.369 63.4372 432.177 63.167C431.985 62.8968 431.715 62.7617 431.367 62.7617C431.022 62.7617 430.755 62.8968 430.566 63.167C430.377 63.4339 430.283 63.849 430.283 64.4121ZM436.044 61.7168L436.088 62.3271C436.466 61.8551 436.972 61.6191 437.607 61.6191C438.167 61.6191 438.584 61.7835 438.857 62.1123C439.13 62.4411 439.27 62.9326 439.277 63.5869V67H437.866V63.6211C437.866 63.3216 437.801 63.1051 437.67 62.9717C437.54 62.835 437.324 62.7666 437.021 62.7666C436.624 62.7666 436.326 62.9359 436.127 63.2744V67H434.716V61.7168H436.044ZM398.789 77.0811L399.482 73.7168H400.844L399.497 79H398.315L397.314 75.6748L396.313 79H395.136L393.789 73.7168H395.151L395.839 77.0762L396.806 73.7168H397.827L398.789 77.0811ZM403.979 79.0977C403.204 79.0977 402.573 78.86 402.084 78.3848C401.599 77.9095 401.357 77.2764 401.357 76.4854V76.3486C401.357 75.818 401.459 75.3444 401.665 74.9277C401.87 74.5078 402.159 74.1855 402.534 73.9609C402.911 73.7331 403.341 73.6191 403.823 73.6191C404.545 73.6191 405.113 73.847 405.527 74.3027C405.944 74.7585 406.152 75.4046 406.152 76.2412V76.8174H402.788C402.833 77.1624 402.97 77.4391 403.198 77.6475C403.429 77.8558 403.72 77.96 404.072 77.96C404.615 77.96 405.04 77.763 405.346 77.3691L406.04 78.1455C405.828 78.445 405.542 78.6794 405.18 78.8486C404.819 79.0146 404.418 79.0977 403.979 79.0977ZM403.818 74.7617C403.538 74.7617 403.31 74.8561 403.134 75.0449C402.962 75.2337 402.851 75.5039 402.802 75.8555H404.765V75.7432C404.759 75.4307 404.674 75.1898 404.511 75.0205C404.348 74.848 404.117 74.7617 403.818 74.7617ZM411.718 76.4072C411.718 77.2536 411.538 77.9144 411.176 78.3896C410.815 78.8617 410.31 79.0977 409.663 79.0977C409.09 79.0977 408.632 78.8779 408.291 78.4385L408.227 79H406.958V71.5H408.369V74.1904C408.694 73.8096 409.122 73.6191 409.653 73.6191C410.297 73.6191 410.802 73.8568 411.167 74.332C411.534 74.804 411.718 75.4697 411.718 76.3291V76.4072ZM410.307 76.3047C410.307 75.7708 410.223 75.3818 410.053 75.1377C409.884 74.8903 409.632 74.7666 409.296 74.7666C408.847 74.7666 408.538 74.9505 408.369 75.3184V77.4033C408.541 77.7744 408.854 77.96 409.306 77.96C409.762 77.96 410.061 77.7354 410.205 77.2861C410.273 77.0713 410.307 76.7441 410.307 76.3047ZM413.969 74.293C414.344 73.8438 414.814 73.6191 415.38 73.6191C416.526 73.6191 417.107 74.2848 417.124 75.6162V79H415.712V75.6553C415.712 75.3525 415.647 75.1296 415.517 74.9863C415.387 74.8398 415.17 74.7666 414.868 74.7666C414.454 74.7666 414.155 74.9261 413.969 75.2451V79H412.558V71.5H413.969V74.293ZM417.968 76.3096C417.968 75.7855 418.069 75.3184 418.271 74.9082C418.473 74.498 418.763 74.1807 419.14 73.9561C419.521 73.7314 419.962 73.6191 420.463 73.6191C421.176 73.6191 421.757 73.8372 422.207 74.2734C422.659 74.7096 422.911 75.3021 422.963 76.0508L422.973 76.4121C422.973 77.2227 422.747 77.8737 422.294 78.3652C421.842 78.8535 421.235 79.0977 420.473 79.0977C419.711 79.0977 419.103 78.8535 418.647 78.3652C418.195 77.877 417.968 77.2129 417.968 76.373V76.3096ZM419.379 76.4121C419.379 76.9134 419.474 77.2975 419.663 77.5645C419.851 77.8281 420.122 77.96 420.473 77.96C420.815 77.96 421.082 77.8298 421.274 77.5693C421.466 77.3057 421.562 76.8857 421.562 76.3096C421.562 75.818 421.466 75.4372 421.274 75.167C421.082 74.8968 420.812 74.7617 420.463 74.7617C420.118 74.7617 419.851 74.8968 419.663 75.167C419.474 75.4339 419.379 75.849 419.379 76.4121ZM423.623 76.3096C423.623 75.7855 423.723 75.3184 423.925 74.9082C424.127 74.498 424.417 74.1807 424.794 73.9561C425.175 73.7314 425.616 73.6191 426.118 73.6191C426.831 73.6191 427.412 73.8372 427.861 74.2734C428.313 74.7096 428.566 75.3021 428.618 76.0508L428.627 76.4121C428.627 77.2227 428.401 77.8737 427.949 78.3652C427.496 78.8535 426.889 79.0977 426.127 79.0977C425.366 79.0977 424.757 78.8535 424.301 78.3652C423.849 77.877 423.623 77.2129 423.623 76.373V76.3096ZM425.034 76.4121C425.034 76.9134 425.128 77.2975 425.317 77.5645C425.506 77.8281 425.776 77.96 426.127 77.96C426.469 77.96 426.736 77.8298 426.928 77.5693C427.12 77.3057 427.216 76.8857 427.216 76.3096C427.216 75.818 427.12 75.4372 426.928 75.167C426.736 74.8968 426.466 74.7617 426.118 74.7617C425.773 74.7617 425.506 74.8968 425.317 75.167C425.128 75.4339 425.034 75.849 425.034 76.4121ZM431.416 76.8809L430.908 77.3887V79H429.497V71.5H430.908V75.6553L431.181 75.3037L432.534 73.7168H434.228L432.319 75.9189L434.394 79H432.773L431.416 76.8809ZM437.7 77.54C437.7 77.3675 437.613 77.2324 437.441 77.1348C437.272 77.0339 436.998 76.9443 436.621 76.8662C435.364 76.6025 434.736 76.0687 434.736 75.2646C434.736 74.7959 434.93 74.4053 435.317 74.0928C435.708 73.777 436.217 73.6191 436.845 73.6191C437.516 73.6191 438.051 73.777 438.452 74.0928C438.855 74.4085 439.057 74.8187 439.057 75.3232H437.646C437.646 75.1214 437.581 74.9554 437.451 74.8252C437.32 74.6917 437.117 74.625 436.84 74.625C436.603 74.625 436.419 74.6787 436.289 74.7861C436.158 74.8936 436.093 75.0303 436.093 75.1963C436.093 75.3525 436.167 75.4795 436.313 75.5771C436.463 75.6715 436.713 75.7546 437.065 75.8262C437.417 75.8945 437.713 75.9727 437.954 76.0605C438.699 76.334 439.072 76.8076 439.072 77.4814C439.072 77.9632 438.865 78.3538 438.452 78.6533C438.038 78.9495 437.504 79.0977 436.85 79.0977C436.407 79.0977 436.014 79.0195 435.668 78.8633C435.327 78.7038 435.058 78.4873 434.863 78.2139C434.667 77.9372 434.57 77.6393 434.57 77.3203H435.908C435.921 77.571 436.014 77.763 436.186 77.8965C436.359 78.0299 436.59 78.0967 436.879 78.0967C437.15 78.0967 437.353 78.0462 437.49 77.9453C437.63 77.8411 437.7 77.7061 437.7 77.54Z" fill="white"/>
<rect x="406.5" y="40" width="32.9333" height="4" transform="rotate(-90 406.5 40)" fill="white"/>
<path d="M408 0.999996L414 12.2667C414 12.2667 410.726 9.66666 408.5 9.66666C406.274 9.66666 403 12.2667 403 12.2667L408 0.999996Z" fill="white" stroke="white"/>
<rect x="427.5" width="33.7778" height="4" transform="rotate(90 427.5 0)" fill="white"/>
<path d="M426 40L420 28.4444C420 28.4444 423.274 31.1111 425.5 31.1111C427.726 31.1111 431 28.4444 431 28.4444L426 40Z" fill="white" stroke="white"/>
</g>
<defs>
<clipPath id="clip0">
<rect width="552" height="87" fill="white"/>
</clipPath>
</defs>
</svg>
