<svg width="640" height="73" viewBox="0 0 640 73" fill="none" xmlns="http://www.w3.org/2000/svg">
<g clip-path="url(#clip0)">
<g filter="url(#filter0_d)">
<rect x="531" width="91" height="74.0833" rx="17" fill="#E9E9E9"/>
</g>
<rect x="542" y="6.33333" width="73.0833" height="53.25" rx="13.5" fill="white" stroke="black"/>
<rect x="536.833" y="11.0833" width="74.0833" height="49" rx="14" fill="white"/>
<rect x="539.667" y="8.66666" width="73.0833" height="50.9167" rx="13.5" fill="white" stroke="black"/>
<rect x="537.333" y="11.5833" width="73.0833" height="48" rx="13.5" fill="white" stroke="black"/>
<path d="M542.769 66.6689H539.957V68.5732H543.257V69.75H538.492V62.6406H543.248V63.8271H539.957V65.5215H542.769V66.6689ZM543.721 67.0693C543.721 66.2588 543.913 65.6061 544.297 65.1113C544.685 64.6165 545.206 64.3691 545.86 64.3691C546.439 64.3691 546.89 64.5677 547.212 64.9648L547.271 64.4668H548.55V69.5742C548.55 70.0365 548.445 70.4385 548.233 70.7803C548.025 71.1221 547.73 71.3825 547.349 71.5615C546.968 71.7406 546.522 71.8301 546.011 71.8301C545.624 71.8301 545.246 71.752 544.878 71.5957C544.511 71.4427 544.232 71.2441 544.044 71L544.669 70.1406C545.02 70.5345 545.447 70.7314 545.948 70.7314C546.322 70.7314 546.614 70.6305 546.822 70.4287C547.03 70.2301 547.134 69.9469 547.134 69.5791V69.2959C546.809 69.6637 546.381 69.8477 545.85 69.8477C545.215 69.8477 544.701 69.6003 544.307 69.1055C543.917 68.6074 543.721 67.9482 543.721 67.1279V67.0693ZM545.132 67.1719C545.132 67.6504 545.228 68.0264 545.42 68.2998C545.613 68.57 545.876 68.7051 546.212 68.7051C546.641 68.7051 546.949 68.5439 547.134 68.2217V66C546.946 65.6777 546.641 65.5166 546.221 65.5166C545.883 65.5166 545.616 65.6549 545.42 65.9316C545.228 66.2083 545.132 66.6217 545.132 67.1719ZM552.608 65.79C552.416 65.764 552.247 65.751 552.1 65.751C551.566 65.751 551.216 65.9316 551.05 66.293V69.75H549.639V64.4668H550.972L551.011 65.0967C551.295 64.6117 551.687 64.3691 552.188 64.3691C552.344 64.3691 552.491 64.3903 552.628 64.4326L552.608 65.79ZM555.626 69.8477C554.851 69.8477 554.219 69.61 553.731 69.1348C553.246 68.6595 553.003 68.0264 553.003 67.2354V67.0986C553.003 66.568 553.106 66.0944 553.311 65.6777C553.516 65.2578 553.806 64.9355 554.18 64.7109C554.558 64.4831 554.988 64.3691 555.469 64.3691C556.192 64.3691 556.76 64.597 557.173 65.0527C557.59 65.5085 557.798 66.1546 557.798 66.9912V67.5674H554.434C554.48 67.9124 554.616 68.1891 554.844 68.3975C555.075 68.6058 555.367 68.71 555.718 68.71C556.262 68.71 556.687 68.513 556.993 68.1191L557.686 68.8955C557.475 69.195 557.188 69.4294 556.827 69.5986C556.465 69.7646 556.065 69.8477 555.626 69.8477ZM555.464 65.5117C555.184 65.5117 554.957 65.6061 554.781 65.7949C554.608 65.9837 554.498 66.2539 554.449 66.6055H556.412V66.4932C556.405 66.1807 556.321 65.9398 556.158 65.7705C555.995 65.598 555.764 65.5117 555.464 65.5117ZM561.465 68.29C561.465 68.1175 561.379 67.9824 561.207 67.8848C561.037 67.7839 560.764 67.6943 560.386 67.6162C559.13 67.3525 558.502 66.8187 558.502 66.0146C558.502 65.5459 558.695 65.1553 559.083 64.8428C559.473 64.527 559.983 64.3691 560.611 64.3691C561.281 64.3691 561.817 64.527 562.217 64.8428C562.621 65.1585 562.823 65.5687 562.823 66.0732H561.412C561.412 65.8714 561.347 65.7054 561.216 65.5752C561.086 65.4417 560.883 65.375 560.606 65.375C560.368 65.375 560.184 65.4287 560.054 65.5361C559.924 65.6436 559.859 65.7803 559.859 65.9463C559.859 66.1025 559.932 66.2295 560.079 66.3271C560.228 66.4215 560.479 66.5046 560.831 66.5762C561.182 66.6445 561.478 66.7227 561.719 66.8105C562.465 67.084 562.837 67.5576 562.837 68.2314C562.837 68.7132 562.631 69.1038 562.217 69.4033C561.804 69.6995 561.27 69.8477 560.616 69.8477C560.173 69.8477 559.779 69.7695 559.434 69.6133C559.092 69.4538 558.824 69.2373 558.628 68.9639C558.433 68.6872 558.336 68.3893 558.336 68.0703H559.673C559.686 68.321 559.779 68.513 559.952 68.6465C560.124 68.7799 560.355 68.8467 560.645 68.8467C560.915 68.8467 561.119 68.7962 561.255 68.6953C561.395 68.5911 561.465 68.4561 561.465 68.29ZM566.612 68.29C566.612 68.1175 566.526 67.9824 566.353 67.8848C566.184 67.7839 565.91 67.6943 565.533 67.6162C564.276 67.3525 563.648 66.8187 563.648 66.0146C563.648 65.5459 563.842 65.1553 564.229 64.8428C564.62 64.527 565.129 64.3691 565.757 64.3691C566.428 64.3691 566.963 64.527 567.364 64.8428C567.767 65.1585 567.969 65.5687 567.969 66.0732H566.558C566.558 65.8714 566.493 65.7054 566.363 65.5752C566.233 65.4417 566.029 65.375 565.753 65.375C565.515 65.375 565.331 65.4287 565.201 65.5361C565.071 65.6436 565.005 65.7803 565.005 65.9463C565.005 66.1025 565.079 66.2295 565.225 66.3271C565.375 66.4215 565.626 66.5046 565.977 66.5762C566.329 66.6445 566.625 66.7227 566.866 66.8105C567.611 67.084 567.984 67.5576 567.984 68.2314C567.984 68.7132 567.777 69.1038 567.364 69.4033C566.95 69.6995 566.417 69.8477 565.762 69.8477C565.32 69.8477 564.926 69.7695 564.581 69.6133C564.239 69.4538 563.97 69.2373 563.775 68.9639C563.58 68.6872 563.482 68.3893 563.482 68.0703H564.82C564.833 68.321 564.926 68.513 565.098 68.6465C565.271 68.7799 565.502 68.8467 565.792 68.8467C566.062 68.8467 566.265 68.7962 566.402 68.6953C566.542 68.5911 566.612 68.4561 566.612 68.29ZM577.105 68.8516C576.841 69.1673 576.469 69.4131 575.987 69.5889C575.505 69.7614 574.971 69.8477 574.385 69.8477C573.77 69.8477 573.23 69.7142 572.764 69.4473C572.302 69.1771 571.944 68.7865 571.69 68.2754C571.439 67.7643 571.311 67.1637 571.304 66.4736V65.9902C571.304 65.2806 571.423 64.667 571.661 64.1494C571.902 63.6286 572.247 63.2314 572.696 62.958C573.148 62.6813 573.677 62.543 574.283 62.543C575.126 62.543 575.785 62.7448 576.26 63.1484C576.736 63.5488 577.017 64.1331 577.105 64.9014H575.679C575.614 64.4945 575.469 64.1966 575.245 64.0078C575.023 63.819 574.717 63.7246 574.327 63.7246C573.829 63.7246 573.449 63.9118 573.189 64.2861C572.929 64.6605 572.797 65.2171 572.794 65.9561V66.4102C572.794 67.1556 572.935 67.7188 573.218 68.0996C573.502 68.4805 573.917 68.6709 574.463 68.6709C575.014 68.6709 575.406 68.5537 575.64 68.3193V67.0938H574.307V66.0146H577.105V68.8516ZM581.265 69.75C581.2 69.623 581.153 69.4652 581.124 69.2764C580.782 69.6572 580.337 69.8477 579.791 69.8477C579.273 69.8477 578.843 69.6979 578.502 69.3984C578.163 69.099 577.994 68.7214 577.994 68.2656C577.994 67.7057 578.2 67.276 578.614 66.9766C579.031 66.6771 579.631 66.5257 580.416 66.5225H581.065V66.2197C581.065 65.9756 581.002 65.7803 580.875 65.6338C580.751 65.4873 580.554 65.4141 580.284 65.4141C580.046 65.4141 579.859 65.471 579.722 65.585C579.589 65.6989 579.522 65.8551 579.522 66.0537H578.111C578.111 65.7477 578.205 65.4645 578.394 65.2041C578.583 64.9437 578.85 64.7402 579.195 64.5938C579.54 64.444 579.927 64.3691 580.357 64.3691C581.008 64.3691 581.524 64.5335 581.905 64.8623C582.289 65.1878 582.481 65.6468 582.481 66.2393V68.5293C582.484 69.0306 582.554 69.4098 582.691 69.667V69.75H581.265ZM580.098 68.7686C580.307 68.7686 580.499 68.723 580.674 68.6318C580.85 68.5374 580.98 68.4121 581.065 68.2559V67.3477H580.538C579.831 67.3477 579.455 67.5918 579.41 68.0801L579.405 68.1631C579.405 68.3389 579.467 68.4837 579.59 68.5977C579.714 68.7116 579.883 68.7686 580.098 68.7686ZM585.254 63.168V64.4668H586.158V65.502H585.254V68.1387C585.254 68.334 585.292 68.474 585.367 68.5586C585.442 68.6432 585.585 68.6855 585.796 68.6855C585.953 68.6855 586.091 68.6742 586.212 68.6514V69.7207C585.935 69.8053 585.65 69.8477 585.357 69.8477C584.367 69.8477 583.863 69.348 583.843 68.3486V65.502H583.072V64.4668H583.843V63.168H585.254ZM589.376 69.8477C588.601 69.8477 587.969 69.61 587.481 69.1348C586.996 68.6595 586.753 68.0264 586.753 67.2354V67.0986C586.753 66.568 586.856 66.0944 587.061 65.6777C587.266 65.2578 587.556 64.9355 587.93 64.7109C588.308 64.4831 588.738 64.3691 589.219 64.3691C589.942 64.3691 590.51 64.597 590.923 65.0527C591.34 65.5085 591.548 66.1546 591.548 66.9912V67.5674H588.184C588.23 67.9124 588.366 68.1891 588.594 68.3975C588.825 68.6058 589.117 68.71 589.468 68.71C590.012 68.71 590.437 68.513 590.743 68.1191L591.436 68.8955C591.225 69.195 590.938 69.4294 590.577 69.5986C590.215 69.7646 589.815 69.8477 589.376 69.8477ZM589.214 65.5117C588.934 65.5117 588.707 65.6061 588.531 65.7949C588.358 65.9837 588.248 66.2539 588.199 66.6055H590.162V66.4932C590.155 66.1807 590.071 65.9398 589.908 65.7705C589.745 65.598 589.514 65.5117 589.214 65.5117ZM596.949 67.8311L597.642 64.4668H599.004L597.657 69.75H596.475L595.474 66.4248L594.473 69.75H593.296L591.949 64.4668H593.311L594 67.8262L594.966 64.4668H595.987L596.949 67.8311ZM602.769 69.75C602.704 69.623 602.657 69.4652 602.628 69.2764C602.286 69.6572 601.841 69.8477 601.295 69.8477C600.777 69.8477 600.347 69.6979 600.005 69.3984C599.667 69.099 599.498 68.7214 599.498 68.2656C599.498 67.7057 599.704 67.276 600.118 66.9766C600.534 66.6771 601.135 66.5257 601.92 66.5225H602.569V66.2197C602.569 65.9756 602.505 65.7803 602.378 65.6338C602.255 65.4873 602.058 65.4141 601.788 65.4141C601.55 65.4141 601.363 65.471 601.226 65.585C601.093 65.6989 601.026 65.8551 601.026 66.0537H599.615C599.615 65.7477 599.709 65.4645 599.898 65.2041C600.087 64.9437 600.354 64.7402 600.699 64.5938C601.044 64.444 601.431 64.3691 601.861 64.3691C602.512 64.3691 603.028 64.5335 603.409 64.8623C603.793 65.1878 603.985 65.6468 603.985 66.2393V68.5293C603.988 69.0306 604.058 69.4098 604.195 69.667V69.75H602.769ZM601.602 68.7686C601.81 68.7686 602.003 68.723 602.178 68.6318C602.354 68.5374 602.484 68.4121 602.569 68.2559V67.3477H602.042C601.335 67.3477 600.959 67.5918 600.914 68.0801L600.909 68.1631C600.909 68.3389 600.971 68.4837 601.094 68.5977C601.218 68.7116 601.387 68.7686 601.602 68.7686ZM606.963 67.7529L607.94 64.4668H609.454L607.33 70.5703L607.212 70.8486C606.897 71.5387 606.376 71.8838 605.65 71.8838C605.445 71.8838 605.237 71.8529 605.025 71.791V70.7217L605.24 70.7266C605.507 70.7266 605.705 70.6859 605.836 70.6045C605.969 70.5231 606.073 70.388 606.148 70.1992L606.314 69.7646L604.463 64.4668H605.982L606.963 67.7529Z" fill="black"/>
<rect x="543.195" y="30.3333" width="62.1076" height="22.75" fill="#A0BFF9"/>
<path d="M571.311 42.1361H567.936V44.4212H571.896V45.8333H566.178V37.3021H571.885V38.7259H567.936V40.7591H571.311V42.1361ZM574.375 39.4935L574.428 40.2259C574.881 39.6595 575.488 39.3763 576.25 39.3763C576.922 39.3763 577.422 39.5736 577.75 39.9681C578.078 40.3626 578.246 40.9525 578.254 41.7376V45.8333H576.561V41.7786C576.561 41.4193 576.482 41.1595 576.326 40.9993C576.17 40.8353 575.91 40.7533 575.547 40.7533C575.07 40.7533 574.713 40.9564 574.475 41.3626V45.8333H572.781V39.4935H574.375ZM581.916 43.765L583.094 39.4935H584.863L582.725 45.8333H581.107L578.969 39.4935H580.738L581.916 43.765ZM585.256 42.6048C585.256 41.9759 585.377 41.4154 585.619 40.9232C585.861 40.431 586.209 40.0501 586.662 39.7806C587.119 39.5111 587.648 39.3763 588.25 39.3763C589.105 39.3763 589.803 39.638 590.342 40.1615C590.885 40.6849 591.188 41.3958 591.25 42.2943L591.262 42.7279C591.262 43.7005 590.99 44.4818 590.447 45.0716C589.904 45.6575 589.176 45.9505 588.262 45.9505C587.348 45.9505 586.617 45.6575 586.07 45.0716C585.527 44.4857 585.256 43.6888 585.256 42.681V42.6048ZM586.949 42.7279C586.949 43.3294 587.062 43.7904 587.289 44.1107C587.516 44.4271 587.84 44.5853 588.262 44.5853C588.672 44.5853 588.992 44.429 589.223 44.1165C589.453 43.8001 589.568 43.2962 589.568 42.6048C589.568 42.015 589.453 41.5579 589.223 41.2337C588.992 40.9095 588.668 40.7474 588.25 40.7474C587.836 40.7474 587.516 40.9095 587.289 41.2337C587.062 41.554 586.949 42.0521 586.949 42.7279ZM594.578 43.4368L595.75 39.4935H597.566L595.018 46.8177L594.877 47.1517C594.498 47.9798 593.873 48.3939 593.002 48.3939C592.756 48.3939 592.506 48.3568 592.252 48.2825V46.9993L592.51 47.0052C592.83 47.0052 593.068 46.9564 593.225 46.8587C593.385 46.7611 593.51 46.599 593.6 46.3724L593.799 45.8509L591.578 39.4935H593.4L594.578 43.4368Z" fill="black"/>
<path d="M552.875 35.5833L547.917 38.25V44.25L552.875 47.25L557.833 44.25V38.25L552.875 35.5833Z" stroke="#F822D5" stroke-width="2"/>
<path d="M547.1 22.8275V25.8333H545.342V17.3021H548.671C549.311 17.3021 549.874 17.4193 550.358 17.6536C550.846 17.888 551.221 18.222 551.483 18.6556C551.745 19.0853 551.876 19.5755 551.876 20.1263C551.876 20.9622 551.589 21.6224 551.014 22.1068C550.444 22.5872 549.653 22.8275 548.641 22.8275H547.1ZM547.1 21.4036H548.671C549.135 21.4036 549.489 21.2943 549.731 21.0755C549.977 20.8568 550.1 20.5443 550.1 20.138C550.1 19.72 549.977 19.3822 549.731 19.1243C549.485 18.8665 549.145 18.7337 548.712 18.7259H547.1V21.4036ZM552.632 22.6048C552.632 21.9759 552.753 21.4154 552.995 20.9232C553.237 20.431 553.585 20.0501 554.038 19.7806C554.495 19.5111 555.024 19.3763 555.626 19.3763C556.481 19.3763 557.178 19.638 557.717 20.1615C558.26 20.6849 558.563 21.3958 558.626 22.2943L558.637 22.7279C558.637 23.7005 558.366 24.4818 557.823 25.0716C557.28 25.6575 556.551 25.9505 555.637 25.9505C554.723 25.9505 553.993 25.6575 553.446 25.0716C552.903 24.4857 552.632 23.6888 552.632 22.681V22.6048ZM554.325 22.7279C554.325 23.3294 554.438 23.7904 554.665 24.1107C554.891 24.4271 555.216 24.5853 555.637 24.5853C556.048 24.5853 556.368 24.429 556.598 24.1165C556.829 23.8001 556.944 23.2962 556.944 22.6048C556.944 22.015 556.829 21.5579 556.598 21.2337C556.368 20.9095 556.044 20.7474 555.626 20.7474C555.212 20.7474 554.891 20.9095 554.665 21.2337C554.438 21.554 554.325 22.0521 554.325 22.7279ZM559.417 22.6165C559.417 21.6283 559.637 20.8411 560.079 20.2552C560.524 19.6693 561.132 19.3763 561.901 19.3763C562.518 19.3763 563.028 19.6068 563.43 20.0677V16.8333H565.13V25.8333H563.6L563.518 25.1595C563.096 25.6868 562.553 25.9505 561.889 25.9505C561.143 25.9505 560.544 25.6575 560.091 25.0716C559.641 24.4818 559.417 23.6634 559.417 22.6165ZM561.11 22.7396C561.11 23.3333 561.214 23.7884 561.421 24.1048C561.628 24.4212 561.928 24.5794 562.323 24.5794C562.846 24.5794 563.216 24.3587 563.43 23.9173V21.4154C563.219 20.974 562.854 20.7533 562.335 20.7533C561.518 20.7533 561.11 21.4154 561.11 22.7396Z" fill="black"/>
<rect x="537" y="45" width="8.60331" height="10.8356" fill="#FEF9E2" stroke="#E7CD7C" stroke-width="2"/>
<path d="M538.232 53.4872H541.581" stroke="#808080" stroke-width="1.2"/>
<path d="M538.232 50.6968H544.371" stroke="#545454" stroke-width="1.2"/>
<path d="M538.232 47.9065H544.371" stroke="#545454" stroke-width="1.2"/>
<path d="M543.615 55.7846L541.942 54.6231L540.328 57.1718L541.685 56.8189L542.001 58.3334L543.615 55.7846Z" fill="#C6142F" stroke="#AB1D33"/>
<path d="M543.619 55.8758L545.388 54.9092L546.763 57.6272L545.445 57.1228L544.993 58.5938L543.619 55.8758Z" fill="#C6142F" stroke="#AB1D33"/>
<path d="M545.202 54.1456C545.202 55.2372 544.519 55.8782 543.945 55.8782C543.371 55.8782 542.687 55.2372 542.687 54.1456C542.687 53.054 543.371 52.413 543.945 52.413C544.519 52.413 545.202 53.054 545.202 54.1456Z" stroke="#C6142F" stroke-width="1.2"/>
</g>
<defs>
<filter id="filter0_d" x="527" y="0" width="99" height="82.0833" filterUnits="userSpaceOnUse" color-interpolation-filters="sRGB">
<feFlood flood-opacity="0" result="BackgroundImageFix"/>
<feColorMatrix in="SourceAlpha" type="matrix" values="0 0 0 0 0 0 0 0 0 0 0 0 0 0 0 0 0 0 127 0"/>
<feOffset dy="4"/>
<feGaussianBlur stdDeviation="2"/>
<feColorMatrix type="matrix" values="0 0 0 0 0 0 0 0 0 0 0 0 0 0 0 0 0 0 0.25 0"/>
<feBlend mode="normal" in2="BackgroundImageFix" result="effect1_dropShadow"/>
<feBlend mode="normal" in="SourceGraphic" in2="effect1_dropShadow" result="shape"/>
</filter>
<clipPath id="clip0">
<rect width="640" height="73" fill="white"/>
</clipPath>
</defs>
</svg>
