<svg width="640" height="166" viewBox="0 0 640 166" fill="none" xmlns="http://www.w3.org/2000/svg">
<g clip-path="url(#clip0)">
<rect x="154" y="108.812" width="101" height="51.1875" rx="8" fill="white"/>
<path d="M192.879 135.493V139H190.828V129.047H194.711C195.458 129.047 196.115 129.184 196.68 129.457C197.249 129.73 197.687 130.12 197.992 130.626C198.298 131.127 198.45 131.699 198.45 132.342C198.45 133.317 198.115 134.087 197.445 134.652C196.78 135.213 195.857 135.493 194.677 135.493H192.879ZM192.879 133.832H194.711C195.253 133.832 195.666 133.704 195.948 133.449C196.235 133.194 196.379 132.829 196.379 132.355C196.379 131.868 196.235 131.474 195.948 131.173C195.661 130.872 195.265 130.717 194.759 130.708H192.879V133.832ZM201.82 139H199.838V131.604H201.82V139ZM199.722 129.689C199.722 129.393 199.82 129.149 200.016 128.958C200.216 128.767 200.487 128.671 200.829 128.671C201.166 128.671 201.435 128.767 201.636 128.958C201.836 129.149 201.937 129.393 201.937 129.689C201.937 129.99 201.834 130.236 201.629 130.428C201.428 130.619 201.162 130.715 200.829 130.715C200.496 130.715 200.228 130.619 200.022 130.428C199.822 130.236 199.722 129.99 199.722 129.689ZM205.539 139H203.557V128.5H205.539V139ZM206.865 135.233C206.865 134.5 207.007 133.846 207.289 133.271C207.572 132.697 207.977 132.253 208.506 131.938C209.039 131.624 209.657 131.467 210.358 131.467C211.356 131.467 212.17 131.772 212.799 132.383C213.432 132.993 213.785 133.823 213.858 134.871L213.872 135.377C213.872 136.512 213.555 137.423 212.922 138.111C212.288 138.795 211.438 139.137 210.372 139.137C209.306 139.137 208.453 138.795 207.815 138.111C207.182 137.428 206.865 136.498 206.865 135.322V135.233ZM208.841 135.377C208.841 136.079 208.973 136.617 209.237 136.99C209.502 137.359 209.88 137.544 210.372 137.544C210.851 137.544 211.224 137.362 211.493 136.997C211.762 136.628 211.896 136.04 211.896 135.233C211.896 134.545 211.762 134.012 211.493 133.634C211.224 133.256 210.846 133.066 210.358 133.066C209.875 133.066 209.502 133.256 209.237 133.634C208.973 134.007 208.841 134.589 208.841 135.377ZM217.454 129.785V131.604H218.719V133.053H217.454V136.744C217.454 137.018 217.507 137.214 217.611 137.332C217.716 137.451 217.917 137.51 218.213 137.51C218.432 137.51 218.625 137.494 218.794 137.462V138.959C218.407 139.077 218.008 139.137 217.598 139.137C216.212 139.137 215.506 138.437 215.479 137.038V133.053H214.398V131.604H215.479V129.785H217.454Z" fill="black"/>
<g filter="url(#filter0_d)">
<rect x="154" y="108.812" width="101" height="51.1875" rx="8" fill="white"/>
<rect x="154.5" y="109.312" width="100" height="50.1875" rx="7.5" stroke="black"/>
</g>
<path d="M208.379 135.493V139H206.328V129.047H210.211C210.958 129.047 211.615 129.184 212.18 129.457C212.749 129.73 213.187 130.12 213.492 130.626C213.798 131.127 213.95 131.699 213.95 132.342C213.95 133.317 213.615 134.087 212.945 134.652C212.28 135.213 211.357 135.493 210.177 135.493H208.379ZM208.379 133.832H210.211C210.753 133.832 211.166 133.704 211.448 133.449C211.735 133.194 211.879 132.829 211.879 132.355C211.879 131.868 211.735 131.474 211.448 131.173C211.161 130.872 210.765 130.717 210.259 130.708H208.379V133.832ZM217.32 139H215.338V131.604H217.32V139ZM215.222 129.689C215.222 129.393 215.32 129.149 215.516 128.958C215.716 128.767 215.987 128.671 216.329 128.671C216.666 128.671 216.935 128.767 217.136 128.958C217.336 129.149 217.437 129.393 217.437 129.689C217.437 129.99 217.334 130.236 217.129 130.428C216.928 130.619 216.662 130.715 216.329 130.715C215.996 130.715 215.728 130.619 215.522 130.428C215.322 130.236 215.222 129.99 215.222 129.689ZM221.039 139H219.057V128.5H221.039V139ZM222.365 135.233C222.365 134.5 222.507 133.846 222.789 133.271C223.072 132.697 223.477 132.253 224.006 131.938C224.539 131.624 225.157 131.467 225.858 131.467C226.856 131.467 227.67 131.772 228.299 132.383C228.932 132.993 229.285 133.823 229.358 134.871L229.372 135.377C229.372 136.512 229.055 137.423 228.422 138.111C227.788 138.795 226.938 139.137 225.872 139.137C224.806 139.137 223.953 138.795 223.315 138.111C222.682 137.428 222.365 136.498 222.365 135.322V135.233ZM224.341 135.377C224.341 136.079 224.473 136.617 224.737 136.99C225.002 137.359 225.38 137.544 225.872 137.544C226.351 137.544 226.724 137.362 226.993 136.997C227.262 136.628 227.396 136.04 227.396 135.233C227.396 134.545 227.262 134.012 226.993 133.634C226.724 133.256 226.346 133.066 225.858 133.066C225.375 133.066 225.002 133.256 224.737 133.634C224.473 134.007 224.341 134.589 224.341 135.377ZM232.954 129.785V131.604H234.219V133.053H232.954V136.744C232.954 137.018 233.007 137.214 233.111 137.332C233.216 137.451 233.417 137.51 233.713 137.51C233.932 137.51 234.125 137.494 234.294 137.462V138.959C233.907 139.077 233.508 139.137 233.098 139.137C231.712 139.137 231.006 138.437 230.979 137.038V133.053H229.898V131.604H230.979V129.785H232.954Z" fill="black"/>
<path d="M175.395 123.438H169.55C167.411 123.438 165.435 124.576 164.361 126.425L161.604 131.175C160.516 133.049 160.523 135.363 161.622 137.231L164.355 141.874C165.433 143.706 167.4 144.83 169.526 144.83H175.419C177.533 144.83 179.491 143.718 180.574 141.901L183.34 137.258C184.461 135.377 184.468 133.035 183.359 131.147L180.568 126.398C179.49 124.564 177.522 123.438 175.395 123.438Z" fill="#466BB0" stroke="white"/>
<g filter="url(#filter1_d)">
<path d="M166.734 139.535H178.339L171.086 141.653L166.734 139.535Z" fill="white"/>
</g>
<g filter="url(#filter2_d)">
<path d="M166.734 138.829L171.086 138.123V130.357L166.734 138.829Z" fill="white"/>
</g>
<g filter="url(#filter3_d)">
<path d="M171.811 138.123L178.339 138.829L171.811 124.708V138.123Z" fill="white"/>
</g>
<path d="M198.5 109L193.737 99.25H203.263L198.5 109Z" fill="#D34735"/>
<path d="M198.5 4.5V104.5" stroke="#D34735" stroke-width="2" stroke-dasharray="8 8"/>
</g>
<defs>
<filter id="filter0_d" x="150" y="108.812" width="109" height="59.1875" filterUnits="userSpaceOnUse" color-interpolation-filters="sRGB">
<feFlood flood-opacity="0" result="BackgroundImageFix"/>
<feColorMatrix in="SourceAlpha" type="matrix" values="0 0 0 0 0 0 0 0 0 0 0 0 0 0 0 0 0 0 127 0"/>
<feOffset dy="4"/>
<feGaussianBlur stdDeviation="2"/>
<feColorMatrix type="matrix" values="0 0 0 0 0 0 0 0 0 0 0 0 0 0 0 0 0 0 0.25 0"/>
<feBlend mode="normal" in2="BackgroundImageFix" result="effect1_dropShadow"/>
<feBlend mode="normal" in="SourceGraphic" in2="effect1_dropShadow" result="shape"/>
</filter>
<filter id="filter1_d" x="166.734" y="127.535" width="51.6053" height="34.1181" filterUnits="userSpaceOnUse" color-interpolation-filters="sRGB">
<feFlood flood-opacity="0" result="BackgroundImageFix"/>
<feColorMatrix in="SourceAlpha" type="matrix" values="0 0 0 0 0 0 0 0 0 0 0 0 0 0 0 0 0 0 127 0"/>
<feOffset dx="24" dy="4"/>
<feGaussianBlur stdDeviation="8"/>
<feColorMatrix type="matrix" values="0 0 0 0 0.135371 0 0 0 0 0.135371 0 0 0 0 0.135371 0 0 0 0.25 0"/>
<feBlend mode="normal" in2="BackgroundImageFix" result="effect1_dropShadow"/>
<feBlend mode="normal" in="SourceGraphic" in2="effect1_dropShadow" result="shape"/>
</filter>
<filter id="filter2_d" x="166.734" y="118.357" width="44.352" height="40.4724" filterUnits="userSpaceOnUse" color-interpolation-filters="sRGB">
<feFlood flood-opacity="0" result="BackgroundImageFix"/>
<feColorMatrix in="SourceAlpha" type="matrix" values="0 0 0 0 0 0 0 0 0 0 0 0 0 0 0 0 0 0 127 0"/>
<feOffset dx="24" dy="4"/>
<feGaussianBlur stdDeviation="8"/>
<feColorMatrix type="matrix" values="0 0 0 0 0.135371 0 0 0 0 0.135371 0 0 0 0 0.135371 0 0 0 0.25 0"/>
<feBlend mode="normal" in2="BackgroundImageFix" result="effect1_dropShadow"/>
<feBlend mode="normal" in="SourceGraphic" in2="effect1_dropShadow" result="shape"/>
</filter>
<filter id="filter3_d" x="171.811" y="112.708" width="46.528" height="46.1206" filterUnits="userSpaceOnUse" color-interpolation-filters="sRGB">
<feFlood flood-opacity="0" result="BackgroundImageFix"/>
<feColorMatrix in="SourceAlpha" type="matrix" values="0 0 0 0 0 0 0 0 0 0 0 0 0 0 0 0 0 0 127 0"/>
<feOffset dx="24" dy="4"/>
<feGaussianBlur stdDeviation="8"/>
<feColorMatrix type="matrix" values="0 0 0 0 0.135371 0 0 0 0 0.135371 0 0 0 0 0.135371 0 0 0 0.25 0"/>
<feBlend mode="normal" in2="BackgroundImageFix" result="effect1_dropShadow"/>
<feBlend mode="normal" in="SourceGraphic" in2="effect1_dropShadow" result="shape"/>
</filter>
<clipPath id="clip0">
<rect width="640" height="166" fill="white"/>
</clipPath>
</defs>
</svg>
