<svg width="640" height="117" viewBox="0 0 640 117" fill="none" xmlns="http://www.w3.org/2000/svg">
<g clip-path="url(#clip0)">
<rect x="372" y="17" width="87.7243" height="102.199" rx="17" fill="#C4C4C4"/>
<rect x="382.558" y="23.1153" width="70.5204" height="86.0378" rx="13.5" fill="white" stroke="black"/>
<rect x="377.588" y="27.6692" width="71.5204" height="87.0378" rx="14" fill="white"/>
<rect x="380.323" y="25.3615" width="70.5204" height="86.0378" rx="13.5" fill="white" stroke="black"/>
<rect x="378.088" y="28.1692" width="70.5204" height="86.0378" rx="13.5" fill="white" stroke="black"/>
<path d="M391.617 10.3887C391.617 10.0013 391.48 9.70508 391.207 9.5C390.933 9.29036 390.441 9.07161 389.73 8.84375C389.019 8.61133 388.456 8.38346 388.042 8.16016C386.912 7.54948 386.346 6.72689 386.346 5.69238C386.346 5.15462 386.497 4.67611 386.798 4.25684C387.103 3.83301 387.538 3.5026 388.103 3.26562C388.673 3.02865 389.311 2.91016 390.017 2.91016C390.728 2.91016 391.362 3.04004 391.918 3.2998C392.474 3.55501 392.904 3.91732 393.21 4.38672C393.52 4.85612 393.675 5.38932 393.675 5.98633H391.624C391.624 5.5306 391.48 5.17741 391.193 4.92676C390.906 4.67155 390.503 4.54395 389.983 4.54395C389.482 4.54395 389.092 4.65104 388.814 4.86523C388.536 5.07487 388.397 5.35286 388.397 5.69922C388.397 6.02279 388.559 6.29395 388.883 6.5127C389.211 6.73145 389.692 6.93652 390.325 7.12793C391.492 7.47884 392.342 7.91406 392.875 8.43359C393.408 8.95312 393.675 9.60026 393.675 10.375C393.675 11.2363 393.349 11.9131 392.697 12.4053C392.045 12.8929 391.168 13.1367 390.065 13.1367C389.3 13.1367 388.602 12.9977 387.973 12.7197C387.345 12.4372 386.864 12.0521 386.531 11.5645C386.203 11.0768 386.039 10.5117 386.039 9.86914H388.096C388.096 10.9674 388.753 11.5166 390.065 11.5166C390.553 11.5166 390.933 11.4186 391.207 11.2227C391.48 11.0221 391.617 10.7441 391.617 10.3887ZM398.344 13.1367C397.259 13.1367 396.375 12.804 395.691 12.1387C395.012 11.4733 394.673 10.5869 394.673 9.47949V9.28809C394.673 8.54525 394.816 7.88216 395.103 7.29883C395.39 6.71094 395.796 6.25977 396.32 5.94531C396.849 5.6263 397.45 5.4668 398.125 5.4668C399.137 5.4668 399.932 5.78581 400.511 6.42383C401.094 7.06185 401.386 7.96647 401.386 9.1377V9.94434H396.676C396.739 10.4274 396.931 10.8148 397.25 11.1064C397.573 11.3981 397.981 11.5439 398.473 11.5439C399.234 11.5439 399.829 11.2682 400.258 10.7168L401.228 11.8037C400.932 12.223 400.531 12.5511 400.025 12.7881C399.519 13.0205 398.959 13.1367 398.344 13.1367ZM398.118 7.06641C397.726 7.06641 397.407 7.19857 397.161 7.46289C396.919 7.72721 396.764 8.10547 396.696 8.59766H399.444V8.44043C399.435 8.00293 399.317 7.66569 399.089 7.42871C398.861 7.18717 398.537 7.06641 398.118 7.06641ZM406.67 7.45605C406.401 7.4196 406.164 7.40137 405.959 7.40137C405.211 7.40137 404.721 7.6543 404.489 8.16016V13H402.513V5.60352H404.38L404.434 6.48535C404.831 5.80632 405.38 5.4668 406.082 5.4668C406.301 5.4668 406.506 5.49642 406.697 5.55566L406.67 7.45605ZM410.518 10.5869L411.892 5.60352H413.957L411.462 13H409.575L407.08 5.60352H409.144L410.518 10.5869ZM416.917 13H414.934V5.60352H416.917V13ZM414.818 3.68945C414.818 3.39323 414.916 3.14941 415.112 2.95801C415.313 2.7666 415.584 2.6709 415.926 2.6709C416.263 2.6709 416.532 2.7666 416.732 2.95801C416.933 3.14941 417.033 3.39323 417.033 3.68945C417.033 3.99023 416.93 4.23633 416.725 4.42773C416.525 4.61914 416.258 4.71484 415.926 4.71484C415.593 4.71484 415.324 4.61914 415.119 4.42773C414.918 4.23633 414.818 3.99023 414.818 3.68945ZM421.627 11.5439C421.991 11.5439 422.288 11.4437 422.515 11.2432C422.743 11.0426 422.862 10.776 422.871 10.4434H424.723C424.719 10.9447 424.582 11.4049 424.313 11.8242C424.044 12.2389 423.675 12.5625 423.206 12.7949C422.741 13.0228 422.226 13.1367 421.661 13.1367C420.604 13.1367 419.77 12.8018 419.159 12.1318C418.548 11.4574 418.243 10.5277 418.243 9.34277V9.21289C418.243 8.07357 418.546 7.16439 419.152 6.48535C419.758 5.80632 420.59 5.4668 421.647 5.4668C422.572 5.4668 423.313 5.73112 423.869 6.25977C424.429 6.78385 424.714 7.4834 424.723 8.3584H422.871C422.862 7.97559 422.743 7.66569 422.515 7.42871C422.288 7.18717 421.987 7.06641 421.613 7.06641C421.153 7.06641 420.804 7.23503 420.567 7.57227C420.335 7.90495 420.219 8.44727 420.219 9.19922V9.4043C420.219 10.1654 420.335 10.7122 420.567 11.0449C420.8 11.3776 421.153 11.5439 421.627 11.5439ZM429.256 13.1367C428.171 13.1367 427.287 12.804 426.603 12.1387C425.924 11.4733 425.585 10.5869 425.585 9.47949V9.28809C425.585 8.54525 425.728 7.88216 426.015 7.29883C426.303 6.71094 426.708 6.25977 427.232 5.94531C427.761 5.6263 428.362 5.4668 429.037 5.4668C430.049 5.4668 430.844 5.78581 431.423 6.42383C432.006 7.06185 432.298 7.96647 432.298 9.1377V9.94434H427.588C427.651 10.4274 427.843 10.8148 428.162 11.1064C428.485 11.3981 428.893 11.5439 429.386 11.5439C430.147 11.5439 430.741 11.2682 431.17 10.7168L432.14 11.8037C431.844 12.223 431.443 12.5511 430.937 12.7881C430.431 13.0205 429.871 13.1367 429.256 13.1367ZM429.03 7.06641C428.638 7.06641 428.319 7.19857 428.073 7.46289C427.831 7.72721 427.677 8.10547 427.608 8.59766H430.356V8.44043C430.347 8.00293 430.229 7.66569 430.001 7.42871C429.773 7.18717 429.449 7.06641 429.03 7.06641ZM442.661 10.9492H439.065L438.382 13H436.201L439.906 3.04688H441.806L445.532 13H443.351L442.661 10.9492ZM439.619 9.28809H442.107L440.856 5.5625L439.619 9.28809Z" fill="black"/>
<rect x="383.675" y="84.8605" width="59.7866" height="21.8998" fill="#A0BFF9"/>
<path d="M412.312 96.3027H408.937V98.5879H412.898V100H407.179V91.4688H412.887V92.8926H408.937V94.9258H412.312V96.3027ZM415.377 93.6602L415.429 94.3926C415.883 93.8262 416.49 93.543 417.252 93.543C417.924 93.543 418.424 93.7402 418.752 94.1348C419.08 94.5293 419.248 95.1191 419.256 95.9043V100H417.562V95.9453C417.562 95.5859 417.484 95.3262 417.328 95.166C417.172 95.002 416.912 94.9199 416.549 94.9199C416.072 94.9199 415.715 95.123 415.476 95.5293V100H413.783V93.6602H415.377ZM422.918 97.9316L424.095 93.6602H425.865L423.726 100H422.109L419.97 93.6602H421.74L422.918 97.9316ZM426.258 96.7715C426.258 96.1426 426.379 95.582 426.621 95.0898C426.863 94.5977 427.211 94.2168 427.664 93.9473C428.121 93.6777 428.65 93.543 429.252 93.543C430.107 93.543 430.804 93.8047 431.344 94.3281C431.887 94.8516 432.189 95.5625 432.252 96.4609L432.263 96.8945C432.263 97.8672 431.992 98.6484 431.449 99.2383C430.906 99.8242 430.178 100.117 429.263 100.117C428.349 100.117 427.619 99.8242 427.072 99.2383C426.529 98.6523 426.258 97.8555 426.258 96.8477V96.7715ZM427.951 96.8945C427.951 97.4961 428.064 97.957 428.291 98.2773C428.517 98.5938 428.842 98.752 429.263 98.752C429.674 98.752 429.994 98.5957 430.224 98.2832C430.455 97.9668 430.57 97.4629 430.57 96.7715C430.57 96.1816 430.455 95.7246 430.224 95.4004C429.994 95.0762 429.67 94.9141 429.252 94.9141C428.838 94.9141 428.517 95.0762 428.291 95.4004C428.064 95.7207 427.951 96.2188 427.951 96.8945ZM435.58 97.6035L436.752 93.6602H438.568L436.019 100.984L435.879 101.318C435.5 102.146 434.875 102.561 434.004 102.561C433.758 102.561 433.508 102.523 433.254 102.449V101.166L433.512 101.172C433.832 101.172 434.07 101.123 434.226 101.025C434.387 100.928 434.512 100.766 434.601 100.539L434.801 100.018L432.58 93.6602H434.402L435.58 97.6035Z" fill="black"/>
<path d="M394.255 88.5089L388.053 91.8446V99.3499L394.255 103.103L400.458 99.3499V91.8446L394.255 88.5089Z" stroke="#F822D5" stroke-width="2"/>
<rect x="385.864" y="46.1873" width="59.834" height="14.5936" fill="#A6E48C"/>
<path d="M412.751 56.6027C412.751 56.3612 412.63 56.172 412.389 56.0353C412.152 55.894 411.769 55.7687 411.24 55.6593C409.481 55.2902 408.602 54.5428 408.602 53.4172C408.602 52.7609 408.873 52.214 409.415 51.7765C409.962 51.3345 410.675 51.1134 411.555 51.1134C412.494 51.1134 413.243 51.3345 413.804 51.7765C414.369 52.2186 414.652 52.7928 414.652 53.4992H412.676C412.676 53.2166 412.585 52.9842 412.403 52.8019C412.22 52.6151 411.935 52.5217 411.548 52.5217C411.215 52.5217 410.958 52.5968 410.776 52.7472C410.593 52.8976 410.502 53.089 410.502 53.3215C410.502 53.5402 410.605 53.7179 410.81 53.8547C411.019 53.9868 411.37 54.103 411.863 54.2033C412.355 54.299 412.769 54.4084 413.107 54.5314C414.15 54.9142 414.672 55.5773 414.672 56.5207C414.672 57.1952 414.383 57.742 413.804 58.1613C413.225 58.576 412.478 58.7834 411.562 58.7834C410.942 58.7834 410.391 58.674 409.907 58.4552C409.429 58.2319 409.053 57.9289 408.78 57.5461C408.506 57.1587 408.369 56.7417 408.369 56.2951H410.242C410.261 56.646 410.391 56.9149 410.632 57.1017C410.874 57.2886 411.197 57.382 411.603 57.382C411.981 57.382 412.266 57.3114 412.457 57.1701C412.653 57.0243 412.751 56.8351 412.751 56.6027ZM418.719 56.2336L420.093 51.2502H422.157L419.662 58.6467H417.776L415.281 51.2502H417.345L418.719 56.2336ZM426.013 57.1906C426.378 57.1906 426.674 57.0903 426.902 56.8898C427.129 56.6893 427.248 56.4227 427.257 56.09H429.11C429.105 56.5913 428.968 57.0516 428.699 57.4709C428.431 57.8856 428.061 58.2092 427.592 58.4416C427.127 58.6694 426.612 58.7834 426.047 58.7834C424.99 58.7834 424.156 58.4484 423.545 57.7785C422.934 57.104 422.629 56.1743 422.629 54.9894V54.8595C422.629 53.7202 422.932 52.811 423.538 52.132C424.144 51.453 424.976 51.1134 426.033 51.1134C426.959 51.1134 427.699 51.3778 428.255 51.9064C428.816 52.4305 429.1 53.1301 429.11 54.0051H427.257C427.248 53.6222 427.129 53.3123 426.902 53.0754C426.674 52.8338 426.373 52.7131 425.999 52.7131C425.539 52.7131 425.19 52.8817 424.953 53.2189C424.721 53.5516 424.605 54.0939 424.605 54.8459V55.0509C424.605 55.812 424.721 56.3589 424.953 56.6916C425.186 57.0243 425.539 57.1906 426.013 57.1906ZM435.987 56.5959H432.391L431.707 58.6467H429.527L433.232 48.6935H435.132L438.858 58.6467H436.677L435.987 56.5959ZM432.945 54.9347H435.433L434.182 51.2092L432.945 54.9347Z" fill="black"/>
<rect x="390.012" y="48.8763" width="9.21555" height="9.21555" fill="#EBEBEB" stroke="black"/>
<path d="M399.728 50.9302H401.187" stroke="black"/>
<path d="M399.728 53.1193H401.187" stroke="black"/>
<path d="M399.728 55.3083H401.187" stroke="black"/>
<path d="M388.053 50.9302H389.512" stroke="black"/>
<path d="M388.053 53.1193H389.512" stroke="black"/>
<path d="M388.053 55.3083H389.512" stroke="black"/>
<path d="M396.812 60.0513L396.809 58.5919" stroke="black"/>
<path d="M394.623 60.0556L394.62 58.5963" stroke="black"/>
<path d="M392.434 60.06L392.431 58.6006" stroke="black"/>
<path d="M396.812 48.3763L396.809 46.917" stroke="black"/>
<path d="M394.623 48.3807L394.62 46.9213" stroke="black"/>
<path d="M392.434 48.3851L392.431 46.9257" stroke="black"/>
<rect x="392.431" y="51.2951" width="4.37809" height="4.37809" fill="black"/>
<path d="M388.038 38.5369V41.5428H386.28V33.0115H389.609C390.249 33.0115 390.812 33.1287 391.296 33.3631C391.784 33.5975 392.159 33.9315 392.421 34.3651C392.683 34.7947 392.814 35.285 392.814 35.8358C392.814 36.6717 392.527 37.3318 391.952 37.8162C391.382 38.2967 390.591 38.5369 389.579 38.5369H388.038ZM388.038 37.1131H389.609C390.073 37.1131 390.427 37.0037 390.669 36.785C390.915 36.5662 391.038 36.2537 391.038 35.8475C391.038 35.4295 390.915 35.0916 390.669 34.8338C390.423 34.576 390.083 34.4432 389.65 34.4354H388.038V37.1131ZM393.569 38.3143C393.569 37.6854 393.691 37.1248 393.933 36.6326C394.175 36.1404 394.523 35.7596 394.976 35.4901C395.433 35.2205 395.962 35.0858 396.564 35.0858C397.419 35.0858 398.116 35.3475 398.655 35.8709C399.198 36.3943 399.501 37.1053 399.564 38.0037L399.575 38.4373C399.575 39.41 399.304 40.1912 398.761 40.7811C398.218 41.367 397.489 41.66 396.575 41.66C395.661 41.66 394.931 41.367 394.384 40.7811C393.841 40.1951 393.569 39.3983 393.569 38.3904V38.3143ZM395.263 38.4373C395.263 39.0389 395.376 39.4998 395.603 39.8201C395.829 40.1365 396.153 40.2947 396.575 40.2947C396.986 40.2947 397.306 40.1385 397.536 39.826C397.767 39.5096 397.882 39.0057 397.882 38.3143C397.882 37.7244 397.767 37.2674 397.536 36.9432C397.306 36.619 396.982 36.4568 396.564 36.4568C396.15 36.4568 395.829 36.619 395.603 36.9432C395.376 37.2635 395.263 37.7615 395.263 38.4373ZM400.355 38.326C400.355 37.3377 400.575 36.5506 401.017 35.9647C401.462 35.3787 402.069 35.0858 402.839 35.0858C403.456 35.0858 403.966 35.3162 404.368 35.7772V32.5428H406.068V41.5428H404.538L404.456 40.869C404.034 41.3963 403.491 41.66 402.827 41.66C402.081 41.66 401.482 41.367 401.028 40.7811C400.579 40.1912 400.355 39.3729 400.355 38.326ZM402.048 38.449C402.048 39.0428 402.152 39.4979 402.359 39.8143C402.566 40.1307 402.866 40.2889 403.261 40.2889C403.784 40.2889 404.153 40.0682 404.368 39.6268V37.1248C404.157 36.6834 403.792 36.4627 403.273 36.4627C402.456 36.4627 402.048 37.1248 402.048 38.449Z" fill="black"/>
<path d="M412.862 63.3156V79.6375" stroke="#5294CF" stroke-width="4"/>
<path d="M412.862 60.0513L417.286 67.3961H408.439L412.862 60.0513Z" fill="#5294CF"/>
<path d="M412.862 84.8605L408.439 77.5156H417.286L412.862 84.8605Z" fill="#5294CF"/>
<rect x="377" y="103" width="8.60331" height="10.8356" fill="#FEF9E2" stroke="#E7CD7C" stroke-width="2"/>
<path d="M378.232 111.487H381.581" stroke="#808080" stroke-width="1.2"/>
<path d="M378.232 108.697H384.371" stroke="#545454" stroke-width="1.2"/>
<path d="M378.232 105.906H384.371" stroke="#545454" stroke-width="1.2"/>
<path d="M383.615 113.785L381.942 112.623L380.328 115.172L381.685 114.819L382.001 116.333L383.615 113.785Z" fill="#C6142F" stroke="#AB1D33"/>
<path d="M383.619 113.876L385.388 112.909L386.763 115.627L385.445 115.123L384.993 116.594L383.619 113.876Z" fill="#C6142F" stroke="#AB1D33"/>
<path d="M385.202 112.146C385.202 113.237 384.519 113.878 383.945 113.878C383.371 113.878 382.687 113.237 382.687 112.146C382.687 111.054 383.371 110.413 383.945 110.413C384.519 110.413 385.202 111.054 385.202 112.146Z" stroke="#C6142F" stroke-width="1.2"/>
</g>
<defs>
<clipPath id="clip0">
<rect width="640" height="117" fill="white"/>
</clipPath>
</defs>
</svg>
