<svg width="640" height="117" viewBox="0 0 640 117" fill="none" xmlns="http://www.w3.org/2000/svg">
<g clip-path="url(#clip0)">
<rect x="177" y="16" width="87.7243" height="102.199" rx="17" fill="#C4C4C4"/>
<rect x="187.558" y="22.1153" width="70.5204" height="86.0378" rx="13.5" fill="white" stroke="black"/>
<rect x="182.588" y="26.6692" width="71.5204" height="87.0378" rx="14" fill="white"/>
<rect x="185.323" y="24.3615" width="70.5204" height="86.0378" rx="13.5" fill="white" stroke="black"/>
<rect x="183.088" y="27.1692" width="70.5204" height="86.0378" rx="13.5" fill="white" stroke="black"/>
<path d="M196.617 9.38867C196.617 9.0013 196.48 8.70508 196.207 8.5C195.933 8.29036 195.441 8.07161 194.73 7.84375C194.019 7.61133 193.456 7.38346 193.042 7.16016C191.912 6.54948 191.346 5.72689 191.346 4.69238C191.346 4.15462 191.497 3.67611 191.798 3.25684C192.103 2.83301 192.538 2.5026 193.103 2.26562C193.673 2.02865 194.311 1.91016 195.017 1.91016C195.728 1.91016 196.362 2.04004 196.918 2.2998C197.474 2.55501 197.904 2.91732 198.21 3.38672C198.52 3.85612 198.675 4.38932 198.675 4.98633H196.624C196.624 4.5306 196.48 4.17741 196.193 3.92676C195.906 3.67155 195.503 3.54395 194.983 3.54395C194.482 3.54395 194.092 3.65104 193.814 3.86523C193.536 4.07487 193.397 4.35286 193.397 4.69922C193.397 5.02279 193.559 5.29395 193.883 5.5127C194.211 5.73145 194.692 5.93652 195.325 6.12793C196.492 6.47884 197.342 6.91406 197.875 7.43359C198.408 7.95312 198.675 8.60026 198.675 9.375C198.675 10.2363 198.349 10.9131 197.697 11.4053C197.045 11.8929 196.168 12.1367 195.065 12.1367C194.3 12.1367 193.602 11.9977 192.973 11.7197C192.345 11.4372 191.864 11.0521 191.531 10.5645C191.203 10.0768 191.039 9.51172 191.039 8.86914H193.096C193.096 9.96745 193.753 10.5166 195.065 10.5166C195.553 10.5166 195.933 10.4186 196.207 10.2227C196.48 10.0221 196.617 9.74414 196.617 9.38867ZM203.344 12.1367C202.259 12.1367 201.375 11.804 200.691 11.1387C200.012 10.4733 199.673 9.58691 199.673 8.47949V8.28809C199.673 7.54525 199.816 6.88216 200.103 6.29883C200.39 5.71094 200.796 5.25977 201.32 4.94531C201.849 4.6263 202.45 4.4668 203.125 4.4668C204.137 4.4668 204.932 4.78581 205.511 5.42383C206.094 6.06185 206.386 6.96647 206.386 8.1377V8.94434H201.676C201.739 9.42741 201.931 9.81478 202.25 10.1064C202.573 10.3981 202.981 10.5439 203.473 10.5439C204.234 10.5439 204.829 10.2682 205.258 9.7168L206.228 10.8037C205.932 11.223 205.531 11.5511 205.025 11.7881C204.519 12.0205 203.959 12.1367 203.344 12.1367ZM203.118 6.06641C202.726 6.06641 202.407 6.19857 202.161 6.46289C201.919 6.72721 201.764 7.10547 201.696 7.59766H204.444V7.44043C204.435 7.00293 204.317 6.66569 204.089 6.42871C203.861 6.18717 203.537 6.06641 203.118 6.06641ZM211.67 6.45605C211.401 6.4196 211.164 6.40137 210.959 6.40137C210.211 6.40137 209.721 6.6543 209.489 7.16016V12H207.513V4.60352H209.38L209.434 5.48535C209.831 4.80632 210.38 4.4668 211.082 4.4668C211.301 4.4668 211.506 4.49642 211.697 4.55566L211.67 6.45605ZM215.518 9.58691L216.892 4.60352H218.957L216.462 12H214.575L212.08 4.60352H214.144L215.518 9.58691ZM221.917 12H219.934V4.60352H221.917V12ZM219.818 2.68945C219.818 2.39323 219.916 2.14941 220.112 1.95801C220.313 1.7666 220.584 1.6709 220.926 1.6709C221.263 1.6709 221.532 1.7666 221.732 1.95801C221.933 2.14941 222.033 2.39323 222.033 2.68945C222.033 2.99023 221.93 3.23633 221.725 3.42773C221.525 3.61914 221.258 3.71484 220.926 3.71484C220.593 3.71484 220.324 3.61914 220.119 3.42773C219.918 3.23633 219.818 2.99023 219.818 2.68945ZM226.627 10.5439C226.991 10.5439 227.288 10.4437 227.515 10.2432C227.743 10.0426 227.862 9.77604 227.871 9.44336H229.723C229.719 9.94466 229.582 10.4049 229.313 10.8242C229.044 11.2389 228.675 11.5625 228.206 11.7949C227.741 12.0228 227.226 12.1367 226.661 12.1367C225.604 12.1367 224.77 11.8018 224.159 11.1318C223.548 10.4574 223.243 9.52767 223.243 8.34277V8.21289C223.243 7.07357 223.546 6.16439 224.152 5.48535C224.758 4.80632 225.59 4.4668 226.647 4.4668C227.572 4.4668 228.313 4.73112 228.869 5.25977C229.429 5.78385 229.714 6.4834 229.723 7.3584H227.871C227.862 6.97559 227.743 6.66569 227.515 6.42871C227.288 6.18717 226.987 6.06641 226.613 6.06641C226.153 6.06641 225.804 6.23503 225.567 6.57227C225.335 6.90495 225.219 7.44727 225.219 8.19922V8.4043C225.219 9.16536 225.335 9.71224 225.567 10.0449C225.8 10.3776 226.153 10.5439 226.627 10.5439ZM234.256 12.1367C233.171 12.1367 232.287 11.804 231.603 11.1387C230.924 10.4733 230.585 9.58691 230.585 8.47949V8.28809C230.585 7.54525 230.728 6.88216 231.015 6.29883C231.303 5.71094 231.708 5.25977 232.232 4.94531C232.761 4.6263 233.362 4.4668 234.037 4.4668C235.049 4.4668 235.844 4.78581 236.423 5.42383C237.006 6.06185 237.298 6.96647 237.298 8.1377V8.94434H232.588C232.651 9.42741 232.843 9.81478 233.162 10.1064C233.485 10.3981 233.893 10.5439 234.386 10.5439C235.147 10.5439 235.741 10.2682 236.17 9.7168L237.14 10.8037C236.844 11.223 236.443 11.5511 235.937 11.7881C235.431 12.0205 234.871 12.1367 234.256 12.1367ZM234.03 6.06641C233.638 6.06641 233.319 6.19857 233.073 6.46289C232.831 6.72721 232.677 7.10547 232.608 7.59766H235.356V7.44043C235.347 7.00293 235.229 6.66569 235.001 6.42871C234.773 6.18717 234.449 6.06641 234.03 6.06641ZM247.661 9.94922H244.065L243.382 12H241.201L244.906 2.04688H246.806L250.532 12H248.351L247.661 9.94922ZM244.619 8.28809H247.107L245.856 4.5625L244.619 8.28809Z" fill="black"/>
<rect x="188.675" y="83.8605" width="59.7866" height="21.8998" fill="#A0BFF9"/>
<path d="M217.312 95.3027H213.937V97.5879H217.898V99H212.179V90.4688H217.887V91.8926H213.937V93.9258H217.312V95.3027ZM220.377 92.6602L220.429 93.3926C220.883 92.8262 221.49 92.543 222.252 92.543C222.924 92.543 223.424 92.7402 223.752 93.1348C224.08 93.5293 224.248 94.1191 224.256 94.9043V99H222.562V94.9453C222.562 94.5859 222.484 94.3262 222.328 94.166C222.172 94.002 221.912 93.9199 221.549 93.9199C221.072 93.9199 220.715 94.123 220.476 94.5293V99H218.783V92.6602H220.377ZM227.918 96.9316L229.095 92.6602H230.865L228.726 99H227.109L224.97 92.6602H226.74L227.918 96.9316ZM231.258 95.7715C231.258 95.1426 231.379 94.582 231.621 94.0898C231.863 93.5977 232.211 93.2168 232.664 92.9473C233.121 92.6777 233.65 92.543 234.252 92.543C235.107 92.543 235.804 92.8047 236.344 93.3281C236.887 93.8516 237.189 94.5625 237.252 95.4609L237.263 95.8945C237.263 96.8672 236.992 97.6484 236.449 98.2383C235.906 98.8242 235.178 99.1172 234.263 99.1172C233.349 99.1172 232.619 98.8242 232.072 98.2383C231.529 97.6523 231.258 96.8555 231.258 95.8477V95.7715ZM232.951 95.8945C232.951 96.4961 233.064 96.957 233.291 97.2773C233.517 97.5938 233.842 97.752 234.263 97.752C234.674 97.752 234.994 97.5957 235.224 97.2832C235.455 96.9668 235.57 96.4629 235.57 95.7715C235.57 95.1816 235.455 94.7246 235.224 94.4004C234.994 94.0762 234.67 93.9141 234.252 93.9141C233.838 93.9141 233.517 94.0762 233.291 94.4004C233.064 94.7207 232.951 95.2188 232.951 95.8945ZM240.58 96.6035L241.752 92.6602H243.568L241.019 99.9844L240.879 100.318C240.5 101.146 239.875 101.561 239.004 101.561C238.758 101.561 238.508 101.523 238.254 101.449V100.166L238.512 100.172C238.832 100.172 239.07 100.123 239.226 100.025C239.387 99.9277 239.512 99.7656 239.601 99.5391L239.801 99.0176L237.58 92.6602H239.402L240.58 96.6035Z" fill="black"/>
<path d="M199.255 87.5089L193.053 90.8446V98.3499L199.255 102.103L205.458 98.3499V90.8446L199.255 87.5089Z" stroke="#F822D5" stroke-width="2"/>
<rect x="190.864" y="45.1873" width="59.834" height="14.5936" fill="#A6E48C"/>
<path d="M217.751 55.6027C217.751 55.3612 217.63 55.172 217.389 55.0353C217.152 54.894 216.769 54.7687 216.24 54.6593C214.481 54.2902 213.602 53.5428 213.602 52.4172C213.602 51.7609 213.873 51.214 214.415 50.7765C214.962 50.3345 215.675 50.1134 216.555 50.1134C217.494 50.1134 218.243 50.3345 218.804 50.7765C219.369 51.2186 219.652 51.7928 219.652 52.4992H217.676C217.676 52.2166 217.585 51.9842 217.403 51.8019C217.22 51.6151 216.935 51.5217 216.548 51.5217C216.215 51.5217 215.958 51.5968 215.776 51.7472C215.593 51.8976 215.502 52.089 215.502 52.3215C215.502 52.5402 215.605 52.7179 215.81 52.8547C216.019 52.9868 216.37 53.103 216.863 53.2033C217.355 53.299 217.769 53.4084 218.107 53.5314C219.15 53.9142 219.672 54.5773 219.672 55.5207C219.672 56.1952 219.383 56.742 218.804 57.1613C218.225 57.576 217.478 57.7834 216.562 57.7834C215.942 57.7834 215.391 57.674 214.907 57.4552C214.429 57.2319 214.053 56.9289 213.78 56.5461C213.506 56.1587 213.369 55.7417 213.369 55.2951H215.242C215.261 55.646 215.391 55.9149 215.632 56.1017C215.874 56.2886 216.197 56.382 216.603 56.382C216.981 56.382 217.266 56.3114 217.457 56.1701C217.653 56.0243 217.751 55.8351 217.751 55.6027ZM223.719 55.2336L225.093 50.2502H227.157L224.662 57.6467H222.776L220.281 50.2502H222.345L223.719 55.2336ZM231.013 56.1906C231.378 56.1906 231.674 56.0903 231.902 55.8898C232.129 55.6893 232.248 55.4227 232.257 55.09H234.11C234.105 55.5913 233.968 56.0516 233.699 56.4709C233.431 56.8856 233.061 57.2092 232.592 57.4416C232.127 57.6694 231.612 57.7834 231.047 57.7834C229.99 57.7834 229.156 57.4484 228.545 56.7785C227.934 56.104 227.629 55.1743 227.629 53.9894V53.8595C227.629 52.7202 227.932 51.811 228.538 51.132C229.144 50.453 229.976 50.1134 231.033 50.1134C231.959 50.1134 232.699 50.3778 233.255 50.9064C233.816 51.4305 234.1 52.1301 234.11 53.0051H232.257C232.248 52.6222 232.129 52.3123 231.902 52.0754C231.674 51.8338 231.373 51.7131 230.999 51.7131C230.539 51.7131 230.19 51.8817 229.953 52.2189C229.721 52.5516 229.605 53.0939 229.605 53.8459V54.0509C229.605 54.812 229.721 55.3589 229.953 55.6916C230.186 56.0243 230.539 56.1906 231.013 56.1906ZM240.987 55.5959H237.391L236.707 57.6467H234.527L238.232 47.6935H240.132L243.858 57.6467H241.677L240.987 55.5959ZM237.945 53.9347H240.433L239.182 50.2092L237.945 53.9347Z" fill="black"/>
<rect x="195.012" y="47.8763" width="9.21555" height="9.21555" fill="#EBEBEB" stroke="black"/>
<path d="M204.728 49.9302H206.187" stroke="black"/>
<path d="M204.728 52.1193H206.187" stroke="black"/>
<path d="M204.728 54.3083H206.187" stroke="black"/>
<path d="M193.053 49.9302H194.512" stroke="black"/>
<path d="M193.053 52.1193H194.512" stroke="black"/>
<path d="M193.053 54.3083H194.512" stroke="black"/>
<path d="M201.812 59.0513L201.809 57.5919" stroke="black"/>
<path d="M199.623 59.0556L199.62 57.5963" stroke="black"/>
<path d="M197.434 59.06L197.431 57.6006" stroke="black"/>
<path d="M201.812 47.3763L201.809 45.917" stroke="black"/>
<path d="M199.623 47.3807L199.62 45.9213" stroke="black"/>
<path d="M197.434 47.3851L197.431 45.9257" stroke="black"/>
<rect x="197.431" y="50.2951" width="4.37809" height="4.37809" fill="black"/>
<path d="M193.038 37.5369V40.5428H191.28V32.0115H194.609C195.249 32.0115 195.812 32.1287 196.296 32.3631C196.784 32.5975 197.159 32.9315 197.421 33.3651C197.683 33.7947 197.814 34.285 197.814 34.8358C197.814 35.6717 197.527 36.3318 196.952 36.8162C196.382 37.2967 195.591 37.5369 194.579 37.5369H193.038ZM193.038 36.1131H194.609C195.073 36.1131 195.427 36.0037 195.669 35.785C195.915 35.5662 196.038 35.2537 196.038 34.8475C196.038 34.4295 195.915 34.0916 195.669 33.8338C195.423 33.576 195.083 33.4432 194.65 33.4354H193.038V36.1131ZM198.569 37.3143C198.569 36.6854 198.691 36.1248 198.933 35.6326C199.175 35.1404 199.523 34.7596 199.976 34.4901C200.433 34.2205 200.962 34.0858 201.564 34.0858C202.419 34.0858 203.116 34.3475 203.655 34.8709C204.198 35.3943 204.501 36.1053 204.564 37.0037L204.575 37.4373C204.575 38.41 204.304 39.1912 203.761 39.7811C203.218 40.367 202.489 40.66 201.575 40.66C200.661 40.66 199.931 40.367 199.384 39.7811C198.841 39.1951 198.569 38.3983 198.569 37.3904V37.3143ZM200.263 37.4373C200.263 38.0389 200.376 38.4998 200.603 38.8201C200.829 39.1365 201.153 39.2947 201.575 39.2947C201.986 39.2947 202.306 39.1385 202.536 38.826C202.767 38.5096 202.882 38.0057 202.882 37.3143C202.882 36.7244 202.767 36.2674 202.536 35.9432C202.306 35.619 201.982 35.4568 201.564 35.4568C201.15 35.4568 200.829 35.619 200.603 35.9432C200.376 36.2635 200.263 36.7615 200.263 37.4373ZM205.355 37.326C205.355 36.3377 205.575 35.5506 206.017 34.9647C206.462 34.3787 207.069 34.0858 207.839 34.0858C208.456 34.0858 208.966 34.3162 209.368 34.7772V31.5428H211.068V40.5428H209.538L209.456 39.869C209.034 40.3963 208.491 40.66 207.827 40.66C207.081 40.66 206.482 40.367 206.028 39.7811C205.579 39.1912 205.355 38.3729 205.355 37.326ZM207.048 37.449C207.048 38.0428 207.152 38.4979 207.359 38.8143C207.566 39.1307 207.866 39.2889 208.261 39.2889C208.784 39.2889 209.153 39.0682 209.368 38.6268V36.1248C209.157 35.6834 208.792 35.4627 208.273 35.4627C207.456 35.4627 207.048 36.1248 207.048 37.449Z" fill="black"/>
<path d="M217.862 62.3156V78.6375" stroke="#5294CF" stroke-width="4"/>
<path d="M217.862 59.0513L222.286 66.3961H213.439L217.862 59.0513Z" fill="#5294CF"/>
<path d="M217.862 83.8605L213.439 76.5156H222.286L217.862 83.8605Z" fill="#5294CF"/>
<rect x="246" y="100" width="8.60331" height="10.8356" fill="#FEF9E2" stroke="#E7CD7C" stroke-width="2"/>
<path d="M247.232 108.487H250.581" stroke="#808080" stroke-width="1.2"/>
<path d="M247.232 105.697H253.371" stroke="#545454" stroke-width="1.2"/>
<path d="M247.232 102.906H253.371" stroke="#545454" stroke-width="1.2"/>
<path d="M252.615 110.785L250.942 109.623L249.328 112.172L250.685 111.819L251.001 113.333L252.615 110.785Z" fill="#C6142F" stroke="#AB1D33"/>
<path d="M252.619 110.876L254.388 109.909L255.763 112.627L254.445 112.123L253.993 113.594L252.619 110.876Z" fill="#C6142F" stroke="#AB1D33"/>
<path d="M254.202 109.146C254.202 110.237 253.519 110.878 252.945 110.878C252.371 110.878 251.687 110.237 251.687 109.146C251.687 108.054 252.371 107.413 252.945 107.413C253.519 107.413 254.202 108.054 254.202 109.146Z" stroke="#C6142F" stroke-width="1.2"/>
</g>
<defs>
<clipPath id="clip0">
<rect width="640" height="117" fill="white"/>
</clipPath>
</defs>
</svg>
