<svg width="297" height="300" viewBox="0 0 297 300" fill="none" xmlns="http://www.w3.org/2000/svg">
<g clip-path="url(#clip0)">
<rect x="64.6484" y="90" width="156.223" height="182" rx="17" fill="#C4C4C4"/>
<rect x="83.0593" y="100.5" width="126.366" height="154" rx="13.5" fill="white" stroke="black"/>
<rect x="74.5989" y="109" width="127.366" height="155" rx="14" fill="white"/>
<rect x="79.0791" y="104.5" width="126.366" height="154" rx="13.5" fill="white" stroke="black"/>
<rect x="75.0989" y="109.5" width="126.366" height="154" rx="13.5" fill="white" stroke="black"/>
<path d="M115.821 293.389C115.821 293.001 115.685 292.705 115.411 292.5C115.138 292.29 114.646 292.072 113.935 291.844C113.224 291.611 112.661 291.383 112.246 291.16C111.116 290.549 110.551 289.727 110.551 288.692C110.551 288.155 110.701 287.676 111.002 287.257C111.307 286.833 111.743 286.503 112.308 286.266C112.877 286.029 113.515 285.91 114.222 285.91C114.933 285.91 115.566 286.04 116.122 286.3C116.678 286.555 117.109 286.917 117.414 287.387C117.724 287.856 117.879 288.389 117.879 288.986H115.828C115.828 288.531 115.685 288.177 115.398 287.927C115.11 287.672 114.707 287.544 114.188 287.544C113.686 287.544 113.297 287.651 113.019 287.865C112.741 288.075 112.602 288.353 112.602 288.699C112.602 289.023 112.763 289.294 113.087 289.513C113.415 289.731 113.896 289.937 114.529 290.128C115.696 290.479 116.546 290.914 117.079 291.434C117.612 291.953 117.879 292.6 117.879 293.375C117.879 294.236 117.553 294.913 116.901 295.405C116.25 295.893 115.372 296.137 114.27 296.137C113.504 296.137 112.807 295.998 112.178 295.72C111.549 295.437 111.068 295.052 110.735 294.564C110.407 294.077 110.243 293.512 110.243 292.869H112.301C112.301 293.967 112.957 294.517 114.27 294.517C114.757 294.517 115.138 294.419 115.411 294.223C115.685 294.022 115.821 293.744 115.821 293.389ZM122.548 296.137C121.463 296.137 120.579 295.804 119.896 295.139C119.217 294.473 118.877 293.587 118.877 292.479V292.288C118.877 291.545 119.021 290.882 119.308 290.299C119.595 289.711 120 289.26 120.525 288.945C121.053 288.626 121.655 288.467 122.329 288.467C123.341 288.467 124.136 288.786 124.715 289.424C125.298 290.062 125.59 290.966 125.59 292.138V292.944H120.88C120.944 293.427 121.135 293.815 121.454 294.106C121.778 294.398 122.186 294.544 122.678 294.544C123.439 294.544 124.034 294.268 124.462 293.717L125.433 294.804C125.136 295.223 124.735 295.551 124.23 295.788C123.724 296.021 123.163 296.137 122.548 296.137ZM122.322 290.066C121.93 290.066 121.611 290.199 121.365 290.463C121.124 290.727 120.969 291.105 120.9 291.598H123.649V291.44C123.639 291.003 123.521 290.666 123.293 290.429C123.065 290.187 122.742 290.066 122.322 290.066ZM130.874 290.456C130.605 290.42 130.368 290.401 130.163 290.401C129.416 290.401 128.926 290.654 128.693 291.16V296H126.718V288.604H128.584L128.639 289.485C129.035 288.806 129.584 288.467 130.286 288.467C130.505 288.467 130.71 288.496 130.901 288.556L130.874 290.456ZM134.723 293.587L136.097 288.604H138.161L135.666 296H133.779L131.284 288.604H133.349L134.723 293.587ZM141.121 296H139.139V288.604H141.121V296ZM139.023 286.689C139.023 286.393 139.121 286.149 139.316 285.958C139.517 285.767 139.788 285.671 140.13 285.671C140.467 285.671 140.736 285.767 140.937 285.958C141.137 286.149 141.237 286.393 141.237 286.689C141.237 286.99 141.135 287.236 140.93 287.428C140.729 287.619 140.463 287.715 140.13 287.715C139.797 287.715 139.528 287.619 139.323 287.428C139.123 287.236 139.023 286.99 139.023 286.689ZM145.831 294.544C146.196 294.544 146.492 294.444 146.72 294.243C146.948 294.043 147.066 293.776 147.075 293.443H148.928C148.923 293.945 148.787 294.405 148.518 294.824C148.249 295.239 147.88 295.562 147.41 295.795C146.945 296.023 146.43 296.137 145.865 296.137C144.808 296.137 143.974 295.802 143.363 295.132C142.753 294.457 142.447 293.528 142.447 292.343V292.213C142.447 291.074 142.75 290.164 143.357 289.485C143.963 288.806 144.794 288.467 145.852 288.467C146.777 288.467 147.517 288.731 148.073 289.26C148.634 289.784 148.919 290.483 148.928 291.358H147.075C147.066 290.976 146.948 290.666 146.72 290.429C146.492 290.187 146.191 290.066 145.817 290.066C145.357 290.066 145.009 290.235 144.772 290.572C144.539 290.905 144.423 291.447 144.423 292.199V292.404C144.423 293.165 144.539 293.712 144.772 294.045C145.004 294.378 145.357 294.544 145.831 294.544ZM153.46 296.137C152.375 296.137 151.491 295.804 150.808 295.139C150.129 294.473 149.789 293.587 149.789 292.479V292.288C149.789 291.545 149.933 290.882 150.22 290.299C150.507 289.711 150.913 289.26 151.437 288.945C151.965 288.626 152.567 288.467 153.241 288.467C154.253 288.467 155.048 288.786 155.627 289.424C156.21 290.062 156.502 290.966 156.502 292.138V292.944H151.792C151.856 293.427 152.047 293.815 152.366 294.106C152.69 294.398 153.098 294.544 153.59 294.544C154.351 294.544 154.946 294.268 155.374 293.717L156.345 294.804C156.049 295.223 155.648 295.551 155.142 295.788C154.636 296.021 154.075 296.137 153.46 296.137ZM153.234 290.066C152.843 290.066 152.524 290.199 152.277 290.463C152.036 290.727 151.881 291.105 151.813 291.598H154.561V291.44C154.552 291.003 154.433 290.666 154.205 290.429C153.977 290.187 153.654 290.066 153.234 290.066ZM166.865 293.949H163.27L162.586 296H160.405L164.11 286.047H166.011L169.736 296H167.556L166.865 293.949ZM163.823 292.288H166.312L165.061 288.562L163.823 292.288Z" fill="black"/>
<rect x="83.5543" y="142" width="106.47" height="39" fill="#A0BFF9"/>
<path d="M124.902 161.687H120.964V164.353H125.585V166H118.913V156.047H125.572V157.708H120.964V160.08H124.902V161.687ZM128.477 158.604L128.538 159.458C129.067 158.797 129.776 158.467 130.664 158.467C131.448 158.467 132.032 158.697 132.414 159.157C132.797 159.618 132.993 160.306 133.002 161.222V166H131.027V161.27C131.027 160.85 130.936 160.547 130.753 160.36C130.571 160.169 130.268 160.073 129.844 160.073C129.288 160.073 128.871 160.31 128.593 160.784V166H126.617V158.604H128.477ZM137.275 163.587L138.649 158.604H140.713L138.218 166H136.331L133.836 158.604H135.901L137.275 163.587ZM141.171 162.233C141.171 161.5 141.312 160.846 141.595 160.271C141.878 159.697 142.283 159.253 142.812 158.938C143.345 158.624 143.963 158.467 144.664 158.467C145.662 158.467 146.476 158.772 147.105 159.383C147.738 159.993 148.091 160.823 148.164 161.871L148.178 162.377C148.178 163.512 147.861 164.423 147.228 165.111C146.594 165.795 145.744 166.137 144.678 166.137C143.612 166.137 142.759 165.795 142.121 165.111C141.488 164.428 141.171 163.498 141.171 162.322V162.233ZM143.147 162.377C143.147 163.079 143.279 163.617 143.543 163.99C143.808 164.359 144.186 164.544 144.678 164.544C145.157 164.544 145.53 164.362 145.799 163.997C146.068 163.628 146.202 163.04 146.202 162.233C146.202 161.545 146.068 161.012 145.799 160.634C145.53 160.256 145.152 160.066 144.664 160.066C144.181 160.066 143.808 160.256 143.543 160.634C143.279 161.007 143.147 161.589 143.147 162.377ZM152.047 163.204L153.414 158.604H155.534L152.56 167.148L152.396 167.538C151.954 168.504 151.225 168.987 150.208 168.987C149.921 168.987 149.63 168.944 149.333 168.857V167.36L149.634 167.367C150.008 167.367 150.286 167.31 150.468 167.196C150.655 167.082 150.801 166.893 150.906 166.629L151.138 166.021L148.547 158.604H150.673L152.047 163.204Z" fill="black"/>
<rect x="83.5543" y="195" width="106.47" height="55" fill="#A6E48C"/>
<path d="M127.142 224.956C127.142 224.715 127.021 224.525 126.779 224.389C126.543 224.247 126.16 224.122 125.631 224.013C123.872 223.644 122.992 222.896 122.992 221.771C122.992 221.114 123.264 220.567 123.806 220.13C124.353 219.688 125.066 219.467 125.945 219.467C126.884 219.467 127.634 219.688 128.195 220.13C128.76 220.572 129.042 221.146 129.042 221.853H127.067C127.067 221.57 126.975 221.338 126.793 221.155C126.611 220.968 126.326 220.875 125.939 220.875C125.606 220.875 125.348 220.95 125.166 221.101C124.984 221.251 124.893 221.442 124.893 221.675C124.893 221.894 124.995 222.071 125.2 222.208C125.41 222.34 125.761 222.456 126.253 222.557C126.745 222.652 127.16 222.762 127.497 222.885C128.541 223.268 129.063 223.931 129.063 224.874C129.063 225.549 128.773 226.095 128.195 226.515C127.616 226.929 126.868 227.137 125.952 227.137C125.333 227.137 124.781 227.027 124.298 226.809C123.82 226.585 123.444 226.282 123.17 225.899C122.897 225.512 122.76 225.095 122.76 224.648H124.633C124.651 224.999 124.781 225.268 125.023 225.455C125.264 225.642 125.588 225.735 125.993 225.735C126.372 225.735 126.656 225.665 126.848 225.523C127.044 225.378 127.142 225.188 127.142 224.956ZM133.11 224.587L134.484 219.604H136.548L134.053 227H132.166L129.671 219.604H131.736L133.11 224.587ZM140.404 225.544C140.768 225.544 141.064 225.444 141.292 225.243C141.52 225.043 141.639 224.776 141.648 224.443H143.5C143.496 224.945 143.359 225.405 143.09 225.824C142.821 226.239 142.452 226.562 141.983 226.795C141.518 227.023 141.003 227.137 140.438 227.137C139.38 227.137 138.546 226.802 137.936 226.132C137.325 225.457 137.02 224.528 137.02 223.343V223.213C137.02 222.074 137.323 221.164 137.929 220.485C138.535 219.806 139.367 219.467 140.424 219.467C141.349 219.467 142.09 219.731 142.646 220.26C143.206 220.784 143.491 221.483 143.5 222.358H141.648C141.639 221.976 141.52 221.666 141.292 221.429C141.064 221.187 140.764 221.066 140.39 221.066C139.93 221.066 139.581 221.235 139.344 221.572C139.112 221.905 138.995 222.447 138.995 223.199V223.404C138.995 224.165 139.112 224.712 139.344 225.045C139.576 225.378 139.93 225.544 140.404 225.544ZM150.377 224.949H146.781L146.098 227H143.917L147.622 217.047H149.523L153.248 227H151.068L150.377 224.949ZM147.335 223.288H149.823L148.572 219.562L147.335 223.288Z" fill="black"/>
<path d="M91.534 125.493V129H89.4833V119.047H93.3661C94.1135 119.047 94.7697 119.184 95.3348 119.457C95.9045 119.73 96.342 120.12 96.6473 120.626C96.9527 121.127 97.1053 121.699 97.1053 122.342C97.1053 123.317 96.7704 124.087 96.1005 124.652C95.4351 125.213 94.5122 125.493 93.3319 125.493H91.534ZM91.534 123.832H93.3661C93.9084 123.832 94.3208 123.704 94.6034 123.449C94.8905 123.194 95.034 122.829 95.034 122.355C95.034 121.868 94.8905 121.474 94.6034 121.173C94.3163 120.872 93.9198 120.717 93.4139 120.708H91.534V123.832ZM97.9872 125.233C97.9872 124.5 98.1284 123.846 98.411 123.271C98.6936 122.697 99.0992 122.253 99.6278 121.938C100.161 121.624 100.779 121.467 101.48 121.467C102.478 121.467 103.292 121.772 103.921 122.383C104.554 122.993 104.907 123.823 104.98 124.871L104.994 125.377C104.994 126.512 104.677 127.423 104.044 128.111C103.41 128.795 102.56 129.137 101.494 129.137C100.428 129.137 99.5754 128.795 98.9374 128.111C98.3039 127.428 97.9872 126.498 97.9872 125.322V125.233ZM99.9628 125.377C99.9628 126.079 100.095 126.617 100.359 126.99C100.624 127.359 101.002 127.544 101.494 127.544C101.973 127.544 102.346 127.362 102.615 126.997C102.884 126.628 103.018 126.04 103.018 125.233C103.018 124.545 102.884 124.012 102.615 123.634C102.346 123.256 101.968 123.066 101.48 123.066C100.997 123.066 100.624 123.256 100.359 123.634C100.095 124.007 99.9628 124.589 99.9628 125.377ZM105.903 125.247C105.903 124.094 106.161 123.176 106.676 122.492C107.195 121.809 107.904 121.467 108.802 121.467C109.522 121.467 110.116 121.736 110.586 122.273V118.5H112.568V129H110.784L110.688 128.214C110.196 128.829 109.563 129.137 108.788 129.137C107.918 129.137 107.218 128.795 106.689 128.111C106.165 127.423 105.903 126.468 105.903 125.247ZM107.879 125.391C107.879 126.083 108 126.614 108.241 126.983C108.483 127.353 108.834 127.537 109.294 127.537C109.904 127.537 110.335 127.28 110.586 126.765V123.846C110.34 123.331 109.914 123.073 109.307 123.073C108.355 123.073 107.879 123.846 107.879 125.391Z" fill="black"/>
<path d="M-6 164L78.5791 164.5" stroke="#A0BFF9"/>
<path d="M84.0518 164.5L76.589 168.397V160.603L84.0518 164.5Z" fill="#A0BFF9"/>
<path d="M137 136.842L293.223 4.84181" stroke="#A0BFF9"/>
<path d="M296.035 1.07467L294.178 9.45447L287.971 3.91611L296.035 1.07467Z" fill="#A0BFF9"/>
<path d="M207.945 162L297.5 162" stroke="#A0BFF9"/>
</g>
<defs>
<clipPath id="clip0">
<rect width="297" height="300" fill="white"/>
</clipPath>
</defs>
</svg>
