<svg width="270" height="129" viewBox="0 0 270 129" fill="none" xmlns="http://www.w3.org/2000/svg">
<g clip-path="url(#clip0)">
<rect x="115" y="11" width="121" height="63" rx="8" fill="white"/>
<path d="M162.054 43.6846C161.976 44.7555 161.58 45.5986 160.864 46.2139C160.153 46.8291 159.215 47.1367 158.048 47.1367C156.772 47.1367 155.767 46.7083 155.033 45.8516C154.304 44.9902 153.939 43.8099 153.939 42.3105V41.7021C153.939 40.7451 154.108 39.902 154.445 39.1729C154.783 38.4437 155.263 37.8854 155.888 37.498C156.517 37.1061 157.246 36.9102 158.075 36.9102C159.224 36.9102 160.149 37.2178 160.851 37.833C161.552 38.4482 161.958 39.3118 162.067 40.4238H160.017C159.966 39.7812 159.786 39.3164 159.477 39.0293C159.171 38.7376 158.704 38.5918 158.075 38.5918C157.392 38.5918 156.879 38.8379 156.537 39.3301C156.2 39.8177 156.027 40.5765 156.018 41.6064V42.3584C156.018 43.4339 156.179 44.2201 156.503 44.7168C156.831 45.2135 157.346 45.4619 158.048 45.4619C158.681 45.4619 159.153 45.3184 159.463 45.0312C159.777 44.7396 159.957 44.2907 160.003 43.6846H162.054ZM165.355 47H163.373V39.6035H165.355V47ZM163.257 37.6895C163.257 37.3932 163.355 37.1494 163.551 36.958C163.751 36.7666 164.022 36.6709 164.364 36.6709C164.701 36.6709 164.97 36.7666 165.171 36.958C165.371 37.1494 165.472 37.3932 165.472 37.6895C165.472 37.9902 165.369 38.2363 165.164 38.4277C164.964 38.6191 164.697 38.7148 164.364 38.7148C164.032 38.7148 163.763 38.6191 163.558 38.4277C163.357 38.2363 163.257 37.9902 163.257 37.6895ZM169.354 37.7852V39.6035H170.619V41.0527H169.354V44.7441C169.354 45.0176 169.407 45.2135 169.512 45.332C169.617 45.4505 169.817 45.5098 170.113 45.5098C170.332 45.5098 170.526 45.4938 170.694 45.4619V46.959C170.307 47.0775 169.908 47.1367 169.498 47.1367C168.113 47.1367 167.406 46.4372 167.379 45.0381V41.0527H166.299V39.6035H167.379V37.7852H169.354ZM176.006 47C175.915 46.8223 175.849 46.6012 175.808 46.3369C175.329 46.8701 174.707 47.1367 173.941 47.1367C173.217 47.1367 172.615 46.9271 172.137 46.5078C171.663 46.0885 171.426 45.5599 171.426 44.9219C171.426 44.138 171.715 43.5365 172.294 43.1172C172.877 42.6979 173.718 42.486 174.816 42.4814H175.726V42.0576C175.726 41.7158 175.637 41.4424 175.459 41.2373C175.286 41.0322 175.01 40.9297 174.632 40.9297C174.299 40.9297 174.037 41.0094 173.846 41.1689C173.659 41.3285 173.565 41.5472 173.565 41.8252H171.59C171.59 41.3968 171.722 41.0003 171.986 40.6357C172.251 40.2712 172.624 39.9863 173.107 39.7812C173.59 39.5716 174.133 39.4668 174.734 39.4668C175.646 39.4668 176.368 39.6969 176.901 40.1572C177.439 40.613 177.708 41.2555 177.708 42.085V45.291C177.713 45.9928 177.811 46.5238 178.002 46.8838V47H176.006ZM174.372 45.626C174.664 45.626 174.933 45.5622 175.179 45.4346C175.425 45.3024 175.607 45.127 175.726 44.9082V43.6367H174.987C173.998 43.6367 173.472 43.9785 173.408 44.6621L173.401 44.7783C173.401 45.0244 173.488 45.2272 173.661 45.3867C173.834 45.5462 174.071 45.626 174.372 45.626ZM178.918 43.2471C178.918 42.0941 179.175 41.1758 179.69 40.4922C180.21 39.8086 180.919 39.4668 181.816 39.4668C182.536 39.4668 183.131 39.7357 183.601 40.2734V36.5H185.583V47H183.799L183.703 46.2139C183.211 46.8291 182.577 47.1367 181.803 47.1367C180.932 47.1367 180.233 46.7949 179.704 46.1113C179.18 45.4232 178.918 44.4684 178.918 43.2471ZM180.894 43.3906C180.894 44.0833 181.014 44.6143 181.256 44.9834C181.497 45.3525 181.848 45.5371 182.309 45.5371C182.919 45.5371 183.35 45.2796 183.601 44.7646V41.8457C183.354 41.3307 182.928 41.0732 182.322 41.0732C181.37 41.0732 180.894 41.8457 180.894 43.3906ZM190.519 47.1367C189.434 47.1367 188.55 46.804 187.866 46.1387C187.187 45.4733 186.848 44.5869 186.848 43.4795V43.2881C186.848 42.5452 186.991 41.8822 187.278 41.2988C187.565 40.7109 187.971 40.2598 188.495 39.9453C189.024 39.6263 189.625 39.4668 190.3 39.4668C191.312 39.4668 192.107 39.7858 192.686 40.4238C193.269 41.0618 193.561 41.9665 193.561 43.1377V43.9443H188.851C188.914 44.4274 189.106 44.8148 189.425 45.1064C189.748 45.3981 190.156 45.5439 190.648 45.5439C191.41 45.5439 192.004 45.2682 192.433 44.7168L193.403 45.8037C193.107 46.223 192.706 46.5511 192.2 46.7881C191.694 47.0205 191.134 47.1367 190.519 47.1367ZM190.293 41.0664C189.901 41.0664 189.582 41.1986 189.336 41.4629C189.094 41.7272 188.939 42.1055 188.871 42.5977H191.619V42.4404C191.61 42.0029 191.492 41.6657 191.264 41.4287C191.036 41.1872 190.712 41.0664 190.293 41.0664ZM196.773 47H194.791V36.5H196.773V47Z" fill="black"/>
<path d="M185.486 75.5V123.5" stroke="#A0BFF9"/>
<path d="M184.986 75L101.486 124.5" stroke="#A0BFF9"/>
<path d="M185.486 127L188.517 123.25H182.455L185.486 127Z" fill="#A0BFF9"/>
<path d="M99.0362 126.309L104.415 126.188L100.888 121.257L99.0362 126.309Z" fill="#A0BFF9"/>
<path d="M197.304 101.708H194.255V110H192.204V101.708H189.196V100.047H197.304V101.708ZM200.53 108.353H204.885V110H198.479V100.047H200.53V108.353ZM211.229 107.389C211.229 107.001 211.092 106.705 210.818 106.5C210.545 106.29 210.053 106.072 209.342 105.844C208.631 105.611 208.068 105.383 207.653 105.16C206.523 104.549 205.958 103.727 205.958 102.692C205.958 102.155 206.108 101.676 206.409 101.257C206.715 100.833 207.15 100.503 207.715 100.266C208.285 100.029 208.923 99.9102 209.629 99.9102C210.34 99.9102 210.973 100.04 211.529 100.3C212.085 100.555 212.516 100.917 212.821 101.387C213.131 101.856 213.286 102.389 213.286 102.986H211.235C211.235 102.531 211.092 102.177 210.805 101.927C210.518 101.672 210.114 101.544 209.595 101.544C209.093 101.544 208.704 101.651 208.426 101.865C208.148 102.075 208.009 102.353 208.009 102.699C208.009 103.023 208.171 103.294 208.494 103.513C208.822 103.731 209.303 103.937 209.937 104.128C211.103 104.479 211.953 104.914 212.486 105.434C213.02 105.953 213.286 106.6 213.286 107.375C213.286 108.236 212.96 108.913 212.309 109.405C211.657 109.893 210.78 110.137 209.677 110.137C208.911 110.137 208.214 109.998 207.585 109.72C206.956 109.437 206.475 109.052 206.143 108.564C205.814 108.077 205.65 107.512 205.65 106.869H207.708C207.708 107.967 208.364 108.517 209.677 108.517C210.164 108.517 210.545 108.419 210.818 108.223C211.092 108.022 211.229 107.744 211.229 107.389ZM221.113 108.544C221.478 108.544 221.774 108.444 222.002 108.243C222.23 108.043 222.348 107.776 222.357 107.443H224.21C224.205 107.945 224.069 108.405 223.8 108.824C223.531 109.239 223.162 109.562 222.692 109.795C222.228 110.023 221.713 110.137 221.147 110.137C220.09 110.137 219.256 109.802 218.646 109.132C218.035 108.457 217.729 107.528 217.729 106.343V106.213C217.729 105.074 218.033 104.164 218.639 103.485C219.245 102.806 220.076 102.467 221.134 102.467C222.059 102.467 222.799 102.731 223.355 103.26C223.916 103.784 224.201 104.483 224.21 105.358H222.357C222.348 104.976 222.23 104.666 222.002 104.429C221.774 104.187 221.473 104.066 221.1 104.066C220.639 104.066 220.291 104.235 220.054 104.572C219.821 104.905 219.705 105.447 219.705 106.199V106.404C219.705 107.165 219.821 107.712 220.054 108.045C220.286 108.378 220.639 108.544 221.113 108.544ZM228.742 110.137C227.658 110.137 226.773 109.804 226.09 109.139C225.411 108.473 225.071 107.587 225.071 106.479V106.288C225.071 105.545 225.215 104.882 225.502 104.299C225.789 103.711 226.195 103.26 226.719 102.945C227.247 102.626 227.849 102.467 228.523 102.467C229.535 102.467 230.33 102.786 230.909 103.424C231.493 104.062 231.784 104.966 231.784 106.138V106.944H227.074C227.138 107.427 227.329 107.815 227.648 108.106C227.972 108.398 228.38 108.544 228.872 108.544C229.633 108.544 230.228 108.268 230.656 107.717L231.627 108.804C231.331 109.223 230.93 109.551 230.424 109.788C229.918 110.021 229.357 110.137 228.742 110.137ZM228.517 104.066C228.125 104.066 227.806 104.199 227.56 104.463C227.318 104.727 227.163 105.105 227.095 105.598H229.843V105.44C229.834 105.003 229.715 104.666 229.487 104.429C229.259 104.187 228.936 104.066 228.517 104.066ZM237.068 104.456C236.799 104.42 236.562 104.401 236.357 104.401C235.61 104.401 235.12 104.654 234.888 105.16V110H232.912V102.604H234.778L234.833 103.485C235.229 102.806 235.779 102.467 236.48 102.467C236.699 102.467 236.904 102.496 237.096 102.556L237.068 104.456ZM240.732 100.785V102.604H241.997V104.053H240.732V107.744C240.732 108.018 240.785 108.214 240.89 108.332C240.994 108.451 241.195 108.51 241.491 108.51C241.71 108.51 241.904 108.494 242.072 108.462V109.959C241.685 110.077 241.286 110.137 240.876 110.137C239.491 110.137 238.784 109.437 238.757 108.038V104.053H237.677V102.604H238.757V100.785H240.732ZM247.104 107.956C247.104 107.715 246.983 107.525 246.741 107.389C246.504 107.247 246.121 107.122 245.593 107.013C243.834 106.644 242.954 105.896 242.954 104.771C242.954 104.114 243.225 103.567 243.768 103.13C244.314 102.688 245.028 102.467 245.907 102.467C246.846 102.467 247.596 102.688 248.156 103.13C248.721 103.572 249.004 104.146 249.004 104.853H247.028C247.028 104.57 246.937 104.338 246.755 104.155C246.573 103.968 246.288 103.875 245.9 103.875C245.568 103.875 245.31 103.95 245.128 104.101C244.946 104.251 244.854 104.442 244.854 104.675C244.854 104.894 244.957 105.071 245.162 105.208C245.372 105.34 245.723 105.456 246.215 105.557C246.707 105.652 247.122 105.762 247.459 105.885C248.503 106.268 249.024 106.931 249.024 107.874C249.024 108.549 248.735 109.095 248.156 109.515C247.577 109.929 246.83 110.137 245.914 110.137C245.294 110.137 244.743 110.027 244.26 109.809C243.781 109.585 243.405 109.282 243.132 108.899C242.858 108.512 242.722 108.095 242.722 107.648H244.595C244.613 107.999 244.743 108.268 244.984 108.455C245.226 108.642 245.549 108.735 245.955 108.735C246.333 108.735 246.618 108.665 246.81 108.523C247.006 108.378 247.104 108.188 247.104 107.956ZM254.329 110V104.053H253.229V102.604H254.329V101.975C254.329 101.145 254.566 100.503 255.04 100.047C255.519 99.5866 256.186 99.3564 257.043 99.3564C257.316 99.3564 257.651 99.402 258.048 99.4932L258.027 101.024C257.863 100.983 257.663 100.963 257.426 100.963C256.683 100.963 256.312 101.312 256.312 102.009V102.604H257.781V104.053H256.312V110H254.329ZM258.499 106.233C258.499 105.5 258.64 104.846 258.923 104.271C259.205 103.697 259.611 103.253 260.14 102.938C260.673 102.624 261.29 102.467 261.992 102.467C262.99 102.467 263.804 102.772 264.433 103.383C265.066 103.993 265.419 104.823 265.492 105.871L265.506 106.377C265.506 107.512 265.189 108.423 264.556 109.111C263.922 109.795 263.072 110.137 262.006 110.137C260.939 110.137 260.087 109.795 259.449 109.111C258.816 108.428 258.499 107.498 258.499 106.322V106.233ZM260.475 106.377C260.475 107.079 260.607 107.617 260.871 107.99C261.135 108.359 261.514 108.544 262.006 108.544C262.484 108.544 262.858 108.362 263.127 107.997C263.396 107.628 263.53 107.04 263.53 106.233C263.53 105.545 263.396 105.012 263.127 104.634C262.858 104.256 262.48 104.066 261.992 104.066C261.509 104.066 261.135 104.256 260.871 104.634C260.607 105.007 260.475 105.589 260.475 106.377ZM270.879 104.456C270.61 104.42 270.373 104.401 270.168 104.401C269.421 104.401 268.931 104.654 268.698 105.16V110H266.723V102.604H268.589L268.644 103.485C269.04 102.806 269.589 102.467 270.291 102.467C270.51 102.467 270.715 102.496 270.906 102.556L270.879 104.456ZM214.51 121.687H210.572V124.353H215.193V126H208.521V116.047H215.18V117.708H210.572V120.08H214.51V121.687ZM218.085 118.604L218.146 119.458C218.675 118.797 219.384 118.467 220.272 118.467C221.056 118.467 221.64 118.697 222.022 119.157C222.405 119.618 222.601 120.306 222.61 121.222V126H220.635V121.27C220.635 120.85 220.544 120.547 220.361 120.36C220.179 120.169 219.876 120.073 219.452 120.073C218.896 120.073 218.479 120.31 218.201 120.784V126H216.226V118.604H218.085ZM226.883 123.587L228.257 118.604H230.321L227.826 126H225.939L223.444 118.604H225.509L226.883 123.587ZM230.779 122.233C230.779 121.5 230.921 120.846 231.203 120.271C231.486 119.697 231.891 119.253 232.42 118.938C232.953 118.624 233.571 118.467 234.272 118.467C235.271 118.467 236.084 118.772 236.713 119.383C237.346 119.993 237.7 120.823 237.772 121.871L237.786 122.377C237.786 123.512 237.469 124.423 236.836 125.111C236.202 125.795 235.353 126.137 234.286 126.137C233.22 126.137 232.368 125.795 231.729 125.111C231.096 124.428 230.779 123.498 230.779 122.322V122.233ZM232.755 122.377C232.755 123.079 232.887 123.617 233.151 123.99C233.416 124.359 233.794 124.544 234.286 124.544C234.765 124.544 235.138 124.362 235.407 123.997C235.676 123.628 235.811 123.04 235.811 122.233C235.811 121.545 235.676 121.012 235.407 120.634C235.138 120.256 234.76 120.066 234.272 120.066C233.789 120.066 233.416 120.256 233.151 120.634C232.887 121.007 232.755 121.589 232.755 122.377ZM241.655 123.204L243.022 118.604H245.142L242.168 127.148L242.004 127.538C241.562 128.504 240.833 128.987 239.816 128.987C239.529 128.987 239.238 128.944 238.941 128.857V127.36L239.242 127.367C239.616 127.367 239.894 127.31 240.076 127.196C240.263 127.082 240.409 126.893 240.514 126.629L240.746 126.021L238.155 118.604H240.281L241.655 123.204ZM249.927 123.956C249.927 123.715 249.806 123.525 249.564 123.389C249.327 123.247 248.945 123.122 248.416 123.013C246.657 122.644 245.777 121.896 245.777 120.771C245.777 120.114 246.049 119.567 246.591 119.13C247.138 118.688 247.851 118.467 248.73 118.467C249.669 118.467 250.419 118.688 250.979 119.13C251.545 119.572 251.827 120.146 251.827 120.853H249.852C249.852 120.57 249.76 120.338 249.578 120.155C249.396 119.968 249.111 119.875 248.724 119.875C248.391 119.875 248.133 119.95 247.951 120.101C247.769 120.251 247.678 120.442 247.678 120.675C247.678 120.894 247.78 121.071 247.985 121.208C248.195 121.34 248.546 121.456 249.038 121.557C249.53 121.652 249.945 121.762 250.282 121.885C251.326 122.268 251.848 122.931 251.848 123.874C251.848 124.549 251.558 125.095 250.979 125.515C250.401 125.929 249.653 126.137 248.737 126.137C248.118 126.137 247.566 126.027 247.083 125.809C246.604 125.585 246.229 125.282 245.955 124.899C245.682 124.512 245.545 124.095 245.545 123.648H247.418C247.436 123.999 247.566 124.268 247.808 124.455C248.049 124.642 248.373 124.735 248.778 124.735C249.157 124.735 249.441 124.665 249.633 124.523C249.829 124.378 249.927 124.188 249.927 123.956Z" fill="black"/>
</g>
<defs>
<clipPath id="clip0">
<rect width="270" height="129" fill="white"/>
</clipPath>
</defs>
</svg>
