<svg width="489" height="109" viewBox="0 0 489 109" fill="none" xmlns="http://www.w3.org/2000/svg">
<rect y="21" width="489" height="88" rx="20" fill="#C4C4C4"/>
<rect x="60" width="355" height="21" rx="10.5" fill="#333333"/>
<path d="M190.523 11.6846C190.446 12.7555 190.049 13.5986 189.334 14.2139C188.623 14.8291 187.684 15.1367 186.518 15.1367C185.242 15.1367 184.237 14.7083 183.503 13.8516C182.774 12.9902 182.409 11.8099 182.409 10.3105V9.70215C182.409 8.74512 182.578 7.90202 182.915 7.17285C183.252 6.44368 183.733 5.88542 184.357 5.49805C184.986 5.10612 185.715 4.91016 186.545 4.91016C187.693 4.91016 188.618 5.21777 189.32 5.83301C190.022 6.44824 190.428 7.31185 190.537 8.42383H188.486C188.436 7.78125 188.256 7.31641 187.946 7.0293C187.641 6.73763 187.174 6.5918 186.545 6.5918C185.861 6.5918 185.349 6.83789 185.007 7.33008C184.67 7.81771 184.496 8.5765 184.487 9.60645V10.3584C184.487 11.4339 184.649 12.2201 184.973 12.7168C185.301 13.2135 185.816 13.4619 186.518 13.4619C187.151 13.4619 187.623 13.3184 187.933 13.0312C188.247 12.7396 188.427 12.2907 188.473 11.6846H190.523ZM191.433 11.2334C191.433 10.4997 191.574 9.8457 191.856 9.27148C192.139 8.69727 192.545 8.25293 193.073 7.93848C193.606 7.62402 194.224 7.4668 194.926 7.4668C195.924 7.4668 196.737 7.77214 197.366 8.38281C198 8.99349 198.353 9.82292 198.426 10.8711L198.439 11.377C198.439 12.5117 198.123 13.4232 197.489 14.1113C196.856 14.7949 196.006 15.1367 194.939 15.1367C193.873 15.1367 193.021 14.7949 192.383 14.1113C191.749 13.4277 191.433 12.498 191.433 11.3223V11.2334ZM193.408 11.377C193.408 12.0788 193.54 12.6165 193.805 12.9902C194.069 13.3594 194.447 13.5439 194.939 13.5439C195.418 13.5439 195.792 13.3617 196.061 12.9971C196.329 12.6279 196.464 12.04 196.464 11.2334C196.464 10.5452 196.329 10.012 196.061 9.63379C195.792 9.25553 195.413 9.06641 194.926 9.06641C194.443 9.06641 194.069 9.25553 193.805 9.63379C193.54 10.0075 193.408 10.5885 193.408 11.377ZM201.475 7.60352L201.536 8.45801C202.065 7.7972 202.773 7.4668 203.662 7.4668C204.446 7.4668 205.029 7.69694 205.412 8.15723C205.795 8.61751 205.991 9.30566 206 10.2217V15H204.024V10.2695C204.024 9.85026 203.933 9.5472 203.751 9.36035C203.569 9.16895 203.266 9.07324 202.842 9.07324C202.286 9.07324 201.869 9.31022 201.591 9.78418V15H199.615V7.60352H201.475ZM209.869 5.78516V7.60352H211.134V9.05273H209.869V12.7441C209.869 13.0176 209.922 13.2135 210.026 13.332C210.131 13.4505 210.332 13.5098 210.628 13.5098C210.847 13.5098 211.04 13.4938 211.209 13.4619V14.959C210.822 15.0775 210.423 15.1367 210.013 15.1367C208.627 15.1367 207.921 14.4372 207.894 13.0381V9.05273H206.813V7.60352H207.894V5.78516H209.869ZM216.391 9.45605C216.122 9.4196 215.885 9.40137 215.68 9.40137C214.932 9.40137 214.442 9.6543 214.21 10.1602V15H212.234V7.60352H214.101L214.155 8.48535C214.552 7.80632 215.101 7.4668 215.803 7.4668C216.021 7.4668 216.227 7.49642 216.418 7.55566L216.391 9.45605ZM216.794 11.2334C216.794 10.4997 216.935 9.8457 217.218 9.27148C217.5 8.69727 217.906 8.25293 218.435 7.93848C218.968 7.62402 219.585 7.4668 220.287 7.4668C221.285 7.4668 222.099 7.77214 222.728 8.38281C223.361 8.99349 223.714 9.82292 223.787 10.8711L223.801 11.377C223.801 12.5117 223.484 13.4232 222.851 14.1113C222.217 14.7949 221.367 15.1367 220.301 15.1367C219.234 15.1367 218.382 14.7949 217.744 14.1113C217.111 13.4277 216.794 12.498 216.794 11.3223V11.2334ZM218.77 11.377C218.77 12.0788 218.902 12.6165 219.166 12.9902C219.43 13.3594 219.809 13.5439 220.301 13.5439C220.779 13.5439 221.153 13.3617 221.422 12.9971C221.691 12.6279 221.825 12.04 221.825 11.2334C221.825 10.5452 221.691 10.012 221.422 9.63379C221.153 9.25553 220.775 9.06641 220.287 9.06641C219.804 9.06641 219.43 9.25553 219.166 9.63379C218.902 10.0075 218.77 10.5885 218.77 11.377ZM227.103 15H225.12V4.5H227.103V15ZM234.403 11.4932V15H232.353V5.04688H236.235C236.983 5.04688 237.639 5.18359 238.204 5.45703C238.774 5.73047 239.211 6.12012 239.517 6.62598C239.822 7.12728 239.975 7.69922 239.975 8.3418C239.975 9.31706 239.64 10.0872 238.97 10.6523C238.304 11.2129 237.382 11.4932 236.201 11.4932H234.403ZM234.403 9.83203H236.235C236.778 9.83203 237.19 9.70443 237.473 9.44922C237.76 9.19401 237.903 8.82943 237.903 8.35547C237.903 7.86784 237.76 7.47363 237.473 7.17285C237.186 6.87207 236.789 6.71712 236.283 6.70801H234.403V9.83203ZM243.345 15H241.362V4.5H243.345V15ZM249.265 15C249.174 14.8223 249.107 14.6012 249.066 14.3369C248.588 14.8701 247.966 15.1367 247.2 15.1367C246.476 15.1367 245.874 14.9271 245.396 14.5078C244.922 14.0885 244.685 13.5599 244.685 12.9219C244.685 12.138 244.974 11.5365 245.553 11.1172C246.136 10.6979 246.977 10.486 248.075 10.4814H248.984V10.0576C248.984 9.71582 248.896 9.44238 248.718 9.2373C248.545 9.03223 248.269 8.92969 247.891 8.92969C247.558 8.92969 247.296 9.00944 247.104 9.16895C246.918 9.32845 246.824 9.5472 246.824 9.8252H244.849C244.849 9.39681 244.981 9.00033 245.245 8.63574C245.509 8.27116 245.883 7.98633 246.366 7.78125C246.849 7.57161 247.392 7.4668 247.993 7.4668C248.905 7.4668 249.627 7.69694 250.16 8.15723C250.698 8.61296 250.967 9.25553 250.967 10.085V13.291C250.971 13.9928 251.069 14.5238 251.261 14.8838V15H249.265ZM247.631 13.626C247.923 13.626 248.191 13.5622 248.438 13.4346C248.684 13.3024 248.866 13.127 248.984 12.9082V11.6367H248.246C247.257 11.6367 246.731 11.9785 246.667 12.6621L246.66 12.7783C246.66 13.0244 246.747 13.2272 246.92 13.3867C247.093 13.5462 247.33 13.626 247.631 13.626ZM254.303 7.60352L254.364 8.45801C254.893 7.7972 255.602 7.4668 256.49 7.4668C257.274 7.4668 257.857 7.69694 258.24 8.15723C258.623 8.61751 258.819 9.30566 258.828 10.2217V15H256.853V10.2695C256.853 9.85026 256.761 9.5472 256.579 9.36035C256.397 9.16895 256.094 9.07324 255.67 9.07324C255.114 9.07324 254.697 9.31022 254.419 9.78418V15H252.443V7.60352H254.303ZM263.736 15.1367C262.652 15.1367 261.768 14.804 261.084 14.1387C260.405 13.4733 260.065 12.5869 260.065 11.4795V11.2881C260.065 10.5452 260.209 9.88216 260.496 9.29883C260.783 8.71094 261.189 8.25977 261.713 7.94531C262.242 7.6263 262.843 7.4668 263.518 7.4668C264.529 7.4668 265.325 7.78581 265.903 8.42383C266.487 9.06185 266.778 9.96647 266.778 11.1377V11.9443H262.068C262.132 12.4274 262.324 12.8148 262.643 13.1064C262.966 13.3981 263.374 13.5439 263.866 13.5439C264.627 13.5439 265.222 13.2682 265.65 12.7168L266.621 13.8037C266.325 14.223 265.924 14.5511 265.418 14.7881C264.912 15.0205 264.352 15.1367 263.736 15.1367ZM263.511 9.06641C263.119 9.06641 262.8 9.19857 262.554 9.46289C262.312 9.72721 262.157 10.1055 262.089 10.5977H264.837V10.4404C264.828 10.0029 264.709 9.66569 264.481 9.42871C264.254 9.18717 263.93 9.06641 263.511 9.06641ZM277.142 12.9492H273.546L272.862 15H270.682L274.387 5.04688H276.287L280.013 15H277.832L277.142 12.9492ZM274.1 11.2881H276.588L275.337 7.5625L274.1 11.2881ZM282.993 11.4932V15H280.942V5.04688H284.825C285.573 5.04688 286.229 5.18359 286.794 5.45703C287.364 5.73047 287.801 6.12012 288.106 6.62598C288.412 7.12728 288.564 7.69922 288.564 8.3418C288.564 9.31706 288.229 10.0872 287.56 10.6523C286.894 11.2129 285.971 11.4932 284.791 11.4932H282.993ZM282.993 9.83203H284.825C285.368 9.83203 285.78 9.70443 286.062 9.44922C286.35 9.19401 286.493 8.82943 286.493 8.35547C286.493 7.86784 286.35 7.47363 286.062 7.17285C285.775 6.87207 285.379 6.71712 284.873 6.70801H282.993V9.83203ZM292.16 15H290.109V5.04688H292.16V15Z" fill="white"/>
</svg>
