<svg width="121" height="130" viewBox="0 0 121 130" fill="none" xmlns="http://www.w3.org/2000/svg">
<rect y="13" width="121" height="63" rx="8" fill="white"/>
<path d="M46.2402 39.0469L48.7969 46.2656L51.3398 39.0469H54.0332V49H51.9756V46.2793L52.1807 41.583L49.4941 49H48.0859L45.4062 41.5898L45.6113 46.2793V49H43.5605V39.0469H46.2402ZM57.7793 49H55.7969V41.6035H57.7793V49ZM55.6807 39.6895C55.6807 39.3932 55.7786 39.1494 55.9746 38.958C56.1751 38.7666 56.4463 38.6709 56.7881 38.6709C57.1253 38.6709 57.3942 38.7666 57.5947 38.958C57.7952 39.1494 57.8955 39.3932 57.8955 39.6895C57.8955 39.9902 57.793 40.2363 57.5879 40.4277C57.3874 40.6191 57.1208 40.7148 56.7881 40.7148C56.4554 40.7148 56.1865 40.6191 55.9814 40.4277C55.7809 40.2363 55.6807 39.9902 55.6807 39.6895ZM62.2295 43.8115L63.4736 41.6035H65.5859L63.4805 45.2266L65.6748 49H63.5557L62.2363 46.6758L60.9238 49H58.7979L60.9922 45.2266L58.8936 41.6035H61.0127L62.2295 43.8115ZM69.8037 49.1367C68.7191 49.1367 67.835 48.804 67.1514 48.1387C66.4723 47.4733 66.1328 46.5869 66.1328 45.4795V45.2881C66.1328 44.5452 66.2764 43.8822 66.5635 43.2988C66.8506 42.7109 67.2562 42.2598 67.7803 41.9453C68.3089 41.6263 68.9105 41.4668 69.585 41.4668C70.5967 41.4668 71.3919 41.7858 71.9707 42.4238C72.554 43.0618 72.8457 43.9665 72.8457 45.1377V45.9443H68.1357C68.1995 46.4274 68.391 46.8148 68.71 47.1064C69.0335 47.3981 69.4414 47.5439 69.9336 47.5439C70.6947 47.5439 71.2894 47.2682 71.7178 46.7168L72.6885 47.8037C72.3923 48.223 71.9912 48.5511 71.4854 48.7881C70.9795 49.0205 70.4189 49.1367 69.8037 49.1367ZM69.5781 43.0664C69.1862 43.0664 68.8672 43.1986 68.6211 43.4629C68.3796 43.7272 68.2246 44.1055 68.1562 44.5977H70.9043V44.4404C70.8952 44.0029 70.7767 43.6657 70.5488 43.4287C70.321 43.1872 69.9974 43.0664 69.5781 43.0664ZM78.1299 43.4561C77.861 43.4196 77.624 43.4014 77.4189 43.4014C76.6715 43.4014 76.1816 43.6543 75.9492 44.1602V49H73.9736V41.6035H75.8398L75.8945 42.4854C76.291 41.8063 76.8402 41.4668 77.542 41.4668C77.7607 41.4668 77.9658 41.4964 78.1572 41.5557L78.1299 43.4561Z" fill="black"/>
</svg>
