<svg width="263" height="127" viewBox="0 0 263 127" fill="none" xmlns="http://www.w3.org/2000/svg">
<g clip-path="url(#clip0)">
<rect x="47" y="12" width="121" height="63" rx="8" fill="white"/>
<path d="M95.8789 44.4932V48H93.8281V38.0469H97.7109C98.4583 38.0469 99.1146 38.1836 99.6797 38.457C100.249 38.7305 100.687 39.1201 100.992 39.626C101.298 40.1273 101.45 40.6992 101.45 41.3418C101.45 42.3171 101.115 43.0872 100.445 43.6523C99.7799 44.2129 98.8571 44.4932 97.6768 44.4932H95.8789ZM95.8789 42.832H97.7109C98.2533 42.832 98.6657 42.7044 98.9482 42.4492C99.2354 42.194 99.3789 41.8294 99.3789 41.3555C99.3789 40.8678 99.2354 40.4736 98.9482 40.1729C98.6611 39.8721 98.2646 39.7171 97.7588 39.708H95.8789V42.832ZM104.82 48H102.838V40.6035H104.82V48ZM102.722 38.6895C102.722 38.3932 102.82 38.1494 103.016 37.958C103.216 37.7666 103.487 37.6709 103.829 37.6709C104.166 37.6709 104.435 37.7666 104.636 37.958C104.836 38.1494 104.937 38.3932 104.937 38.6895C104.937 38.9902 104.834 39.2363 104.629 39.4277C104.428 39.6191 104.162 39.7148 103.829 39.7148C103.496 39.7148 103.228 39.6191 103.022 39.4277C102.822 39.2363 102.722 38.9902 102.722 38.6895ZM108.539 48H106.557V37.5H108.539V48ZM109.865 44.2334C109.865 43.4997 110.007 42.8457 110.289 42.2715C110.572 41.6973 110.977 41.2529 111.506 40.9385C112.039 40.624 112.657 40.4668 113.358 40.4668C114.356 40.4668 115.17 40.7721 115.799 41.3828C116.432 41.9935 116.785 42.8229 116.858 43.8711L116.872 44.377C116.872 45.5117 116.555 46.4232 115.922 47.1113C115.288 47.7949 114.438 48.1367 113.372 48.1367C112.306 48.1367 111.453 47.7949 110.815 47.1113C110.182 46.4277 109.865 45.498 109.865 44.3223V44.2334ZM111.841 44.377C111.841 45.0788 111.973 45.6165 112.237 45.9902C112.502 46.3594 112.88 46.5439 113.372 46.5439C113.851 46.5439 114.224 46.3617 114.493 45.9971C114.762 45.6279 114.896 45.04 114.896 44.2334C114.896 43.5452 114.762 43.012 114.493 42.6338C114.224 42.2555 113.846 42.0664 113.358 42.0664C112.875 42.0664 112.502 42.2555 112.237 42.6338C111.973 43.0075 111.841 43.5885 111.841 44.377ZM120.454 38.7852V40.6035H121.719V42.0527H120.454V45.7441C120.454 46.0176 120.507 46.2135 120.611 46.332C120.716 46.4505 120.917 46.5098 121.213 46.5098C121.432 46.5098 121.625 46.4938 121.794 46.4619V47.959C121.407 48.0775 121.008 48.1367 120.598 48.1367C119.212 48.1367 118.506 47.4372 118.479 46.0381V42.0527H117.398V40.6035H118.479V38.7852H120.454Z" fill="black"/>
<path d="M107.5 76.5V124.5" stroke="black" stroke-dasharray="3 3"/>
<path d="M108 76L191.5 125.5" stroke="black" stroke-dasharray="3 3"/>
<path d="M107.5 128L104.469 124.25H110.531L107.5 128Z" fill="black"/>
<path d="M193.95 127.309L188.571 127.188L192.098 122.257L193.95 127.309Z" fill="black"/>
<path d="M26.9238 106.685C26.8464 107.756 26.4499 108.599 25.7344 109.214C25.0234 109.829 24.0846 110.137 22.918 110.137C21.6419 110.137 20.637 109.708 19.9033 108.852C19.1742 107.99 18.8096 106.81 18.8096 105.311V104.702C18.8096 103.745 18.9782 102.902 19.3154 102.173C19.6527 101.444 20.1335 100.885 20.7578 100.498C21.3867 100.106 22.1159 99.9102 22.9453 99.9102C24.0938 99.9102 25.0189 100.218 25.7207 100.833C26.4225 101.448 26.8281 102.312 26.9375 103.424H24.8867C24.8366 102.781 24.6566 102.316 24.3467 102.029C24.0413 101.738 23.5742 101.592 22.9453 101.592C22.2617 101.592 21.749 101.838 21.4072 102.33C21.07 102.818 20.8968 103.576 20.8877 104.606V105.358C20.8877 106.434 21.0495 107.22 21.373 107.717C21.7012 108.214 22.2161 108.462 22.918 108.462C23.5514 108.462 24.0231 108.318 24.333 108.031C24.6475 107.74 24.8275 107.291 24.873 106.685H26.9238ZM27.833 106.233C27.833 105.5 27.9743 104.846 28.2568 104.271C28.5394 103.697 28.945 103.253 29.4736 102.938C30.0068 102.624 30.6243 102.467 31.3262 102.467C32.3242 102.467 33.1377 102.772 33.7666 103.383C34.4001 103.993 34.7533 104.823 34.8262 105.871L34.8398 106.377C34.8398 107.512 34.5231 108.423 33.8896 109.111C33.2562 109.795 32.4062 110.137 31.3398 110.137C30.2734 110.137 29.4212 109.795 28.7832 109.111C28.1497 108.428 27.833 107.498 27.833 106.322V106.233ZM29.8086 106.377C29.8086 107.079 29.9408 107.617 30.2051 107.99C30.4694 108.359 30.8477 108.544 31.3398 108.544C31.8184 108.544 32.1921 108.362 32.4609 107.997C32.7298 107.628 32.8643 107.04 32.8643 106.233C32.8643 105.545 32.7298 105.012 32.4609 104.634C32.1921 104.256 31.8138 104.066 31.3262 104.066C30.8431 104.066 30.4694 104.256 30.2051 104.634C29.9408 105.007 29.8086 105.589 29.8086 106.377ZM37.875 102.604L37.9365 103.458C38.4652 102.797 39.1738 102.467 40.0625 102.467C40.8464 102.467 41.4297 102.697 41.8125 103.157C42.1953 103.618 42.3913 104.306 42.4004 105.222V110H40.4248V105.27C40.4248 104.85 40.3337 104.547 40.1514 104.36C39.9691 104.169 39.666 104.073 39.2422 104.073C38.6862 104.073 38.2692 104.31 37.9912 104.784V110H36.0156V102.604H37.875ZM44.3828 110V104.053H43.2822V102.604H44.3828V102.262C44.3919 101.332 44.6768 100.617 45.2373 100.115C45.8024 99.6094 46.5977 99.3564 47.623 99.3564C48.2383 99.3564 48.9857 99.4909 49.8652 99.7598L49.5781 101.394C49.1315 101.261 48.7852 101.177 48.5391 101.141C48.293 101.1 48.0286 101.079 47.7461 101.079C46.8255 101.079 46.3652 101.487 46.3652 102.303V102.604H47.8213V104.053H46.3652V110H44.3828ZM50.7881 110H48.8057V102.604H50.7881V110ZM52.1348 106.247C52.1348 105.112 52.4036 104.199 52.9414 103.506C53.4837 102.813 54.2129 102.467 55.1289 102.467C55.9401 102.467 56.5713 102.745 57.0225 103.301L57.1045 102.604H58.8955V109.754C58.8955 110.401 58.7474 110.964 58.4512 111.442C58.1595 111.921 57.7471 112.285 57.2139 112.536C56.6807 112.787 56.0563 112.912 55.3408 112.912C54.7985 112.912 54.2699 112.803 53.7549 112.584C53.2399 112.37 52.8503 112.092 52.5859 111.75L53.4609 110.547C53.9531 111.098 54.5501 111.374 55.252 111.374C55.776 111.374 56.1839 111.233 56.4756 110.95C56.7673 110.672 56.9131 110.276 56.9131 109.761V109.364C56.4574 109.879 55.8581 110.137 55.1152 110.137C54.2266 110.137 53.5065 109.79 52.9551 109.098C52.4082 108.4 52.1348 107.478 52.1348 106.329V106.247ZM54.1104 106.391C54.1104 107.061 54.2448 107.587 54.5137 107.97C54.7826 108.348 55.1517 108.537 55.6211 108.537C56.2227 108.537 56.6533 108.312 56.9131 107.86V104.75C56.6488 104.299 56.2227 104.073 55.6348 104.073C55.1608 104.073 54.7871 104.267 54.5137 104.654C54.2448 105.042 54.1104 105.62 54.1104 106.391ZM63.5986 106.247C63.5986 105.094 63.8561 104.176 64.3711 103.492C64.8906 102.809 65.5993 102.467 66.4971 102.467C67.2171 102.467 67.8118 102.736 68.2812 103.273V99.5H70.2637V110H68.4795L68.3838 109.214C67.8916 109.829 67.2581 110.137 66.4834 110.137C65.613 110.137 64.9134 109.795 64.3848 109.111C63.8607 108.423 63.5986 107.468 63.5986 106.247ZM65.5742 106.391C65.5742 107.083 65.695 107.614 65.9365 107.983C66.1781 108.353 66.529 108.537 66.9893 108.537C67.5999 108.537 68.0306 108.28 68.2812 107.765V104.846C68.0352 104.331 67.609 104.073 67.0029 104.073C66.0505 104.073 65.5742 104.846 65.5742 106.391ZM76.0811 110C75.9899 109.822 75.9238 109.601 75.8828 109.337C75.4043 109.87 74.7822 110.137 74.0166 110.137C73.292 110.137 72.6904 109.927 72.2119 109.508C71.738 109.089 71.501 108.56 71.501 107.922C71.501 107.138 71.7904 106.536 72.3691 106.117C72.9525 105.698 73.7933 105.486 74.8916 105.481H75.8008V105.058C75.8008 104.716 75.7119 104.442 75.5342 104.237C75.361 104.032 75.0853 103.93 74.707 103.93C74.3743 103.93 74.1123 104.009 73.9209 104.169C73.734 104.328 73.6406 104.547 73.6406 104.825H71.665C71.665 104.397 71.7972 104 72.0615 103.636C72.3258 103.271 72.6995 102.986 73.1826 102.781C73.6657 102.572 74.208 102.467 74.8096 102.467C75.721 102.467 76.4434 102.697 76.9766 103.157C77.5143 103.613 77.7832 104.256 77.7832 105.085V108.291C77.7878 108.993 77.8857 109.524 78.0771 109.884V110H76.0811ZM74.4473 108.626C74.7389 108.626 75.0078 108.562 75.2539 108.435C75.5 108.302 75.6823 108.127 75.8008 107.908V106.637H75.0625C74.0736 106.637 73.5472 106.979 73.4834 107.662L73.4766 107.778C73.4766 108.024 73.5632 108.227 73.7363 108.387C73.9095 108.546 74.1465 108.626 74.4473 108.626ZM81.666 100.785V102.604H82.9307V104.053H81.666V107.744C81.666 108.018 81.7184 108.214 81.8232 108.332C81.9281 108.451 82.1286 108.51 82.4248 108.51C82.6436 108.51 82.8372 108.494 83.0059 108.462V109.959C82.6185 110.077 82.2197 110.137 81.8096 110.137C80.4242 110.137 79.7178 109.437 79.6904 108.038V104.053H78.6104V102.604H79.6904V100.785H81.666ZM88.3174 110C88.2262 109.822 88.1602 109.601 88.1191 109.337C87.6406 109.87 87.0186 110.137 86.2529 110.137C85.5283 110.137 84.9268 109.927 84.4482 109.508C83.9743 109.089 83.7373 108.56 83.7373 107.922C83.7373 107.138 84.0267 106.536 84.6055 106.117C85.1888 105.698 86.0296 105.486 87.1279 105.481H88.0371V105.058C88.0371 104.716 87.9482 104.442 87.7705 104.237C87.5973 104.032 87.3216 103.93 86.9434 103.93C86.6107 103.93 86.3486 104.009 86.1572 104.169C85.9704 104.328 85.877 104.547 85.877 104.825H83.9014C83.9014 104.397 84.0335 104 84.2979 103.636C84.5622 103.271 84.9359 102.986 85.4189 102.781C85.902 102.572 86.4443 102.467 87.0459 102.467C87.9574 102.467 88.6797 102.697 89.2129 103.157C89.7507 103.613 90.0195 104.256 90.0195 105.085V108.291C90.0241 108.993 90.1221 109.524 90.3135 109.884V110H88.3174ZM86.6836 108.626C86.9753 108.626 87.2441 108.562 87.4902 108.435C87.7363 108.302 87.9186 108.127 88.0371 107.908V106.637H87.2988C86.3099 106.637 85.7835 106.979 85.7197 107.662L85.7129 107.778C85.7129 108.024 85.7995 108.227 85.9727 108.387C86.1458 108.546 86.3828 108.626 86.6836 108.626ZM27.293 116.785V118.604H28.5576V120.053H27.293V123.744C27.293 124.018 27.3454 124.214 27.4502 124.332C27.555 124.451 27.7555 124.51 28.0518 124.51C28.2705 124.51 28.4642 124.494 28.6328 124.462V125.959C28.2454 126.077 27.8467 126.137 27.4365 126.137C26.0511 126.137 25.3447 125.437 25.3174 124.038V120.053H24.2373V118.604H25.3174V116.785H27.293ZM29.1455 122.233C29.1455 121.5 29.2868 120.846 29.5693 120.271C29.8519 119.697 30.2575 119.253 30.7861 118.938C31.3193 118.624 31.9368 118.467 32.6387 118.467C33.6367 118.467 34.4502 118.772 35.0791 119.383C35.7126 119.993 36.0658 120.823 36.1387 121.871L36.1523 122.377C36.1523 123.512 35.8356 124.423 35.2021 125.111C34.5687 125.795 33.7188 126.137 32.6523 126.137C31.5859 126.137 30.7337 125.795 30.0957 125.111C29.4622 124.428 29.1455 123.498 29.1455 122.322V122.233ZM31.1211 122.377C31.1211 123.079 31.2533 123.617 31.5176 123.99C31.7819 124.359 32.1602 124.544 32.6523 124.544C33.1309 124.544 33.5046 124.362 33.7734 123.997C34.0423 123.628 34.1768 123.04 34.1768 122.233C34.1768 121.545 34.0423 121.012 33.7734 120.634C33.5046 120.256 33.1263 120.066 32.6387 120.066C32.1556 120.066 31.7819 120.256 31.5176 120.634C31.2533 121.007 31.1211 121.589 31.1211 122.377ZM46.9736 121.687H43.0361V124.353H47.6572V126H40.9854V116.047H47.6436V117.708H43.0361V120.08H46.9736V121.687ZM50.5488 118.604L50.6104 119.458C51.139 118.797 51.8477 118.467 52.7363 118.467C53.5202 118.467 54.1035 118.697 54.4863 119.157C54.8691 119.618 55.0651 120.306 55.0742 121.222V126H53.0986V121.27C53.0986 120.85 53.0075 120.547 52.8252 120.36C52.6429 120.169 52.3398 120.073 51.916 120.073C51.36 120.073 50.943 120.31 50.665 120.784V126H48.6895V118.604H50.5488ZM59.3467 123.587L60.7207 118.604H62.7852L60.29 126H58.4033L55.9082 118.604H57.9727L59.3467 123.587ZM63.2432 122.233C63.2432 121.5 63.3844 120.846 63.667 120.271C63.9495 119.697 64.3551 119.253 64.8838 118.938C65.417 118.624 66.0345 118.467 66.7363 118.467C67.7344 118.467 68.5479 118.772 69.1768 119.383C69.8102 119.993 70.1634 120.823 70.2363 121.871L70.25 122.377C70.25 123.512 69.9333 124.423 69.2998 125.111C68.6663 125.795 67.8164 126.137 66.75 126.137C65.6836 126.137 64.8314 125.795 64.1934 125.111C63.5599 124.428 63.2432 123.498 63.2432 122.322V122.233ZM65.2188 122.377C65.2188 123.079 65.3509 123.617 65.6152 123.99C65.8796 124.359 66.2578 124.544 66.75 124.544C67.2285 124.544 67.6022 124.362 67.8711 123.997C68.14 123.628 68.2744 123.04 68.2744 122.233C68.2744 121.545 68.14 121.012 67.8711 120.634C67.6022 120.256 67.224 120.066 66.7363 120.066C66.2533 120.066 65.8796 120.256 65.6152 120.634C65.3509 121.007 65.2188 121.589 65.2188 122.377ZM74.1191 123.204L75.4863 118.604H77.6055L74.6318 127.148L74.4678 127.538C74.0257 128.504 73.2965 128.987 72.2803 128.987C71.9932 128.987 71.7015 128.944 71.4053 128.857V127.36L71.7061 127.367C72.0798 127.367 72.3577 127.31 72.54 127.196C72.7269 127.082 72.8727 126.893 72.9775 126.629L73.21 126.021L70.6191 118.604H72.7451L74.1191 123.204ZM82.3906 123.956C82.3906 123.715 82.2699 123.525 82.0283 123.389C81.7913 123.247 81.4085 123.122 80.8799 123.013C79.1208 122.644 78.2412 121.896 78.2412 120.771C78.2412 120.114 78.5124 119.567 79.0547 119.13C79.6016 118.688 80.3148 118.467 81.1943 118.467C82.1331 118.467 82.8828 118.688 83.4434 119.13C84.0085 119.572 84.291 120.146 84.291 120.853H82.3154C82.3154 120.57 82.2243 120.338 82.042 120.155C81.8597 119.968 81.5749 119.875 81.1875 119.875C80.8548 119.875 80.5973 119.95 80.415 120.101C80.2327 120.251 80.1416 120.442 80.1416 120.675C80.1416 120.894 80.2441 121.071 80.4492 121.208C80.6589 121.34 81.0098 121.456 81.502 121.557C81.9941 121.652 82.4089 121.762 82.7461 121.885C83.7897 122.268 84.3115 122.931 84.3115 123.874C84.3115 124.549 84.0221 125.095 83.4434 125.515C82.8646 125.929 82.1172 126.137 81.2012 126.137C80.5814 126.137 80.0299 126.027 79.5469 125.809C79.0684 125.585 78.6924 125.282 78.4189 124.899C78.1455 124.512 78.0088 124.095 78.0088 123.648H79.8818C79.9001 123.999 80.0299 124.268 80.2715 124.455C80.513 124.642 80.8366 124.735 81.2422 124.735C81.6204 124.735 81.9053 124.665 82.0967 124.523C82.2926 124.378 82.3906 124.188 82.3906 123.956Z" fill="black"/>
</g>
<defs>
<clipPath id="clip0">
<rect width="263" height="127" fill="white"/>
</clipPath>
</defs>
</svg>
