<svg width="245" height="300" viewBox="0 0 245 300" fill="none" xmlns="http://www.w3.org/2000/svg">
<g clip-path="url(#clip0)">
<rect x="79.6387" y="90.1205" width="154.361" height="180.221" rx="17" fill="#C4C4C4"/>
<rect x="97.8361" y="100.523" width="124.849" height="152.485" rx="13.5" fill="white" stroke="black"/>
<rect x="89.4706" y="108.935" width="125.849" height="153.485" rx="14" fill="white"/>
<rect x="93.9034" y="104.484" width="124.849" height="152.485" rx="13.5" fill="white" stroke="black"/>
<rect x="89.9706" y="109.435" width="124.849" height="152.485" rx="13.5" fill="white" stroke="black"/>
<path d="M130.156 291.692C130.156 291.304 130.019 291.008 129.746 290.803C129.472 290.593 128.98 290.375 128.269 290.147C127.558 289.914 126.995 289.686 126.581 289.463C125.45 288.852 124.885 288.03 124.885 286.995C124.885 286.458 125.036 285.979 125.337 285.56C125.642 285.136 126.077 284.806 126.642 284.569C127.212 284.332 127.85 284.213 128.556 284.213C129.267 284.213 129.901 284.343 130.457 284.603C131.013 284.858 131.443 285.22 131.749 285.69C132.059 286.159 132.214 286.692 132.214 287.289H130.163C130.163 286.834 130.019 286.48 129.732 286.23C129.445 285.974 129.042 285.847 128.522 285.847C128.021 285.847 127.631 285.954 127.353 286.168C127.075 286.378 126.936 286.656 126.936 287.002C126.936 287.326 127.098 287.597 127.422 287.816C127.75 288.034 128.23 288.239 128.864 288.431C130.031 288.782 130.88 289.217 131.414 289.737C131.947 290.256 132.214 290.903 132.214 291.678C132.214 292.539 131.888 293.216 131.236 293.708C130.584 294.196 129.707 294.44 128.604 294.44C127.839 294.44 127.141 294.301 126.512 294.023C125.883 293.74 125.403 293.355 125.07 292.867C124.742 292.38 124.578 291.815 124.578 291.172H126.635C126.635 292.27 127.292 292.82 128.604 292.82C129.092 292.82 129.472 292.722 129.746 292.526C130.019 292.325 130.156 292.047 130.156 291.692ZM136.882 294.44C135.798 294.44 134.914 294.107 134.23 293.442C133.551 292.776 133.212 291.89 133.212 290.782V290.591C133.212 289.848 133.355 289.185 133.642 288.602C133.929 288.014 134.335 287.563 134.859 287.248C135.388 286.929 135.989 286.77 136.664 286.77C137.675 286.77 138.471 287.089 139.049 287.727C139.633 288.365 139.924 289.269 139.924 290.441V291.247H135.214C135.278 291.73 135.47 292.118 135.789 292.409C136.112 292.701 136.52 292.847 137.012 292.847C137.773 292.847 138.368 292.571 138.797 292.02L139.767 293.107C139.471 293.526 139.07 293.854 138.564 294.091C138.058 294.323 137.498 294.44 136.882 294.44ZM136.657 288.369C136.265 288.369 135.946 288.501 135.7 288.766C135.458 289.03 135.303 289.408 135.235 289.901H137.983V289.743C137.974 289.306 137.855 288.969 137.628 288.732C137.4 288.49 137.076 288.369 136.657 288.369ZM145.209 288.759C144.94 288.723 144.703 288.704 144.498 288.704C143.75 288.704 143.26 288.957 143.028 289.463V294.303H141.052V286.906H142.919L142.973 287.788C143.37 287.109 143.919 286.77 144.621 286.77C144.839 286.77 145.045 286.799 145.236 286.859L145.209 288.759ZM149.057 291.89L150.431 286.906H152.496L150.001 294.303H148.114L145.619 286.906H147.683L149.057 291.89ZM155.456 294.303H153.473V286.906H155.456V294.303ZM153.357 284.992C153.357 284.696 153.455 284.452 153.651 284.261C153.852 284.07 154.123 283.974 154.464 283.974C154.802 283.974 155.071 284.07 155.271 284.261C155.472 284.452 155.572 284.696 155.572 284.992C155.572 285.293 155.469 285.539 155.264 285.731C155.064 285.922 154.797 286.018 154.464 286.018C154.132 286.018 153.863 285.922 153.658 285.731C153.457 285.539 153.357 285.293 153.357 284.992ZM160.166 292.847C160.53 292.847 160.826 292.747 161.054 292.546C161.282 292.346 161.401 292.079 161.41 291.746H163.262C163.258 292.248 163.121 292.708 162.852 293.127C162.583 293.542 162.214 293.865 161.745 294.098C161.28 294.326 160.765 294.44 160.2 294.44C159.143 294.44 158.309 294.105 157.698 293.435C157.087 292.76 156.782 291.831 156.782 290.646V290.516C156.782 289.376 157.085 288.467 157.691 287.788C158.297 287.109 159.129 286.77 160.186 286.77C161.111 286.77 161.852 287.034 162.408 287.563C162.968 288.087 163.253 288.786 163.262 289.661H161.41C161.401 289.279 161.282 288.969 161.054 288.732C160.826 288.49 160.526 288.369 160.152 288.369C159.692 288.369 159.343 288.538 159.106 288.875C158.874 289.208 158.757 289.75 158.757 290.502V290.707C158.757 291.468 158.874 292.015 159.106 292.348C159.339 292.681 159.692 292.847 160.166 292.847ZM167.795 294.44C166.71 294.44 165.826 294.107 165.142 293.442C164.463 292.776 164.124 291.89 164.124 290.782V290.591C164.124 289.848 164.267 289.185 164.554 288.602C164.841 288.014 165.247 287.563 165.771 287.248C166.3 286.929 166.901 286.77 167.576 286.77C168.588 286.77 169.383 287.089 169.962 287.727C170.545 288.365 170.837 289.269 170.837 290.441V291.247H166.127C166.19 291.73 166.382 292.118 166.701 292.409C167.024 292.701 167.432 292.847 167.924 292.847C168.686 292.847 169.28 292.571 169.709 292.02L170.679 293.107C170.383 293.526 169.982 293.854 169.476 294.091C168.97 294.323 168.41 294.44 167.795 294.44ZM167.569 288.369C167.177 288.369 166.858 288.501 166.612 288.766C166.37 289.03 166.215 289.408 166.147 289.901H168.895V289.743C168.886 289.306 168.768 288.969 168.54 288.732C168.312 288.49 167.988 288.369 167.569 288.369ZM175.581 294.303V284.35H179.067C180.275 284.35 181.191 284.582 181.815 285.047C182.439 285.507 182.752 286.184 182.752 287.077C182.752 287.565 182.626 287.996 182.376 288.369C182.125 288.738 181.776 289.01 181.33 289.183C181.84 289.31 182.241 289.568 182.533 289.955C182.829 290.343 182.977 290.817 182.977 291.377C182.977 292.334 182.672 293.059 182.061 293.551C181.45 294.043 180.58 294.294 179.45 294.303H175.581ZM177.631 289.969V292.655H179.388C179.871 292.655 180.247 292.542 180.516 292.314C180.79 292.081 180.926 291.762 180.926 291.357C180.926 290.445 180.455 289.983 179.511 289.969H177.631ZM177.631 288.52H179.149C180.184 288.501 180.701 288.089 180.701 287.282C180.701 286.831 180.569 286.508 180.304 286.312C180.045 286.111 179.632 286.011 179.067 286.011H177.631V288.52Z" fill="black"/>
<rect x="98.3193" y="141.612" width="105.202" height="38.6189" fill="#A0BFF9"/>
<path d="M139.032 161.299H135.095V163.965H139.716V165.612H133.044V155.659H139.702V157.32H135.095V159.692H139.032V161.299ZM142.608 158.216L142.669 159.07C143.198 158.41 143.907 158.079 144.795 158.079C145.579 158.079 146.162 158.309 146.545 158.77C146.928 159.23 147.124 159.918 147.133 160.834V165.612H145.157V160.882C145.157 160.463 145.066 160.16 144.884 159.973C144.702 159.781 144.399 159.686 143.975 159.686C143.419 159.686 143.002 159.923 142.724 160.397V165.612H140.748V158.216H142.608ZM151.406 163.199L152.78 158.216H154.844L152.349 165.612H150.462L147.967 158.216H150.032L151.406 163.199ZM155.302 161.846C155.302 161.112 155.443 160.458 155.726 159.884C156.008 159.31 156.414 158.865 156.943 158.551C157.476 158.236 158.093 158.079 158.795 158.079C159.793 158.079 160.607 158.385 161.236 158.995C161.869 159.606 162.222 160.435 162.295 161.483L162.309 161.989C162.309 163.124 161.992 164.036 161.359 164.724C160.725 165.407 159.875 165.749 158.809 165.749C157.742 165.749 156.89 165.407 156.252 164.724C155.619 164.04 155.302 163.11 155.302 161.935V161.846ZM157.278 161.989C157.278 162.691 157.41 163.229 157.674 163.603C157.938 163.972 158.317 164.156 158.809 164.156C159.287 164.156 159.661 163.974 159.93 163.609C160.199 163.24 160.333 162.652 160.333 161.846C160.333 161.158 160.199 160.624 159.93 160.246C159.661 159.868 159.283 159.679 158.795 159.679C158.312 159.679 157.938 159.868 157.674 160.246C157.41 160.62 157.278 161.201 157.278 161.989ZM166.178 162.816L167.545 158.216H169.664L166.691 166.761L166.527 167.15C166.085 168.117 165.355 168.6 164.339 168.6C164.052 168.6 163.76 168.556 163.464 168.47V166.973L163.765 166.98C164.139 166.98 164.417 166.923 164.599 166.809C164.786 166.695 164.932 166.506 165.036 166.241L165.269 165.633L162.678 158.216H164.804L166.178 162.816Z" fill="black"/>
<rect x="98.3193" y="194.094" width="105.202" height="54.4625" fill="#A6E48C"/>
<path d="M141.26 224.06C141.26 223.819 141.139 223.63 140.898 223.493C140.661 223.352 140.278 223.226 139.749 223.117C137.99 222.748 137.111 222 137.111 220.875C137.111 220.218 137.382 219.672 137.924 219.234C138.471 218.792 139.184 218.571 140.064 218.571C141.003 218.571 141.752 218.792 142.313 219.234C142.878 219.676 143.161 220.25 143.161 220.957H141.185C141.185 220.674 141.094 220.442 140.912 220.26C140.729 220.073 140.444 219.979 140.057 219.979C139.724 219.979 139.467 220.054 139.285 220.205C139.102 220.355 139.011 220.547 139.011 220.779C139.011 220.998 139.114 221.176 139.319 221.312C139.528 221.444 139.879 221.561 140.371 221.661C140.864 221.757 141.278 221.866 141.616 221.989C142.659 222.372 143.181 223.035 143.181 223.978C143.181 224.653 142.892 225.2 142.313 225.619C141.734 226.034 140.987 226.241 140.071 226.241C139.451 226.241 138.899 226.132 138.416 225.913C137.938 225.69 137.562 225.386 137.288 225.004C137.015 224.616 136.878 224.199 136.878 223.753H138.751C138.77 224.104 138.899 224.372 139.141 224.559C139.383 224.746 139.706 224.84 140.112 224.84C140.49 224.84 140.775 224.769 140.966 224.628C141.162 224.482 141.26 224.293 141.26 224.06ZM147.228 223.691L148.602 218.708H150.666L148.171 226.104H146.285L143.789 218.708H145.854L147.228 223.691ZM154.522 224.648C154.886 224.648 155.183 224.548 155.411 224.347C155.638 224.147 155.757 223.88 155.766 223.548H157.619C157.614 224.049 157.477 224.509 157.208 224.928C156.94 225.343 156.57 225.667 156.101 225.899C155.636 226.127 155.121 226.241 154.556 226.241C153.499 226.241 152.665 225.906 152.054 225.236C151.443 224.562 151.138 223.632 151.138 222.447V222.317C151.138 221.178 151.441 220.269 152.047 219.59C152.653 218.911 153.485 218.571 154.542 218.571C155.468 218.571 156.208 218.835 156.764 219.364C157.325 219.888 157.609 220.588 157.619 221.463H155.766C155.757 221.08 155.638 220.77 155.411 220.533C155.183 220.291 154.882 220.171 154.508 220.171C154.048 220.171 153.699 220.339 153.462 220.676C153.23 221.009 153.114 221.551 153.114 222.303V222.509C153.114 223.27 153.23 223.816 153.462 224.149C153.695 224.482 154.048 224.648 154.522 224.648ZM164.496 224.053H160.9L160.216 226.104H158.036L161.741 216.151H163.641L167.367 226.104H165.186L164.496 224.053ZM161.454 222.392H163.942L162.691 218.667L161.454 222.392Z" fill="black"/>
<path d="M106.092 125.399V128.906H104.041V118.952H107.924C108.671 118.952 109.327 119.089 109.892 119.363C110.462 119.636 110.9 120.026 111.205 120.532C111.51 121.033 111.663 121.605 111.663 122.247C111.663 123.223 111.328 123.993 110.658 124.558C109.993 125.118 109.07 125.399 107.889 125.399H106.092ZM106.092 123.738H107.924C108.466 123.738 108.878 123.61 109.161 123.355C109.448 123.1 109.592 122.735 109.592 122.261C109.592 121.773 109.448 121.379 109.161 121.078C108.874 120.778 108.477 120.623 107.971 120.614H106.092V123.738ZM112.545 125.139C112.545 124.405 112.686 123.751 112.969 123.177C113.251 122.603 113.657 122.158 114.185 121.844C114.719 121.53 115.336 121.372 116.038 121.372C117.036 121.372 117.849 121.678 118.478 122.288C119.112 122.899 119.465 123.728 119.538 124.777L119.552 125.282C119.552 126.417 119.235 127.329 118.601 128.017C117.968 128.7 117.118 129.042 116.052 129.042C114.985 129.042 114.133 128.7 113.495 128.017C112.861 127.333 112.545 126.404 112.545 125.228V125.139ZM114.52 125.282C114.52 125.984 114.652 126.522 114.917 126.896C115.181 127.265 115.559 127.449 116.052 127.449C116.53 127.449 116.904 127.267 117.173 126.903C117.442 126.533 117.576 125.946 117.576 125.139C117.576 124.451 117.442 123.918 117.173 123.539C116.904 123.161 116.526 122.972 116.038 122.972C115.555 122.972 115.181 123.161 114.917 123.539C114.652 123.913 114.52 124.494 114.52 125.282ZM120.461 125.153C120.461 124 120.718 123.081 121.233 122.398C121.753 121.714 122.461 121.372 123.359 121.372C124.079 121.372 124.674 121.641 125.143 122.179V118.406H127.126V128.906H125.342L125.246 128.119C124.754 128.735 124.12 129.042 123.346 129.042C122.475 129.042 121.776 128.7 121.247 128.017C120.723 127.329 120.461 126.374 120.461 125.153ZM122.436 125.296C122.436 125.989 122.557 126.52 122.799 126.889C123.04 127.258 123.391 127.443 123.851 127.443C124.462 127.443 124.893 127.185 125.143 126.67V123.751C124.897 123.236 124.471 122.979 123.865 122.979C122.913 122.979 122.436 123.751 122.436 125.296Z" fill="black"/>
<path d="M-4 162L93 162" stroke="#A0BFF9"/>
<path d="M99.3025 161.893L91.3883 165.752V158.033L99.3025 161.893Z" fill="#A0BFF9"/>
<path d="M154.361 138.642L4 5" stroke="#A0BFF9"/>
<path d="M0.980642 0.589412L1.53406 9.07051L8.42874 4.58551L0.980642 0.589412Z" fill="#A0BFF9"/>
</g>
<defs>
<clipPath id="clip0">
<rect width="245" height="300" fill="white"/>
</clipPath>
</defs>
</svg>
