<svg width="552" height="57" viewBox="0 0 552 57" fill="none" xmlns="http://www.w3.org/2000/svg">
<rect x="192.829" y="3" width="74.19" height="47.136" rx="7" fill="#A0BFF9"/>
<path d="M211.161 12.7168L211.205 13.3076C211.579 12.8486 212.085 12.6191 212.723 12.6191C213.404 12.6191 213.871 12.8877 214.125 13.4248C214.496 12.8877 215.025 12.6191 215.712 12.6191C216.285 12.6191 216.711 12.7868 216.991 13.1221C217.271 13.4541 217.411 13.9554 217.411 14.626V18H215.995V14.6309C215.995 14.3314 215.936 14.1133 215.819 13.9766C215.702 13.8366 215.495 13.7666 215.199 13.7666C214.776 13.7666 214.483 13.9684 214.32 14.3721L214.325 18H212.914V14.6357C212.914 14.3298 212.854 14.1084 212.733 13.9717C212.613 13.835 212.408 13.7666 212.118 13.7666C211.717 13.7666 211.428 13.9326 211.249 14.2646V18H209.838V12.7168H211.161ZM221.664 17.4629C221.315 17.8861 220.834 18.0977 220.218 18.0977C219.652 18.0977 219.219 17.9349 218.92 17.6094C218.623 17.2839 218.472 16.807 218.466 16.1787V12.7168H219.877V16.1299C219.877 16.68 220.127 16.9551 220.629 16.9551C221.107 16.9551 221.436 16.7891 221.615 16.457V12.7168H223.031V18H221.703L221.664 17.4629ZM225.785 11.418V12.7168H226.688V13.752H225.785V16.3887C225.785 16.584 225.822 16.724 225.897 16.8086C225.972 16.8932 226.115 16.9355 226.327 16.9355C226.483 16.9355 226.621 16.9242 226.742 16.9014V17.9707C226.465 18.0553 226.18 18.0977 225.887 18.0977C224.898 18.0977 224.393 17.598 224.374 16.5986V13.752H223.602V12.7168H224.374V11.418H225.785ZM230.536 18C230.471 17.873 230.424 17.7152 230.394 17.5264C230.052 17.9072 229.608 18.0977 229.061 18.0977C228.544 18.0977 228.114 17.9479 227.772 17.6484C227.434 17.349 227.264 16.9714 227.264 16.5156C227.264 15.9557 227.471 15.526 227.884 15.2266C228.301 14.9271 228.902 14.7757 229.686 14.7725H230.336V14.4697C230.336 14.2256 230.272 14.0303 230.145 13.8838C230.022 13.7373 229.825 13.6641 229.554 13.6641C229.317 13.6641 229.13 13.721 228.993 13.835C228.859 13.9489 228.793 14.1051 228.793 14.3037H227.382C227.382 13.9977 227.476 13.7145 227.665 13.4541C227.854 13.1937 228.12 12.9902 228.466 12.8438C228.811 12.694 229.198 12.6191 229.628 12.6191C230.279 12.6191 230.795 12.7835 231.175 13.1123C231.56 13.4378 231.752 13.8968 231.752 14.4893V16.7793C231.755 17.2806 231.825 17.6598 231.962 17.917V18H230.536ZM229.369 17.0186C229.577 17.0186 229.769 16.973 229.945 16.8818C230.121 16.7874 230.251 16.6621 230.336 16.5059V15.5977H229.808C229.102 15.5977 228.726 15.8418 228.68 16.3301L228.675 16.4131C228.675 16.5889 228.737 16.7337 228.861 16.8477C228.985 16.9616 229.154 17.0186 229.369 17.0186ZM234.525 11.418V12.7168H235.428V13.752H234.525V16.3887C234.525 16.584 234.563 16.724 234.637 16.8086C234.712 16.8932 234.855 16.9355 235.067 16.9355C235.223 16.9355 235.362 16.9242 235.482 16.9014V17.9707C235.205 18.0553 234.921 18.0977 234.628 18.0977C233.638 18.0977 233.133 17.598 233.114 16.5986V13.752H232.342V12.7168H233.114V11.418H234.525ZM237.704 18H236.288V12.7168H237.704V18ZM236.205 11.3496C236.205 11.138 236.275 10.9639 236.415 10.8271C236.558 10.6904 236.752 10.6221 236.996 10.6221C237.237 10.6221 237.429 10.6904 237.572 10.8271C237.715 10.9639 237.787 11.138 237.787 11.3496C237.787 11.5645 237.714 11.7402 237.567 11.877C237.424 12.0137 237.233 12.082 236.996 12.082C236.758 12.082 236.566 12.0137 236.42 11.877C236.276 11.7402 236.205 11.5645 236.205 11.3496ZM240.17 12.7168L240.214 13.3271C240.591 12.8551 241.097 12.6191 241.732 12.6191C242.292 12.6191 242.709 12.7835 242.982 13.1123C243.256 13.4411 243.396 13.9326 243.402 14.5869V18H241.991V14.6211C241.991 14.3216 241.926 14.1051 241.796 13.9717C241.665 13.835 241.449 13.7666 241.146 13.7666C240.749 13.7666 240.451 13.9359 240.253 14.2744V18H238.841V12.7168H240.17ZM244.271 15.3193C244.271 14.5088 244.463 13.8561 244.847 13.3613C245.235 12.8665 245.756 12.6191 246.41 12.6191C246.989 12.6191 247.44 12.8177 247.762 13.2148L247.821 12.7168H249.1V17.8242C249.1 18.2865 248.994 18.6885 248.783 19.0303C248.575 19.3721 248.28 19.6325 247.899 19.8115C247.518 19.9906 247.072 20.0801 246.561 20.0801C246.174 20.0801 245.796 20.002 245.428 19.8457C245.061 19.6927 244.782 19.4941 244.593 19.25L245.218 18.3906C245.57 18.7845 245.996 18.9814 246.498 18.9814C246.872 18.9814 247.163 18.8805 247.372 18.6787C247.58 18.4801 247.684 18.1969 247.684 17.8291V17.5459C247.359 17.9137 246.931 18.0977 246.4 18.0977C245.765 18.0977 245.251 17.8503 244.857 17.3555C244.466 16.8574 244.271 16.1982 244.271 15.3779V15.3193ZM245.682 15.4219C245.682 15.9004 245.778 16.2764 245.97 16.5498C246.162 16.82 246.426 16.9551 246.761 16.9551C247.191 16.9551 247.499 16.7939 247.684 16.4717V14.25C247.495 13.9277 247.191 13.7666 246.771 13.7666C246.433 13.7666 246.166 13.9049 245.97 14.1816C245.778 14.4583 245.682 14.8717 245.682 15.4219ZM209.813 30C209.748 29.873 209.701 29.7152 209.672 29.5264C209.33 29.9072 208.885 30.0977 208.339 30.0977C207.821 30.0977 207.391 29.9479 207.05 29.6484C206.711 29.349 206.542 28.9714 206.542 28.5156C206.542 27.9557 206.748 27.526 207.162 27.2266C207.578 26.9271 208.179 26.7757 208.964 26.7725H209.613V26.4697C209.613 26.2256 209.55 26.0303 209.423 25.8838C209.299 25.7373 209.102 25.6641 208.832 25.6641C208.594 25.6641 208.407 25.721 208.27 25.835C208.137 25.9489 208.07 26.1051 208.07 26.3037H206.659C206.659 25.9977 206.753 25.7145 206.942 25.4541C207.131 25.1937 207.398 24.9902 207.743 24.8438C208.088 24.694 208.475 24.6191 208.905 24.6191C209.556 24.6191 210.072 24.7835 210.453 25.1123C210.837 25.4378 211.029 25.8968 211.029 26.4893V28.7793C211.032 29.2806 211.102 29.6598 211.239 29.917V30H209.813ZM208.646 29.0186C208.855 29.0186 209.047 28.973 209.222 28.8818C209.398 28.7874 209.528 28.6621 209.613 28.5059V27.5977H209.086C208.379 27.5977 208.003 27.8418 207.958 28.3301L207.953 28.4131C207.953 28.5889 208.015 28.7337 208.138 28.8477C208.262 28.9616 208.431 29.0186 208.646 29.0186ZM211.893 27.3193C211.893 26.4958 212.077 25.8398 212.445 25.3516C212.816 24.8633 213.322 24.6191 213.964 24.6191C214.478 24.6191 214.903 24.8112 215.238 25.1953V22.5H216.654V30H215.38L215.311 29.4385C214.96 29.8779 214.507 30.0977 213.954 30.0977C213.332 30.0977 212.832 29.8535 212.455 29.3652C212.08 28.8737 211.893 28.1917 211.893 27.3193ZM213.304 27.4219C213.304 27.9167 213.391 28.2959 213.563 28.5596C213.736 28.8232 213.986 28.9551 214.315 28.9551C214.751 28.9551 215.059 28.7712 215.238 28.4033V26.3184C215.062 25.9505 214.758 25.7666 214.325 25.7666C213.645 25.7666 213.304 26.3184 213.304 27.4219ZM219.071 24.7168L219.115 25.3076C219.489 24.8486 219.995 24.6191 220.633 24.6191C221.314 24.6191 221.781 24.8877 222.035 25.4248C222.406 24.8877 222.935 24.6191 223.622 24.6191C224.195 24.6191 224.621 24.7868 224.901 25.1221C225.181 25.4541 225.321 25.9554 225.321 26.626V30H223.905V26.6309C223.905 26.3314 223.846 26.1133 223.729 25.9766C223.612 25.8366 223.405 25.7666 223.109 25.7666C222.686 25.7666 222.393 25.9684 222.23 26.3721L222.235 30H220.824V26.6357C220.824 26.3298 220.764 26.1084 220.643 25.9717C220.523 25.835 220.318 25.7666 220.028 25.7666C219.628 25.7666 219.338 25.9326 219.159 26.2646V30H217.748V24.7168H219.071ZM227.899 30H226.483V24.7168H227.899V30ZM226.4 23.3496C226.4 23.138 226.47 22.9639 226.61 22.8271C226.753 22.6904 226.947 22.6221 227.191 22.6221C227.432 22.6221 227.624 22.6904 227.767 22.8271C227.911 22.9639 227.982 23.138 227.982 23.3496C227.982 23.5645 227.909 23.7402 227.762 23.877C227.619 24.0137 227.429 24.082 227.191 24.082C226.953 24.082 226.761 24.0137 226.615 23.877C226.472 23.7402 226.4 23.5645 226.4 23.3496ZM231.927 28.54C231.927 28.3675 231.841 28.2324 231.669 28.1348C231.499 28.0339 231.226 27.9443 230.848 27.8662C229.592 27.6025 228.964 27.0687 228.964 26.2646C228.964 25.7959 229.157 25.4053 229.545 25.0928C229.935 24.777 230.445 24.6191 231.073 24.6191C231.744 24.6191 232.279 24.777 232.679 25.0928C233.083 25.4085 233.285 25.8187 233.285 26.3232H231.874C231.874 26.1214 231.809 25.9554 231.678 25.8252C231.548 25.6917 231.345 25.625 231.068 25.625C230.83 25.625 230.647 25.6787 230.516 25.7861C230.386 25.8936 230.321 26.0303 230.321 26.1963C230.321 26.3525 230.394 26.4795 230.541 26.5771C230.69 26.6715 230.941 26.7546 231.293 26.8262C231.644 26.8945 231.94 26.9727 232.181 27.0605C232.927 27.334 233.3 27.8076 233.3 28.4814C233.3 28.9632 233.093 29.3538 232.679 29.6533C232.266 29.9495 231.732 30.0977 231.078 30.0977C230.635 30.0977 230.241 30.0195 229.896 29.8633C229.554 29.7038 229.286 29.4873 229.091 29.2139C228.895 28.9372 228.798 28.6393 228.798 28.3203H230.135C230.148 28.571 230.241 28.763 230.414 28.8965C230.586 29.0299 230.817 29.0967 231.107 29.0967C231.377 29.0967 231.581 29.0462 231.717 28.9453C231.857 28.8411 231.927 28.7061 231.927 28.54ZM237.074 28.54C237.074 28.3675 236.988 28.2324 236.815 28.1348C236.646 28.0339 236.372 27.9443 235.995 27.8662C234.738 27.6025 234.11 27.0687 234.11 26.2646C234.11 25.7959 234.304 25.4053 234.691 25.0928C235.082 24.777 235.591 24.6191 236.219 24.6191C236.89 24.6191 237.425 24.777 237.826 25.0928C238.23 25.4085 238.431 25.8187 238.431 26.3232H237.02C237.02 26.1214 236.955 25.9554 236.825 25.8252C236.695 25.6917 236.491 25.625 236.215 25.625C235.977 25.625 235.793 25.6787 235.663 25.7861C235.533 25.8936 235.467 26.0303 235.467 26.1963C235.467 26.3525 235.541 26.4795 235.687 26.5771C235.837 26.6715 236.088 26.7546 236.439 26.8262C236.791 26.8945 237.087 26.9727 237.328 27.0605C238.073 27.334 238.446 27.8076 238.446 28.4814C238.446 28.9632 238.239 29.3538 237.826 29.6533C237.412 29.9495 236.879 30.0977 236.224 30.0977C235.782 30.0977 235.388 30.0195 235.043 29.8633C234.701 29.7038 234.432 29.4873 234.237 29.2139C234.042 28.9372 233.944 28.6393 233.944 28.3203H235.282C235.295 28.571 235.388 28.763 235.56 28.8965C235.733 29.0299 235.964 29.0967 236.254 29.0967C236.524 29.0967 236.727 29.0462 236.864 28.9453C237.004 28.8411 237.074 28.7061 237.074 28.54ZM240.848 30H239.432V24.7168H240.848V30ZM239.349 23.3496C239.349 23.138 239.419 22.9639 239.559 22.8271C239.703 22.6904 239.896 22.6221 240.14 22.6221C240.381 22.6221 240.573 22.6904 240.716 22.8271C240.86 22.9639 240.931 23.138 240.931 23.3496C240.931 23.5645 240.858 23.7402 240.712 23.877C240.568 24.0137 240.378 24.082 240.14 24.082C239.903 24.082 239.711 24.0137 239.564 23.877C239.421 23.7402 239.349 23.5645 239.349 23.3496ZM241.796 27.3096C241.796 26.7855 241.897 26.3184 242.098 25.9082C242.3 25.498 242.59 25.1807 242.967 24.9561C243.348 24.7314 243.789 24.6191 244.291 24.6191C245.004 24.6191 245.585 24.8372 246.034 25.2734C246.486 25.7096 246.739 26.3021 246.791 27.0508L246.8 27.4121C246.8 28.2227 246.574 28.8737 246.122 29.3652C245.669 29.8535 245.062 30.0977 244.3 30.0977C243.539 30.0977 242.93 29.8535 242.474 29.3652C242.022 28.877 241.796 28.2129 241.796 27.373V27.3096ZM243.207 27.4121C243.207 27.9134 243.301 28.2975 243.49 28.5645C243.679 28.8281 243.949 28.96 244.3 28.96C244.642 28.96 244.909 28.8298 245.101 28.5693C245.293 28.3057 245.389 27.8857 245.389 27.3096C245.389 26.818 245.293 26.4372 245.101 26.167C244.909 25.8968 244.639 25.7617 244.291 25.7617C243.946 25.7617 243.679 25.8968 243.49 26.167C243.301 26.4339 243.207 26.849 243.207 27.4121ZM248.968 24.7168L249.012 25.3271C249.39 24.8551 249.896 24.6191 250.531 24.6191C251.091 24.6191 251.508 24.7835 251.781 25.1123C252.054 25.4411 252.194 25.9326 252.201 26.5869V30H250.79V26.6211C250.79 26.3216 250.725 26.1051 250.594 25.9717C250.464 25.835 250.248 25.7666 249.945 25.7666C249.548 25.7666 249.25 25.9359 249.051 26.2744V30H247.64V24.7168H248.968ZM207.958 40.96C208.218 40.96 208.43 40.8883 208.592 40.7451C208.755 40.6019 208.84 40.4115 208.846 40.1738H210.17C210.166 40.5319 210.069 40.8607 209.877 41.1602C209.685 41.4564 209.421 41.6875 209.086 41.8535C208.754 42.0163 208.386 42.0977 207.982 42.0977C207.227 42.0977 206.631 41.8584 206.195 41.3799C205.759 40.8981 205.541 40.234 205.541 39.3877V39.2949C205.541 38.4811 205.757 37.8317 206.19 37.3467C206.623 36.8617 207.217 36.6191 207.972 36.6191C208.633 36.6191 209.162 36.8079 209.559 37.1855C209.96 37.5599 210.163 38.0596 210.17 38.6846H208.846C208.84 38.4111 208.755 38.1898 208.592 38.0205C208.43 37.848 208.215 37.7617 207.948 37.7617C207.619 37.7617 207.37 37.8822 207.201 38.123C207.035 38.3607 206.952 38.748 206.952 39.2852V39.4316C206.952 39.9753 207.035 40.3659 207.201 40.6035C207.367 40.8411 207.619 40.96 207.958 40.96ZM210.756 39.3096C210.756 38.7855 210.856 38.3184 211.058 37.9082C211.26 37.498 211.55 37.1807 211.927 36.9561C212.308 36.7314 212.749 36.6191 213.251 36.6191C213.964 36.6191 214.545 36.8372 214.994 37.2734C215.446 37.7096 215.699 38.3021 215.751 39.0508L215.76 39.4121C215.76 40.2227 215.534 40.8737 215.082 41.3652C214.629 41.8535 214.022 42.0977 213.26 42.0977C212.499 42.0977 211.89 41.8535 211.434 41.3652C210.982 40.877 210.756 40.2129 210.756 39.373V39.3096ZM212.167 39.4121C212.167 39.9134 212.261 40.2975 212.45 40.5645C212.639 40.8281 212.909 40.96 213.26 40.96C213.602 40.96 213.869 40.8298 214.061 40.5693C214.253 40.3057 214.349 39.8857 214.349 39.3096C214.349 38.818 214.253 38.4372 214.061 38.167C213.869 37.8968 213.599 37.7617 213.251 37.7617C212.906 37.7617 212.639 37.8968 212.45 38.167C212.261 38.4339 212.167 38.849 212.167 39.4121ZM217.928 36.7168L217.972 37.3271C218.35 36.8551 218.856 36.6191 219.491 36.6191C220.051 36.6191 220.467 36.7835 220.741 37.1123C221.014 37.4411 221.154 37.9326 221.161 38.5869V42H219.75V38.6211C219.75 38.3216 219.685 38.1051 219.554 37.9717C219.424 37.835 219.208 37.7666 218.905 37.7666C218.508 37.7666 218.21 37.9359 218.011 38.2744V42H216.6V36.7168H217.928ZM223.925 35.418V36.7168H224.828V37.752H223.925V40.3887C223.925 40.584 223.962 40.724 224.037 40.8086C224.112 40.8932 224.255 40.9355 224.466 40.9355C224.623 40.9355 224.761 40.9242 224.882 40.9014V41.9707C224.605 42.0553 224.32 42.0977 224.027 42.0977C223.037 42.0977 222.533 41.598 222.513 40.5986V37.752H221.742V36.7168H222.513V35.418H223.925ZM228.583 38.04C228.391 38.014 228.221 38.001 228.075 38.001C227.541 38.001 227.191 38.1816 227.025 38.543V42H225.614V36.7168H226.947L226.986 37.3467C227.269 36.8617 227.661 36.6191 228.163 36.6191C228.319 36.6191 228.466 36.6403 228.602 36.6826L228.583 38.04ZM228.871 39.3096C228.871 38.7855 228.972 38.3184 229.174 37.9082C229.375 37.498 229.665 37.1807 230.043 36.9561C230.424 36.7314 230.865 36.6191 231.366 36.6191C232.079 36.6191 232.66 36.8372 233.109 37.2734C233.562 37.7096 233.814 38.3021 233.866 39.0508L233.876 39.4121C233.876 40.2227 233.649 40.8737 233.197 41.3652C232.744 41.8535 232.137 42.0977 231.376 42.0977C230.614 42.0977 230.005 41.8535 229.55 41.3652C229.097 40.877 228.871 40.2129 228.871 39.373V39.3096ZM230.282 39.4121C230.282 39.9134 230.376 40.2975 230.565 40.5645C230.754 40.8281 231.024 40.96 231.376 40.96C231.717 40.96 231.984 40.8298 232.176 40.5693C232.369 40.3057 232.465 39.8857 232.465 39.3096C232.465 38.818 232.369 38.4372 232.176 38.167C231.984 37.8968 231.714 37.7617 231.366 37.7617C231.021 37.7617 230.754 37.8968 230.565 38.167C230.376 38.4339 230.282 38.849 230.282 39.4121ZM236.234 42H234.818V34.5H236.234V42ZM238.89 42H237.474V34.5H238.89V42ZM242.489 42.0977C241.714 42.0977 241.083 41.86 240.594 41.3848C240.109 40.9095 239.867 40.2764 239.867 39.4854V39.3486C239.867 38.818 239.969 38.3444 240.175 37.9277C240.38 37.5078 240.669 37.1855 241.044 36.9609C241.421 36.7331 241.851 36.6191 242.333 36.6191C243.055 36.6191 243.623 36.847 244.037 37.3027C244.453 37.7585 244.662 38.4046 244.662 39.2412V39.8174H241.298C241.343 40.1624 241.48 40.4391 241.708 40.6475C241.939 40.8558 242.23 40.96 242.582 40.96C243.125 40.96 243.55 40.763 243.856 40.3691L244.55 41.1455C244.338 41.445 244.051 41.6794 243.69 41.8486C243.329 42.0146 242.928 42.0977 242.489 42.0977ZM242.328 37.7617C242.048 37.7617 241.82 37.8561 241.644 38.0449C241.472 38.2337 241.361 38.5039 241.312 38.8555H243.275V38.7432C243.269 38.4307 243.184 38.1898 243.021 38.0205C242.858 37.848 242.627 37.7617 242.328 37.7617ZM248.436 38.04C248.244 38.014 248.075 38.001 247.928 38.001C247.395 38.001 247.045 38.1816 246.879 38.543V42H245.467V36.7168H246.8L246.84 37.3467C247.123 36.8617 247.515 36.6191 248.016 36.6191C248.173 36.6191 248.319 36.6403 248.456 36.6826L248.436 38.04ZM251.981 40.54C251.981 40.3675 251.895 40.2324 251.722 40.1348C251.553 40.0339 251.28 39.9443 250.902 39.8662C249.646 39.6025 249.017 39.0687 249.017 38.2646C249.017 37.7959 249.211 37.4053 249.598 37.0928C249.989 36.777 250.498 36.6191 251.127 36.6191C251.797 36.6191 252.333 36.777 252.733 37.0928C253.137 37.4085 253.339 37.8187 253.339 38.3232H251.927C251.927 38.1214 251.862 37.9554 251.732 37.8252C251.602 37.6917 251.398 37.625 251.122 37.625C250.884 37.625 250.7 37.6787 250.57 37.7861C250.44 37.8936 250.375 38.0303 250.375 38.1963C250.375 38.3525 250.448 38.4795 250.594 38.5771C250.744 38.6715 250.995 38.7546 251.346 38.8262C251.698 38.8945 251.994 38.9727 252.235 39.0605C252.98 39.334 253.353 39.8076 253.353 40.4814C253.353 40.9632 253.147 41.3538 252.733 41.6533C252.32 41.9495 251.786 42.0977 251.132 42.0977C250.689 42.0977 250.295 42.0195 249.95 41.8633C249.608 41.7038 249.34 41.4873 249.144 41.2139C248.949 40.9372 248.851 40.6393 248.851 40.3203H250.189C250.202 40.571 250.295 40.763 250.467 40.8965C250.64 41.0299 250.871 41.0967 251.161 41.0967C251.431 41.0967 251.634 41.0462 251.771 40.9453C251.911 40.8411 251.981 40.7061 251.981 40.54Z" fill="white"/>
<rect x="267" y="25.5" width="16.0444" height="4" fill="white"/>
<path d="M286 27L280.511 33C280.511 33 281.778 29.7263 281.778 27.5C281.778 25.2737 280.511 22 280.511 22L286 27Z" fill="white" stroke="white"/>
</svg>
