<svg width="276" height="57" viewBox="0 0 276 57" fill="none" xmlns="http://www.w3.org/2000/svg">
<rect x="104.905" y="3" width="74.19" height="47.136" rx="7" fill="#A0BFF9"/>
<path d="M122.065 16.2764L123.046 12.7168H124.521L122.739 18H121.391L119.609 12.7168H121.084L122.065 16.2764ZM128.129 18C128.064 17.873 128.017 17.7152 127.988 17.5264C127.646 17.9072 127.202 18.0977 126.655 18.0977C126.137 18.0977 125.708 17.9479 125.366 17.6484C125.027 17.349 124.858 16.9714 124.858 16.5156C124.858 15.9557 125.065 15.526 125.478 15.2266C125.895 14.9271 126.495 14.7757 127.28 14.7725H127.929V14.4697C127.929 14.2256 127.866 14.0303 127.739 13.8838C127.615 13.7373 127.418 13.6641 127.148 13.6641C126.91 13.6641 126.723 13.721 126.586 13.835C126.453 13.9489 126.386 14.1051 126.386 14.3037H124.975C124.975 13.9977 125.07 13.7145 125.258 13.4541C125.447 13.1937 125.714 12.9902 126.059 12.8438C126.404 12.694 126.792 12.6191 127.221 12.6191C127.872 12.6191 128.388 12.7835 128.769 13.1123C129.153 13.4378 129.345 13.8968 129.345 14.4893V16.7793C129.348 17.2806 129.418 17.6598 129.555 17.917V18H128.129ZM126.962 17.0186C127.171 17.0186 127.363 16.973 127.539 16.8818C127.714 16.7874 127.845 16.6621 127.929 16.5059V15.5977H127.402C126.695 15.5977 126.32 15.8418 126.274 16.3301L126.269 16.4131C126.269 16.5889 126.331 16.7337 126.455 16.8477C126.578 16.9616 126.748 17.0186 126.962 17.0186ZM131.918 18H130.502V10.5H131.918V18ZM134.575 18H133.159V12.7168H134.575V18ZM133.076 11.3496C133.076 11.138 133.146 10.9639 133.286 10.8271C133.429 10.6904 133.623 10.6221 133.867 10.6221C134.108 10.6221 134.3 10.6904 134.443 10.8271C134.586 10.9639 134.658 11.138 134.658 11.3496C134.658 11.5645 134.584 11.7402 134.438 11.877C134.295 12.0137 134.104 12.082 133.867 12.082C133.629 12.082 133.437 12.0137 133.291 11.877C133.147 11.7402 133.076 11.5645 133.076 11.3496ZM135.522 15.3193C135.522 14.4958 135.706 13.8398 136.074 13.3516C136.445 12.8633 136.951 12.6191 137.592 12.6191C138.107 12.6191 138.531 12.8112 138.867 13.1953V10.5H140.283V18H139.008L138.94 17.4385C138.588 17.8779 138.136 18.0977 137.583 18.0977C136.961 18.0977 136.461 17.8535 136.084 17.3652C135.709 16.8737 135.522 16.1917 135.522 15.3193ZM136.933 15.4219C136.933 15.9167 137.019 16.2959 137.192 16.5596C137.364 16.8232 137.615 16.9551 137.944 16.9551C138.38 16.9551 138.688 16.7712 138.867 16.4033V14.3184C138.691 13.9505 138.387 13.7666 137.954 13.7666C137.273 13.7666 136.933 14.3184 136.933 15.4219ZM144.438 18C144.373 17.873 144.326 17.7152 144.296 17.5264C143.955 17.9072 143.51 18.0977 142.963 18.0977C142.446 18.0977 142.016 17.9479 141.674 17.6484C141.336 17.349 141.167 16.9714 141.167 16.5156C141.167 15.9557 141.373 15.526 141.787 15.2266C142.203 14.9271 142.804 14.7757 143.588 14.7725H144.238V14.4697C144.238 14.2256 144.174 14.0303 144.047 13.8838C143.924 13.7373 143.727 13.6641 143.457 13.6641C143.219 13.6641 143.032 13.721 142.895 13.835C142.762 13.9489 142.695 14.1051 142.695 14.3037H141.284C141.284 13.9977 141.378 13.7145 141.567 13.4541C141.756 13.1937 142.023 12.9902 142.368 12.8438C142.713 12.694 143.1 12.6191 143.53 12.6191C144.181 12.6191 144.697 12.7835 145.078 13.1123C145.462 13.4378 145.654 13.8968 145.654 14.4893V16.7793C145.657 17.2806 145.727 17.6598 145.864 17.917V18H144.438ZM143.271 17.0186C143.479 17.0186 143.671 16.973 143.847 16.8818C144.023 16.7874 144.153 16.6621 144.238 16.5059V15.5977H143.71C143.004 15.5977 142.628 15.8418 142.583 16.3301L142.578 16.4131C142.578 16.5889 142.639 16.7337 142.763 16.8477C142.887 16.9616 143.056 17.0186 143.271 17.0186ZM148.427 11.418V12.7168H149.331V13.752H148.427V16.3887C148.427 16.584 148.465 16.724 148.54 16.8086C148.614 16.8932 148.758 16.9355 148.969 16.9355C149.125 16.9355 149.264 16.9242 149.384 16.9014V17.9707C149.108 18.0553 148.823 18.0977 148.53 18.0977C147.54 18.0977 147.036 17.598 147.016 16.5986V13.752H146.245V12.7168H147.016V11.418H148.427ZM151.606 18H150.19V12.7168H151.606V18ZM150.107 11.3496C150.107 11.138 150.177 10.9639 150.317 10.8271C150.46 10.6904 150.654 10.6221 150.898 10.6221C151.139 10.6221 151.331 10.6904 151.474 10.8271C151.617 10.9639 151.689 11.138 151.689 11.3496C151.689 11.5645 151.616 11.7402 151.469 11.877C151.326 12.0137 151.136 12.082 150.898 12.082C150.66 12.082 150.468 12.0137 150.322 11.877C150.179 11.7402 150.107 11.5645 150.107 11.3496ZM154.072 12.7168L154.116 13.3271C154.493 12.8551 155 12.6191 155.634 12.6191C156.194 12.6191 156.611 12.7835 156.884 13.1123C157.158 13.4411 157.298 13.9326 157.304 14.5869V18H155.893V14.6211C155.893 14.3216 155.828 14.1051 155.698 13.9717C155.568 13.835 155.351 13.7666 155.048 13.7666C154.651 13.7666 154.353 13.9359 154.155 14.2744V18H152.744V12.7168H154.072ZM158.173 15.3193C158.173 14.5088 158.365 13.8561 158.75 13.3613C159.137 12.8665 159.658 12.6191 160.312 12.6191C160.891 12.6191 161.342 12.8177 161.665 13.2148L161.723 12.7168H163.002V17.8242C163.002 18.2865 162.897 18.6885 162.685 19.0303C162.477 19.3721 162.182 19.6325 161.801 19.8115C161.42 19.9906 160.974 20.0801 160.463 20.0801C160.076 20.0801 159.698 20.002 159.331 19.8457C158.963 19.6927 158.684 19.4941 158.496 19.25L159.121 18.3906C159.472 18.7845 159.899 18.9814 160.4 18.9814C160.774 18.9814 161.066 18.8805 161.274 18.6787C161.482 18.4801 161.586 18.1969 161.586 17.8291V17.5459C161.261 17.9137 160.833 18.0977 160.302 18.0977C159.667 18.0977 159.153 17.8503 158.759 17.3555C158.369 16.8574 158.173 16.1982 158.173 15.3779V15.3193ZM159.584 15.4219C159.584 15.9004 159.681 16.2764 159.873 16.5498C160.065 16.82 160.328 16.9551 160.664 16.9551C161.093 16.9551 161.401 16.7939 161.586 16.4717V14.25C161.398 13.9277 161.093 13.7666 160.673 13.7666C160.335 13.7666 160.068 13.9049 159.873 14.1816C159.681 14.4583 159.584 14.8717 159.584 15.4219ZM121.889 30C121.824 29.873 121.777 29.7152 121.748 29.5264C121.406 29.9072 120.961 30.0977 120.415 30.0977C119.897 30.0977 119.467 29.9479 119.125 29.6484C118.787 29.349 118.618 28.9714 118.618 28.5156C118.618 27.9557 118.824 27.526 119.238 27.2266C119.654 26.9271 120.255 26.7757 121.04 26.7725H121.689V26.4697C121.689 26.2256 121.625 26.0303 121.499 25.8838C121.375 25.7373 121.178 25.6641 120.908 25.6641C120.67 25.6641 120.483 25.721 120.346 25.835C120.213 25.9489 120.146 26.1051 120.146 26.3037H118.735C118.735 25.9977 118.829 25.7145 119.018 25.4541C119.207 25.1937 119.474 24.9902 119.819 24.8438C120.164 24.694 120.551 24.6191 120.981 24.6191C121.632 24.6191 122.148 24.7835 122.529 25.1123C122.913 25.4378 123.105 25.8968 123.105 26.4893V28.7793C123.108 29.2806 123.178 29.6598 123.315 29.917V30H121.889ZM120.722 29.0186C120.931 29.0186 121.123 28.973 121.298 28.8818C121.474 28.7874 121.604 28.6621 121.689 28.5059V27.5977H121.162C120.455 27.5977 120.079 27.8418 120.034 28.3301L120.029 28.4131C120.029 28.5889 120.091 28.7337 120.214 28.8477C120.338 28.9616 120.507 29.0186 120.722 29.0186ZM123.969 27.3193C123.969 26.4958 124.153 25.8398 124.521 25.3516C124.892 24.8633 125.398 24.6191 126.04 24.6191C126.554 24.6191 126.979 24.8112 127.314 25.1953V22.5H128.73V30H127.456L127.387 29.4385C127.036 29.8779 126.583 30.0977 126.03 30.0977C125.408 30.0977 124.908 29.8535 124.531 29.3652C124.156 28.8737 123.969 28.1917 123.969 27.3193ZM125.38 27.4219C125.38 27.9167 125.467 28.2959 125.639 28.5596C125.812 28.8232 126.062 28.9551 126.391 28.9551C126.827 28.9551 127.135 28.7712 127.314 28.4033V26.3184C127.138 25.9505 126.834 25.7666 126.401 25.7666C125.721 25.7666 125.38 26.3184 125.38 27.4219ZM131.147 24.7168L131.191 25.3076C131.565 24.8486 132.071 24.6191 132.709 24.6191C133.39 24.6191 133.857 24.8877 134.111 25.4248C134.482 24.8877 135.011 24.6191 135.698 24.6191C136.271 24.6191 136.697 24.7868 136.977 25.1221C137.257 25.4541 137.397 25.9554 137.397 26.626V30H135.981V26.6309C135.981 26.3314 135.922 26.1133 135.805 25.9766C135.688 25.8366 135.481 25.7666 135.185 25.7666C134.762 25.7666 134.469 25.9684 134.306 26.3721L134.311 30H132.9V26.6357C132.9 26.3298 132.84 26.1084 132.719 25.9717C132.599 25.835 132.394 25.7666 132.104 25.7666C131.704 25.7666 131.414 25.9326 131.235 26.2646V30H129.824V24.7168H131.147ZM139.975 30H138.559V24.7168H139.975V30ZM138.476 23.3496C138.476 23.138 138.546 22.9639 138.686 22.8271C138.829 22.6904 139.023 22.6221 139.267 22.6221C139.508 22.6221 139.7 22.6904 139.843 22.8271C139.986 22.9639 140.058 23.138 140.058 23.3496C140.058 23.5645 139.985 23.7402 139.838 23.877C139.695 24.0137 139.505 24.082 139.267 24.082C139.029 24.082 138.837 24.0137 138.691 23.877C138.548 23.7402 138.476 23.5645 138.476 23.3496ZM144.003 28.54C144.003 28.3675 143.917 28.2324 143.745 28.1348C143.575 28.0339 143.302 27.9443 142.924 27.8662C141.668 27.6025 141.04 27.0687 141.04 26.2646C141.04 25.7959 141.233 25.4053 141.621 25.0928C142.011 24.777 142.521 24.6191 143.149 24.6191C143.82 24.6191 144.355 24.777 144.755 25.0928C145.159 25.4085 145.361 25.8187 145.361 26.3232H143.95C143.95 26.1214 143.885 25.9554 143.754 25.8252C143.624 25.6917 143.421 25.625 143.144 25.625C142.906 25.625 142.723 25.6787 142.592 25.7861C142.462 25.8936 142.397 26.0303 142.397 26.1963C142.397 26.3525 142.47 26.4795 142.617 26.5771C142.766 26.6715 143.017 26.7546 143.369 26.8262C143.72 26.8945 144.016 26.9727 144.257 27.0605C145.003 27.334 145.375 27.8076 145.375 28.4814C145.375 28.9632 145.169 29.3538 144.755 29.6533C144.342 29.9495 143.808 30.0977 143.154 30.0977C142.711 30.0977 142.317 30.0195 141.972 29.8633C141.63 29.7038 141.362 29.4873 141.167 29.2139C140.971 28.9372 140.874 28.6393 140.874 28.3203H142.211C142.224 28.571 142.317 28.763 142.49 28.8965C142.662 29.0299 142.893 29.0967 143.183 29.0967C143.453 29.0967 143.657 29.0462 143.793 28.9453C143.933 28.8411 144.003 28.7061 144.003 28.54ZM149.15 28.54C149.15 28.3675 149.064 28.2324 148.891 28.1348C148.722 28.0339 148.448 27.9443 148.071 27.8662C146.814 27.6025 146.186 27.0687 146.186 26.2646C146.186 25.7959 146.38 25.4053 146.767 25.0928C147.158 24.777 147.667 24.6191 148.295 24.6191C148.966 24.6191 149.501 24.777 149.902 25.0928C150.306 25.4085 150.507 25.8187 150.507 26.3232H149.096C149.096 26.1214 149.031 25.9554 148.901 25.8252C148.771 25.6917 148.567 25.625 148.291 25.625C148.053 25.625 147.869 25.6787 147.739 25.7861C147.609 25.8936 147.543 26.0303 147.543 26.1963C147.543 26.3525 147.617 26.4795 147.763 26.5771C147.913 26.6715 148.164 26.7546 148.515 26.8262C148.867 26.8945 149.163 26.9727 149.404 27.0605C150.149 27.334 150.522 27.8076 150.522 28.4814C150.522 28.9632 150.315 29.3538 149.902 29.6533C149.488 29.9495 148.955 30.0977 148.3 30.0977C147.858 30.0977 147.464 30.0195 147.119 29.8633C146.777 29.7038 146.508 29.4873 146.313 29.2139C146.118 28.9372 146.02 28.6393 146.02 28.3203H147.358C147.371 28.571 147.464 28.763 147.636 28.8965C147.809 29.0299 148.04 29.0967 148.33 29.0967C148.6 29.0967 148.803 29.0462 148.94 28.9453C149.08 28.8411 149.15 28.7061 149.15 28.54ZM152.924 30H151.508V24.7168H152.924V30ZM151.425 23.3496C151.425 23.138 151.495 22.9639 151.635 22.8271C151.778 22.6904 151.972 22.6221 152.216 22.6221C152.457 22.6221 152.649 22.6904 152.792 22.8271C152.936 22.9639 153.007 23.138 153.007 23.3496C153.007 23.5645 152.934 23.7402 152.788 23.877C152.644 24.0137 152.454 24.082 152.216 24.082C151.979 24.082 151.787 24.0137 151.64 23.877C151.497 23.7402 151.425 23.5645 151.425 23.3496ZM153.872 27.3096C153.872 26.7855 153.973 26.3184 154.174 25.9082C154.376 25.498 154.666 25.1807 155.043 24.9561C155.424 24.7314 155.865 24.6191 156.367 24.6191C157.08 24.6191 157.661 24.8372 158.11 25.2734C158.562 25.7096 158.815 26.3021 158.867 27.0508L158.876 27.4121C158.876 28.2227 158.65 28.8737 158.198 29.3652C157.745 29.8535 157.138 30.0977 156.376 30.0977C155.615 30.0977 155.006 29.8535 154.55 29.3652C154.098 28.877 153.872 28.2129 153.872 27.373V27.3096ZM155.283 27.4121C155.283 27.9134 155.377 28.2975 155.566 28.5645C155.755 28.8281 156.025 28.96 156.376 28.96C156.718 28.96 156.985 28.8298 157.177 28.5693C157.369 28.3057 157.465 27.8857 157.465 27.3096C157.465 26.818 157.369 26.4372 157.177 26.167C156.985 25.8968 156.715 25.7617 156.367 25.7617C156.022 25.7617 155.755 25.8968 155.566 26.167C155.377 26.4339 155.283 26.849 155.283 27.4121ZM161.044 24.7168L161.088 25.3271C161.466 24.8551 161.972 24.6191 162.607 24.6191C163.167 24.6191 163.584 24.7835 163.857 25.1123C164.13 25.4411 164.27 25.9326 164.277 26.5869V30H162.866V26.6211C162.866 26.3216 162.801 26.1051 162.67 25.9717C162.54 25.835 162.324 25.7666 162.021 25.7666C161.624 25.7666 161.326 25.9359 161.127 26.2744V30H159.716V24.7168H161.044ZM120.034 40.96C120.294 40.96 120.506 40.8883 120.668 40.7451C120.831 40.6019 120.916 40.4115 120.922 40.1738H122.246C122.242 40.5319 122.145 40.8607 121.953 41.1602C121.761 41.4564 121.497 41.6875 121.162 41.8535C120.83 42.0163 120.462 42.0977 120.058 42.0977C119.303 42.0977 118.707 41.8584 118.271 41.3799C117.835 40.8981 117.617 40.234 117.617 39.3877V39.2949C117.617 38.4811 117.833 37.8317 118.266 37.3467C118.699 36.8617 119.293 36.6191 120.048 36.6191C120.709 36.6191 121.238 36.8079 121.635 37.1855C122.036 37.5599 122.239 38.0596 122.246 38.6846H120.922C120.916 38.4111 120.831 38.1898 120.668 38.0205C120.506 37.848 120.291 37.7617 120.024 37.7617C119.695 37.7617 119.446 37.8822 119.277 38.123C119.111 38.3607 119.028 38.748 119.028 39.2852V39.4316C119.028 39.9753 119.111 40.3659 119.277 40.6035C119.443 40.8411 119.695 40.96 120.034 40.96ZM122.832 39.3096C122.832 38.7855 122.932 38.3184 123.134 37.9082C123.336 37.498 123.626 37.1807 124.003 36.9561C124.384 36.7314 124.825 36.6191 125.327 36.6191C126.04 36.6191 126.621 36.8372 127.07 37.2734C127.522 37.7096 127.775 38.3021 127.827 39.0508L127.836 39.4121C127.836 40.2227 127.61 40.8737 127.158 41.3652C126.705 41.8535 126.098 42.0977 125.336 42.0977C124.575 42.0977 123.966 41.8535 123.51 41.3652C123.058 40.877 122.832 40.2129 122.832 39.373V39.3096ZM124.243 39.4121C124.243 39.9134 124.337 40.2975 124.526 40.5645C124.715 40.8281 124.985 40.96 125.336 40.96C125.678 40.96 125.945 40.8298 126.137 40.5693C126.329 40.3057 126.425 39.8857 126.425 39.3096C126.425 38.818 126.329 38.4372 126.137 38.167C125.945 37.8968 125.675 37.7617 125.327 37.7617C124.982 37.7617 124.715 37.8968 124.526 38.167C124.337 38.4339 124.243 38.849 124.243 39.4121ZM130.004 36.7168L130.048 37.3271C130.426 36.8551 130.932 36.6191 131.567 36.6191C132.127 36.6191 132.543 36.7835 132.817 37.1123C133.09 37.4411 133.23 37.9326 133.237 38.5869V42H131.826V38.6211C131.826 38.3216 131.761 38.1051 131.63 37.9717C131.5 37.835 131.284 37.7666 130.981 37.7666C130.584 37.7666 130.286 37.9359 130.087 38.2744V42H128.676V36.7168H130.004ZM136 35.418V36.7168H136.904V37.752H136V40.3887C136 40.584 136.038 40.724 136.113 40.8086C136.188 40.8932 136.331 40.9355 136.542 40.9355C136.699 40.9355 136.837 40.9242 136.958 40.9014V41.9707C136.681 42.0553 136.396 42.0977 136.103 42.0977C135.113 42.0977 134.609 41.598 134.589 40.5986V37.752H133.818V36.7168H134.589V35.418H136ZM140.659 38.04C140.467 38.014 140.297 38.001 140.151 38.001C139.617 38.001 139.267 38.1816 139.101 38.543V42H137.69V36.7168H139.023L139.062 37.3467C139.345 36.8617 139.737 36.6191 140.239 36.6191C140.395 36.6191 140.542 36.6403 140.678 36.6826L140.659 38.04ZM140.947 39.3096C140.947 38.7855 141.048 38.3184 141.25 37.9082C141.451 37.498 141.741 37.1807 142.119 36.9561C142.5 36.7314 142.941 36.6191 143.442 36.6191C144.155 36.6191 144.736 36.8372 145.185 37.2734C145.638 37.7096 145.89 38.3021 145.942 39.0508L145.952 39.4121C145.952 40.2227 145.725 40.8737 145.273 41.3652C144.82 41.8535 144.213 42.0977 143.452 42.0977C142.69 42.0977 142.081 41.8535 141.625 41.3652C141.173 40.877 140.947 40.2129 140.947 39.373V39.3096ZM142.358 39.4121C142.358 39.9134 142.452 40.2975 142.641 40.5645C142.83 40.8281 143.1 40.96 143.452 40.96C143.793 40.96 144.06 40.8298 144.252 40.5693C144.445 40.3057 144.541 39.8857 144.541 39.3096C144.541 38.818 144.445 38.4372 144.252 38.167C144.06 37.8968 143.79 37.7617 143.442 37.7617C143.097 37.7617 142.83 37.8968 142.641 38.167C142.452 38.4339 142.358 38.849 142.358 39.4121ZM148.31 42H146.894V34.5H148.31V42ZM150.966 42H149.55V34.5H150.966V42ZM154.565 42.0977C153.79 42.0977 153.159 41.86 152.67 41.3848C152.185 40.9095 151.943 40.2764 151.943 39.4854V39.3486C151.943 38.818 152.045 38.3444 152.25 37.9277C152.456 37.5078 152.745 37.1855 153.12 36.9609C153.497 36.7331 153.927 36.6191 154.409 36.6191C155.131 36.6191 155.699 36.847 156.113 37.3027C156.529 37.7585 156.738 38.4046 156.738 39.2412V39.8174H153.374C153.419 40.1624 153.556 40.4391 153.784 40.6475C154.015 40.8558 154.306 40.96 154.658 40.96C155.201 40.96 155.626 40.763 155.932 40.3691L156.625 41.1455C156.414 41.445 156.127 41.6794 155.766 41.8486C155.405 42.0146 155.004 42.0977 154.565 42.0977ZM154.404 37.7617C154.124 37.7617 153.896 37.8561 153.72 38.0449C153.548 38.2337 153.437 38.5039 153.388 38.8555H155.351V38.7432C155.345 38.4307 155.26 38.1898 155.097 38.0205C154.934 37.848 154.703 37.7617 154.404 37.7617ZM160.512 38.04C160.32 38.014 160.151 38.001 160.004 38.001C159.471 38.001 159.121 38.1816 158.955 38.543V42H157.543V36.7168H158.876L158.916 37.3467C159.199 36.8617 159.591 36.6191 160.092 36.6191C160.249 36.6191 160.395 36.6403 160.532 36.6826L160.512 38.04ZM164.057 40.54C164.057 40.3675 163.971 40.2324 163.798 40.1348C163.629 40.0339 163.356 39.9443 162.978 39.8662C161.722 39.6025 161.093 39.0687 161.093 38.2646C161.093 37.7959 161.287 37.4053 161.674 37.0928C162.065 36.777 162.574 36.6191 163.203 36.6191C163.873 36.6191 164.409 36.777 164.809 37.0928C165.213 37.4085 165.415 37.8187 165.415 38.3232H164.003C164.003 38.1214 163.938 37.9554 163.808 37.8252C163.678 37.6917 163.474 37.625 163.198 37.625C162.96 37.625 162.776 37.6787 162.646 37.7861C162.516 37.8936 162.451 38.0303 162.451 38.1963C162.451 38.3525 162.524 38.4795 162.67 38.5771C162.82 38.6715 163.071 38.7546 163.422 38.8262C163.774 38.8945 164.07 38.9727 164.311 39.0605C165.056 39.334 165.429 39.8076 165.429 40.4814C165.429 40.9632 165.223 41.3538 164.809 41.6533C164.396 41.9495 163.862 42.0977 163.208 42.0977C162.765 42.0977 162.371 42.0195 162.026 41.8633C161.684 41.7038 161.416 41.4873 161.22 41.2139C161.025 40.9372 160.927 40.6393 160.927 40.3203H162.265C162.278 40.571 162.371 40.763 162.543 40.8965C162.716 41.0299 162.947 41.0967 163.237 41.0967C163.507 41.0967 163.71 41.0462 163.847 40.9453C163.987 40.8411 164.057 40.7061 164.057 40.54Z" fill="white"/>
<rect x="179.095" y="25.5" width="15.2" height="4" fill="white"/>
<path d="M197.095 27L191.895 33C191.895 33 193.095 29.7263 193.095 27.5C193.095 25.2737 191.895 22 191.895 22L197.095 27Z" fill="white" stroke="white"/>
</svg>
