<svg width="640" height="167" viewBox="0 0 640 167" fill="none" xmlns="http://www.w3.org/2000/svg">
<g filter="url(#filter0_d)">
<rect x="377.5" y="29.5" width="205" height="46" rx="5.5" fill="#A6E48C" stroke="black"/>
<path d="M420.481 49.4902V60.0986C420.481 61.9268 419.652 62.8408 417.994 62.8408C417.637 62.8408 417.306 62.7881 417.001 62.6826V61.3818C417.188 61.4287 417.435 61.4521 417.739 61.4521C418.103 61.4521 418.378 61.3525 418.565 61.1533C418.759 60.96 418.855 60.6201 418.855 60.1338V49.4902H420.481ZM418.688 46.9678C418.688 46.71 418.768 46.4902 418.926 46.3086C419.09 46.1211 419.327 46.0273 419.638 46.0273C419.954 46.0273 420.194 46.1182 420.358 46.2998C420.522 46.4814 420.604 46.7041 420.604 46.9678C420.604 47.2314 420.522 47.4512 420.358 47.627C420.194 47.8027 419.954 47.8906 419.638 47.8906C419.321 47.8906 419.084 47.8027 418.926 47.627C418.768 47.4512 418.688 47.2314 418.688 46.9678ZM428.98 59C428.887 58.8125 428.811 58.4785 428.752 57.998C427.996 58.7832 427.094 59.1758 426.045 59.1758C425.107 59.1758 424.337 58.9121 423.733 58.3848C423.136 57.8516 422.837 57.1777 422.837 56.3633C422.837 55.373 423.212 54.6055 423.962 54.0605C424.718 53.5098 425.778 53.2344 427.144 53.2344H428.726V52.4873C428.726 51.9189 428.556 51.4678 428.216 51.1338C427.876 50.7939 427.375 50.624 426.713 50.624C426.133 50.624 425.646 50.7705 425.254 51.0635C424.861 51.3564 424.665 51.7109 424.665 52.127H423.03C423.03 51.6523 423.197 51.1953 423.531 50.7559C423.871 50.3105 424.328 49.959 424.902 49.7012C425.482 49.4434 426.118 49.3145 426.81 49.3145C427.905 49.3145 428.764 49.5898 429.385 50.1406C430.006 50.6855 430.328 51.4385 430.352 52.3994V56.7764C430.352 57.6494 430.463 58.3438 430.686 58.8594V59H428.98ZM426.282 57.7607C426.792 57.7607 427.275 57.6289 427.732 57.3652C428.189 57.1016 428.521 56.7588 428.726 56.3369V54.3857H427.451C425.459 54.3857 424.463 54.9688 424.463 56.1348C424.463 56.6445 424.633 57.043 424.973 57.3301C425.312 57.6172 425.749 57.7607 426.282 57.7607ZM436.847 59.1758C435.558 59.1758 434.509 58.7539 433.7 57.9102C432.892 57.0605 432.487 55.9268 432.487 54.5088V54.21C432.487 53.2666 432.666 52.4258 433.023 51.6875C433.387 50.9434 433.891 50.3633 434.535 49.9473C435.186 49.5254 435.889 49.3145 436.645 49.3145C437.881 49.3145 438.842 49.7217 439.527 50.5361C440.213 51.3506 440.556 52.5166 440.556 54.0342V54.7109H434.113C434.137 55.6484 434.409 56.4072 434.931 56.9873C435.458 57.5615 436.126 57.8486 436.935 57.8486C437.509 57.8486 437.995 57.7314 438.394 57.4971C438.792 57.2627 439.141 56.9521 439.439 56.5654L440.433 57.3389C439.636 58.5635 438.44 59.1758 436.847 59.1758ZM436.645 50.6504C435.988 50.6504 435.438 50.8906 434.992 51.3711C434.547 51.8457 434.271 52.5137 434.166 53.375H438.93V53.252C438.883 52.4258 438.66 51.7871 438.262 51.3359C437.863 50.8789 437.324 50.6504 436.645 50.6504ZM442.059 54.166C442.059 52.6836 442.401 51.5059 443.087 50.6328C443.772 49.7539 444.681 49.3145 445.812 49.3145C446.972 49.3145 447.877 49.7246 448.527 50.5449L448.606 49.4902H450.092V58.7715C450.092 60.002 449.726 60.9717 448.993 61.6807C448.267 62.3896 447.288 62.7441 446.058 62.7441C445.372 62.7441 444.701 62.5977 444.045 62.3047C443.389 62.0117 442.888 61.6104 442.542 61.1006L443.386 60.125C444.083 60.9863 444.936 61.417 445.943 61.417C446.734 61.417 447.35 61.1943 447.789 60.749C448.234 60.3037 448.457 59.6768 448.457 58.8682V58.0508C447.807 58.8008 446.919 59.1758 445.794 59.1758C444.681 59.1758 443.778 58.7275 443.087 57.8311C442.401 56.9346 442.059 55.7129 442.059 54.166ZM443.693 54.3506C443.693 55.4229 443.913 56.2666 444.353 56.8818C444.792 57.4912 445.407 57.7959 446.198 57.7959C447.224 57.7959 447.977 57.3301 448.457 56.3984V52.0566C447.959 51.1484 447.212 50.6943 446.216 50.6943C445.425 50.6943 444.807 51.002 444.361 51.6172C443.916 52.2324 443.693 53.1436 443.693 54.3506ZM456.499 59.1758C455.21 59.1758 454.161 58.7539 453.353 57.9102C452.544 57.0605 452.14 55.9268 452.14 54.5088V54.21C452.14 53.2666 452.318 52.4258 452.676 51.6875C453.039 50.9434 453.543 50.3633 454.188 49.9473C454.838 49.5254 455.541 49.3145 456.297 49.3145C457.533 49.3145 458.494 49.7217 459.18 50.5361C459.865 51.3506 460.208 52.5166 460.208 54.0342V54.7109H453.766C453.789 55.6484 454.062 56.4072 454.583 56.9873C455.11 57.5615 455.778 57.8486 456.587 57.8486C457.161 57.8486 457.647 57.7314 458.046 57.4971C458.444 57.2627 458.793 56.9521 459.092 56.5654L460.085 57.3389C459.288 58.5635 458.093 59.1758 456.499 59.1758ZM456.297 50.6504C455.641 50.6504 455.09 50.8906 454.645 51.3711C454.199 51.8457 453.924 52.5137 453.818 53.375H458.582V53.252C458.535 52.4258 458.312 51.7871 457.914 51.3359C457.516 50.8789 456.977 50.6504 456.297 50.6504ZM466.694 50.9492C466.448 50.9082 466.182 50.8877 465.895 50.8877C464.828 50.8877 464.104 51.3418 463.724 52.25V59H462.098V49.4902H463.68L463.706 50.5889C464.239 49.7393 464.995 49.3145 465.974 49.3145C466.29 49.3145 466.53 49.3555 466.694 49.4375V50.9492ZM471.581 54.2275H467.292V52.9004H471.581V54.2275ZM476.986 57.8486C477.566 57.8486 478.073 57.6729 478.507 57.3213C478.94 56.9697 479.181 56.5303 479.228 56.0029H480.766C480.736 56.5479 480.549 57.0664 480.203 57.5586C479.857 58.0508 479.395 58.4434 478.814 58.7363C478.24 59.0293 477.631 59.1758 476.986 59.1758C475.691 59.1758 474.66 58.7451 473.893 57.8838C473.131 57.0166 472.75 55.833 472.75 54.333V54.0605C472.75 53.1348 472.92 52.3115 473.26 51.5908C473.6 50.8701 474.086 50.3105 474.719 49.9121C475.357 49.5137 476.11 49.3145 476.978 49.3145C478.044 49.3145 478.929 49.6338 479.632 50.2725C480.341 50.9111 480.719 51.7402 480.766 52.7598H479.228C479.181 52.1445 478.946 51.6406 478.524 51.248C478.108 50.8496 477.593 50.6504 476.978 50.6504C476.151 50.6504 475.51 50.9492 475.053 51.5469C474.602 52.1387 474.376 52.9971 474.376 54.1221V54.4297C474.376 55.5254 474.602 56.3691 475.053 56.9609C475.504 57.5527 476.148 57.8486 476.986 57.8486ZM482.163 54.1572C482.163 53.2256 482.345 52.3877 482.708 51.6436C483.077 50.8994 483.587 50.3252 484.237 49.9209C484.894 49.5166 485.641 49.3145 486.479 49.3145C487.773 49.3145 488.819 49.7627 489.616 50.6592C490.419 51.5557 490.82 52.748 490.82 54.2363V54.3506C490.82 55.2764 490.642 56.1084 490.284 56.8467C489.933 57.5791 489.426 58.1504 488.764 58.5605C488.107 58.9707 487.352 59.1758 486.496 59.1758C485.207 59.1758 484.161 58.7275 483.358 57.8311C482.562 56.9346 482.163 55.748 482.163 54.2715V54.1572ZM483.798 54.3506C483.798 55.4053 484.041 56.252 484.527 56.8906C485.02 57.5293 485.676 57.8486 486.496 57.8486C487.322 57.8486 487.979 57.5264 488.465 56.8818C488.951 56.2314 489.194 55.3232 489.194 54.1572C489.194 53.1143 488.945 52.2705 488.447 51.626C487.955 50.9756 487.299 50.6504 486.479 50.6504C485.676 50.6504 485.028 50.9697 484.536 51.6084C484.044 52.2471 483.798 53.1611 483.798 54.3506ZM494.626 59H493V45.5H494.626V59ZM499.003 59H497.377V45.5H499.003V59ZM505.56 59.1758C504.271 59.1758 503.222 58.7539 502.413 57.9102C501.604 57.0605 501.2 55.9268 501.2 54.5088V54.21C501.2 53.2666 501.379 52.4258 501.736 51.6875C502.1 50.9434 502.604 50.3633 503.248 49.9473C503.898 49.5254 504.602 49.3145 505.357 49.3145C506.594 49.3145 507.555 49.7217 508.24 50.5361C508.926 51.3506 509.269 52.5166 509.269 54.0342V54.7109H502.826C502.85 55.6484 503.122 56.4072 503.644 56.9873C504.171 57.5615 504.839 57.8486 505.647 57.8486C506.222 57.8486 506.708 57.7314 507.106 57.4971C507.505 57.2627 507.854 56.9521 508.152 56.5654L509.146 57.3389C508.349 58.5635 507.153 59.1758 505.56 59.1758ZM505.357 50.6504C504.701 50.6504 504.15 50.8906 503.705 51.3711C503.26 51.8457 502.984 52.5137 502.879 53.375H507.643V53.252C507.596 52.4258 507.373 51.7871 506.975 51.3359C506.576 50.8789 506.037 50.6504 505.357 50.6504ZM514.973 57.8486C515.553 57.8486 516.06 57.6729 516.493 57.3213C516.927 56.9697 517.167 56.5303 517.214 56.0029H518.752C518.723 56.5479 518.535 57.0664 518.189 57.5586C517.844 58.0508 517.381 58.4434 516.801 58.7363C516.227 59.0293 515.617 59.1758 514.973 59.1758C513.678 59.1758 512.646 58.7451 511.879 57.8838C511.117 57.0166 510.736 55.833 510.736 54.333V54.0605C510.736 53.1348 510.906 52.3115 511.246 51.5908C511.586 50.8701 512.072 50.3105 512.705 49.9121C513.344 49.5137 514.097 49.3145 514.964 49.3145C516.03 49.3145 516.915 49.6338 517.618 50.2725C518.327 50.9111 518.705 51.7402 518.752 52.7598H517.214C517.167 52.1445 516.933 51.6406 516.511 51.248C516.095 50.8496 515.579 50.6504 514.964 50.6504C514.138 50.6504 513.496 50.9492 513.039 51.5469C512.588 52.1387 512.362 52.9971 512.362 54.1221V54.4297C512.362 55.5254 512.588 56.3691 513.039 56.9609C513.49 57.5527 514.135 57.8486 514.973 57.8486ZM522.786 47.1875V49.4902H524.562V50.7471H522.786V56.6445C522.786 57.0254 522.865 57.3125 523.023 57.5059C523.182 57.6934 523.451 57.7871 523.832 57.7871C524.02 57.7871 524.277 57.752 524.605 57.6816V59C524.178 59.1172 523.762 59.1758 523.357 59.1758C522.631 59.1758 522.083 58.9561 521.714 58.5166C521.345 58.0771 521.16 57.4531 521.16 56.6445V50.7471H519.429V49.4902H521.16V47.1875H522.786ZM525.862 54.1572C525.862 53.2256 526.044 52.3877 526.407 51.6436C526.776 50.8994 527.286 50.3252 527.937 49.9209C528.593 49.5166 529.34 49.3145 530.178 49.3145C531.473 49.3145 532.519 49.7627 533.315 50.6592C534.118 51.5557 534.52 52.748 534.52 54.2363V54.3506C534.52 55.2764 534.341 56.1084 533.983 56.8467C533.632 57.5791 533.125 58.1504 532.463 58.5605C531.807 58.9707 531.051 59.1758 530.195 59.1758C528.906 59.1758 527.86 58.7275 527.058 57.8311C526.261 56.9346 525.862 55.748 525.862 54.2715V54.1572ZM527.497 54.3506C527.497 55.4053 527.74 56.252 528.227 56.8906C528.719 57.5293 529.375 57.8486 530.195 57.8486C531.021 57.8486 531.678 57.5264 532.164 56.8818C532.65 56.2314 532.894 55.3232 532.894 54.1572C532.894 53.1143 532.645 52.2705 532.146 51.626C531.654 50.9756 530.998 50.6504 530.178 50.6504C529.375 50.6504 528.728 50.9697 528.235 51.6084C527.743 52.2471 527.497 53.1611 527.497 54.3506ZM541.155 50.9492C540.909 50.9082 540.643 50.8877 540.355 50.8877C539.289 50.8877 538.565 51.3418 538.185 52.25V59H536.559V49.4902H538.141L538.167 50.5889C538.7 49.7393 539.456 49.3145 540.435 49.3145C540.751 49.3145 540.991 49.3555 541.155 49.4375V50.9492Z" fill="black"/>
</g>
<g filter="url(#filter1_d)">
<rect x="374.5" y="25.5" width="205" height="46" rx="5.5" fill="#A6E48C" stroke="black"/>
<path d="M417.481 45.4902V56.0986C417.481 57.9268 416.652 58.8408 414.994 58.8408C414.637 58.8408 414.306 58.7881 414.001 58.6826V57.3818C414.188 57.4287 414.435 57.4521 414.739 57.4521C415.103 57.4521 415.378 57.3525 415.565 57.1533C415.759 56.96 415.855 56.6201 415.855 56.1338V45.4902H417.481ZM415.688 42.9678C415.688 42.71 415.768 42.4902 415.926 42.3086C416.09 42.1211 416.327 42.0273 416.638 42.0273C416.954 42.0273 417.194 42.1182 417.358 42.2998C417.522 42.4814 417.604 42.7041 417.604 42.9678C417.604 43.2314 417.522 43.4512 417.358 43.627C417.194 43.8027 416.954 43.8906 416.638 43.8906C416.321 43.8906 416.084 43.8027 415.926 43.627C415.768 43.4512 415.688 43.2314 415.688 42.9678ZM425.98 55C425.887 54.8125 425.811 54.4785 425.752 53.998C424.996 54.7832 424.094 55.1758 423.045 55.1758C422.107 55.1758 421.337 54.9121 420.733 54.3848C420.136 53.8516 419.837 53.1777 419.837 52.3633C419.837 51.373 420.212 50.6055 420.962 50.0605C421.718 49.5098 422.778 49.2344 424.144 49.2344H425.726V48.4873C425.726 47.9189 425.556 47.4678 425.216 47.1338C424.876 46.7939 424.375 46.624 423.713 46.624C423.133 46.624 422.646 46.7705 422.254 47.0635C421.861 47.3564 421.665 47.7109 421.665 48.127H420.03C420.03 47.6523 420.197 47.1953 420.531 46.7559C420.871 46.3105 421.328 45.959 421.902 45.7012C422.482 45.4434 423.118 45.3145 423.81 45.3145C424.905 45.3145 425.764 45.5898 426.385 46.1406C427.006 46.6855 427.328 47.4385 427.352 48.3994V52.7764C427.352 53.6494 427.463 54.3438 427.686 54.8594V55H425.98ZM423.282 53.7607C423.792 53.7607 424.275 53.6289 424.732 53.3652C425.189 53.1016 425.521 52.7588 425.726 52.3369V50.3857H424.451C422.459 50.3857 421.463 50.9688 421.463 52.1348C421.463 52.6445 421.633 53.043 421.973 53.3301C422.312 53.6172 422.749 53.7607 423.282 53.7607ZM433.847 55.1758C432.558 55.1758 431.509 54.7539 430.7 53.9102C429.892 53.0605 429.487 51.9268 429.487 50.5088V50.21C429.487 49.2666 429.666 48.4258 430.023 47.6875C430.387 46.9434 430.891 46.3633 431.535 45.9473C432.186 45.5254 432.889 45.3145 433.645 45.3145C434.881 45.3145 435.842 45.7217 436.527 46.5361C437.213 47.3506 437.556 48.5166 437.556 50.0342V50.7109H431.113C431.137 51.6484 431.409 52.4072 431.931 52.9873C432.458 53.5615 433.126 53.8486 433.935 53.8486C434.509 53.8486 434.995 53.7314 435.394 53.4971C435.792 53.2627 436.141 52.9521 436.439 52.5654L437.433 53.3389C436.636 54.5635 435.44 55.1758 433.847 55.1758ZM433.645 46.6504C432.988 46.6504 432.438 46.8906 431.992 47.3711C431.547 47.8457 431.271 48.5137 431.166 49.375H435.93V49.252C435.883 48.4258 435.66 47.7871 435.262 47.3359C434.863 46.8789 434.324 46.6504 433.645 46.6504ZM439.059 50.166C439.059 48.6836 439.401 47.5059 440.087 46.6328C440.772 45.7539 441.681 45.3145 442.812 45.3145C443.972 45.3145 444.877 45.7246 445.527 46.5449L445.606 45.4902H447.092V54.7715C447.092 56.002 446.726 56.9717 445.993 57.6807C445.267 58.3896 444.288 58.7441 443.058 58.7441C442.372 58.7441 441.701 58.5977 441.045 58.3047C440.389 58.0117 439.888 57.6104 439.542 57.1006L440.386 56.125C441.083 56.9863 441.936 57.417 442.943 57.417C443.734 57.417 444.35 57.1943 444.789 56.749C445.234 56.3037 445.457 55.6768 445.457 54.8682V54.0508C444.807 54.8008 443.919 55.1758 442.794 55.1758C441.681 55.1758 440.778 54.7275 440.087 53.8311C439.401 52.9346 439.059 51.7129 439.059 50.166ZM440.693 50.3506C440.693 51.4229 440.913 52.2666 441.353 52.8818C441.792 53.4912 442.407 53.7959 443.198 53.7959C444.224 53.7959 444.977 53.3301 445.457 52.3984V48.0566C444.959 47.1484 444.212 46.6943 443.216 46.6943C442.425 46.6943 441.807 47.002 441.361 47.6172C440.916 48.2324 440.693 49.1436 440.693 50.3506ZM453.499 55.1758C452.21 55.1758 451.161 54.7539 450.353 53.9102C449.544 53.0605 449.14 51.9268 449.14 50.5088V50.21C449.14 49.2666 449.318 48.4258 449.676 47.6875C450.039 46.9434 450.543 46.3633 451.188 45.9473C451.838 45.5254 452.541 45.3145 453.297 45.3145C454.533 45.3145 455.494 45.7217 456.18 46.5361C456.865 47.3506 457.208 48.5166 457.208 50.0342V50.7109H450.766C450.789 51.6484 451.062 52.4072 451.583 52.9873C452.11 53.5615 452.778 53.8486 453.587 53.8486C454.161 53.8486 454.647 53.7314 455.046 53.4971C455.444 53.2627 455.793 52.9521 456.092 52.5654L457.085 53.3389C456.288 54.5635 455.093 55.1758 453.499 55.1758ZM453.297 46.6504C452.641 46.6504 452.09 46.8906 451.645 47.3711C451.199 47.8457 450.924 48.5137 450.818 49.375H455.582V49.252C455.535 48.4258 455.312 47.7871 454.914 47.3359C454.516 46.8789 453.977 46.6504 453.297 46.6504ZM463.694 46.9492C463.448 46.9082 463.182 46.8877 462.895 46.8877C461.828 46.8877 461.104 47.3418 460.724 48.25V55H459.098V45.4902H460.68L460.706 46.5889C461.239 45.7393 461.995 45.3145 462.974 45.3145C463.29 45.3145 463.53 45.3555 463.694 45.4375V46.9492ZM468.581 50.2275H464.292V48.9004H468.581V50.2275ZM473.986 53.8486C474.566 53.8486 475.073 53.6729 475.507 53.3213C475.94 52.9697 476.181 52.5303 476.228 52.0029H477.766C477.736 52.5479 477.549 53.0664 477.203 53.5586C476.857 54.0508 476.395 54.4434 475.814 54.7363C475.24 55.0293 474.631 55.1758 473.986 55.1758C472.691 55.1758 471.66 54.7451 470.893 53.8838C470.131 53.0166 469.75 51.833 469.75 50.333V50.0605C469.75 49.1348 469.92 48.3115 470.26 47.5908C470.6 46.8701 471.086 46.3105 471.719 45.9121C472.357 45.5137 473.11 45.3145 473.978 45.3145C475.044 45.3145 475.929 45.6338 476.632 46.2725C477.341 46.9111 477.719 47.7402 477.766 48.7598H476.228C476.181 48.1445 475.946 47.6406 475.524 47.248C475.108 46.8496 474.593 46.6504 473.978 46.6504C473.151 46.6504 472.51 46.9492 472.053 47.5469C471.602 48.1387 471.376 48.9971 471.376 50.1221V50.4297C471.376 51.5254 471.602 52.3691 472.053 52.9609C472.504 53.5527 473.148 53.8486 473.986 53.8486ZM479.163 50.1572C479.163 49.2256 479.345 48.3877 479.708 47.6436C480.077 46.8994 480.587 46.3252 481.237 45.9209C481.894 45.5166 482.641 45.3145 483.479 45.3145C484.773 45.3145 485.819 45.7627 486.616 46.6592C487.419 47.5557 487.82 48.748 487.82 50.2363V50.3506C487.82 51.2764 487.642 52.1084 487.284 52.8467C486.933 53.5791 486.426 54.1504 485.764 54.5605C485.107 54.9707 484.352 55.1758 483.496 55.1758C482.207 55.1758 481.161 54.7275 480.358 53.8311C479.562 52.9346 479.163 51.748 479.163 50.2715V50.1572ZM480.798 50.3506C480.798 51.4053 481.041 52.252 481.527 52.8906C482.02 53.5293 482.676 53.8486 483.496 53.8486C484.322 53.8486 484.979 53.5264 485.465 52.8818C485.951 52.2314 486.194 51.3232 486.194 50.1572C486.194 49.1143 485.945 48.2705 485.447 47.626C484.955 46.9756 484.299 46.6504 483.479 46.6504C482.676 46.6504 482.028 46.9697 481.536 47.6084C481.044 48.2471 480.798 49.1611 480.798 50.3506ZM491.626 55H490V41.5H491.626V55ZM496.003 55H494.377V41.5H496.003V55ZM502.56 55.1758C501.271 55.1758 500.222 54.7539 499.413 53.9102C498.604 53.0605 498.2 51.9268 498.2 50.5088V50.21C498.2 49.2666 498.379 48.4258 498.736 47.6875C499.1 46.9434 499.604 46.3633 500.248 45.9473C500.898 45.5254 501.602 45.3145 502.357 45.3145C503.594 45.3145 504.555 45.7217 505.24 46.5361C505.926 47.3506 506.269 48.5166 506.269 50.0342V50.7109H499.826C499.85 51.6484 500.122 52.4072 500.644 52.9873C501.171 53.5615 501.839 53.8486 502.647 53.8486C503.222 53.8486 503.708 53.7314 504.106 53.4971C504.505 53.2627 504.854 52.9521 505.152 52.5654L506.146 53.3389C505.349 54.5635 504.153 55.1758 502.56 55.1758ZM502.357 46.6504C501.701 46.6504 501.15 46.8906 500.705 47.3711C500.26 47.8457 499.984 48.5137 499.879 49.375H504.643V49.252C504.596 48.4258 504.373 47.7871 503.975 47.3359C503.576 46.8789 503.037 46.6504 502.357 46.6504ZM511.973 53.8486C512.553 53.8486 513.06 53.6729 513.493 53.3213C513.927 52.9697 514.167 52.5303 514.214 52.0029H515.752C515.723 52.5479 515.535 53.0664 515.189 53.5586C514.844 54.0508 514.381 54.4434 513.801 54.7363C513.227 55.0293 512.617 55.1758 511.973 55.1758C510.678 55.1758 509.646 54.7451 508.879 53.8838C508.117 53.0166 507.736 51.833 507.736 50.333V50.0605C507.736 49.1348 507.906 48.3115 508.246 47.5908C508.586 46.8701 509.072 46.3105 509.705 45.9121C510.344 45.5137 511.097 45.3145 511.964 45.3145C513.03 45.3145 513.915 45.6338 514.618 46.2725C515.327 46.9111 515.705 47.7402 515.752 48.7598H514.214C514.167 48.1445 513.933 47.6406 513.511 47.248C513.095 46.8496 512.579 46.6504 511.964 46.6504C511.138 46.6504 510.496 46.9492 510.039 47.5469C509.588 48.1387 509.362 48.9971 509.362 50.1221V50.4297C509.362 51.5254 509.588 52.3691 510.039 52.9609C510.49 53.5527 511.135 53.8486 511.973 53.8486ZM519.786 43.1875V45.4902H521.562V46.7471H519.786V52.6445C519.786 53.0254 519.865 53.3125 520.023 53.5059C520.182 53.6934 520.451 53.7871 520.832 53.7871C521.02 53.7871 521.277 53.752 521.605 53.6816V55C521.178 55.1172 520.762 55.1758 520.357 55.1758C519.631 55.1758 519.083 54.9561 518.714 54.5166C518.345 54.0771 518.16 53.4531 518.16 52.6445V46.7471H516.429V45.4902H518.16V43.1875H519.786ZM522.862 50.1572C522.862 49.2256 523.044 48.3877 523.407 47.6436C523.776 46.8994 524.286 46.3252 524.937 45.9209C525.593 45.5166 526.34 45.3145 527.178 45.3145C528.473 45.3145 529.519 45.7627 530.315 46.6592C531.118 47.5557 531.52 48.748 531.52 50.2363V50.3506C531.52 51.2764 531.341 52.1084 530.983 52.8467C530.632 53.5791 530.125 54.1504 529.463 54.5605C528.807 54.9707 528.051 55.1758 527.195 55.1758C525.906 55.1758 524.86 54.7275 524.058 53.8311C523.261 52.9346 522.862 51.748 522.862 50.2715V50.1572ZM524.497 50.3506C524.497 51.4053 524.74 52.252 525.227 52.8906C525.719 53.5293 526.375 53.8486 527.195 53.8486C528.021 53.8486 528.678 53.5264 529.164 52.8818C529.65 52.2314 529.894 51.3232 529.894 50.1572C529.894 49.1143 529.645 48.2705 529.146 47.626C528.654 46.9756 527.998 46.6504 527.178 46.6504C526.375 46.6504 525.728 46.9697 525.235 47.6084C524.743 48.2471 524.497 49.1611 524.497 50.3506ZM538.155 46.9492C537.909 46.9082 537.643 46.8877 537.355 46.8877C536.289 46.8877 535.565 47.3418 535.185 48.25V55H533.559V45.4902H535.141L535.167 46.5889C535.7 45.7393 536.456 45.3145 537.435 45.3145C537.751 45.3145 537.991 45.3555 538.155 45.4375V46.9492Z" fill="black"/>
</g>
<g filter="url(#filter2_d)">
<rect x="371.5" y="21.5" width="205" height="46" rx="5.5" fill="#A6E48C" stroke="black"/>
<path d="M414.481 41.4902V52.0986C414.481 53.9268 413.652 54.8408 411.994 54.8408C411.637 54.8408 411.306 54.7881 411.001 54.6826V53.3818C411.188 53.4287 411.435 53.4521 411.739 53.4521C412.103 53.4521 412.378 53.3525 412.565 53.1533C412.759 52.96 412.855 52.6201 412.855 52.1338V41.4902H414.481ZM412.688 38.9678C412.688 38.71 412.768 38.4902 412.926 38.3086C413.09 38.1211 413.327 38.0273 413.638 38.0273C413.954 38.0273 414.194 38.1182 414.358 38.2998C414.522 38.4814 414.604 38.7041 414.604 38.9678C414.604 39.2314 414.522 39.4512 414.358 39.627C414.194 39.8027 413.954 39.8906 413.638 39.8906C413.321 39.8906 413.084 39.8027 412.926 39.627C412.768 39.4512 412.688 39.2314 412.688 38.9678ZM422.98 51C422.887 50.8125 422.811 50.4785 422.752 49.998C421.996 50.7832 421.094 51.1758 420.045 51.1758C419.107 51.1758 418.337 50.9121 417.733 50.3848C417.136 49.8516 416.837 49.1777 416.837 48.3633C416.837 47.373 417.212 46.6055 417.962 46.0605C418.718 45.5098 419.778 45.2344 421.144 45.2344H422.726V44.4873C422.726 43.9189 422.556 43.4678 422.216 43.1338C421.876 42.7939 421.375 42.624 420.713 42.624C420.133 42.624 419.646 42.7705 419.254 43.0635C418.861 43.3564 418.665 43.7109 418.665 44.127H417.03C417.03 43.6523 417.197 43.1953 417.531 42.7559C417.871 42.3105 418.328 41.959 418.902 41.7012C419.482 41.4434 420.118 41.3145 420.81 41.3145C421.905 41.3145 422.764 41.5898 423.385 42.1406C424.006 42.6855 424.328 43.4385 424.352 44.3994V48.7764C424.352 49.6494 424.463 50.3438 424.686 50.8594V51H422.98ZM420.282 49.7607C420.792 49.7607 421.275 49.6289 421.732 49.3652C422.189 49.1016 422.521 48.7588 422.726 48.3369V46.3857H421.451C419.459 46.3857 418.463 46.9688 418.463 48.1348C418.463 48.6445 418.633 49.043 418.973 49.3301C419.312 49.6172 419.749 49.7607 420.282 49.7607ZM430.847 51.1758C429.558 51.1758 428.509 50.7539 427.7 49.9102C426.892 49.0605 426.487 47.9268 426.487 46.5088V46.21C426.487 45.2666 426.666 44.4258 427.023 43.6875C427.387 42.9434 427.891 42.3633 428.535 41.9473C429.186 41.5254 429.889 41.3145 430.645 41.3145C431.881 41.3145 432.842 41.7217 433.527 42.5361C434.213 43.3506 434.556 44.5166 434.556 46.0342V46.7109H428.113C428.137 47.6484 428.409 48.4072 428.931 48.9873C429.458 49.5615 430.126 49.8486 430.935 49.8486C431.509 49.8486 431.995 49.7314 432.394 49.4971C432.792 49.2627 433.141 48.9521 433.439 48.5654L434.433 49.3389C433.636 50.5635 432.44 51.1758 430.847 51.1758ZM430.645 42.6504C429.988 42.6504 429.438 42.8906 428.992 43.3711C428.547 43.8457 428.271 44.5137 428.166 45.375H432.93V45.252C432.883 44.4258 432.66 43.7871 432.262 43.3359C431.863 42.8789 431.324 42.6504 430.645 42.6504ZM436.059 46.166C436.059 44.6836 436.401 43.5059 437.087 42.6328C437.772 41.7539 438.681 41.3145 439.812 41.3145C440.972 41.3145 441.877 41.7246 442.527 42.5449L442.606 41.4902H444.092V50.7715C444.092 52.002 443.726 52.9717 442.993 53.6807C442.267 54.3896 441.288 54.7441 440.058 54.7441C439.372 54.7441 438.701 54.5977 438.045 54.3047C437.389 54.0117 436.888 53.6104 436.542 53.1006L437.386 52.125C438.083 52.9863 438.936 53.417 439.943 53.417C440.734 53.417 441.35 53.1943 441.789 52.749C442.234 52.3037 442.457 51.6768 442.457 50.8682V50.0508C441.807 50.8008 440.919 51.1758 439.794 51.1758C438.681 51.1758 437.778 50.7275 437.087 49.8311C436.401 48.9346 436.059 47.7129 436.059 46.166ZM437.693 46.3506C437.693 47.4229 437.913 48.2666 438.353 48.8818C438.792 49.4912 439.407 49.7959 440.198 49.7959C441.224 49.7959 441.977 49.3301 442.457 48.3984V44.0566C441.959 43.1484 441.212 42.6943 440.216 42.6943C439.425 42.6943 438.807 43.002 438.361 43.6172C437.916 44.2324 437.693 45.1436 437.693 46.3506ZM450.499 51.1758C449.21 51.1758 448.161 50.7539 447.353 49.9102C446.544 49.0605 446.14 47.9268 446.14 46.5088V46.21C446.14 45.2666 446.318 44.4258 446.676 43.6875C447.039 42.9434 447.543 42.3633 448.188 41.9473C448.838 41.5254 449.541 41.3145 450.297 41.3145C451.533 41.3145 452.494 41.7217 453.18 42.5361C453.865 43.3506 454.208 44.5166 454.208 46.0342V46.7109H447.766C447.789 47.6484 448.062 48.4072 448.583 48.9873C449.11 49.5615 449.778 49.8486 450.587 49.8486C451.161 49.8486 451.647 49.7314 452.046 49.4971C452.444 49.2627 452.793 48.9521 453.092 48.5654L454.085 49.3389C453.288 50.5635 452.093 51.1758 450.499 51.1758ZM450.297 42.6504C449.641 42.6504 449.09 42.8906 448.645 43.3711C448.199 43.8457 447.924 44.5137 447.818 45.375H452.582V45.252C452.535 44.4258 452.312 43.7871 451.914 43.3359C451.516 42.8789 450.977 42.6504 450.297 42.6504ZM460.694 42.9492C460.448 42.9082 460.182 42.8877 459.895 42.8877C458.828 42.8877 458.104 43.3418 457.724 44.25V51H456.098V41.4902H457.68L457.706 42.5889C458.239 41.7393 458.995 41.3145 459.974 41.3145C460.29 41.3145 460.53 41.3555 460.694 41.4375V42.9492ZM465.581 46.2275H461.292V44.9004H465.581V46.2275ZM470.986 49.8486C471.566 49.8486 472.073 49.6729 472.507 49.3213C472.94 48.9697 473.181 48.5303 473.228 48.0029H474.766C474.736 48.5479 474.549 49.0664 474.203 49.5586C473.857 50.0508 473.395 50.4434 472.814 50.7363C472.24 51.0293 471.631 51.1758 470.986 51.1758C469.691 51.1758 468.66 50.7451 467.893 49.8838C467.131 49.0166 466.75 47.833 466.75 46.333V46.0605C466.75 45.1348 466.92 44.3115 467.26 43.5908C467.6 42.8701 468.086 42.3105 468.719 41.9121C469.357 41.5137 470.11 41.3145 470.978 41.3145C472.044 41.3145 472.929 41.6338 473.632 42.2725C474.341 42.9111 474.719 43.7402 474.766 44.7598H473.228C473.181 44.1445 472.946 43.6406 472.524 43.248C472.108 42.8496 471.593 42.6504 470.978 42.6504C470.151 42.6504 469.51 42.9492 469.053 43.5469C468.602 44.1387 468.376 44.9971 468.376 46.1221V46.4297C468.376 47.5254 468.602 48.3691 469.053 48.9609C469.504 49.5527 470.148 49.8486 470.986 49.8486ZM476.163 46.1572C476.163 45.2256 476.345 44.3877 476.708 43.6436C477.077 42.8994 477.587 42.3252 478.237 41.9209C478.894 41.5166 479.641 41.3145 480.479 41.3145C481.773 41.3145 482.819 41.7627 483.616 42.6592C484.419 43.5557 484.82 44.748 484.82 46.2363V46.3506C484.82 47.2764 484.642 48.1084 484.284 48.8467C483.933 49.5791 483.426 50.1504 482.764 50.5605C482.107 50.9707 481.352 51.1758 480.496 51.1758C479.207 51.1758 478.161 50.7275 477.358 49.8311C476.562 48.9346 476.163 47.748 476.163 46.2715V46.1572ZM477.798 46.3506C477.798 47.4053 478.041 48.252 478.527 48.8906C479.02 49.5293 479.676 49.8486 480.496 49.8486C481.322 49.8486 481.979 49.5264 482.465 48.8818C482.951 48.2314 483.194 47.3232 483.194 46.1572C483.194 45.1143 482.945 44.2705 482.447 43.626C481.955 42.9756 481.299 42.6504 480.479 42.6504C479.676 42.6504 479.028 42.9697 478.536 43.6084C478.044 44.2471 477.798 45.1611 477.798 46.3506ZM488.626 51H487V37.5H488.626V51ZM493.003 51H491.377V37.5H493.003V51ZM499.56 51.1758C498.271 51.1758 497.222 50.7539 496.413 49.9102C495.604 49.0605 495.2 47.9268 495.2 46.5088V46.21C495.2 45.2666 495.379 44.4258 495.736 43.6875C496.1 42.9434 496.604 42.3633 497.248 41.9473C497.898 41.5254 498.602 41.3145 499.357 41.3145C500.594 41.3145 501.555 41.7217 502.24 42.5361C502.926 43.3506 503.269 44.5166 503.269 46.0342V46.7109H496.826C496.85 47.6484 497.122 48.4072 497.644 48.9873C498.171 49.5615 498.839 49.8486 499.647 49.8486C500.222 49.8486 500.708 49.7314 501.106 49.4971C501.505 49.2627 501.854 48.9521 502.152 48.5654L503.146 49.3389C502.349 50.5635 501.153 51.1758 499.56 51.1758ZM499.357 42.6504C498.701 42.6504 498.15 42.8906 497.705 43.3711C497.26 43.8457 496.984 44.5137 496.879 45.375H501.643V45.252C501.596 44.4258 501.373 43.7871 500.975 43.3359C500.576 42.8789 500.037 42.6504 499.357 42.6504ZM508.973 49.8486C509.553 49.8486 510.06 49.6729 510.493 49.3213C510.927 48.9697 511.167 48.5303 511.214 48.0029H512.752C512.723 48.5479 512.535 49.0664 512.189 49.5586C511.844 50.0508 511.381 50.4434 510.801 50.7363C510.227 51.0293 509.617 51.1758 508.973 51.1758C507.678 51.1758 506.646 50.7451 505.879 49.8838C505.117 49.0166 504.736 47.833 504.736 46.333V46.0605C504.736 45.1348 504.906 44.3115 505.246 43.5908C505.586 42.8701 506.072 42.3105 506.705 41.9121C507.344 41.5137 508.097 41.3145 508.964 41.3145C510.03 41.3145 510.915 41.6338 511.618 42.2725C512.327 42.9111 512.705 43.7402 512.752 44.7598H511.214C511.167 44.1445 510.933 43.6406 510.511 43.248C510.095 42.8496 509.579 42.6504 508.964 42.6504C508.138 42.6504 507.496 42.9492 507.039 43.5469C506.588 44.1387 506.362 44.9971 506.362 46.1221V46.4297C506.362 47.5254 506.588 48.3691 507.039 48.9609C507.49 49.5527 508.135 49.8486 508.973 49.8486ZM516.786 39.1875V41.4902H518.562V42.7471H516.786V48.6445C516.786 49.0254 516.865 49.3125 517.023 49.5059C517.182 49.6934 517.451 49.7871 517.832 49.7871C518.02 49.7871 518.277 49.752 518.605 49.6816V51C518.178 51.1172 517.762 51.1758 517.357 51.1758C516.631 51.1758 516.083 50.9561 515.714 50.5166C515.345 50.0771 515.16 49.4531 515.16 48.6445V42.7471H513.429V41.4902H515.16V39.1875H516.786ZM519.862 46.1572C519.862 45.2256 520.044 44.3877 520.407 43.6436C520.776 42.8994 521.286 42.3252 521.937 41.9209C522.593 41.5166 523.34 41.3145 524.178 41.3145C525.473 41.3145 526.519 41.7627 527.315 42.6592C528.118 43.5557 528.52 44.748 528.52 46.2363V46.3506C528.52 47.2764 528.341 48.1084 527.983 48.8467C527.632 49.5791 527.125 50.1504 526.463 50.5605C525.807 50.9707 525.051 51.1758 524.195 51.1758C522.906 51.1758 521.86 50.7275 521.058 49.8311C520.261 48.9346 519.862 47.748 519.862 46.2715V46.1572ZM521.497 46.3506C521.497 47.4053 521.74 48.252 522.227 48.8906C522.719 49.5293 523.375 49.8486 524.195 49.8486C525.021 49.8486 525.678 49.5264 526.164 48.8818C526.65 48.2314 526.894 47.3232 526.894 46.1572C526.894 45.1143 526.645 44.2705 526.146 43.626C525.654 42.9756 524.998 42.6504 524.178 42.6504C523.375 42.6504 522.728 42.9697 522.235 43.6084C521.743 44.2471 521.497 45.1611 521.497 46.3506ZM535.155 42.9492C534.909 42.9082 534.643 42.8877 534.355 42.8877C533.289 42.8877 532.565 43.3418 532.185 44.25V51H530.559V41.4902H532.141L532.167 42.5889C532.7 41.7393 533.456 41.3145 534.435 41.3145C534.751 41.3145 534.991 41.3555 535.155 41.4375V42.9492Z" fill="black"/>
</g>
<rect x="405" width="138" height="30" rx="15" fill="black"/>
<path d="M430.739 18.9521H435.388V21H427.496V19.4531L431.97 13.5469H427.628V11.4902H435.248V12.9932L430.739 18.9521ZM439.66 21H437.111V11.4902H439.66V21ZM436.962 9.0293C436.962 8.64844 437.088 8.33496 437.34 8.08887C437.597 7.84277 437.946 7.71973 438.386 7.71973C438.819 7.71973 439.165 7.84277 439.423 8.08887C439.68 8.33496 439.809 8.64844 439.809 9.0293C439.809 9.41602 439.678 9.73242 439.414 9.97852C439.156 10.2246 438.813 10.3477 438.386 10.3477C437.958 10.3477 437.612 10.2246 437.348 9.97852C437.091 9.73242 436.962 9.41602 436.962 9.0293ZM450.321 16.333C450.321 17.7979 449.987 18.9727 449.319 19.8574C448.657 20.7363 447.761 21.1758 446.63 21.1758C445.669 21.1758 444.892 20.8418 444.301 20.1738V24.6562H441.761V11.4902H444.116L444.204 12.4219C444.819 11.6836 445.622 11.3145 446.612 11.3145C447.784 11.3145 448.695 11.748 449.345 12.6152C449.996 13.4824 450.321 14.6777 450.321 16.2012V16.333ZM447.781 16.1484C447.781 15.2637 447.623 14.5811 447.306 14.1006C446.996 13.6201 446.542 13.3799 445.944 13.3799C445.147 13.3799 444.599 13.6846 444.301 14.2939V18.1875C444.611 18.8145 445.165 19.1279 445.962 19.1279C447.175 19.1279 447.781 18.1348 447.781 16.1484ZM455.357 17.1855L454.443 18.0996V21H451.903V7.5H454.443V14.9795L454.935 14.3467L457.37 11.4902H460.42L456.983 15.4541L460.719 21H457.801L455.357 17.1855ZM464.199 21H461.65V11.4902H464.199V21ZM461.501 9.0293C461.501 8.64844 461.627 8.33496 461.879 8.08887C462.137 7.84277 462.485 7.71973 462.925 7.71973C463.358 7.71973 463.704 7.84277 463.962 8.08887C464.22 8.33496 464.348 8.64844 464.348 9.0293C464.348 9.41602 464.217 9.73242 463.953 9.97852C463.695 10.2246 463.352 10.3477 462.925 10.3477C462.497 10.3477 462.151 10.2246 461.887 9.97852C461.63 9.73242 461.501 9.41602 461.501 9.0293ZM468.637 11.4902L468.717 12.5889C469.396 11.7393 470.307 11.3145 471.45 11.3145C472.458 11.3145 473.208 11.6104 473.7 12.2021C474.192 12.7939 474.444 13.6787 474.456 14.8564V21H471.916V14.918C471.916 14.3789 471.799 13.9893 471.564 13.749C471.33 13.5029 470.94 13.3799 470.395 13.3799C469.68 13.3799 469.144 13.6846 468.787 14.2939V21H466.247V11.4902H468.637ZM476.512 19.752C476.512 19.3477 476.647 19.0195 476.917 18.7676C477.192 18.5156 477.535 18.3896 477.945 18.3896C478.361 18.3896 478.704 18.5156 478.973 18.7676C479.249 19.0195 479.387 19.3477 479.387 19.752C479.387 20.1504 479.252 20.4756 478.982 20.7275C478.713 20.9736 478.367 21.0967 477.945 21.0967C477.529 21.0967 477.186 20.9736 476.917 20.7275C476.647 20.4756 476.512 20.1504 476.512 19.752ZM476.512 12.5537C476.512 12.1494 476.647 11.8213 476.917 11.5693C477.192 11.3174 477.535 11.1914 477.945 11.1914C478.361 11.1914 478.704 11.3174 478.973 11.5693C479.249 11.8213 479.387 12.1494 479.387 12.5537C479.387 12.9521 479.252 13.2773 478.982 13.5293C478.713 13.7754 478.367 13.8984 477.945 13.8984C477.529 13.8984 477.186 13.7754 476.917 13.5293C476.647 13.2773 476.512 12.9521 476.512 12.5537ZM487.305 15.8848C486.643 16.5352 485.87 16.8604 484.985 16.8604C483.854 16.8604 482.949 16.4736 482.269 15.7002C481.59 14.9209 481.25 13.8721 481.25 12.5537C481.25 11.7158 481.431 10.9482 481.795 10.251C482.164 9.54785 482.677 9.00293 483.333 8.61621C483.989 8.22363 484.727 8.02734 485.548 8.02734C486.391 8.02734 487.141 8.23828 487.798 8.66016C488.454 9.08203 488.964 9.68848 489.327 10.4795C489.69 11.2705 489.875 12.1758 489.881 13.1953V14.1357C489.881 16.2686 489.35 17.9443 488.29 19.1631C487.229 20.3818 485.726 21.0322 483.781 21.1143L483.157 21.123V19.0049L483.72 18.9961C485.928 18.8965 487.124 17.8594 487.305 15.8848ZM485.609 14.918C486.019 14.918 486.371 14.8125 486.664 14.6016C486.963 14.3906 487.188 14.1357 487.341 13.8369V12.791C487.341 11.9297 487.177 11.2617 486.848 10.7871C486.52 10.3125 486.081 10.0752 485.53 10.0752C485.02 10.0752 484.601 10.3096 484.273 10.7783C483.945 11.2412 483.781 11.8242 483.781 12.5273C483.781 13.2246 483.939 13.7988 484.256 14.25C484.578 14.6953 485.029 14.918 485.609 14.918ZM499.215 16.1836H500.665V18.2314H499.215V21H496.675V18.2314H491.428L491.313 16.6318L496.648 8.20312H499.215V16.1836ZM493.845 16.1836H496.675V11.666L496.508 11.9561L493.845 16.1836ZM508.206 21H505.666V11.209L502.634 12.1494V10.084L507.933 8.18555H508.206V21ZM518.542 21H516.002V11.209L512.97 12.1494V10.084L518.269 8.18555H518.542V21Z" fill="white"/>
<path d="M471 58.5V164.5" stroke="black" stroke-width="3"/>
<path d="M471 167L464.938 157.25H477.062L471 167Z" fill="black"/>
<defs>
<filter id="filter0_d" x="373" y="29" width="214" height="55" filterUnits="userSpaceOnUse" color-interpolation-filters="sRGB">
<feFlood flood-opacity="0" result="BackgroundImageFix"/>
<feColorMatrix in="SourceAlpha" type="matrix" values="0 0 0 0 0 0 0 0 0 0 0 0 0 0 0 0 0 0 127 0"/>
<feOffset dy="4"/>
<feGaussianBlur stdDeviation="2"/>
<feColorMatrix type="matrix" values="0 0 0 0 0 0 0 0 0 0 0 0 0 0 0 0 0 0 0.25 0"/>
<feBlend mode="normal" in2="BackgroundImageFix" result="effect1_dropShadow"/>
<feBlend mode="normal" in="SourceGraphic" in2="effect1_dropShadow" result="shape"/>
</filter>
<filter id="filter1_d" x="370" y="25" width="214" height="55" filterUnits="userSpaceOnUse" color-interpolation-filters="sRGB">
<feFlood flood-opacity="0" result="BackgroundImageFix"/>
<feColorMatrix in="SourceAlpha" type="matrix" values="0 0 0 0 0 0 0 0 0 0 0 0 0 0 0 0 0 0 127 0"/>
<feOffset dy="4"/>
<feGaussianBlur stdDeviation="2"/>
<feColorMatrix type="matrix" values="0 0 0 0 0 0 0 0 0 0 0 0 0 0 0 0 0 0 0.25 0"/>
<feBlend mode="normal" in2="BackgroundImageFix" result="effect1_dropShadow"/>
<feBlend mode="normal" in="SourceGraphic" in2="effect1_dropShadow" result="shape"/>
</filter>
<filter id="filter2_d" x="367" y="21" width="214" height="55" filterUnits="userSpaceOnUse" color-interpolation-filters="sRGB">
<feFlood flood-opacity="0" result="BackgroundImageFix"/>
<feColorMatrix in="SourceAlpha" type="matrix" values="0 0 0 0 0 0 0 0 0 0 0 0 0 0 0 0 0 0 127 0"/>
<feOffset dy="4"/>
<feGaussianBlur stdDeviation="2"/>
<feColorMatrix type="matrix" values="0 0 0 0 0 0 0 0 0 0 0 0 0 0 0 0 0 0 0.25 0"/>
<feBlend mode="normal" in2="BackgroundImageFix" result="effect1_dropShadow"/>
<feBlend mode="normal" in="SourceGraphic" in2="effect1_dropShadow" result="shape"/>
</filter>
</defs>
</svg>
