<svg width="640" height="186" viewBox="0 0 640 186" fill="none" xmlns="http://www.w3.org/2000/svg">
<g clip-path="url(#clip0)">
<rect x="463" y="36.8355" width="84.461" height="98.3974" rx="17" fill="#C4C4C4"/>
<rect x="473.183" y="42.742" width="67.8599" height="82.8" rx="13.5" fill="white" stroke="black"/>
<rect x="468.38" y="47.1078" width="68.8599" height="83.8" rx="14" fill="white"/>
<rect x="471.032" y="44.9046" width="67.8599" height="82.8" rx="13.5" fill="white" stroke="black"/>
<rect x="468.88" y="47.6078" width="67.8599" height="82.8" rx="13.5" fill="white" stroke="black"/>
<path d="M491.983 24.0469L494.54 31.2656L497.083 24.0469H499.776V34H497.719V31.2793L497.924 26.583L495.237 34H493.829L491.149 26.5898L491.354 31.2793V34H489.304V24.0469H491.983ZM503.522 34H501.54V26.6035H503.522V34ZM501.424 24.6895C501.424 24.3932 501.522 24.1494 501.718 23.958C501.918 23.7666 502.189 23.6709 502.531 23.6709C502.868 23.6709 503.137 23.7666 503.338 23.958C503.538 24.1494 503.639 24.3932 503.639 24.6895C503.639 24.9902 503.536 25.2363 503.331 25.4277C503.131 25.6191 502.864 25.7148 502.531 25.7148C502.199 25.7148 501.93 25.6191 501.725 25.4277C501.524 25.2363 501.424 24.9902 501.424 24.6895ZM507.973 28.8115L509.217 26.6035H511.329L509.224 30.2266L511.418 34H509.299L507.979 31.6758L506.667 34H504.541L506.735 30.2266L504.637 26.6035H506.756L507.973 28.8115ZM515.547 34.1367C514.462 34.1367 513.578 33.804 512.895 33.1387C512.216 32.4733 511.876 31.5869 511.876 30.4795V30.2881C511.876 29.5452 512.02 28.8822 512.307 28.2988C512.594 27.7109 512.999 27.2598 513.523 26.9453C514.052 26.6263 514.654 26.4668 515.328 26.4668C516.34 26.4668 517.135 26.7858 517.714 27.4238C518.297 28.0618 518.589 28.9665 518.589 30.1377V30.9443H513.879C513.943 31.4274 514.134 31.8148 514.453 32.1064C514.777 32.3981 515.185 32.5439 515.677 32.5439C516.438 32.5439 517.033 32.2682 517.461 31.7168L518.432 32.8037C518.135 33.223 517.734 33.5511 517.229 33.7881C516.723 34.0205 516.162 34.1367 515.547 34.1367ZM515.321 28.0664C514.929 28.0664 514.61 28.1986 514.364 28.4629C514.123 28.7272 513.968 29.1055 513.899 29.5977H516.647V29.4404C516.638 29.0029 516.52 28.6657 516.292 28.4287C516.064 28.1872 515.741 28.0664 515.321 28.0664ZM523.873 28.4561C523.604 28.4196 523.367 28.4014 523.162 28.4014C522.415 28.4014 521.925 28.6543 521.692 29.1602V34H519.717V26.6035H521.583L521.638 27.4854C522.034 26.8063 522.583 26.4668 523.285 26.4668C523.504 26.4668 523.709 26.4964 523.9 26.5557L523.873 28.4561Z" fill="black"/>
<rect x="474.241" y="101.469" width="57.5626" height="21.0852" fill="#A0BFF9"/>
<path d="M491.134 112.156H487.197V114.822H491.818V116.469H485.146V106.516H491.804V108.177H487.197V110.549H491.134V112.156ZM494.709 109.073L494.771 109.927C495.3 109.266 496.008 108.936 496.897 108.936C497.681 108.936 498.264 109.166 498.647 109.626C499.03 110.087 499.226 110.775 499.235 111.691V116.469H497.259V111.739C497.259 111.319 497.168 111.016 496.986 110.829C496.803 110.638 496.5 110.542 496.077 110.542C495.521 110.542 495.104 110.779 494.826 111.253V116.469H492.85V109.073H494.709ZM503.507 114.056L504.881 109.073H506.946L504.451 116.469H502.564L500.069 109.073H502.133L503.507 114.056ZM507.404 112.702C507.404 111.969 507.545 111.315 507.828 110.741C508.11 110.166 508.516 109.722 509.044 109.408C509.578 109.093 510.195 108.936 510.897 108.936C511.895 108.936 512.708 109.241 513.337 109.852C513.971 110.463 514.324 111.292 514.397 112.34L514.411 112.846C514.411 113.981 514.094 114.892 513.46 115.58C512.827 116.264 511.977 116.606 510.911 116.606C509.844 116.606 508.992 116.264 508.354 115.58C507.72 114.897 507.404 113.967 507.404 112.791V112.702ZM509.379 112.846C509.379 113.548 509.511 114.086 509.776 114.459C510.04 114.828 510.418 115.013 510.911 115.013C511.389 115.013 511.763 114.831 512.032 114.466C512.301 114.097 512.435 113.509 512.435 112.702C512.435 112.014 512.301 111.481 512.032 111.103C511.763 110.725 511.385 110.535 510.897 110.535C510.414 110.535 510.04 110.725 509.776 111.103C509.511 111.477 509.379 112.058 509.379 112.846ZM518.28 113.673L519.647 109.073H521.766L518.792 117.618L518.628 118.007C518.186 118.973 517.457 119.456 516.441 119.456C516.154 119.456 515.862 119.413 515.566 119.327V117.829L515.867 117.836C516.24 117.836 516.518 117.779 516.701 117.665C516.887 117.551 517.033 117.362 517.138 117.098L517.371 116.49L514.78 109.073H516.906L518.28 113.673Z" fill="black"/>
<rect x="474.241" y="65.4777" width="57.5626" height="29.7355" fill="#A6E48C"/>
<path d="M488.438 77.5406L488.499 78.3677C489.023 77.7252 489.732 77.4039 490.625 77.4039C491.578 77.4039 492.232 77.7798 492.587 78.5318C493.107 77.7798 493.847 77.4039 494.809 77.4039C495.611 77.4039 496.208 77.6386 496.6 78.108C496.992 78.5728 497.188 79.2746 497.188 80.2134V84.9371H495.205V80.2203C495.205 79.801 495.123 79.4957 494.959 79.3043C494.795 79.1083 494.506 79.0103 494.091 79.0103C493.499 79.0103 493.089 79.2929 492.861 79.858L492.867 84.9371H490.892V80.2271C490.892 79.7987 490.808 79.4888 490.639 79.2974C490.47 79.106 490.183 79.0103 489.778 79.0103C489.217 79.0103 488.811 79.2427 488.561 79.7076V84.9371H486.585V77.5406H488.438ZM500.797 84.9371H498.815V77.5406H500.797V84.9371ZM498.699 75.6265C498.699 75.3303 498.797 75.0865 498.992 74.8951C499.193 74.7037 499.464 74.608 499.806 74.608C500.143 74.608 500.412 74.7037 500.613 74.8951C500.813 75.0865 500.913 75.3303 500.913 75.6265C500.913 75.9273 500.811 76.1734 500.606 76.3648C500.405 76.5562 500.139 76.6519 499.806 76.6519C499.473 76.6519 499.204 76.5562 498.999 76.3648C498.799 76.1734 498.699 75.9273 498.699 75.6265ZM505.247 79.7486L506.492 77.5406H508.604L506.498 81.1636L508.693 84.9371H506.574L505.254 82.6129L503.942 84.9371H501.816L504.01 81.1636L501.911 77.5406H504.031L505.247 79.7486ZM512.822 85.0738C511.737 85.0738 510.853 84.7411 510.169 84.0757C509.49 83.4104 509.151 82.524 509.151 81.4166V81.2252C509.151 80.4823 509.294 79.8192 509.581 79.2359C509.868 78.648 510.274 78.1968 510.798 77.8824C511.327 77.5634 511.928 77.4039 512.603 77.4039C513.615 77.4039 514.41 77.7229 514.989 78.3609C515.572 78.9989 515.864 79.9035 515.864 81.0748V81.8814H511.154C511.217 82.3645 511.409 82.7519 511.728 83.0435C512.051 83.3352 512.459 83.481 512.951 83.481C513.713 83.481 514.307 83.2053 514.736 82.6539L515.706 83.7408C515.41 84.1601 515.009 84.4882 514.503 84.7252C513.997 84.9576 513.437 85.0738 512.822 85.0738ZM512.596 79.0035C512.204 79.0035 511.885 79.1356 511.639 79.4C511.397 79.6643 511.242 80.0425 511.174 80.5347H513.922V80.3775C513.913 79.94 513.795 79.6028 513.567 79.3658C513.339 79.1242 513.015 79.0035 512.596 79.0035ZM521.148 79.3931C520.879 79.3567 520.642 79.3384 520.437 79.3384C519.689 79.3384 519.2 79.5914 518.967 80.0972V84.9371H516.992V77.5406H518.858L518.912 78.4224C519.309 77.7434 519.858 77.4039 520.56 77.4039C520.779 77.4039 520.984 77.4335 521.175 77.4927L521.148 79.3931Z" fill="black"/>
<path d="M479.805 58.4932V62H477.754V52.0469H481.637C482.384 52.0469 483.041 52.1836 483.606 52.457C484.175 52.7305 484.613 53.1201 484.918 53.626C485.223 54.1273 485.376 54.6992 485.376 55.3418C485.376 56.3171 485.041 57.0872 484.371 57.6523C483.706 58.2129 482.783 58.4932 481.603 58.4932H479.805ZM479.805 56.832H481.637C482.179 56.832 482.592 56.7044 482.874 56.4492C483.161 56.194 483.305 55.8294 483.305 55.3555C483.305 54.8678 483.161 54.4736 482.874 54.1729C482.587 53.8721 482.191 53.7171 481.685 53.708H479.805V56.832ZM486.258 58.2334C486.258 57.4997 486.399 56.8457 486.682 56.2715C486.964 55.6973 487.37 55.2529 487.899 54.9385C488.432 54.624 489.049 54.4668 489.751 54.4668C490.749 54.4668 491.563 54.7721 492.192 55.3828C492.825 55.9935 493.178 56.8229 493.251 57.8711L493.265 58.377C493.265 59.5117 492.948 60.4232 492.315 61.1113C491.681 61.7949 490.831 62.1367 489.765 62.1367C488.698 62.1367 487.846 61.7949 487.208 61.1113C486.575 60.4277 486.258 59.498 486.258 58.3223V58.2334ZM488.234 58.377C488.234 59.0788 488.366 59.6165 488.63 59.9902C488.894 60.3594 489.273 60.5439 489.765 60.5439C490.243 60.5439 490.617 60.3617 490.886 59.9971C491.155 59.6279 491.289 59.04 491.289 58.2334C491.289 57.5452 491.155 57.012 490.886 56.6338C490.617 56.2555 490.239 56.0664 489.751 56.0664C489.268 56.0664 488.894 56.2555 488.63 56.6338C488.366 57.0075 488.234 57.5885 488.234 58.377ZM494.174 58.2471C494.174 57.0941 494.431 56.1758 494.946 55.4922C495.466 54.8086 496.175 54.4668 497.072 54.4668C497.792 54.4668 498.387 54.7357 498.857 55.2734V51.5H500.839V62H499.055L498.959 61.2139C498.467 61.8291 497.833 62.1367 497.059 62.1367C496.188 62.1367 495.489 61.7949 494.96 61.1113C494.436 60.4232 494.174 59.4684 494.174 58.2471ZM496.15 58.3906C496.15 59.0833 496.27 59.6143 496.512 59.9834C496.753 60.3525 497.104 60.5371 497.565 60.5371C498.175 60.5371 498.606 60.2796 498.857 59.7646V56.8457C498.611 56.3307 498.184 56.0732 497.578 56.0732C496.626 56.0732 496.15 56.8457 496.15 58.3906Z" fill="black"/>
<rect x="403.5" y="1.5" width="220" height="145" stroke="black" stroke-dasharray="10 10"/>
<path d="M412.051 18H410.068V10.6035H412.051V18ZM409.952 8.68945C409.952 8.39323 410.05 8.14941 410.246 7.95801C410.447 7.7666 410.718 7.6709 411.06 7.6709C411.397 7.6709 411.666 7.7666 411.866 7.95801C412.067 8.14941 412.167 8.39323 412.167 8.68945C412.167 8.99023 412.064 9.23633 411.859 9.42773C411.659 9.61914 411.392 9.71484 411.06 9.71484C410.727 9.71484 410.458 9.61914 410.253 9.42773C410.052 9.23633 409.952 8.99023 409.952 8.68945ZM417.69 15.9561C417.69 15.7145 417.57 15.5254 417.328 15.3887C417.091 15.2474 416.708 15.1221 416.18 15.0127C414.421 14.6436 413.541 13.8962 413.541 12.7705C413.541 12.1143 413.812 11.5674 414.354 11.1299C414.901 10.6878 415.615 10.4668 416.494 10.4668C417.433 10.4668 418.183 10.6878 418.743 11.1299C419.308 11.5719 419.591 12.1462 419.591 12.8525H417.615C417.615 12.57 417.524 12.3376 417.342 12.1553C417.16 11.9684 416.875 11.875 416.487 11.875C416.155 11.875 415.897 11.9502 415.715 12.1006C415.533 12.251 415.441 12.4424 415.441 12.6748C415.441 12.8936 415.544 13.0713 415.749 13.208C415.959 13.3402 416.31 13.4564 416.802 13.5566C417.294 13.6523 417.709 13.7617 418.046 13.8848C419.09 14.2676 419.611 14.9307 419.611 15.874C419.611 16.5485 419.322 17.0954 418.743 17.5146C418.164 17.9294 417.417 18.1367 416.501 18.1367C415.881 18.1367 415.33 18.0273 414.847 17.8086C414.368 17.5853 413.992 17.2822 413.719 16.8994C413.445 16.512 413.309 16.0951 413.309 15.6484H415.182C415.2 15.9993 415.33 16.2682 415.571 16.4551C415.813 16.6419 416.136 16.7354 416.542 16.7354C416.92 16.7354 417.205 16.6647 417.396 16.5234C417.592 16.3776 417.69 16.1885 417.69 15.9561ZM423.255 8.78516V10.6035H424.52V12.0527H423.255V15.7441C423.255 16.0176 423.307 16.2135 423.412 16.332C423.517 16.4505 423.717 16.5098 424.014 16.5098C424.232 16.5098 424.426 16.4938 424.595 16.4619V17.959C424.207 18.0775 423.809 18.1367 423.398 18.1367C422.013 18.1367 421.307 17.4372 421.279 16.0381V12.0527H420.199V10.6035H421.279V8.78516H423.255ZM427.705 18H425.723V10.6035H427.705V18ZM425.606 8.68945C425.606 8.39323 425.704 8.14941 425.9 7.95801C426.101 7.7666 426.372 7.6709 426.714 7.6709C427.051 7.6709 427.32 7.7666 427.521 7.95801C427.721 8.14941 427.821 8.39323 427.821 8.68945C427.821 8.99023 427.719 9.23633 427.514 9.42773C427.313 9.61914 427.047 9.71484 426.714 9.71484C426.381 9.71484 426.112 9.61914 425.907 9.42773C425.707 9.23633 425.606 8.99023 425.606 8.68945ZM429.031 14.2334C429.031 13.4997 429.173 12.8457 429.455 12.2715C429.738 11.6973 430.143 11.2529 430.672 10.9385C431.205 10.624 431.823 10.4668 432.524 10.4668C433.522 10.4668 434.336 10.7721 434.965 11.3828C435.598 11.9935 435.951 12.8229 436.024 13.8711L436.038 14.377C436.038 15.5117 435.721 16.4232 435.088 17.1113C434.454 17.7949 433.604 18.1367 432.538 18.1367C431.472 18.1367 430.619 17.7949 429.981 17.1113C429.348 16.4277 429.031 15.498 429.031 14.3223V14.2334ZM431.007 14.377C431.007 15.0788 431.139 15.6165 431.403 15.9902C431.668 16.3594 432.046 16.5439 432.538 16.5439C433.017 16.5439 433.39 16.3617 433.659 15.9971C433.928 15.6279 434.062 15.04 434.062 14.2334C434.062 13.5452 433.928 13.012 433.659 12.6338C433.39 12.2555 433.012 12.0664 432.524 12.0664C432.041 12.0664 431.668 12.2555 431.403 12.6338C431.139 13.0075 431.007 13.5885 431.007 14.377ZM441.097 14.5342H437.248V12.9414H441.097V14.5342ZM446.688 15.9561C446.688 15.7145 446.568 15.5254 446.326 15.3887C446.089 15.2474 445.706 15.1221 445.178 15.0127C443.419 14.6436 442.539 13.8962 442.539 12.7705C442.539 12.1143 442.81 11.5674 443.353 11.1299C443.899 10.6878 444.613 10.4668 445.492 10.4668C446.431 10.4668 447.181 10.6878 447.741 11.1299C448.306 11.5719 448.589 12.1462 448.589 12.8525H446.613C446.613 12.57 446.522 12.3376 446.34 12.1553C446.158 11.9684 445.873 11.875 445.485 11.875C445.153 11.875 444.895 11.9502 444.713 12.1006C444.531 12.251 444.439 12.4424 444.439 12.6748C444.439 12.8936 444.542 13.0713 444.747 13.208C444.957 13.3402 445.308 13.4564 445.8 13.5566C446.292 13.6523 446.707 13.7617 447.044 13.8848C448.088 14.2676 448.609 14.9307 448.609 15.874C448.609 16.5485 448.32 17.0954 447.741 17.5146C447.162 17.9294 446.415 18.1367 445.499 18.1367C444.879 18.1367 444.328 18.0273 443.845 17.8086C443.366 17.5853 442.99 17.2822 442.717 16.8994C442.443 16.512 442.307 16.0951 442.307 15.6484H444.18C444.198 15.9993 444.328 16.2682 444.569 16.4551C444.811 16.6419 445.134 16.7354 445.54 16.7354C445.918 16.7354 446.203 16.6647 446.395 16.5234C446.59 16.3776 446.688 16.1885 446.688 15.9561ZM452.649 15.2041L454.017 10.6035H456.136L453.162 19.1484L452.998 19.5381C452.556 20.5042 451.827 20.9873 450.811 20.9873C450.523 20.9873 450.232 20.944 449.936 20.8574V19.3604L450.236 19.3672C450.61 19.3672 450.888 19.3102 451.07 19.1963C451.257 19.0824 451.403 18.8932 451.508 18.6289L451.74 18.0205L449.149 10.6035H451.275L452.649 15.2041ZM460.921 15.9561C460.921 15.7145 460.8 15.5254 460.559 15.3887C460.322 15.2474 459.939 15.1221 459.41 15.0127C457.651 14.6436 456.771 13.8962 456.771 12.7705C456.771 12.1143 457.043 11.5674 457.585 11.1299C458.132 10.6878 458.845 10.4668 459.725 10.4668C460.663 10.4668 461.413 10.6878 461.974 11.1299C462.539 11.5719 462.821 12.1462 462.821 12.8525H460.846C460.846 12.57 460.755 12.3376 460.572 12.1553C460.39 11.9684 460.105 11.875 459.718 11.875C459.385 11.875 459.128 11.9502 458.945 12.1006C458.763 12.251 458.672 12.4424 458.672 12.6748C458.672 12.8936 458.774 13.0713 458.979 13.208C459.189 13.3402 459.54 13.4564 460.032 13.5566C460.524 13.6523 460.939 13.7617 461.276 13.8848C462.32 14.2676 462.842 14.9307 462.842 15.874C462.842 16.5485 462.552 17.0954 461.974 17.5146C461.395 17.9294 460.647 18.1367 459.731 18.1367C459.112 18.1367 458.56 18.0273 458.077 17.8086C457.599 17.5853 457.223 17.2822 456.949 16.8994C456.676 16.512 456.539 16.0951 456.539 15.6484H458.412C458.43 15.9993 458.56 16.2682 458.802 16.4551C459.043 16.6419 459.367 16.7354 459.772 16.7354C460.151 16.7354 460.436 16.6647 460.627 16.5234C460.823 16.3776 460.921 16.1885 460.921 15.9561ZM466.485 8.78516V10.6035H467.75V12.0527H466.485V15.7441C466.485 16.0176 466.538 16.2135 466.643 16.332C466.747 16.4505 466.948 16.5098 467.244 16.5098C467.463 16.5098 467.657 16.4938 467.825 16.4619V17.959C467.438 18.0775 467.039 18.1367 466.629 18.1367C465.243 18.1367 464.537 17.4372 464.51 16.0381V12.0527H463.43V10.6035H464.51V8.78516H466.485ZM472.255 18.1367C471.17 18.1367 470.286 17.804 469.603 17.1387C468.924 16.4733 468.584 15.5869 468.584 14.4795V14.2881C468.584 13.5452 468.728 12.8822 469.015 12.2988C469.302 11.7109 469.707 11.2598 470.231 10.9453C470.76 10.6263 471.362 10.4668 472.036 10.4668C473.048 10.4668 473.843 10.7858 474.422 11.4238C475.005 12.0618 475.297 12.9665 475.297 14.1377V14.9443H470.587C470.651 15.4274 470.842 15.8148 471.161 16.1064C471.485 16.3981 471.893 16.5439 472.385 16.5439C473.146 16.5439 473.741 16.2682 474.169 15.7168L475.14 16.8037C474.843 17.223 474.442 17.5511 473.937 17.7881C473.431 18.0205 472.87 18.1367 472.255 18.1367ZM472.029 12.0664C471.637 12.0664 471.318 12.1986 471.072 12.4629C470.831 12.7272 470.676 13.1055 470.607 13.5977H473.355V13.4404C473.346 13.0029 473.228 12.6657 473 12.4287C472.772 12.1872 472.449 12.0664 472.029 12.0664ZM478.277 10.6035L478.339 11.4307C478.863 10.7881 479.572 10.4668 480.465 10.4668C481.417 10.4668 482.071 10.8428 482.427 11.5947C482.946 10.8428 483.687 10.4668 484.648 10.4668C485.451 10.4668 486.048 10.7015 486.439 11.1709C486.831 11.6357 487.027 12.3376 487.027 13.2764V18H485.045V13.2832C485.045 12.8639 484.963 12.5586 484.799 12.3672C484.635 12.1712 484.345 12.0732 483.931 12.0732C483.338 12.0732 482.928 12.3558 482.7 12.9209L482.707 18H480.731V13.29C480.731 12.8617 480.647 12.5518 480.479 12.3604C480.31 12.1689 480.023 12.0732 479.617 12.0732C479.057 12.0732 478.651 12.3057 478.4 12.7705V18H476.425V10.6035H478.277Z" fill="black"/>
<path d="M409.207 19.3672H487.786V20.0508H409.207V19.3672Z" fill="black"/>
<path d="M502 123C502 123 502 126.577 502 140.885C502 155.192 490 151.019 490 165.327C490 179.635 490 185 490 185" stroke="black" stroke-width="3"/>
<path d="M490 187L483.938 177.25H496.062L490 187Z" fill="black"/>
</g>
<defs>
<clipPath id="clip0">
<rect width="640" height="186" fill="white"/>
</clipPath>
</defs>
</svg>
