<svg width="190" height="77" viewBox="0 0 190 77" fill="none" xmlns="http://www.w3.org/2000/svg">
<g filter="url(#filter0_d)">
<rect x="4" width="84" height="68" rx="11" fill="#EE6E60"/>
<rect x="8.73108" y="39.6369" width="74.5377" height="18.4634" rx="5" fill="#F1F1F1"/>
<path d="M21.0246 41.9939H18.0563C16.3638 41.9939 14.7862 42.8501 13.8639 44.2691L13.0125 45.5792C11.9293 47.2457 11.9361 49.3957 13.0299 51.0553L13.8608 52.3161C14.7859 53.7198 16.3545 54.5647 18.0357 54.5647H21.0452C22.7165 54.5647 24.2772 53.7297 25.2047 52.3394L26.0458 51.0784C27.1601 49.4081 27.167 47.2332 26.0635 45.5558L25.2017 44.2459C24.277 42.8402 22.7072 41.9939 21.0246 41.9939Z" fill="#68BD45"/>
<path fill-rule="evenodd" clip-rule="evenodd" d="M21.5146 44.5494C21.3054 44.8437 21.4121 45.2532 21.6953 45.4772C22.424 46.0536 22.8874 46.919 22.8874 47.8865C22.8874 49.6221 21.396 51.0292 19.5564 51.0292C17.7168 51.0292 16.2255 49.6221 16.2255 47.8865C16.2255 46.9619 16.6487 46.1305 17.3223 45.5554C17.5948 45.3228 17.6883 44.915 17.4746 44.6274V44.6274C17.2953 44.386 16.9603 44.3144 16.7191 44.4942C15.6577 45.2856 14.9766 46.511 14.9766 47.8865C14.9766 50.273 17.0271 52.2077 19.5566 52.2077C22.0861 52.2077 24.1367 50.273 24.1367 47.8865C24.1367 46.4531 23.397 45.1827 22.2581 44.3966C22.0139 44.2281 21.6864 44.3076 21.5146 44.5494V44.5494Z" fill="#C4C4C4"/>
<rect x="18.7241" y="43.5652" width="1.2491" height="5.10689" rx="0.624552" fill="#C4C4C4"/>
<path d="M30.2787 47.1461L30.2994 47.6442C30.6287 47.2568 31.0728 47.0631 31.6317 47.0631C32.2598 47.0631 32.6873 47.3038 32.9142 47.7853C33.0636 47.5695 33.2573 47.3952 33.4952 47.2623C33.736 47.1295 34.0196 47.0631 34.3461 47.0631C35.3311 47.0631 35.8319 47.5847 35.8485 48.6278V51.6369H35.0807V48.6735C35.0807 48.3525 35.0074 48.1132 34.8607 47.9555C34.7141 47.795 34.4678 47.7147 34.1219 47.7147C33.837 47.7147 33.6004 47.8005 33.4122 47.9721C33.2241 48.1408 33.1148 48.3691 33.0843 48.6569V51.6369H32.3124V48.6942C32.3124 48.0412 31.9928 47.7147 31.3536 47.7147C30.8501 47.7147 30.5056 47.9292 30.3202 48.358V51.6369H29.5524V47.1461H30.2787ZM37.8448 51.6369H37.077V47.1461H37.8448V51.6369ZM37.0148 45.955C37.0148 45.8305 37.0521 45.7253 37.1268 45.6395C37.2043 45.5538 37.3177 45.5109 37.4672 45.5109C37.6166 45.5109 37.73 45.5538 37.8075 45.6395C37.885 45.7253 37.9237 45.8305 37.9237 45.955C37.9237 46.0795 37.885 46.1832 37.8075 46.2663C37.73 46.3493 37.6166 46.3908 37.4672 46.3908C37.3177 46.3908 37.2043 46.3493 37.1268 46.2663C37.0521 46.1832 37.0148 46.0795 37.0148 45.955ZM40.8788 51.0932C41.1527 51.0932 41.392 51.0101 41.5968 50.8441C41.8016 50.6781 41.915 50.4706 41.9371 50.2216H42.6635C42.6496 50.4789 42.5611 50.7238 42.3978 50.9562C42.2346 51.1886 42.016 51.374 41.7421 51.5123C41.4709 51.6507 41.1831 51.7199 40.8788 51.7199C40.2673 51.7199 39.7803 51.5165 39.4178 51.1098C39.0581 50.7003 38.8783 50.1413 38.8783 49.433V49.3043C38.8783 48.8672 38.9585 48.4784 39.119 48.1381C39.2795 47.7977 39.5092 47.5335 39.808 47.3454C40.1096 47.1572 40.4651 47.0631 40.8746 47.0631C41.3782 47.0631 41.796 47.2139 42.128 47.5155C42.4628 47.8171 42.6413 48.2086 42.6635 48.6901H41.9371C41.915 48.3996 41.8043 48.1616 41.6051 47.9762C41.4086 47.7881 41.1652 47.694 40.8746 47.694C40.4845 47.694 40.1815 47.8351 39.9657 48.1173C39.7526 48.3968 39.6461 48.8021 39.6461 49.3334V49.4787C39.6461 49.9961 39.7526 50.3945 39.9657 50.674C40.1787 50.9534 40.4831 51.0932 40.8788 51.0932ZM45.6974 47.8351C45.5812 47.8157 45.4553 47.806 45.3197 47.806C44.8161 47.806 44.4744 48.0205 44.2946 48.4494V51.6369H43.5267V47.1461H44.2738L44.2863 47.6649C44.538 47.2637 44.895 47.0631 45.3571 47.0631C45.5065 47.0631 45.6199 47.0825 45.6974 47.1212V47.8351ZM46.1207 49.35C46.1207 48.91 46.2065 48.5144 46.378 48.163C46.5524 47.8116 46.7931 47.5404 47.1002 47.3495C47.4101 47.1586 47.7629 47.0631 48.1586 47.0631C48.7701 47.0631 49.264 47.2748 49.6403 47.6981C50.0193 48.1215 50.2089 48.6845 50.2089 49.3873V49.4413C50.2089 49.8785 50.1245 50.2714 49.9557 50.62C49.7897 50.9659 49.5503 51.2357 49.2377 51.4293C48.9278 51.623 48.5708 51.7199 48.1669 51.7199C47.5581 51.7199 47.0642 51.5082 46.6852 51.0849C46.3089 50.6615 46.1207 50.1012 46.1207 49.4039V49.35ZM46.8927 49.4413C46.8927 49.9393 47.0075 50.3392 47.2372 50.6408C47.4696 50.9424 47.7795 51.0932 48.1669 51.0932C48.557 51.0932 48.8669 50.941 49.0966 50.6366C49.3262 50.3295 49.441 49.9006 49.441 49.35C49.441 48.8575 49.3234 48.459 49.0883 48.1547C48.8558 47.8475 48.5459 47.694 48.1586 47.694C47.7795 47.694 47.4738 47.8448 47.2413 48.1464C47.0089 48.448 46.8927 48.8796 46.8927 49.4413ZM53.7865 50.4457C53.7865 50.2382 53.7076 50.0777 53.5499 49.9642C53.395 49.848 53.1224 49.7484 52.7323 49.6654C52.3449 49.5824 52.0364 49.4828 51.8068 49.3666C51.5799 49.2504 51.4111 49.112 51.3004 48.9516C51.1925 48.7911 51.1385 48.6002 51.1385 48.3788C51.1385 48.0108 51.2935 47.6995 51.6034 47.445C51.9161 47.1904 52.3145 47.0631 52.7987 47.0631C53.3078 47.0631 53.7201 47.1946 54.0355 47.4574C54.3537 47.7203 54.5128 48.0565 54.5128 48.466H53.7408C53.7408 48.2557 53.6509 48.0744 53.4711 47.9223C53.294 47.7701 53.0699 47.694 52.7987 47.694C52.5192 47.694 52.3007 47.7549 52.1429 47.8766C51.9852 47.9983 51.9064 48.1574 51.9064 48.3539C51.9064 48.5393 51.9797 48.679 52.1263 48.7731C52.273 48.8672 52.5372 48.9571 52.9191 49.0429C53.3037 49.1286 53.6149 49.231 53.8529 49.35C54.0909 49.469 54.2666 49.6128 54.38 49.7816C54.4962 49.9476 54.5543 50.151 54.5543 50.3917C54.5543 50.7929 54.3938 51.1153 54.0729 51.3588C53.7519 51.5995 53.3355 51.7199 52.8236 51.7199C52.4639 51.7199 52.1457 51.6562 51.869 51.5289C51.5923 51.4017 51.3751 51.2246 51.2174 50.9977C51.0625 50.768 50.985 50.5204 50.985 50.2548H51.7528C51.7666 50.5121 51.869 50.7169 52.0599 50.869C52.2536 51.0184 52.5082 51.0932 52.8236 51.0932C53.1141 51.0932 53.3466 51.035 53.5209 50.9188C53.698 50.7999 53.7865 50.6421 53.7865 50.4457ZM57.4181 51.7199C56.8094 51.7199 56.3141 51.5206 55.9322 51.1222C55.5504 50.721 55.3595 50.1856 55.3595 49.516V49.3749C55.3595 48.9294 55.4439 48.5324 55.6127 48.1837C55.7842 47.8323 56.0222 47.5584 56.3265 47.362C56.6337 47.1627 56.9657 47.0631 57.3226 47.0631C57.9065 47.0631 58.3602 47.2554 58.684 47.64C59.0077 48.0246 59.1696 48.5753 59.1696 49.2919V49.6115H56.1273C56.1384 50.0542 56.267 50.4125 56.5133 50.6864C56.7623 50.9576 57.0778 51.0932 57.4596 51.0932C57.7308 51.0932 57.9604 51.0378 58.1486 50.9271C58.3367 50.8165 58.5013 50.6698 58.6425 50.4872L59.1114 50.8524C58.7351 51.4307 58.1707 51.7199 57.4181 51.7199ZM57.3226 47.694C57.0127 47.694 56.7526 47.8074 56.5424 48.0343C56.3321 48.2584 56.202 48.5739 56.1522 48.9806H58.4017V48.9225C58.3796 48.5324 58.2745 48.2308 58.0863 48.0177C57.8982 47.8019 57.6436 47.694 57.3226 47.694ZM62.2325 47.8351C62.1163 47.8157 61.9904 47.806 61.8549 47.806C61.3513 47.806 61.0096 48.0205 60.8297 48.4494V51.6369H60.0619V47.1461H60.809L60.8214 47.6649C61.0732 47.2637 61.4301 47.0631 61.8922 47.0631C62.0416 47.0631 62.1551 47.0825 62.2325 47.1212V47.8351ZM64.4987 50.5951L65.611 47.1461H66.3954L64.785 51.6369H64.1998L62.5729 47.1461H63.3573L64.4987 50.5951ZM67.9684 51.6369H67.2006V47.1461H67.9684V51.6369ZM67.1383 45.955C67.1383 45.8305 67.1757 45.7253 67.2504 45.6395C67.3278 45.5538 67.4413 45.5109 67.5907 45.5109C67.7401 45.5109 67.8536 45.5538 67.931 45.6395C68.0085 45.7253 68.0472 45.8305 68.0472 45.955C68.0472 46.0795 68.0085 46.1832 67.931 46.2663C67.8536 46.3493 67.7401 46.3908 67.5907 46.3908C67.4413 46.3908 67.3278 46.3493 67.2504 46.2663C67.1757 46.1832 67.1383 46.0795 67.1383 45.955ZM71.0023 51.0932C71.2762 51.0932 71.5156 51.0101 71.7203 50.8441C71.9251 50.6781 72.0385 50.4706 72.0607 50.2216H72.787C72.7732 50.4789 72.6846 50.7238 72.5214 50.9562C72.3581 51.1886 72.1395 51.374 71.8656 51.5123C71.5944 51.6507 71.3067 51.7199 71.0023 51.7199C70.3908 51.7199 69.9038 51.5165 69.5414 51.1098C69.1817 50.7003 69.0018 50.1413 69.0018 49.433V49.3043C69.0018 48.8672 69.0821 48.4784 69.2426 48.1381C69.403 47.7977 69.6327 47.5335 69.9315 47.3454C70.2331 47.1572 70.5887 47.0631 70.9982 47.0631C71.5017 47.0631 71.9196 47.2139 72.2516 47.5155C72.5864 47.8171 72.7649 48.2086 72.787 48.6901H72.0607C72.0385 48.3996 71.9279 48.1616 71.7286 47.9762C71.5322 47.7881 71.2887 47.694 70.9982 47.694C70.608 47.694 70.3051 47.8351 70.0892 48.1173C69.8762 48.3968 69.7697 48.8021 69.7697 49.3334V49.4787C69.7697 49.9961 69.8762 50.3945 70.0892 50.674C70.3023 50.9534 70.6066 51.0932 71.0023 51.0932ZM75.5138 51.7199C74.9051 51.7199 74.4098 51.5206 74.028 51.1222C73.6461 50.721 73.4552 50.1856 73.4552 49.516V49.3749C73.4552 48.9294 73.5396 48.5324 73.7084 48.1837C73.8799 47.8323 74.1179 47.5584 74.4222 47.362C74.7294 47.1627 75.0614 47.0631 75.4183 47.0631C76.0022 47.0631 76.4559 47.2554 76.7797 47.64C77.1034 48.0246 77.2653 48.5753 77.2653 49.2919V49.6115H74.223C74.2341 50.0542 74.3628 50.4125 74.609 50.6864C74.858 50.9576 75.1735 51.0932 75.5553 51.0932C75.8265 51.0932 76.0561 51.0378 76.2443 50.9271C76.4324 50.8165 76.597 50.6698 76.7382 50.4872L77.2072 50.8524C76.8309 51.4307 76.2664 51.7199 75.5138 51.7199ZM75.4183 47.694C75.1084 47.694 74.8483 47.8074 74.6381 48.0343C74.4278 48.2584 74.2977 48.5739 74.2479 48.9806H76.4974V48.9225C76.4753 48.5324 76.3702 48.2308 76.182 48.0177C75.9939 47.8019 75.7393 47.694 75.4183 47.694Z" fill="black"/>
<path d="M9.52148 16H8.10547V8.5H9.52148V16ZM13.75 16C13.6849 15.873 13.6377 15.7152 13.6084 15.5264C13.2666 15.9072 12.8223 16.0977 12.2754 16.0977C11.7578 16.0977 11.3281 15.9479 10.9863 15.6484C10.6478 15.349 10.4785 14.9714 10.4785 14.5156C10.4785 13.9557 10.6852 13.526 11.0986 13.2266C11.5153 12.9271 12.1159 12.7757 12.9004 12.7725H13.5498V12.4697C13.5498 12.2256 13.4863 12.0303 13.3594 11.8838C13.2357 11.7373 13.0387 11.6641 12.7686 11.6641C12.5309 11.6641 12.3438 11.721 12.207 11.835C12.0736 11.9489 12.0068 12.1051 12.0068 12.3037H10.5957C10.5957 11.9977 10.6901 11.7145 10.8789 11.4541C11.0677 11.1937 11.3346 10.9902 11.6797 10.8438C12.0247 10.694 12.4121 10.6191 12.8418 10.6191C13.4928 10.6191 14.0088 10.7835 14.3896 11.1123C14.7738 11.4378 14.9658 11.8968 14.9658 12.4893V14.7793C14.9691 15.2806 15.0391 15.6598 15.1758 15.917V16H13.75ZM12.583 15.0186C12.7913 15.0186 12.9834 14.973 13.1592 14.8818C13.335 14.7874 13.4652 14.6621 13.5498 14.5059V13.5977H13.0225C12.3161 13.5977 11.9401 13.8418 11.8945 14.3301L11.8896 14.4131C11.8896 14.5889 11.9515 14.7337 12.0752 14.8477C12.1989 14.9616 12.3682 15.0186 12.583 15.0186ZM20.8105 13.4072C20.8105 14.2536 20.6299 14.9144 20.2686 15.3896C19.9072 15.8617 19.4027 16.0977 18.7549 16.0977C18.182 16.0977 17.7246 15.8779 17.3828 15.4385L17.3193 16H16.0498V8.5H17.4609V11.1904C17.7865 10.8096 18.2145 10.6191 18.7451 10.6191C19.3896 10.6191 19.8942 10.8568 20.2588 11.332C20.6266 11.804 20.8105 12.4697 20.8105 13.3291V13.4072ZM19.3994 13.3047C19.3994 12.7708 19.3148 12.3818 19.1455 12.1377C18.9762 11.8903 18.724 11.7666 18.3887 11.7666C17.9395 11.7666 17.6302 11.9505 17.4609 12.3184V14.4033C17.6335 14.7744 17.946 14.96 18.3984 14.96C18.8542 14.96 19.1536 14.7354 19.2969 14.2861C19.3652 14.0713 19.3994 13.7441 19.3994 13.3047ZM24.1162 16.0977C23.3415 16.0977 22.71 15.86 22.2217 15.3848C21.7367 14.9095 21.4941 14.2764 21.4941 13.4854V13.3486C21.4941 12.818 21.5967 12.3444 21.8018 11.9277C22.0068 11.5078 22.2965 11.1855 22.6709 10.9609C23.0485 10.7331 23.4782 10.6191 23.96 10.6191C24.6826 10.6191 25.2507 10.847 25.6641 11.3027C26.0807 11.7585 26.2891 12.4046 26.2891 13.2412V13.8174H22.9248C22.9704 14.1624 23.1071 14.4391 23.335 14.6475C23.5661 14.8558 23.8574 14.96 24.209 14.96C24.7526 14.96 25.1774 14.763 25.4834 14.3691L26.1768 15.1455C25.9652 15.445 25.6787 15.6794 25.3174 15.8486C24.9561 16.0146 24.5557 16.0977 24.1162 16.0977ZM23.9551 11.7617C23.6751 11.7617 23.4473 11.8561 23.2715 12.0449C23.099 12.2337 22.9883 12.5039 22.9395 12.8555H24.9023V12.7432C24.8958 12.4307 24.8112 12.1898 24.6484 12.0205C24.4857 11.848 24.2546 11.7617 23.9551 11.7617ZM28.584 16H27.168V8.5H28.584V16ZM32.6123 14.54C32.6123 14.3675 32.526 14.2324 32.3535 14.1348C32.1842 14.0339 31.9108 13.9443 31.5332 13.8662C30.2767 13.6025 29.6484 13.0687 29.6484 12.2646C29.6484 11.7959 29.8421 11.4053 30.2295 11.0928C30.6201 10.777 31.1296 10.6191 31.7578 10.6191C32.4284 10.6191 32.9639 10.777 33.3643 11.0928C33.7679 11.4085 33.9697 11.8187 33.9697 12.3232H32.5586C32.5586 12.1214 32.4935 11.9554 32.3633 11.8252C32.2331 11.6917 32.0296 11.625 31.7529 11.625C31.5153 11.625 31.3314 11.6787 31.2012 11.7861C31.071 11.8936 31.0059 12.0303 31.0059 12.1963C31.0059 12.3525 31.0791 12.4795 31.2256 12.5771C31.3753 12.6715 31.626 12.7546 31.9775 12.8262C32.3291 12.8945 32.6253 12.9727 32.8662 13.0605C33.6117 13.334 33.9844 13.8076 33.9844 14.4814C33.9844 14.9632 33.7777 15.3538 33.3643 15.6533C32.9508 15.9495 32.417 16.0977 31.7627 16.0977C31.32 16.0977 30.9261 16.0195 30.5811 15.8633C30.2393 15.7038 29.9707 15.4873 29.7754 15.2139C29.5801 14.9372 29.4824 14.6393 29.4824 14.3203H30.8203C30.8333 14.571 30.9261 14.763 31.0986 14.8965C31.2712 15.0299 31.5023 15.0967 31.792 15.0967C32.0622 15.0967 32.2656 15.0462 32.4023 14.9453C32.5423 14.8411 32.6123 14.7061 32.6123 14.54ZM34.9658 15.3066C34.9658 15.082 35.0407 14.8997 35.1904 14.7598C35.3434 14.6198 35.5339 14.5498 35.7617 14.5498C35.9928 14.5498 36.1833 14.6198 36.333 14.7598C36.486 14.8997 36.5625 15.082 36.5625 15.3066C36.5625 15.528 36.4876 15.7087 36.3379 15.8486C36.1882 15.9854 35.9961 16.0537 35.7617 16.0537C35.5306 16.0537 35.3402 15.9854 35.1904 15.8486C35.0407 15.7087 34.9658 15.528 34.9658 15.3066ZM34.9658 11.3076C34.9658 11.083 35.0407 10.9007 35.1904 10.7607C35.3434 10.6208 35.5339 10.5508 35.7617 10.5508C35.9928 10.5508 36.1833 10.6208 36.333 10.7607C36.486 10.9007 36.5625 11.083 36.5625 11.3076C36.5625 11.529 36.4876 11.7096 36.3379 11.8496C36.1882 11.9863 35.9961 12.0547 35.7617 12.0547C35.5306 12.0547 35.3402 11.9863 35.1904 11.8496C35.0407 11.7096 34.9658 11.529 34.9658 11.3076ZM16.0742 27C16.0091 26.873 15.9619 26.7152 15.9326 26.5264C15.5908 26.9072 15.1465 27.0977 14.5996 27.0977C14.082 27.0977 13.6523 26.9479 13.3105 26.6484C12.972 26.349 12.8027 25.9714 12.8027 25.5156C12.8027 24.9557 13.0094 24.526 13.4229 24.2266C13.8395 23.9271 14.4401 23.7757 15.2246 23.7725H15.874V23.4697C15.874 23.2256 15.8105 23.0303 15.6836 22.8838C15.5599 22.7373 15.363 22.6641 15.0928 22.6641C14.8551 22.6641 14.668 22.721 14.5312 22.835C14.3978 22.9489 14.3311 23.1051 14.3311 23.3037H12.9199C12.9199 22.9977 13.0143 22.7145 13.2031 22.4541C13.3919 22.1937 13.6589 21.9902 14.0039 21.8438C14.349 21.694 14.7363 21.6191 15.166 21.6191C15.8171 21.6191 16.333 21.7835 16.7139 22.1123C17.098 22.4378 17.29 22.8968 17.29 23.4893V25.7793C17.2933 26.2806 17.3633 26.6598 17.5 26.917V27H16.0742ZM14.9072 26.0186C15.1156 26.0186 15.3076 25.973 15.4834 25.8818C15.6592 25.7874 15.7894 25.6621 15.874 25.5059V24.5977H15.3467C14.6403 24.5977 14.2643 24.8418 14.2188 25.3301L14.2139 25.4131C14.2139 25.5889 14.2757 25.7337 14.3994 25.8477C14.5231 25.9616 14.6924 26.0186 14.9072 26.0186ZM23.1299 24.4072C23.1299 25.221 22.9443 25.8737 22.5732 26.3652C22.2054 26.8535 21.7074 27.0977 21.0791 27.0977C20.5452 27.0977 20.1139 26.9121 19.7852 26.541V29.0312H18.374V21.7168H19.6826L19.7314 22.2344C20.0732 21.8242 20.5192 21.6191 21.0693 21.6191C21.7204 21.6191 22.2266 21.86 22.5879 22.3418C22.9492 22.8236 23.1299 23.4876 23.1299 24.334V24.4072ZM21.7188 24.3047C21.7188 23.8132 21.6309 23.4339 21.4551 23.167C21.2826 22.9001 21.0303 22.7666 20.6982 22.7666C20.2555 22.7666 19.9512 22.9359 19.7852 23.2744V25.4375C19.9577 25.7858 20.2653 25.96 20.708 25.96C21.3818 25.96 21.7188 25.4082 21.7188 24.3047ZM28.7646 24.4072C28.7646 25.221 28.5791 25.8737 28.208 26.3652C27.8402 26.8535 27.3421 27.0977 26.7139 27.0977C26.18 27.0977 25.7487 26.9121 25.4199 26.541V29.0312H24.0088V21.7168H25.3174L25.3662 22.2344C25.708 21.8242 26.154 21.6191 26.7041 21.6191C27.3551 21.6191 27.8613 21.86 28.2227 22.3418C28.584 22.8236 28.7646 23.4876 28.7646 24.334V24.4072ZM27.3535 24.3047C27.3535 23.8132 27.2656 23.4339 27.0898 23.167C26.9173 22.9001 26.665 22.7666 26.333 22.7666C25.8903 22.7666 25.5859 22.9359 25.4199 23.2744V25.4375C25.5924 25.7858 25.9001 25.96 26.3428 25.96C27.0166 25.96 27.3535 25.4082 27.3535 24.3047ZM29.7119 26.3066C29.7119 26.082 29.7868 25.8997 29.9365 25.7598C30.0895 25.6198 30.2799 25.5498 30.5078 25.5498C30.7389 25.5498 30.9294 25.6198 31.0791 25.7598C31.2321 25.8997 31.3086 26.082 31.3086 26.3066C31.3086 26.528 31.2337 26.7087 31.084 26.8486C30.9342 26.9854 30.7422 27.0537 30.5078 27.0537C30.2767 27.0537 30.0863 26.9854 29.9365 26.8486C29.7868 26.7087 29.7119 26.528 29.7119 26.3066ZM29.7119 22.3076C29.7119 22.083 29.7868 21.9007 29.9365 21.7607C30.0895 21.6208 30.2799 21.5508 30.5078 21.5508C30.7389 21.5508 30.9294 21.6208 31.0791 21.7607C31.2321 21.9007 31.3086 22.083 31.3086 22.3076C31.3086 22.529 31.2337 22.7096 31.084 22.8496C30.9342 22.9863 30.7422 23.0547 30.5078 23.0547C30.2767 23.0547 30.0863 22.9863 29.9365 22.8496C29.7868 22.7096 29.7119 22.529 29.7119 22.3076ZM38.0176 27C37.9525 26.873 37.9053 26.7152 37.876 26.5264C37.5342 26.9072 37.0898 27.0977 36.543 27.0977C36.0254 27.0977 35.5957 26.9479 35.2539 26.6484C34.9154 26.349 34.7461 25.9714 34.7461 25.5156C34.7461 24.9557 34.9528 24.526 35.3662 24.2266C35.7829 23.9271 36.3835 23.7757 37.168 23.7725H37.8174V23.4697C37.8174 23.2256 37.7539 23.0303 37.627 22.8838C37.5033 22.7373 37.3063 22.6641 37.0361 22.6641C36.7985 22.6641 36.6113 22.721 36.4746 22.835C36.3411 22.9489 36.2744 23.1051 36.2744 23.3037H34.8633C34.8633 22.9977 34.9577 22.7145 35.1465 22.4541C35.3353 22.1937 35.6022 21.9902 35.9473 21.8438C36.2923 21.694 36.6797 21.6191 37.1094 21.6191C37.7604 21.6191 38.2764 21.7835 38.6572 22.1123C39.0413 22.4378 39.2334 22.8968 39.2334 23.4893V25.7793C39.2367 26.2806 39.3066 26.6598 39.4434 26.917V27H38.0176ZM36.8506 26.0186C37.0589 26.0186 37.251 25.973 37.4268 25.8818C37.6025 25.7874 37.7327 25.6621 37.8174 25.5059V24.5977H37.29C36.5837 24.5977 36.2077 24.8418 36.1621 25.3301L36.1572 25.4131C36.1572 25.5889 36.2191 25.7337 36.3428 25.8477C36.4665 25.9616 36.6357 26.0186 36.8506 26.0186ZM45.0732 24.4072C45.0732 25.221 44.8877 25.8737 44.5166 26.3652C44.1488 26.8535 43.6507 27.0977 43.0225 27.0977C42.4886 27.0977 42.0573 26.9121 41.7285 26.541V29.0312H40.3174V21.7168H41.626L41.6748 22.2344C42.0166 21.8242 42.4626 21.6191 43.0127 21.6191C43.6637 21.6191 44.1699 21.86 44.5312 22.3418C44.8926 22.8236 45.0732 23.4876 45.0732 24.334V24.4072ZM43.6621 24.3047C43.6621 23.8132 43.5742 23.4339 43.3984 23.167C43.2259 22.9001 42.9736 22.7666 42.6416 22.7666C42.1989 22.7666 41.8945 22.9359 41.7285 23.2744V25.4375C41.901 25.7858 42.2087 25.96 42.6514 25.96C43.3252 25.96 43.6621 25.4082 43.6621 24.3047ZM47.4414 27H46.0254V21.7168H47.4414V27ZM45.9424 20.3496C45.9424 20.138 46.0124 19.9639 46.1523 19.8271C46.2956 19.6904 46.4893 19.6221 46.7334 19.6221C46.9743 19.6221 47.1663 19.6904 47.3096 19.8271C47.4528 19.9639 47.5244 20.138 47.5244 20.3496C47.5244 20.5645 47.4512 20.7402 47.3047 20.877C47.1615 21.0137 46.971 21.082 46.7334 21.082C46.4958 21.082 46.3037 21.0137 46.1572 20.877C46.014 20.7402 45.9424 20.5645 45.9424 20.3496ZM51.3525 24.5244H48.6035V23.3867H51.3525V24.5244ZM57.2412 24.4072C57.2412 25.221 57.0557 25.8737 56.6846 26.3652C56.3167 26.8535 55.8187 27.0977 55.1904 27.0977C54.6566 27.0977 54.2253 26.9121 53.8965 26.541V29.0312H52.4854V21.7168H53.7939L53.8428 22.2344C54.1846 21.8242 54.6305 21.6191 55.1807 21.6191C55.8317 21.6191 56.3379 21.86 56.6992 22.3418C57.0605 22.8236 57.2412 23.4876 57.2412 24.334V24.4072ZM55.8301 24.3047C55.8301 23.8132 55.7422 23.4339 55.5664 23.167C55.3939 22.9001 55.1416 22.7666 54.8096 22.7666C54.3669 22.7666 54.0625 22.9359 53.8965 23.2744V25.4375C54.069 25.7858 54.3766 25.96 54.8193 25.96C55.4932 25.96 55.8301 25.4082 55.8301 24.3047ZM61.0889 23.04C60.8968 23.014 60.7275 23.001 60.5811 23.001C60.0472 23.001 59.6973 23.1816 59.5312 23.543V27H58.1201V21.7168H59.4531L59.4922 22.3467C59.7754 21.8617 60.1676 21.6191 60.6689 21.6191C60.8252 21.6191 60.9717 21.6403 61.1084 21.6826L61.0889 23.04ZM61.377 24.3096C61.377 23.7855 61.4779 23.3184 61.6797 22.9082C61.8815 22.498 62.1712 22.1807 62.5488 21.9561C62.9297 21.7314 63.3708 21.6191 63.8721 21.6191C64.585 21.6191 65.166 21.8372 65.6152 22.2734C66.0677 22.7096 66.32 23.3021 66.3721 24.0508L66.3818 24.4121C66.3818 25.2227 66.1556 25.8737 65.7031 26.3652C65.2507 26.8535 64.6436 27.0977 63.8818 27.0977C63.1201 27.0977 62.5114 26.8535 62.0557 26.3652C61.6032 25.877 61.377 25.2129 61.377 24.373V24.3096ZM62.7881 24.4121C62.7881 24.9134 62.8825 25.2975 63.0713 25.5645C63.2601 25.8281 63.5303 25.96 63.8818 25.96C64.2236 25.96 64.4906 25.8298 64.6826 25.5693C64.8747 25.3057 64.9707 24.8857 64.9707 24.3096C64.9707 23.818 64.8747 23.4372 64.6826 23.167C64.4906 22.8968 64.2204 22.7617 63.8721 22.7617C63.527 22.7617 63.2601 22.8968 63.0713 23.167C62.8825 23.4339 62.7881 23.849 62.7881 24.4121ZM67.0312 24.3193C67.0312 23.4958 67.2152 22.8398 67.583 22.3516C67.9541 21.8633 68.4603 21.6191 69.1016 21.6191C69.6159 21.6191 70.0407 21.8112 70.376 22.1953V19.5H71.792V27H70.5176L70.4492 26.4385C70.0977 26.8779 69.6452 27.0977 69.0918 27.0977C68.4701 27.0977 67.9704 26.8535 67.5928 26.3652C67.2184 25.8737 67.0312 25.1917 67.0312 24.3193ZM68.4424 24.4219C68.4424 24.9167 68.5286 25.2959 68.7012 25.5596C68.8737 25.8232 69.1243 25.9551 69.4531 25.9551C69.8893 25.9551 70.1969 25.7712 70.376 25.4033V23.3184C70.2002 22.9505 69.8958 22.7666 69.4629 22.7666C68.7826 22.7666 68.4424 23.3184 68.4424 24.4219ZM76.0498 26.4629C75.7015 26.8861 75.2197 27.0977 74.6045 27.0977C74.0381 27.0977 73.6051 26.9349 73.3057 26.6094C73.0094 26.2839 72.8581 25.807 72.8516 25.1787V21.7168H74.2627V25.1299C74.2627 25.68 74.5133 25.9551 75.0146 25.9551C75.4932 25.9551 75.8219 25.7891 76.001 25.457V21.7168H77.417V27H76.0889L76.0498 26.4629ZM80.6787 25.96C80.9391 25.96 81.1507 25.8883 81.3135 25.7451C81.4762 25.6019 81.5609 25.4115 81.5674 25.1738H82.8906C82.8874 25.5319 82.7897 25.8607 82.5977 26.1602C82.4056 26.4564 82.1419 26.6875 81.8066 26.8535C81.4746 27.0163 81.1068 27.0977 80.7031 27.0977C79.9479 27.0977 79.3522 26.8584 78.916 26.3799C78.4798 25.8981 78.2617 25.234 78.2617 24.3877V24.2949C78.2617 23.4811 78.4782 22.8317 78.9111 22.3467C79.3441 21.8617 79.9382 21.6191 80.6934 21.6191C81.3542 21.6191 81.8831 21.8079 82.2803 22.1855C82.6807 22.5599 82.8841 23.0596 82.8906 23.6846H81.5674C81.5609 23.4111 81.4762 23.1898 81.3135 23.0205C81.1507 22.848 80.9359 22.7617 80.6689 22.7617C80.3402 22.7617 80.0911 22.8822 79.9219 23.123C79.7559 23.3607 79.6729 23.748 79.6729 24.2852V24.4316C79.6729 24.9753 79.7559 25.3659 79.9219 25.6035C80.0879 25.8411 80.3402 25.96 80.6787 25.96ZM85.3857 20.418V21.7168H86.2891V22.752H85.3857V25.3887C85.3857 25.584 85.4232 25.724 85.498 25.8086C85.5729 25.8932 85.7161 25.9355 85.9277 25.9355C86.084 25.9355 86.2223 25.9242 86.3428 25.9014V26.9707C86.0661 27.0553 85.7812 27.0977 85.4883 27.0977C84.4987 27.0977 83.9941 26.598 83.9746 25.5986V22.752H83.2031V21.7168H83.9746V20.418H85.3857Z" fill="black"/>
</g>
<g filter="url(#filter1_d)">
<rect x="102" y="1" width="84" height="68" rx="11" fill="#EE6E60"/>
<rect x="106.731" y="40.6369" width="74.5377" height="18.4634" rx="5" fill="#F1F1F1"/>
<path d="M119.025 42.9939H116.056C114.364 42.9939 112.786 43.8501 111.864 45.2691L111.012 46.5792C109.929 48.2457 109.936 50.3957 111.03 52.0553L111.861 53.3161C112.786 54.7198 114.355 55.5647 116.036 55.5647H119.045C120.716 55.5647 122.277 54.7297 123.205 53.3394L124.046 52.0784C125.16 50.4081 125.167 48.2332 124.063 46.5558L123.202 45.2459C122.277 43.8402 120.707 42.9939 119.025 42.9939Z" fill="#68BD45"/>
<path fill-rule="evenodd" clip-rule="evenodd" d="M119.515 45.5494C119.305 45.8437 119.412 46.2532 119.695 46.4772C120.424 47.0536 120.887 47.919 120.887 48.8865C120.887 50.6221 119.396 52.0292 117.556 52.0292C115.717 52.0292 114.225 50.6221 114.225 48.8865C114.225 47.9619 114.649 47.1305 115.322 46.5554C115.595 46.3228 115.688 45.915 115.475 45.6274V45.6274C115.295 45.386 114.96 45.3144 114.719 45.4942C113.658 46.2856 112.977 47.511 112.977 48.8865C112.977 51.273 115.027 53.2077 117.557 53.2077C120.086 53.2077 122.137 51.273 122.137 48.8865C122.137 47.4531 121.397 46.1827 120.258 45.3966C120.014 45.2281 119.686 45.3076 119.515 45.5494V45.5494Z" fill="#C4C4C4"/>
<rect x="116.724" y="44.5652" width="1.2491" height="5.10689" rx="0.624552" fill="#C4C4C4"/>
<path d="M128.279 48.1461L128.299 48.6442C128.629 48.2568 129.073 48.0631 129.632 48.0631C130.26 48.0631 130.687 48.3038 130.914 48.7853C131.064 48.5695 131.257 48.3952 131.495 48.2623C131.736 48.1295 132.02 48.0631 132.346 48.0631C133.331 48.0631 133.832 48.5847 133.849 49.6278V52.6369H133.081V49.6735C133.081 49.3525 133.007 49.1132 132.861 48.9555C132.714 48.795 132.468 48.7147 132.122 48.7147C131.837 48.7147 131.6 48.8005 131.412 48.9721C131.224 49.1408 131.115 49.3691 131.084 49.6569V52.6369H130.312V49.6942C130.312 49.0412 129.993 48.7147 129.354 48.7147C128.85 48.7147 128.506 48.9292 128.32 49.358V52.6369H127.552V48.1461H128.279ZM135.845 52.6369H135.077V48.1461H135.845V52.6369ZM135.015 46.955C135.015 46.8305 135.052 46.7253 135.127 46.6395C135.204 46.5538 135.318 46.5109 135.467 46.5109C135.617 46.5109 135.73 46.5538 135.807 46.6395C135.885 46.7253 135.924 46.8305 135.924 46.955C135.924 47.0795 135.885 47.1832 135.807 47.2663C135.73 47.3493 135.617 47.3908 135.467 47.3908C135.318 47.3908 135.204 47.3493 135.127 47.2663C135.052 47.1832 135.015 47.0795 135.015 46.955ZM138.879 52.0932C139.153 52.0932 139.392 52.0101 139.597 51.8441C139.802 51.6781 139.915 51.4706 139.937 51.2216H140.663C140.65 51.4789 140.561 51.7238 140.398 51.9562C140.235 52.1886 140.016 52.374 139.742 52.5123C139.471 52.6507 139.183 52.7199 138.879 52.7199C138.267 52.7199 137.78 52.5165 137.418 52.1098C137.058 51.7003 136.878 51.1413 136.878 50.433V50.3043C136.878 49.8672 136.959 49.4784 137.119 49.1381C137.279 48.7977 137.509 48.5335 137.808 48.3454C138.11 48.1572 138.465 48.0631 138.875 48.0631C139.378 48.0631 139.796 48.2139 140.128 48.5155C140.463 48.8171 140.641 49.2086 140.663 49.6901H139.937C139.915 49.3996 139.804 49.1616 139.605 48.9762C139.409 48.7881 139.165 48.694 138.875 48.694C138.484 48.694 138.182 48.8351 137.966 49.1173C137.753 49.3968 137.646 49.8021 137.646 50.3334V50.4787C137.646 50.9961 137.753 51.3945 137.966 51.674C138.179 51.9534 138.483 52.0932 138.879 52.0932ZM143.697 48.8351C143.581 48.8157 143.455 48.806 143.32 48.806C142.816 48.806 142.474 49.0205 142.295 49.4494V52.6369H141.527V48.1461H142.274L142.286 48.6649C142.538 48.2637 142.895 48.0631 143.357 48.0631C143.506 48.0631 143.62 48.0825 143.697 48.1212V48.8351ZM144.121 50.35C144.121 49.91 144.207 49.5144 144.378 49.163C144.552 48.8116 144.793 48.5404 145.1 48.3495C145.41 48.1586 145.763 48.0631 146.159 48.0631C146.77 48.0631 147.264 48.2748 147.64 48.6981C148.019 49.1215 148.209 49.6845 148.209 50.3873V50.4413C148.209 50.8785 148.124 51.2714 147.956 51.62C147.79 51.9659 147.55 52.2357 147.238 52.4293C146.928 52.623 146.571 52.7199 146.167 52.7199C145.558 52.7199 145.064 52.5082 144.685 52.0849C144.309 51.6615 144.121 51.1012 144.121 50.4039V50.35ZM144.893 50.4413C144.893 50.9393 145.008 51.3392 145.237 51.6408C145.47 51.9424 145.779 52.0932 146.167 52.0932C146.557 52.0932 146.867 51.941 147.097 51.6366C147.326 51.3295 147.441 50.9006 147.441 50.35C147.441 49.8575 147.323 49.459 147.088 49.1547C146.856 48.8475 146.546 48.694 146.159 48.694C145.779 48.694 145.474 48.8448 145.241 49.1464C145.009 49.448 144.893 49.8796 144.893 50.4413ZM151.786 51.4457C151.786 51.2382 151.708 51.0777 151.55 50.9642C151.395 50.848 151.122 50.7484 150.732 50.6654C150.345 50.5824 150.036 50.4828 149.807 50.3666C149.58 50.2504 149.411 50.112 149.3 49.9516C149.193 49.7911 149.139 49.6002 149.139 49.3788C149.139 49.0108 149.293 48.6995 149.603 48.445C149.916 48.1904 150.314 48.0631 150.799 48.0631C151.308 48.0631 151.72 48.1946 152.036 48.4574C152.354 48.7203 152.513 49.0565 152.513 49.466H151.741C151.741 49.2557 151.651 49.0744 151.471 48.9223C151.294 48.7701 151.07 48.694 150.799 48.694C150.519 48.694 150.301 48.7549 150.143 48.8766C149.985 48.9983 149.906 49.1574 149.906 49.3539C149.906 49.5393 149.98 49.679 150.126 49.7731C150.273 49.8672 150.537 49.9571 150.919 50.0429C151.304 50.1286 151.615 50.231 151.853 50.35C152.091 50.469 152.267 50.6128 152.38 50.7816C152.496 50.9476 152.554 51.151 152.554 51.3917C152.554 51.7929 152.394 52.1153 152.073 52.3588C151.752 52.5995 151.335 52.7199 150.824 52.7199C150.464 52.7199 150.146 52.6562 149.869 52.5289C149.592 52.4017 149.375 52.2246 149.217 51.9977C149.062 51.768 148.985 51.5204 148.985 51.2548H149.753C149.767 51.5121 149.869 51.7169 150.06 51.869C150.254 52.0184 150.508 52.0932 150.824 52.0932C151.114 52.0932 151.347 52.035 151.521 51.9188C151.698 51.7999 151.786 51.6421 151.786 51.4457ZM155.418 52.7199C154.809 52.7199 154.314 52.5206 153.932 52.1222C153.55 51.721 153.359 51.1856 153.359 50.516V50.3749C153.359 49.9294 153.444 49.5324 153.613 49.1837C153.784 48.8323 154.022 48.5584 154.327 48.362C154.634 48.1627 154.966 48.0631 155.323 48.0631C155.906 48.0631 156.36 48.2554 156.684 48.64C157.008 49.0246 157.17 49.5753 157.17 50.2919V50.6115H154.127C154.138 51.0542 154.267 51.4125 154.513 51.6864C154.762 51.9576 155.078 52.0932 155.46 52.0932C155.731 52.0932 155.96 52.0378 156.149 51.9271C156.337 51.8165 156.501 51.6698 156.642 51.4872L157.111 51.8524C156.735 52.4307 156.171 52.7199 155.418 52.7199ZM155.323 48.694C155.013 48.694 154.753 48.8074 154.542 49.0343C154.332 49.2584 154.202 49.5739 154.152 49.9806H156.402V49.9225C156.38 49.5324 156.274 49.2308 156.086 49.0177C155.898 48.8019 155.644 48.694 155.323 48.694ZM160.233 48.8351C160.116 48.8157 159.99 48.806 159.855 48.806C159.351 48.806 159.01 49.0205 158.83 49.4494V52.6369H158.062V48.1461H158.809L158.821 48.6649C159.073 48.2637 159.43 48.0631 159.892 48.0631C160.042 48.0631 160.155 48.0825 160.233 48.1212V48.8351ZM162.499 51.5951L163.611 48.1461H164.395L162.785 52.6369H162.2L160.573 48.1461H161.357L162.499 51.5951ZM165.968 52.6369H165.201V48.1461H165.968V52.6369ZM165.138 46.955C165.138 46.8305 165.176 46.7253 165.25 46.6395C165.328 46.5538 165.441 46.5109 165.591 46.5109C165.74 46.5109 165.854 46.5538 165.931 46.6395C166.009 46.7253 166.047 46.8305 166.047 46.955C166.047 47.0795 166.009 47.1832 165.931 47.2663C165.854 47.3493 165.74 47.3908 165.591 47.3908C165.441 47.3908 165.328 47.3493 165.25 47.2663C165.176 47.1832 165.138 47.0795 165.138 46.955ZM169.002 52.0932C169.276 52.0932 169.516 52.0101 169.72 51.8441C169.925 51.6781 170.039 51.4706 170.061 51.2216H170.787C170.773 51.4789 170.685 51.7238 170.521 51.9562C170.358 52.1886 170.14 52.374 169.866 52.5123C169.594 52.6507 169.307 52.7199 169.002 52.7199C168.391 52.7199 167.904 52.5165 167.541 52.1098C167.182 51.7003 167.002 51.1413 167.002 50.433V50.3043C167.002 49.8672 167.082 49.4784 167.243 49.1381C167.403 48.7977 167.633 48.5335 167.932 48.3454C168.233 48.1572 168.589 48.0631 168.998 48.0631C169.502 48.0631 169.92 48.2139 170.252 48.5155C170.586 48.8171 170.765 49.2086 170.787 49.6901H170.061C170.039 49.3996 169.928 49.1616 169.729 48.9762C169.532 48.7881 169.289 48.694 168.998 48.694C168.608 48.694 168.305 48.8351 168.089 49.1173C167.876 49.3968 167.77 49.8021 167.77 50.3334V50.4787C167.77 50.9961 167.876 51.3945 168.089 51.674C168.302 51.9534 168.607 52.0932 169.002 52.0932ZM173.514 52.7199C172.905 52.7199 172.41 52.5206 172.028 52.1222C171.646 51.721 171.455 51.1856 171.455 50.516V50.3749C171.455 49.9294 171.54 49.5324 171.708 49.1837C171.88 48.8323 172.118 48.5584 172.422 48.362C172.729 48.1627 173.061 48.0631 173.418 48.0631C174.002 48.0631 174.456 48.2554 174.78 48.64C175.103 49.0246 175.265 49.5753 175.265 50.2919V50.6115H172.223C172.234 51.0542 172.363 51.4125 172.609 51.6864C172.858 51.9576 173.173 52.0932 173.555 52.0932C173.826 52.0932 174.056 52.0378 174.244 51.9271C174.432 51.8165 174.597 51.6698 174.738 51.4872L175.207 51.8524C174.831 52.4307 174.266 52.7199 173.514 52.7199ZM173.418 48.694C173.108 48.694 172.848 48.8074 172.638 49.0343C172.428 49.2584 172.298 49.5739 172.248 49.9806H174.497V49.9225C174.475 49.5324 174.37 49.2308 174.182 49.0177C173.994 48.8019 173.739 48.694 173.418 48.694Z" fill="black"/>
<path d="M107.521 17H106.105V9.5H107.521V17ZM111.75 17C111.685 16.873 111.638 16.7152 111.608 16.5264C111.267 16.9072 110.822 17.0977 110.275 17.0977C109.758 17.0977 109.328 16.9479 108.986 16.6484C108.648 16.349 108.479 15.9714 108.479 15.5156C108.479 14.9557 108.685 14.526 109.099 14.2266C109.515 13.9271 110.116 13.7757 110.9 13.7725H111.55V13.4697C111.55 13.2256 111.486 13.0303 111.359 12.8838C111.236 12.7373 111.039 12.6641 110.769 12.6641C110.531 12.6641 110.344 12.721 110.207 12.835C110.074 12.9489 110.007 13.1051 110.007 13.3037H108.596C108.596 12.9977 108.69 12.7145 108.879 12.4541C109.068 12.1937 109.335 11.9902 109.68 11.8438C110.025 11.694 110.412 11.6191 110.842 11.6191C111.493 11.6191 112.009 11.7835 112.39 12.1123C112.774 12.4378 112.966 12.8968 112.966 13.4893V15.7793C112.969 16.2806 113.039 16.6598 113.176 16.917V17H111.75ZM110.583 16.0186C110.791 16.0186 110.983 15.973 111.159 15.8818C111.335 15.7874 111.465 15.6621 111.55 15.5059V14.5977H111.022C110.316 14.5977 109.94 14.8418 109.895 15.3301L109.89 15.4131C109.89 15.5889 109.951 15.7337 110.075 15.8477C110.199 15.9616 110.368 16.0186 110.583 16.0186ZM118.811 14.4072C118.811 15.2536 118.63 15.9144 118.269 16.3896C117.907 16.8617 117.403 17.0977 116.755 17.0977C116.182 17.0977 115.725 16.8779 115.383 16.4385L115.319 17H114.05V9.5H115.461V12.1904C115.786 11.8096 116.215 11.6191 116.745 11.6191C117.39 11.6191 117.894 11.8568 118.259 12.332C118.627 12.804 118.811 13.4697 118.811 14.3291V14.4072ZM117.399 14.3047C117.399 13.7708 117.315 13.3818 117.146 13.1377C116.976 12.8903 116.724 12.7666 116.389 12.7666C115.939 12.7666 115.63 12.9505 115.461 13.3184V15.4033C115.633 15.7744 115.946 15.96 116.398 15.96C116.854 15.96 117.154 15.7354 117.297 15.2861C117.365 15.0713 117.399 14.7441 117.399 14.3047ZM122.116 17.0977C121.341 17.0977 120.71 16.86 120.222 16.3848C119.737 15.9095 119.494 15.2764 119.494 14.4854V14.3486C119.494 13.818 119.597 13.3444 119.802 12.9277C120.007 12.5078 120.297 12.1855 120.671 11.9609C121.049 11.7331 121.478 11.6191 121.96 11.6191C122.683 11.6191 123.251 11.847 123.664 12.3027C124.081 12.7585 124.289 13.4046 124.289 14.2412V14.8174H120.925C120.97 15.1624 121.107 15.4391 121.335 15.6475C121.566 15.8558 121.857 15.96 122.209 15.96C122.753 15.96 123.177 15.763 123.483 15.3691L124.177 16.1455C123.965 16.445 123.679 16.6794 123.317 16.8486C122.956 17.0146 122.556 17.0977 122.116 17.0977ZM121.955 12.7617C121.675 12.7617 121.447 12.8561 121.271 13.0449C121.099 13.2337 120.988 13.5039 120.939 13.8555H122.902V13.7432C122.896 13.4307 122.811 13.1898 122.648 13.0205C122.486 12.848 122.255 12.7617 121.955 12.7617ZM126.584 17H125.168V9.5H126.584V17ZM130.612 15.54C130.612 15.3675 130.526 15.2324 130.354 15.1348C130.184 15.0339 129.911 14.9443 129.533 14.8662C128.277 14.6025 127.648 14.0687 127.648 13.2646C127.648 12.7959 127.842 12.4053 128.229 12.0928C128.62 11.777 129.13 11.6191 129.758 11.6191C130.428 11.6191 130.964 11.777 131.364 12.0928C131.768 12.4085 131.97 12.8187 131.97 13.3232H130.559C130.559 13.1214 130.493 12.9554 130.363 12.8252C130.233 12.6917 130.03 12.625 129.753 12.625C129.515 12.625 129.331 12.6787 129.201 12.7861C129.071 12.8936 129.006 13.0303 129.006 13.1963C129.006 13.3525 129.079 13.4795 129.226 13.5771C129.375 13.6715 129.626 13.7546 129.978 13.8262C130.329 13.8945 130.625 13.9727 130.866 14.0605C131.612 14.334 131.984 14.8076 131.984 15.4814C131.984 15.9632 131.778 16.3538 131.364 16.6533C130.951 16.9495 130.417 17.0977 129.763 17.0977C129.32 17.0977 128.926 17.0195 128.581 16.8633C128.239 16.7038 127.971 16.4873 127.775 16.2139C127.58 15.9372 127.482 15.6393 127.482 15.3203H128.82C128.833 15.571 128.926 15.763 129.099 15.8965C129.271 16.0299 129.502 16.0967 129.792 16.0967C130.062 16.0967 130.266 16.0462 130.402 15.9453C130.542 15.8411 130.612 15.7061 130.612 15.54ZM132.966 16.3066C132.966 16.082 133.041 15.8997 133.19 15.7598C133.343 15.6198 133.534 15.5498 133.762 15.5498C133.993 15.5498 134.183 15.6198 134.333 15.7598C134.486 15.8997 134.562 16.082 134.562 16.3066C134.562 16.528 134.488 16.7087 134.338 16.8486C134.188 16.9854 133.996 17.0537 133.762 17.0537C133.531 17.0537 133.34 16.9854 133.19 16.8486C133.041 16.7087 132.966 16.528 132.966 16.3066ZM132.966 12.3076C132.966 12.083 133.041 11.9007 133.19 11.7607C133.343 11.6208 133.534 11.5508 133.762 11.5508C133.993 11.5508 134.183 11.6208 134.333 11.7607C134.486 11.9007 134.562 12.083 134.562 12.3076C134.562 12.529 134.488 12.7096 134.338 12.8496C134.188 12.9863 133.996 13.0547 133.762 13.0547C133.531 13.0547 133.34 12.9863 133.19 12.8496C133.041 12.7096 132.966 12.529 132.966 12.3076ZM114.074 28C114.009 27.873 113.962 27.7152 113.933 27.5264C113.591 27.9072 113.146 28.0977 112.6 28.0977C112.082 28.0977 111.652 27.9479 111.311 27.6484C110.972 27.349 110.803 26.9714 110.803 26.5156C110.803 25.9557 111.009 25.526 111.423 25.2266C111.84 24.9271 112.44 24.7757 113.225 24.7725H113.874V24.4697C113.874 24.2256 113.811 24.0303 113.684 23.8838C113.56 23.7373 113.363 23.6641 113.093 23.6641C112.855 23.6641 112.668 23.721 112.531 23.835C112.398 23.9489 112.331 24.1051 112.331 24.3037H110.92C110.92 23.9977 111.014 23.7145 111.203 23.4541C111.392 23.1937 111.659 22.9902 112.004 22.8438C112.349 22.694 112.736 22.6191 113.166 22.6191C113.817 22.6191 114.333 22.7835 114.714 23.1123C115.098 23.4378 115.29 23.8968 115.29 24.4893V26.7793C115.293 27.2806 115.363 27.6598 115.5 27.917V28H114.074ZM112.907 27.0186C113.116 27.0186 113.308 26.973 113.483 26.8818C113.659 26.7874 113.789 26.6621 113.874 26.5059V25.5977H113.347C112.64 25.5977 112.264 25.8418 112.219 26.3301L112.214 26.4131C112.214 26.5889 112.276 26.7337 112.399 26.8477C112.523 26.9616 112.692 27.0186 112.907 27.0186ZM121.13 25.4072C121.13 26.221 120.944 26.8737 120.573 27.3652C120.205 27.8535 119.707 28.0977 119.079 28.0977C118.545 28.0977 118.114 27.9121 117.785 27.541V30.0312H116.374V22.7168H117.683L117.731 23.2344C118.073 22.8242 118.519 22.6191 119.069 22.6191C119.72 22.6191 120.227 22.86 120.588 23.3418C120.949 23.8236 121.13 24.4876 121.13 25.334V25.4072ZM119.719 25.3047C119.719 24.8132 119.631 24.4339 119.455 24.167C119.283 23.9001 119.03 23.7666 118.698 23.7666C118.256 23.7666 117.951 23.9359 117.785 24.2744V26.4375C117.958 26.7858 118.265 26.96 118.708 26.96C119.382 26.96 119.719 26.4082 119.719 25.3047ZM126.765 25.4072C126.765 26.221 126.579 26.8737 126.208 27.3652C125.84 27.8535 125.342 28.0977 124.714 28.0977C124.18 28.0977 123.749 27.9121 123.42 27.541V30.0312H122.009V22.7168H123.317L123.366 23.2344C123.708 22.8242 124.154 22.6191 124.704 22.6191C125.355 22.6191 125.861 22.86 126.223 23.3418C126.584 23.8236 126.765 24.4876 126.765 25.334V25.4072ZM125.354 25.3047C125.354 24.8132 125.266 24.4339 125.09 24.167C124.917 23.9001 124.665 23.7666 124.333 23.7666C123.89 23.7666 123.586 23.9359 123.42 24.2744V26.4375C123.592 26.7858 123.9 26.96 124.343 26.96C125.017 26.96 125.354 26.4082 125.354 25.3047ZM127.712 27.3066C127.712 27.082 127.787 26.8997 127.937 26.7598C128.09 26.6198 128.28 26.5498 128.508 26.5498C128.739 26.5498 128.929 26.6198 129.079 26.7598C129.232 26.8997 129.309 27.082 129.309 27.3066C129.309 27.528 129.234 27.7087 129.084 27.8486C128.934 27.9854 128.742 28.0537 128.508 28.0537C128.277 28.0537 128.086 27.9854 127.937 27.8486C127.787 27.7087 127.712 27.528 127.712 27.3066ZM127.712 23.3076C127.712 23.083 127.787 22.9007 127.937 22.7607C128.09 22.6208 128.28 22.5508 128.508 22.5508C128.739 22.5508 128.929 22.6208 129.079 22.7607C129.232 22.9007 129.309 23.083 129.309 23.3076C129.309 23.529 129.234 23.7096 129.084 23.8496C128.934 23.9863 128.742 24.0547 128.508 24.0547C128.277 24.0547 128.086 23.9863 127.937 23.8496C127.787 23.7096 127.712 23.529 127.712 23.3076ZM136.018 28C135.952 27.873 135.905 27.7152 135.876 27.5264C135.534 27.9072 135.09 28.0977 134.543 28.0977C134.025 28.0977 133.596 27.9479 133.254 27.6484C132.915 27.349 132.746 26.9714 132.746 26.5156C132.746 25.9557 132.953 25.526 133.366 25.2266C133.783 24.9271 134.383 24.7757 135.168 24.7725H135.817V24.4697C135.817 24.2256 135.754 24.0303 135.627 23.8838C135.503 23.7373 135.306 23.6641 135.036 23.6641C134.799 23.6641 134.611 23.721 134.475 23.835C134.341 23.9489 134.274 24.1051 134.274 24.3037H132.863C132.863 23.9977 132.958 23.7145 133.146 23.4541C133.335 23.1937 133.602 22.9902 133.947 22.8438C134.292 22.694 134.68 22.6191 135.109 22.6191C135.76 22.6191 136.276 22.7835 136.657 23.1123C137.041 23.4378 137.233 23.8968 137.233 24.4893V26.7793C137.237 27.2806 137.307 27.6598 137.443 27.917V28H136.018ZM134.851 27.0186C135.059 27.0186 135.251 26.973 135.427 26.8818C135.603 26.7874 135.733 26.6621 135.817 26.5059V25.5977H135.29C134.584 25.5977 134.208 25.8418 134.162 26.3301L134.157 26.4131C134.157 26.5889 134.219 26.7337 134.343 26.8477C134.466 26.9616 134.636 27.0186 134.851 27.0186ZM143.073 25.4072C143.073 26.221 142.888 26.8737 142.517 27.3652C142.149 27.8535 141.651 28.0977 141.022 28.0977C140.489 28.0977 140.057 27.9121 139.729 27.541V30.0312H138.317V22.7168H139.626L139.675 23.2344C140.017 22.8242 140.463 22.6191 141.013 22.6191C141.664 22.6191 142.17 22.86 142.531 23.3418C142.893 23.8236 143.073 24.4876 143.073 25.334V25.4072ZM141.662 25.3047C141.662 24.8132 141.574 24.4339 141.398 24.167C141.226 23.9001 140.974 23.7666 140.642 23.7666C140.199 23.7666 139.895 23.9359 139.729 24.2744V26.4375C139.901 26.7858 140.209 26.96 140.651 26.96C141.325 26.96 141.662 26.4082 141.662 25.3047ZM145.441 28H144.025V22.7168H145.441V28ZM143.942 21.3496C143.942 21.138 144.012 20.9639 144.152 20.8271C144.296 20.6904 144.489 20.6221 144.733 20.6221C144.974 20.6221 145.166 20.6904 145.31 20.8271C145.453 20.9639 145.524 21.138 145.524 21.3496C145.524 21.5645 145.451 21.7402 145.305 21.877C145.161 22.0137 144.971 22.082 144.733 22.082C144.496 22.082 144.304 22.0137 144.157 21.877C144.014 21.7402 143.942 21.5645 143.942 21.3496ZM149.353 25.5244H146.604V24.3867H149.353V25.5244ZM155.241 25.4072C155.241 26.221 155.056 26.8737 154.685 27.3652C154.317 27.8535 153.819 28.0977 153.19 28.0977C152.657 28.0977 152.225 27.9121 151.896 27.541V30.0312H150.485V22.7168H151.794L151.843 23.2344C152.185 22.8242 152.631 22.6191 153.181 22.6191C153.832 22.6191 154.338 22.86 154.699 23.3418C155.061 23.8236 155.241 24.4876 155.241 25.334V25.4072ZM153.83 25.3047C153.83 24.8132 153.742 24.4339 153.566 24.167C153.394 23.9001 153.142 23.7666 152.81 23.7666C152.367 23.7666 152.062 23.9359 151.896 24.2744V26.4375C152.069 26.7858 152.377 26.96 152.819 26.96C153.493 26.96 153.83 26.4082 153.83 25.3047ZM159.089 24.04C158.897 24.014 158.728 24.001 158.581 24.001C158.047 24.001 157.697 24.1816 157.531 24.543V28H156.12V22.7168H157.453L157.492 23.3467C157.775 22.8617 158.168 22.6191 158.669 22.6191C158.825 22.6191 158.972 22.6403 159.108 22.6826L159.089 24.04ZM159.377 25.3096C159.377 24.7855 159.478 24.3184 159.68 23.9082C159.882 23.498 160.171 23.1807 160.549 22.9561C160.93 22.7314 161.371 22.6191 161.872 22.6191C162.585 22.6191 163.166 22.8372 163.615 23.2734C164.068 23.7096 164.32 24.3021 164.372 25.0508L164.382 25.4121C164.382 26.2227 164.156 26.8737 163.703 27.3652C163.251 27.8535 162.644 28.0977 161.882 28.0977C161.12 28.0977 160.511 27.8535 160.056 27.3652C159.603 26.877 159.377 26.2129 159.377 25.373V25.3096ZM160.788 25.4121C160.788 25.9134 160.882 26.2975 161.071 26.5645C161.26 26.8281 161.53 26.96 161.882 26.96C162.224 26.96 162.491 26.8298 162.683 26.5693C162.875 26.3057 162.971 25.8857 162.971 25.3096C162.971 24.818 162.875 24.4372 162.683 24.167C162.491 23.8968 162.22 23.7617 161.872 23.7617C161.527 23.7617 161.26 23.8968 161.071 24.167C160.882 24.4339 160.788 24.849 160.788 25.4121ZM165.031 25.3193C165.031 24.4958 165.215 23.8398 165.583 23.3516C165.954 22.8633 166.46 22.6191 167.102 22.6191C167.616 22.6191 168.041 22.8112 168.376 23.1953V20.5H169.792V28H168.518L168.449 27.4385C168.098 27.8779 167.645 28.0977 167.092 28.0977C166.47 28.0977 165.97 27.8535 165.593 27.3652C165.218 26.8737 165.031 26.1917 165.031 25.3193ZM166.442 25.4219C166.442 25.9167 166.529 26.2959 166.701 26.5596C166.874 26.8232 167.124 26.9551 167.453 26.9551C167.889 26.9551 168.197 26.7712 168.376 26.4033V24.3184C168.2 23.9505 167.896 23.7666 167.463 23.7666C166.783 23.7666 166.442 24.3184 166.442 25.4219ZM174.05 27.4629C173.701 27.8861 173.22 28.0977 172.604 28.0977C172.038 28.0977 171.605 27.9349 171.306 27.6094C171.009 27.2839 170.858 26.807 170.852 26.1787V22.7168H172.263V26.1299C172.263 26.68 172.513 26.9551 173.015 26.9551C173.493 26.9551 173.822 26.7891 174.001 26.457V22.7168H175.417V28H174.089L174.05 27.4629ZM178.679 26.96C178.939 26.96 179.151 26.8883 179.313 26.7451C179.476 26.6019 179.561 26.4115 179.567 26.1738H180.891C180.887 26.5319 180.79 26.8607 180.598 27.1602C180.406 27.4564 180.142 27.6875 179.807 27.8535C179.475 28.0163 179.107 28.0977 178.703 28.0977C177.948 28.0977 177.352 27.8584 176.916 27.3799C176.48 26.8981 176.262 26.234 176.262 25.3877V25.2949C176.262 24.4811 176.478 23.8317 176.911 23.3467C177.344 22.8617 177.938 22.6191 178.693 22.6191C179.354 22.6191 179.883 22.8079 180.28 23.1855C180.681 23.5599 180.884 24.0596 180.891 24.6846H179.567C179.561 24.4111 179.476 24.1898 179.313 24.0205C179.151 23.848 178.936 23.7617 178.669 23.7617C178.34 23.7617 178.091 23.8822 177.922 24.123C177.756 24.3607 177.673 24.748 177.673 25.2852V25.4316C177.673 25.9753 177.756 26.3659 177.922 26.6035C178.088 26.8411 178.34 26.96 178.679 26.96ZM183.386 21.418V22.7168H184.289V23.752H183.386V26.3887C183.386 26.584 183.423 26.724 183.498 26.8086C183.573 26.8932 183.716 26.9355 183.928 26.9355C184.084 26.9355 184.222 26.9242 184.343 26.9014V27.9707C184.066 28.0553 183.781 28.0977 183.488 28.0977C182.499 28.0977 181.994 27.598 181.975 26.5986V23.752H181.203V22.7168H181.975V21.418H183.386Z" fill="black"/>
</g>
<defs>
<filter id="filter0_d" x="0" y="0" width="92" height="76" filterUnits="userSpaceOnUse" color-interpolation-filters="sRGB">
<feFlood flood-opacity="0" result="BackgroundImageFix"/>
<feColorMatrix in="SourceAlpha" type="matrix" values="0 0 0 0 0 0 0 0 0 0 0 0 0 0 0 0 0 0 127 0"/>
<feOffset dy="4"/>
<feGaussianBlur stdDeviation="2"/>
<feColorMatrix type="matrix" values="0 0 0 0 0 0 0 0 0 0 0 0 0 0 0 0 0 0 0.25 0"/>
<feBlend mode="normal" in2="BackgroundImageFix" result="effect1_dropShadow"/>
<feBlend mode="normal" in="SourceGraphic" in2="effect1_dropShadow" result="shape"/>
</filter>
<filter id="filter1_d" x="98" y="1" width="92" height="76" filterUnits="userSpaceOnUse" color-interpolation-filters="sRGB">
<feFlood flood-opacity="0" result="BackgroundImageFix"/>
<feColorMatrix in="SourceAlpha" type="matrix" values="0 0 0 0 0 0 0 0 0 0 0 0 0 0 0 0 0 0 127 0"/>
<feOffset dy="4"/>
<feGaussianBlur stdDeviation="2"/>
<feColorMatrix type="matrix" values="0 0 0 0 0 0 0 0 0 0 0 0 0 0 0 0 0 0 0.25 0"/>
<feBlend mode="normal" in2="BackgroundImageFix" result="effect1_dropShadow"/>
<feBlend mode="normal" in="SourceGraphic" in2="effect1_dropShadow" result="shape"/>
</filter>
</defs>
</svg>
