<svg width="193" height="58" viewBox="0 0 193 58" fill="none" xmlns="http://www.w3.org/2000/svg">
<rect y="0.528931" width="192.575" height="14.9426" rx="7.47128" fill="#333333"/>
<path d="M71.8893 11C71.8176 10.8604 71.7657 10.6867 71.7335 10.479C71.3575 10.8979 70.8688 11.1074 70.2672 11.1074C69.6979 11.1074 69.2252 10.9427 68.8492 10.6133C68.4768 10.2839 68.2906 9.86849 68.2906 9.36719C68.2906 8.7513 68.518 8.27865 68.9728 7.94922C69.4311 7.61979 70.0917 7.45329 70.9547 7.44971H71.669V7.1167C71.669 6.84814 71.5992 6.6333 71.4596 6.47217C71.3235 6.31104 71.1069 6.23047 70.8097 6.23047C70.5483 6.23047 70.3424 6.29313 70.192 6.41846C70.0452 6.54378 69.9718 6.71566 69.9718 6.93408H68.4195C68.4195 6.59749 68.5234 6.28597 68.7311 5.99951C68.9387 5.71305 69.2324 5.48926 69.6119 5.32812C69.9915 5.16341 70.4176 5.08105 70.8902 5.08105C71.6064 5.08105 72.1739 5.26188 72.5929 5.62354C73.0154 5.98161 73.2267 6.48649 73.2267 7.13818V9.65723C73.2302 10.2087 73.3072 10.6258 73.4576 10.9087V11H71.8893ZM70.6056 9.92041C70.8347 9.92041 71.046 9.87028 71.2394 9.77002C71.4327 9.66618 71.5759 9.52832 71.669 9.35645V8.35742H71.089C70.3119 8.35742 69.8984 8.62598 69.8482 9.16309L69.8429 9.25439C69.8429 9.44775 69.9109 9.6071 70.047 9.73242C70.183 9.85775 70.3692 9.92041 70.6056 9.92041ZM79.6505 8.14795C79.6505 9.04313 79.4464 9.76107 79.0382 10.3018C78.6336 10.8389 78.0857 11.1074 77.3946 11.1074C76.8074 11.1074 76.3329 10.9033 75.9713 10.4951V13.2344H74.419V5.18848H75.8585L75.9122 5.75781C76.2882 5.30664 76.7787 5.08105 77.3839 5.08105C78.1 5.08105 78.6568 5.34603 79.0543 5.87598C79.4518 6.40592 79.6505 7.13639 79.6505 8.06738V8.14795ZM78.0982 8.03516C78.0982 7.49447 78.0016 7.07731 77.8082 6.78369C77.6184 6.49007 77.3409 6.34326 76.9757 6.34326C76.4887 6.34326 76.1539 6.52946 75.9713 6.90186V9.28125C76.1611 9.66439 76.4994 9.85596 76.9864 9.85596C77.7276 9.85596 78.0982 9.24902 78.0982 8.03516ZM82.2555 11H80.6979V5.18848H82.2555V11ZM80.6065 3.68457C80.6065 3.45182 80.6835 3.26025 80.8375 3.10986C80.9951 2.95947 81.2081 2.88428 81.4767 2.88428C81.7416 2.88428 81.9529 2.95947 82.1105 3.10986C82.268 3.26025 82.3468 3.45182 82.3468 3.68457C82.3468 3.9209 82.2662 4.11426 82.1051 4.26465C81.9475 4.41504 81.7381 4.49023 81.4767 4.49023C81.2153 4.49023 81.004 4.41504 80.8429 4.26465C80.6853 4.11426 80.6065 3.9209 80.6065 3.68457ZM86.5577 8.27686H83.5338V7.02539H86.5577V8.27686ZM93.0353 8.14795C93.0353 9.04313 92.8312 9.76107 92.423 10.3018C92.0183 10.8389 91.4705 11.1074 90.7794 11.1074C90.1922 11.1074 89.7177 10.9033 89.3561 10.4951V13.2344H87.8038V5.18848H89.2433L89.297 5.75781C89.673 5.30664 90.1635 5.08105 90.7687 5.08105C91.4848 5.08105 92.0416 5.34603 92.4391 5.87598C92.8365 6.40592 93.0353 7.13639 93.0353 8.06738V8.14795ZM91.483 8.03516C91.483 7.49447 91.3863 7.07731 91.193 6.78369C91.0032 6.49007 90.7257 6.34326 90.3605 6.34326C89.8735 6.34326 89.5387 6.52946 89.3561 6.90186V9.28125C89.5458 9.66439 89.8842 9.85596 90.3712 9.85596C91.1124 9.85596 91.483 9.24902 91.483 8.03516ZM97.2677 6.64404C97.0564 6.6154 96.8702 6.60107 96.7091 6.60107C96.1218 6.60107 95.7369 6.7998 95.5543 7.19727V11H94.0021V5.18848H95.4684L95.5113 5.88135C95.8229 5.34782 96.2543 5.08105 96.8058 5.08105C96.9776 5.08105 97.1388 5.10433 97.2892 5.15088L97.2677 6.64404ZM97.5846 8.04053C97.5846 7.46403 97.6956 6.9502 97.9176 6.49902C98.1396 6.04785 98.4583 5.69873 98.8736 5.45166C99.2926 5.20459 99.7778 5.08105 100.329 5.08105C101.113 5.08105 101.753 5.32096 102.247 5.80078C102.744 6.2806 103.022 6.93229 103.079 7.75586L103.09 8.15332C103.09 9.04492 102.841 9.76107 102.343 10.3018C101.846 10.8389 101.178 11.1074 100.34 11.1074C99.5021 11.1074 98.8325 10.8389 98.3312 10.3018C97.8334 9.76465 97.5846 9.03418 97.5846 8.11035V8.04053ZM99.1368 8.15332C99.1368 8.70475 99.2407 9.12728 99.4483 9.4209C99.656 9.71094 99.9532 9.85596 100.34 9.85596C100.716 9.85596 101.01 9.71273 101.221 9.42627C101.432 9.13623 101.538 8.67432 101.538 8.04053C101.538 7.49984 101.432 7.08089 101.221 6.78369C101.01 6.48649 100.712 6.33789 100.329 6.33789C99.9496 6.33789 99.656 6.48649 99.4483 6.78369C99.2407 7.07731 99.1368 7.53385 99.1368 8.15332ZM103.804 8.05127C103.804 7.14535 104.007 6.42383 104.411 5.88672C104.819 5.34961 105.376 5.08105 106.082 5.08105C106.647 5.08105 107.115 5.29232 107.483 5.71484V2.75H109.041V11H107.639L107.564 10.3823C107.177 10.8657 106.68 11.1074 106.071 11.1074C105.387 11.1074 104.837 10.8389 104.422 10.3018C104.01 9.76107 103.804 9.0109 103.804 8.05127ZM105.357 8.16406C105.357 8.70833 105.451 9.12549 105.641 9.41553C105.831 9.70557 106.107 9.85059 106.468 9.85059C106.948 9.85059 107.287 9.64827 107.483 9.24365V6.9502C107.29 6.54557 106.955 6.34326 106.479 6.34326C105.731 6.34326 105.357 6.9502 105.357 8.16406ZM113.725 10.4092C113.342 10.8747 112.812 11.1074 112.135 11.1074C111.512 11.1074 111.036 10.9284 110.706 10.5703C110.38 10.2122 110.214 9.68766 110.207 8.99658V5.18848H111.759V8.94287C111.759 9.54801 112.035 9.85059 112.586 9.85059C113.112 9.85059 113.474 9.66797 113.671 9.30273V5.18848H115.229V11H113.768L113.725 10.4092ZM118.817 9.85596C119.103 9.85596 119.336 9.77718 119.515 9.61963C119.694 9.46208 119.787 9.2526 119.794 8.99121H121.25C121.246 9.38509 121.139 9.74674 120.927 10.0762C120.716 10.402 120.426 10.6562 120.057 10.8389C119.692 11.0179 119.287 11.1074 118.843 11.1074C118.013 11.1074 117.357 10.8442 116.878 10.3179C116.398 9.78792 116.158 9.05745 116.158 8.12646V8.02441C116.158 7.12923 116.396 6.41488 116.872 5.88135C117.348 5.34782 118.002 5.08105 118.833 5.08105C119.56 5.08105 120.141 5.28874 120.578 5.7041C121.019 6.11589 121.242 6.66553 121.25 7.35303H119.794C119.787 7.05225 119.694 6.80876 119.515 6.62256C119.336 6.43278 119.099 6.33789 118.806 6.33789C118.444 6.33789 118.17 6.47038 117.984 6.73535C117.801 6.99674 117.71 7.42285 117.71 8.01367V8.1748C117.71 8.77279 117.801 9.20247 117.984 9.46387C118.167 9.72526 118.444 9.85596 118.817 9.85596ZM123.994 3.75977V5.18848H124.988V6.32715H123.994V9.22754C123.994 9.44238 124.035 9.59635 124.118 9.68945C124.2 9.78255 124.358 9.8291 124.59 9.8291C124.762 9.8291 124.914 9.81657 125.047 9.7915V10.9678C124.743 11.0609 124.429 11.1074 124.107 11.1074C123.018 11.1074 122.463 10.5578 122.442 9.4585V6.32715H121.593V5.18848H122.442V3.75977H123.994Z" fill="white"/>
<path d="M92 18V58" stroke="black" stroke-width="2" stroke-dasharray="3 3"/>
</svg>
