<svg width="185" height="17" viewBox="0 0 185 17" fill="none" xmlns="http://www.w3.org/2000/svg">
<rect y="0.528931" width="83.8151" height="14.9426" rx="7.47128" fill="#466BB0"/>
<path d="M25.75 11H24.1977V5.0166L22.3447 5.59131V4.3291L25.5835 3.16895H25.75V11ZM33.5596 7.7666C33.5596 8.84798 33.3358 9.67513 32.8882 10.248C32.4406 10.821 31.7853 11.1074 30.9223 11.1074C30.0701 11.1074 29.4184 10.8263 28.9673 10.2642C28.5161 9.70199 28.2851 8.89632 28.2744 7.84717V6.40771C28.2744 5.31559 28.5 4.48665 28.9512 3.9209C29.4059 3.35514 30.0594 3.07227 30.9116 3.07227C31.7638 3.07227 32.4155 3.35335 32.8667 3.91553C33.3179 4.47412 33.5488 5.27799 33.5596 6.32715V7.7666ZM32.0073 6.1875C32.0073 5.53939 31.9178 5.06852 31.7388 4.7749C31.5633 4.4777 31.2876 4.3291 30.9116 4.3291C30.5464 4.3291 30.276 4.47054 30.1006 4.75342C29.9287 5.03271 29.8374 5.47135 29.8266 6.06934V7.9707C29.8266 8.60807 29.9126 9.08252 30.0845 9.39404C30.2599 9.70199 30.5392 9.85596 30.9223 9.85596C31.3019 9.85596 31.5758 9.70736 31.7441 9.41016C31.9124 9.11296 32.0001 8.6582 32.0073 8.0459V6.1875ZM34.7573 10.2373C34.7573 9.99023 34.8397 9.78971 35.0044 9.63574C35.1727 9.48177 35.3821 9.40479 35.6328 9.40479C35.887 9.40479 36.0965 9.48177 36.2612 9.63574C36.4295 9.78971 36.5137 9.99023 36.5137 10.2373C36.5137 10.4808 36.4313 10.6795 36.2666 10.8335C36.1019 10.9839 35.8906 11.0591 35.6328 11.0591C35.3786 11.0591 35.1691 10.9839 35.0044 10.8335C34.8397 10.6795 34.7573 10.4808 34.7573 10.2373ZM43.0771 7.7666C43.0771 8.84798 42.8533 9.67513 42.4057 10.248C41.9582 10.821 41.3029 11.1074 40.4399 11.1074C39.5877 11.1074 38.936 10.8263 38.4848 10.2642C38.0337 9.70199 37.8027 8.89632 37.792 7.84717V6.40771C37.792 5.31559 38.0176 4.48665 38.4687 3.9209C38.9235 3.35514 39.577 3.07227 40.4292 3.07227C41.2814 3.07227 41.9331 3.35335 42.3843 3.91553C42.8354 4.47412 43.0664 5.27799 43.0771 6.32715V7.7666ZM41.5249 6.1875C41.5249 5.53939 41.4354 5.06852 41.2563 4.7749C41.0809 4.4777 40.8052 4.3291 40.4292 4.3291C40.0639 4.3291 39.7936 4.47054 39.6181 4.75342C39.4463 5.03271 39.355 5.47135 39.3442 6.06934V7.9707C39.3442 8.60807 39.4302 9.08252 39.602 9.39404C39.7775 9.70199 40.0568 9.85596 40.4399 9.85596C40.8195 9.85596 41.0934 9.70736 41.2617 9.41016C41.43 9.11296 41.5177 8.6582 41.5249 8.0459V6.1875ZM44.2749 10.2373C44.2749 9.99023 44.3572 9.78971 44.522 9.63574C44.6902 9.48177 44.8997 9.40479 45.1504 9.40479C45.4046 9.40479 45.6141 9.48177 45.7788 9.63574C45.9471 9.78971 46.0312 9.99023 46.0312 10.2373C46.0312 10.4808 45.9489 10.6795 45.7842 10.8335C45.6194 10.9839 45.4082 11.0591 45.1504 11.0591C44.8961 11.0591 44.6867 10.9839 44.522 10.8335C44.3572 10.6795 44.2749 10.4808 44.2749 10.2373ZM52.5947 7.7666C52.5947 8.84798 52.3709 9.67513 51.9233 10.248C51.4757 10.821 50.8205 11.1074 49.9575 11.1074C49.1053 11.1074 48.4536 10.8263 48.0024 10.2642C47.5513 9.70199 47.3203 8.89632 47.3096 7.84717V6.40771C47.3096 5.31559 47.5351 4.48665 47.9863 3.9209C48.4411 3.35514 49.0945 3.07227 49.9468 3.07227C50.799 3.07227 51.4507 3.35335 51.9018 3.91553C52.353 4.47412 52.584 5.27799 52.5947 6.32715V7.7666ZM51.0425 6.1875C51.0425 5.53939 50.9529 5.06852 50.7739 4.7749C50.5985 4.4777 50.3227 4.3291 49.9468 4.3291C49.5815 4.3291 49.3112 4.47054 49.1357 4.75342C48.9638 5.03271 48.8725 5.47135 48.8618 6.06934V7.9707C48.8618 8.60807 48.9477 9.08252 49.1196 9.39404C49.2951 9.70199 49.5744 9.85596 49.9575 9.85596C50.3371 9.85596 50.611 9.70736 50.7793 9.41016C50.9476 9.11296 51.0353 8.6582 51.0425 8.0459V6.1875ZM53.7925 10.2373C53.7925 9.99023 53.8748 9.78971 54.0395 9.63574C54.2078 9.48177 54.4173 9.40479 54.6679 9.40479C54.9222 9.40479 55.1317 9.48177 55.2964 9.63574C55.4647 9.78971 55.5488 9.99023 55.5488 10.2373C55.5488 10.4808 55.4665 10.6795 55.3017 10.8335C55.137 10.9839 54.9258 11.0591 54.6679 11.0591C54.4137 11.0591 54.2042 10.9839 54.0395 10.8335C53.8748 10.6795 53.7925 10.4808 53.7925 10.2373ZM60.6191 11H59.0669V5.0166L57.2138 5.59131V4.3291L60.4526 3.16895H60.6191V11Z" fill="white"/>
<rect x="101" y="1.52893" width="83.8151" height="14.9426" rx="7.47128" fill="#466BB0"/>
<path d="M126.75 12H125.198V6.0166L123.345 6.59131V5.3291L126.583 4.16895H126.75V12ZM134.56 8.7666C134.56 9.84798 134.336 10.6751 133.888 11.248C133.441 11.821 132.785 12.1074 131.922 12.1074C131.07 12.1074 130.418 11.8263 129.967 11.2642C129.516 10.702 129.285 9.89632 129.274 8.84717V7.40771C129.274 6.31559 129.5 5.48665 129.951 4.9209C130.406 4.35514 131.059 4.07227 131.912 4.07227C132.764 4.07227 133.416 4.35335 133.867 4.91553C134.318 5.47412 134.549 6.27799 134.56 7.32715V8.7666ZM133.007 7.1875C133.007 6.53939 132.918 6.06852 132.739 5.7749C132.563 5.4777 132.288 5.3291 131.912 5.3291C131.546 5.3291 131.276 5.47054 131.101 5.75342C130.929 6.03271 130.837 6.47135 130.827 7.06934V8.9707C130.827 9.60807 130.913 10.0825 131.084 10.394C131.26 10.702 131.539 10.856 131.922 10.856C132.302 10.856 132.576 10.7074 132.744 10.4102C132.912 10.113 133 9.6582 133.007 9.0459V7.1875ZM135.757 11.2373C135.757 10.9902 135.84 10.7897 136.004 10.6357C136.173 10.4818 136.382 10.4048 136.633 10.4048C136.887 10.4048 137.097 10.4818 137.261 10.6357C137.43 10.7897 137.514 10.9902 137.514 11.2373C137.514 11.4808 137.431 11.6795 137.267 11.8335C137.102 11.9839 136.891 12.0591 136.633 12.0591C136.379 12.0591 136.169 11.9839 136.004 11.8335C135.84 11.6795 135.757 11.4808 135.757 11.2373ZM144.077 8.7666C144.077 9.84798 143.853 10.6751 143.406 11.248C142.958 11.821 142.303 12.1074 141.44 12.1074C140.588 12.1074 139.936 11.8263 139.485 11.2642C139.034 10.702 138.803 9.89632 138.792 8.84717V7.40771C138.792 6.31559 139.018 5.48665 139.469 4.9209C139.923 4.35514 140.577 4.07227 141.429 4.07227C142.281 4.07227 142.933 4.35335 143.384 4.91553C143.835 5.47412 144.066 6.27799 144.077 7.32715V8.7666ZM142.525 7.1875C142.525 6.53939 142.435 6.06852 142.256 5.7749C142.081 5.4777 141.805 5.3291 141.429 5.3291C141.064 5.3291 140.794 5.47054 140.618 5.75342C140.446 6.03271 140.355 6.47135 140.344 7.06934V8.9707C140.344 9.60807 140.43 10.0825 140.602 10.394C140.777 10.702 141.057 10.856 141.44 10.856C141.819 10.856 142.093 10.7074 142.262 10.4102C142.43 10.113 142.518 9.6582 142.525 9.0459V7.1875ZM145.275 11.2373C145.275 10.9902 145.357 10.7897 145.522 10.6357C145.69 10.4818 145.9 10.4048 146.15 10.4048C146.405 10.4048 146.614 10.4818 146.779 10.6357C146.947 10.7897 147.031 10.9902 147.031 11.2373C147.031 11.4808 146.949 11.6795 146.784 11.8335C146.619 11.9839 146.408 12.0591 146.15 12.0591C145.896 12.0591 145.687 11.9839 145.522 11.8335C145.357 11.6795 145.275 11.4808 145.275 11.2373ZM153.595 8.7666C153.595 9.84798 153.371 10.6751 152.923 11.248C152.476 11.821 151.82 12.1074 150.958 12.1074C150.105 12.1074 149.454 11.8263 149.002 11.2642C148.551 10.702 148.32 9.89632 148.31 8.84717V7.40771C148.31 6.31559 148.535 5.48665 148.986 4.9209C149.441 4.35514 150.095 4.07227 150.947 4.07227C151.799 4.07227 152.451 4.35335 152.902 4.91553C153.353 5.47412 153.584 6.27799 153.595 7.32715V8.7666ZM152.042 7.1875C152.042 6.53939 151.953 6.06852 151.774 5.7749C151.598 5.4777 151.323 5.3291 150.947 5.3291C150.582 5.3291 150.311 5.47054 150.136 5.75342C149.964 6.03271 149.873 6.47135 149.862 7.06934V8.9707C149.862 9.60807 149.948 10.0825 150.12 10.394C150.295 10.702 150.574 10.856 150.958 10.856C151.337 10.856 151.611 10.7074 151.779 10.4102C151.948 10.113 152.035 9.6582 152.042 9.0459V7.1875ZM154.792 11.2373C154.792 10.9902 154.875 10.7897 155.04 10.6357C155.208 10.4818 155.417 10.4048 155.668 10.4048C155.922 10.4048 156.132 10.4818 156.296 10.6357C156.465 10.7897 156.549 10.9902 156.549 11.2373C156.549 11.4808 156.466 11.6795 156.302 11.8335C156.137 11.9839 155.926 12.0591 155.668 12.0591C155.414 12.0591 155.204 11.9839 155.04 11.8335C154.875 11.6795 154.792 11.4808 154.792 11.2373ZM163.209 12H157.849V10.9365L160.378 8.24023C160.726 7.86068 160.982 7.52946 161.146 7.24658C161.315 6.9637 161.399 6.69515 161.399 6.44092C161.399 6.09359 161.311 5.82145 161.136 5.62451C160.96 5.42399 160.71 5.32373 160.384 5.32373C160.033 5.32373 159.755 5.44548 159.551 5.68896C159.351 5.92887 159.25 6.24577 159.25 6.63965H157.693C157.693 6.16341 157.806 5.72835 158.031 5.33447C158.26 4.94059 158.583 4.63265 158.998 4.41064C159.413 4.18506 159.884 4.07227 160.411 4.07227C161.216 4.07227 161.841 4.26562 162.285 4.65234C162.733 5.03906 162.957 5.58512 162.957 6.29053C162.957 6.67725 162.856 7.07113 162.656 7.47217C162.455 7.87321 162.111 8.34049 161.624 8.87402L159.847 10.7485H163.209V12Z" fill="white"/>
</svg>
