<svg width="184" height="59" viewBox="0 0 184 59" fill="none" xmlns="http://www.w3.org/2000/svg">
<rect y="29" width="184" height="30" rx="15" fill="#5AD5FF"/>
<path d="M95.2158 48H93.9512V37.5H95.2158V48ZM96.9111 44.2334C96.9111 43.5088 97.0524 42.8571 97.335 42.2783C97.6221 41.6995 98.0186 41.2529 98.5244 40.9385C99.0348 40.624 99.6159 40.4668 100.268 40.4668C101.275 40.4668 102.088 40.8154 102.708 41.5127C103.332 42.21 103.645 43.1374 103.645 44.2949V44.3838C103.645 45.1038 103.506 45.751 103.228 46.3252C102.954 46.8949 102.56 47.3392 102.045 47.6582C101.535 47.9772 100.947 48.1367 100.281 48.1367C99.2786 48.1367 98.4652 47.7881 97.8408 47.0908C97.221 46.3936 96.9111 45.4707 96.9111 44.3223V44.2334ZM98.1826 44.3838C98.1826 45.2041 98.3717 45.8626 98.75 46.3594C99.1328 46.8561 99.6432 47.1045 100.281 47.1045C100.924 47.1045 101.434 46.8538 101.812 46.3525C102.191 45.8467 102.38 45.1403 102.38 44.2334C102.38 43.4222 102.186 42.766 101.799 42.2646C101.416 41.7588 100.906 41.5059 100.268 41.5059C99.6432 41.5059 99.1396 41.7542 98.7568 42.251C98.374 42.7477 98.1826 43.4587 98.1826 44.3838ZM108.197 47.1045C108.648 47.1045 109.043 46.9678 109.38 46.6943C109.717 46.4209 109.904 46.0791 109.94 45.6689H111.137C111.114 46.0928 110.968 46.4961 110.699 46.8789C110.43 47.2617 110.07 47.5671 109.619 47.7949C109.173 48.0228 108.699 48.1367 108.197 48.1367C107.19 48.1367 106.388 47.8018 105.791 47.1318C105.199 46.4574 104.902 45.5368 104.902 44.3701V44.1582C104.902 43.4382 105.035 42.7979 105.299 42.2373C105.563 41.6768 105.941 41.2415 106.434 40.9316C106.93 40.6217 107.516 40.4668 108.19 40.4668C109.02 40.4668 109.708 40.7152 110.255 41.2119C110.806 41.7087 111.1 42.3535 111.137 43.1465H109.94C109.904 42.668 109.722 42.276 109.394 41.9707C109.07 41.6608 108.669 41.5059 108.19 41.5059C107.548 41.5059 107.049 41.7383 106.693 42.2031C106.342 42.6634 106.167 43.3311 106.167 44.2061V44.4453C106.167 45.2975 106.342 45.9538 106.693 46.4141C107.044 46.8743 107.546 47.1045 108.197 47.1045ZM117.125 48C117.052 47.8542 116.993 47.5944 116.947 47.2207C116.359 47.8314 115.658 48.1367 114.842 48.1367C114.113 48.1367 113.513 47.9316 113.044 47.5215C112.579 47.1068 112.347 46.5827 112.347 45.9492C112.347 45.179 112.638 44.582 113.222 44.1582C113.81 43.7298 114.634 43.5156 115.696 43.5156H116.927V42.9346C116.927 42.4925 116.795 42.1416 116.53 41.8818C116.266 41.6175 115.876 41.4854 115.361 41.4854C114.91 41.4854 114.532 41.5993 114.227 41.8271C113.921 42.055 113.769 42.3307 113.769 42.6543H112.497C112.497 42.2852 112.627 41.9297 112.887 41.5879C113.151 41.2415 113.507 40.9681 113.953 40.7676C114.404 40.5671 114.899 40.4668 115.437 40.4668C116.289 40.4668 116.956 40.681 117.439 41.1094C117.923 41.5332 118.173 42.1188 118.191 42.8662V46.2705C118.191 46.9495 118.278 47.4896 118.451 47.8906V48H117.125ZM115.026 47.0361C115.423 47.0361 115.799 46.9336 116.154 46.7285C116.51 46.5234 116.767 46.2568 116.927 45.9287V44.4111H115.936C114.386 44.4111 113.611 44.8646 113.611 45.7715C113.611 46.168 113.743 46.4779 114.008 46.7012C114.272 46.9245 114.612 47.0361 115.026 47.0361ZM121.548 48H120.283V37.5H121.548V48ZM124.843 41.499C125.403 40.8109 126.132 40.4668 127.03 40.4668C128.593 40.4668 129.382 41.3486 129.396 43.1123V48H128.131V43.1055C128.126 42.5723 128.003 42.1781 127.762 41.9229C127.525 41.6676 127.153 41.54 126.647 41.54C126.237 41.54 125.877 41.6494 125.567 41.8682C125.257 42.0869 125.016 42.374 124.843 42.7295V48H123.578V37.5H124.843V41.499ZM130.954 44.2334C130.954 43.5088 131.095 42.8571 131.378 42.2783C131.665 41.6995 132.062 41.2529 132.567 40.9385C133.078 40.624 133.659 40.4668 134.311 40.4668C135.318 40.4668 136.131 40.8154 136.751 41.5127C137.375 42.21 137.688 43.1374 137.688 44.2949V44.3838C137.688 45.1038 137.549 45.751 137.271 46.3252C136.997 46.8949 136.603 47.3392 136.088 47.6582C135.577 47.9772 134.99 48.1367 134.324 48.1367C133.322 48.1367 132.508 47.7881 131.884 47.0908C131.264 46.3936 130.954 45.4707 130.954 44.3223V44.2334ZM132.226 44.3838C132.226 45.2041 132.415 45.8626 132.793 46.3594C133.176 46.8561 133.686 47.1045 134.324 47.1045C134.967 47.1045 135.477 46.8538 135.855 46.3525C136.234 45.8467 136.423 45.1403 136.423 44.2334C136.423 43.4222 136.229 42.766 135.842 42.2646C135.459 41.7588 134.949 41.5059 134.311 41.5059C133.686 41.5059 133.183 41.7542 132.8 42.251C132.417 42.7477 132.226 43.4587 132.226 44.3838ZM143.58 46.0381C143.58 45.6963 143.45 45.432 143.19 45.2451C142.935 45.0537 142.486 44.8896 141.844 44.7529C141.206 44.6162 140.698 44.4521 140.319 44.2607C139.946 44.0693 139.668 43.8415 139.485 43.5771C139.308 43.3128 139.219 42.9984 139.219 42.6338C139.219 42.0277 139.474 41.515 139.984 41.0957C140.499 40.6764 141.156 40.4668 141.953 40.4668C142.792 40.4668 143.471 40.6833 143.99 41.1162C144.514 41.5492 144.776 42.1029 144.776 42.7773H143.505C143.505 42.431 143.357 42.1325 143.061 41.8818C142.769 41.6312 142.4 41.5059 141.953 41.5059C141.493 41.5059 141.133 41.6061 140.873 41.8066C140.613 42.0072 140.483 42.2692 140.483 42.5928C140.483 42.8981 140.604 43.1283 140.846 43.2832C141.087 43.4382 141.522 43.5863 142.151 43.7275C142.785 43.8688 143.298 44.0374 143.689 44.2334C144.081 44.4294 144.371 44.6663 144.558 44.9443C144.749 45.2178 144.845 45.5527 144.845 45.9492C144.845 46.61 144.58 47.141 144.052 47.542C143.523 47.9385 142.837 48.1367 141.994 48.1367C141.402 48.1367 140.878 48.0319 140.422 47.8223C139.966 47.6126 139.608 47.321 139.349 46.9473C139.093 46.569 138.966 46.1611 138.966 45.7236H140.23C140.253 46.1475 140.422 46.4847 140.736 46.7354C141.055 46.9814 141.475 47.1045 141.994 47.1045C142.473 47.1045 142.855 47.0088 143.143 46.8174C143.434 46.6214 143.58 46.3617 143.58 46.0381ZM148.208 38.8125V40.6035H149.589V41.5811H148.208V46.168C148.208 46.4642 148.27 46.6875 148.393 46.8379C148.516 46.9837 148.725 47.0566 149.021 47.0566C149.167 47.0566 149.368 47.0293 149.623 46.9746V48C149.29 48.0911 148.967 48.1367 148.652 48.1367C148.087 48.1367 147.661 47.9658 147.374 47.624C147.087 47.2822 146.943 46.7969 146.943 46.168V41.5811H145.597V40.6035H146.943V38.8125H148.208Z" fill="black"/>
<rect x="8" y="34.5913" width="71" height="17.7403" rx="8.87014" fill="#F2C94C"/>
<path d="M28.4089 46.2842L30.241 40.6035H31.533L28.8806 48H27.9168L25.2371 40.6035H26.5291L28.4089 46.2842ZM38.9978 44.3838C38.9978 45.5094 38.7403 46.4163 38.2253 47.1045C37.7104 47.7926 37.0131 48.1367 36.1335 48.1367C35.2358 48.1367 34.5294 47.8519 34.0144 47.2822V50.8438H32.7498V40.6035H33.905L33.9666 41.4238C34.4815 40.7858 35.197 40.4668 36.113 40.4668C37.0017 40.4668 37.7035 40.8018 38.2185 41.4717C38.738 42.1416 38.9978 43.0736 38.9978 44.2676V44.3838ZM37.7332 44.2402C37.7332 43.4062 37.5554 42.7477 37.2 42.2646C36.8445 41.7816 36.3569 41.54 35.7371 41.54C34.9714 41.54 34.3972 41.8796 34.0144 42.5586V46.0928C34.3927 46.7673 34.9714 47.1045 35.7507 47.1045C36.3569 47.1045 36.8377 46.8652 37.1931 46.3867C37.5531 45.9036 37.7332 45.1882 37.7332 44.2402ZM41.8074 40.6035L41.8484 41.5332C42.4135 40.8223 43.1518 40.4668 44.0632 40.4668C45.6264 40.4668 46.4148 41.3486 46.4285 43.1123V48H45.1638V43.1055C45.1593 42.5723 45.0362 42.1781 44.7947 41.9229C44.5577 41.6676 44.1863 41.54 43.6804 41.54C43.2703 41.54 42.9102 41.6494 42.6003 41.8682C42.2904 42.0869 42.0489 42.374 41.8757 42.7295V48H40.6111V40.6035H41.8074ZM50.4002 44.5752L49.6072 45.4023V48H48.3425V37.5H49.6072V43.8506L50.2839 43.0371L52.5877 40.6035H54.1257L51.2478 43.6934L54.4607 48H52.9773L50.4002 44.5752ZM56.8054 48H55.5408V40.6035H56.8054V48ZM55.4382 38.6416C55.4382 38.4365 55.4998 38.2633 55.6228 38.1221C55.7504 37.9808 55.9373 37.9102 56.1834 37.9102C56.4294 37.9102 56.6163 37.9808 56.7439 38.1221C56.8715 38.2633 56.9353 38.4365 56.9353 38.6416C56.9353 38.8467 56.8715 39.0176 56.7439 39.1543C56.6163 39.291 56.4294 39.3594 56.1834 39.3594C55.9373 39.3594 55.7504 39.291 55.6228 39.1543C55.4998 39.0176 55.4382 38.8467 55.4382 38.6416ZM60.5515 38.8125V40.6035H61.9324V41.5811H60.5515V46.168C60.5515 46.4642 60.613 46.6875 60.7361 46.8379C60.8591 46.9837 61.0688 47.0566 61.365 47.0566C61.5108 47.0566 61.7113 47.0293 61.9666 46.9746V48C61.6339 48.0911 61.3103 48.1367 60.9959 48.1367C60.4307 48.1367 60.0046 47.9658 59.7175 47.624C59.4304 47.2822 59.2869 46.7969 59.2869 46.168V41.5811H57.9402V40.6035H59.2869V38.8125H60.5515Z" fill="black"/>
<path d="M89 0V29" stroke="black" stroke-width="2" stroke-dasharray="3 3"/>
</svg>
