<svg width="640" height="186" viewBox="0 0 640 186" fill="none" xmlns="http://www.w3.org/2000/svg">
<g clip-path="url(#clip0)">
<rect x="34.5" y="1.5" width="357" height="144" rx="7.5" stroke="black" stroke-dasharray="10 10"/>
<rect x="81" y="38.8355" width="84.461" height="98.3974" rx="17" fill="#C4C4C4"/>
<rect x="91.1834" y="44.742" width="67.8599" height="82.8" rx="13.5" fill="white" stroke="black"/>
<rect x="86.3797" y="49.1078" width="68.8599" height="83.8" rx="14" fill="white"/>
<rect x="89.0316" y="46.9046" width="67.8599" height="82.8" rx="13.5" fill="white" stroke="black"/>
<rect x="86.8797" y="49.6078" width="67.8599" height="82.8" rx="13.5" fill="white" stroke="black"/>
<path d="M97.0469 33.3887C97.0469 33.0013 96.9102 32.7051 96.6367 32.5C96.3633 32.2904 95.8711 32.0716 95.1602 31.8438C94.4492 31.6113 93.8864 31.3835 93.4717 31.1602C92.3415 30.5495 91.7764 29.7269 91.7764 28.6924C91.7764 28.1546 91.9268 27.6761 92.2275 27.2568C92.5329 26.833 92.9681 26.5026 93.5332 26.2656C94.1029 26.0286 94.7409 25.9102 95.4473 25.9102C96.1582 25.9102 96.7917 26.04 97.3477 26.2998C97.9036 26.555 98.3343 26.9173 98.6396 27.3867C98.9495 27.8561 99.1045 28.3893 99.1045 28.9863H97.0537C97.0537 28.5306 96.9102 28.1774 96.623 27.9268C96.3359 27.6715 95.9326 27.5439 95.4131 27.5439C94.9118 27.5439 94.5221 27.651 94.2441 27.8652C93.9661 28.0749 93.8271 28.3529 93.8271 28.6992C93.8271 29.0228 93.9889 29.2939 94.3125 29.5127C94.6406 29.7314 95.1214 29.9365 95.7549 30.1279C96.9215 30.4788 97.7715 30.9141 98.3047 31.4336C98.8379 31.9531 99.1045 32.6003 99.1045 33.375C99.1045 34.2363 98.7786 34.9131 98.127 35.4053C97.4753 35.8929 96.598 36.1367 95.4951 36.1367C94.7295 36.1367 94.0322 35.9977 93.4033 35.7197C92.7744 35.4372 92.2936 35.0521 91.9609 34.5645C91.6328 34.0768 91.4688 33.5117 91.4688 32.8691H93.5264C93.5264 33.9674 94.1826 34.5166 95.4951 34.5166C95.9827 34.5166 96.3633 34.4186 96.6367 34.2227C96.9102 34.0221 97.0469 33.7441 97.0469 33.3887ZM103.773 36.1367C102.689 36.1367 101.805 35.804 101.121 35.1387C100.442 34.4733 100.103 33.5869 100.103 32.4795V32.2881C100.103 31.5452 100.246 30.8822 100.533 30.2988C100.82 29.7109 101.226 29.2598 101.75 28.9453C102.279 28.6263 102.88 28.4668 103.555 28.4668C104.566 28.4668 105.362 28.7858 105.94 29.4238C106.524 30.0618 106.815 30.9665 106.815 32.1377V32.9443H102.105C102.169 33.4274 102.361 33.8148 102.68 34.1064C103.003 34.3981 103.411 34.5439 103.903 34.5439C104.664 34.5439 105.259 34.2682 105.688 33.7168L106.658 34.8037C106.362 35.223 105.961 35.5511 105.455 35.7881C104.949 36.0205 104.389 36.1367 103.773 36.1367ZM103.548 30.0664C103.156 30.0664 102.837 30.1986 102.591 30.4629C102.349 30.7272 102.194 31.1055 102.126 31.5977H104.874V31.4404C104.865 31.0029 104.746 30.6657 104.519 30.4287C104.291 30.1872 103.967 30.0664 103.548 30.0664ZM112.1 30.4561C111.831 30.4196 111.594 30.4014 111.389 30.4014C110.641 30.4014 110.151 30.6543 109.919 31.1602V36H107.943V28.6035H109.81L109.864 29.4854C110.261 28.8063 110.81 28.4668 111.512 28.4668C111.73 28.4668 111.936 28.4964 112.127 28.5557L112.1 30.4561ZM115.948 33.5869L117.322 28.6035H119.387L116.892 36H115.005L112.51 28.6035H114.574L115.948 33.5869ZM122.347 36H120.364V28.6035H122.347V36ZM120.248 26.6895C120.248 26.3932 120.346 26.1494 120.542 25.958C120.743 25.7666 121.014 25.6709 121.355 25.6709C121.693 25.6709 121.962 25.7666 122.162 25.958C122.363 26.1494 122.463 26.3932 122.463 26.6895C122.463 26.9902 122.36 27.2363 122.155 27.4277C121.955 27.6191 121.688 27.7148 121.355 27.7148C121.023 27.7148 120.754 27.6191 120.549 27.4277C120.348 27.2363 120.248 26.9902 120.248 26.6895ZM127.057 34.5439C127.421 34.5439 127.717 34.4437 127.945 34.2432C128.173 34.0426 128.292 33.776 128.301 33.4434H130.153C130.149 33.9447 130.012 34.4049 129.743 34.8242C129.474 35.2389 129.105 35.5625 128.636 35.7949C128.171 36.0228 127.656 36.1367 127.091 36.1367C126.034 36.1367 125.2 35.8018 124.589 35.1318C123.978 34.4574 123.673 33.5277 123.673 32.3428V32.2129C123.673 31.0736 123.976 30.1644 124.582 29.4854C125.188 28.8063 126.02 28.4668 127.077 28.4668C128.002 28.4668 128.743 28.7311 129.299 29.2598C129.859 29.7839 130.144 30.4834 130.153 31.3584H128.301C128.292 30.9756 128.173 30.6657 127.945 30.4287C127.717 30.1872 127.417 30.0664 127.043 30.0664C126.583 30.0664 126.234 30.235 125.997 30.5723C125.765 30.9049 125.648 31.4473 125.648 32.1992V32.4043C125.648 33.1654 125.765 33.7122 125.997 34.0449C126.229 34.3776 126.583 34.5439 127.057 34.5439ZM134.686 36.1367C133.601 36.1367 132.717 35.804 132.033 35.1387C131.354 34.4733 131.015 33.5869 131.015 32.4795V32.2881C131.015 31.5452 131.158 30.8822 131.445 30.2988C131.732 29.7109 132.138 29.2598 132.662 28.9453C133.191 28.6263 133.792 28.4668 134.467 28.4668C135.479 28.4668 136.274 28.7858 136.853 29.4238C137.436 30.0618 137.728 30.9665 137.728 32.1377V32.9443H133.018C133.081 33.4274 133.273 33.8148 133.592 34.1064C133.915 34.3981 134.323 34.5439 134.815 34.5439C135.576 34.5439 136.171 34.2682 136.6 33.7168L137.57 34.8037C137.274 35.223 136.873 35.5511 136.367 35.7881C135.861 36.0205 135.301 36.1367 134.686 36.1367ZM134.46 30.0664C134.068 30.0664 133.749 30.1986 133.503 30.4629C133.261 30.7272 133.106 31.1055 133.038 31.5977H135.786V31.4404C135.777 31.0029 135.659 30.6657 135.431 30.4287C135.203 30.1872 134.879 30.0664 134.46 30.0664ZM148.091 33.9492H144.495L143.812 36H141.631L145.336 26.0469H147.236L150.962 36H148.781L148.091 33.9492ZM145.049 32.2881H147.537L146.286 28.5625L145.049 32.2881Z" fill="black"/>
<rect x="92.2406" y="103.469" width="57.5626" height="21.0852" fill="#A0BFF9"/>
<path d="M109.134 114.156H105.197V116.822H109.818V118.469H103.146V108.516H109.804V110.177H105.197V112.549H109.134V114.156ZM112.709 111.073L112.771 111.927C113.3 111.266 114.008 110.936 114.897 110.936C115.681 110.936 116.264 111.166 116.647 111.626C117.03 112.087 117.226 112.775 117.235 113.691V118.469H115.259V113.739C115.259 113.319 115.168 113.016 114.986 112.829C114.803 112.638 114.5 112.542 114.077 112.542C113.521 112.542 113.104 112.779 112.826 113.253V118.469H110.85V111.073H112.709ZM121.507 116.056L122.881 111.073H124.946L122.451 118.469H120.564L118.069 111.073H120.133L121.507 116.056ZM125.404 114.702C125.404 113.969 125.545 113.315 125.828 112.741C126.11 112.166 126.516 111.722 127.044 111.408C127.578 111.093 128.195 110.936 128.897 110.936C129.895 110.936 130.708 111.241 131.337 111.852C131.971 112.463 132.324 113.292 132.397 114.34L132.411 114.846C132.411 115.981 132.094 116.892 131.46 117.58C130.827 118.264 129.977 118.606 128.911 118.606C127.844 118.606 126.992 118.264 126.354 117.58C125.72 116.897 125.404 115.967 125.404 114.791V114.702ZM127.379 114.846C127.379 115.548 127.511 116.086 127.776 116.459C128.04 116.828 128.418 117.013 128.911 117.013C129.389 117.013 129.763 116.831 130.032 116.466C130.301 116.097 130.435 115.509 130.435 114.702C130.435 114.014 130.301 113.481 130.032 113.103C129.763 112.725 129.385 112.535 128.897 112.535C128.414 112.535 128.04 112.725 127.776 113.103C127.511 113.477 127.379 114.058 127.379 114.846ZM136.28 115.673L137.647 111.073H139.766L136.792 119.618L136.628 120.007C136.186 120.973 135.457 121.456 134.441 121.456C134.154 121.456 133.862 121.413 133.566 121.327V119.829L133.867 119.836C134.24 119.836 134.518 119.779 134.701 119.665C134.887 119.551 135.033 119.362 135.138 119.098L135.371 118.49L132.78 111.073H134.906L136.28 115.673Z" fill="black"/>
<rect x="92.2406" y="67.4777" width="57.5626" height="29.7355" fill="#A6E48C"/>
<path d="M110.895 84.8931C110.895 84.6516 110.774 84.4625 110.533 84.3257C110.296 84.1845 109.913 84.0591 109.384 83.9498C107.625 83.5806 106.745 82.8332 106.745 81.7076C106.745 81.0513 107.017 80.5045 107.559 80.067C108.106 79.6249 108.819 79.4039 109.699 79.4039C110.637 79.4039 111.387 79.6249 111.948 80.067C112.513 80.509 112.795 81.0832 112.795 81.7896H110.82C110.82 81.5071 110.728 81.2746 110.546 81.0923C110.364 80.9055 110.079 80.8121 109.692 80.8121C109.359 80.8121 109.102 80.8873 108.919 81.0377C108.737 81.188 108.646 81.3795 108.646 81.6119C108.646 81.8306 108.748 82.0084 108.953 82.1451C109.163 82.2772 109.514 82.3935 110.006 82.4937C110.498 82.5894 110.913 82.6988 111.25 82.8218C112.294 83.2047 112.816 83.8677 112.816 84.8111C112.816 85.4856 112.526 86.0325 111.948 86.4517C111.369 86.8664 110.621 87.0738 109.705 87.0738C109.086 87.0738 108.534 86.9644 108.051 86.7457C107.573 86.5224 107.197 86.2193 106.923 85.8365C106.65 85.4491 106.513 85.0321 106.513 84.5855H108.386C108.404 84.9364 108.534 85.2053 108.776 85.3922C109.017 85.579 109.341 85.6724 109.746 85.6724C110.125 85.6724 110.409 85.6018 110.601 85.4605C110.797 85.3147 110.895 85.1255 110.895 84.8931ZM116.863 84.524L118.237 79.5406H120.301L117.806 86.9371H115.919L113.424 79.5406H115.489L116.863 84.524ZM124.157 85.481C124.521 85.481 124.817 85.3808 125.045 85.1802C125.273 84.9797 125.392 84.7131 125.401 84.3804H127.253C127.249 84.8817 127.112 85.342 126.843 85.7613C126.574 86.176 126.205 86.4996 125.736 86.732C125.271 86.9599 124.756 87.0738 124.191 87.0738C123.133 87.0738 122.299 86.7388 121.689 86.0689C121.078 85.3944 120.773 84.4647 120.773 83.2798V83.15C120.773 82.0106 121.076 81.1015 121.682 80.4224C122.288 79.7434 123.12 79.4039 124.177 79.4039C125.102 79.4039 125.843 79.6682 126.399 80.1968C126.959 80.7209 127.244 81.4205 127.253 82.2955H125.401C125.392 81.9127 125.273 81.6028 125.045 81.3658C124.817 81.1242 124.517 81.0035 124.143 81.0035C123.683 81.0035 123.334 81.1721 123.097 81.5093C122.865 81.842 122.748 82.3843 122.748 83.1363V83.3414C122.748 84.1024 122.865 84.6493 123.097 84.982C123.329 85.3147 123.683 85.481 124.157 85.481ZM134.13 84.8863H130.534L129.851 86.9371H127.67L131.375 76.9839H133.276L137.001 86.9371H134.821L134.13 84.8863ZM131.088 83.2252H133.576L132.325 79.4996L131.088 83.2252Z" fill="black"/>
<path d="M97.0664 59.4932V63H95.0156V53.0469H98.8984C99.6458 53.0469 100.302 53.1836 100.867 53.457C101.437 53.7305 101.874 54.1201 102.18 54.626C102.485 55.1273 102.638 55.6992 102.638 56.3418C102.638 57.3171 102.303 58.0872 101.633 58.6523C100.967 59.2129 100.045 59.4932 98.8643 59.4932H97.0664ZM97.0664 57.832H98.8984C99.4408 57.832 99.8532 57.7044 100.136 57.4492C100.423 57.194 100.566 56.8294 100.566 56.3555C100.566 55.8678 100.423 55.4736 100.136 55.1729C99.8486 54.8721 99.4521 54.7171 98.9463 54.708H97.0664V57.832ZM103.52 59.2334C103.52 58.4997 103.661 57.8457 103.943 57.2715C104.226 56.6973 104.632 56.2529 105.16 55.9385C105.693 55.624 106.311 55.4668 107.013 55.4668C108.011 55.4668 108.824 55.7721 109.453 56.3828C110.087 56.9935 110.44 57.8229 110.513 58.8711L110.526 59.377C110.526 60.5117 110.21 61.4232 109.576 62.1113C108.943 62.7949 108.093 63.1367 107.026 63.1367C105.96 63.1367 105.108 62.7949 104.47 62.1113C103.836 61.4277 103.52 60.498 103.52 59.3223V59.2334ZM105.495 59.377C105.495 60.0788 105.627 60.6165 105.892 60.9902C106.156 61.3594 106.534 61.5439 107.026 61.5439C107.505 61.5439 107.879 61.3617 108.147 60.9971C108.416 60.6279 108.551 60.04 108.551 59.2334C108.551 58.5452 108.416 58.012 108.147 57.6338C107.879 57.2555 107.5 57.0664 107.013 57.0664C106.53 57.0664 106.156 57.2555 105.892 57.6338C105.627 58.0075 105.495 58.5885 105.495 59.377ZM111.436 59.2471C111.436 58.0941 111.693 57.1758 112.208 56.4922C112.728 55.8086 113.436 55.4668 114.334 55.4668C115.054 55.4668 115.649 55.7357 116.118 56.2734V52.5H118.101V63H116.316L116.221 62.2139C115.729 62.8291 115.095 63.1367 114.32 63.1367C113.45 63.1367 112.75 62.7949 112.222 62.1113C111.698 61.4232 111.436 60.4684 111.436 59.2471ZM113.411 59.3906C113.411 60.0833 113.532 60.6143 113.773 60.9834C114.015 61.3525 114.366 61.5371 114.826 61.5371C115.437 61.5371 115.868 61.2796 116.118 60.7646V57.8457C115.872 57.3307 115.446 57.0732 114.84 57.0732C113.887 57.0732 113.411 57.8457 113.411 59.3906Z" fill="black"/>
<rect x="291.762" y="39.8355" width="84.461" height="98.3974" rx="17" fill="#C4C4C4"/>
<rect x="301.945" y="45.742" width="67.8599" height="82.8" rx="13.5" fill="white" stroke="black"/>
<rect x="297.141" y="50.1078" width="68.8599" height="83.8" rx="14" fill="white"/>
<rect x="299.793" y="47.9046" width="67.8599" height="82.8" rx="13.5" fill="white" stroke="black"/>
<rect x="297.641" y="50.6078" width="67.8599" height="82.8" rx="13.5" fill="white" stroke="black"/>
<path d="M311.052 34.3887C311.052 34.0013 310.915 33.7051 310.641 33.5C310.368 33.2904 309.876 33.0716 309.165 32.8438C308.454 32.6113 307.891 32.3835 307.476 32.1602C306.346 31.5495 305.781 30.7269 305.781 29.6924C305.781 29.1546 305.931 28.6761 306.232 28.2568C306.538 27.833 306.973 27.5026 307.538 27.2656C308.108 27.0286 308.746 26.9102 309.452 26.9102C310.163 26.9102 310.796 27.04 311.352 27.2998C311.908 27.555 312.339 27.9173 312.644 28.3867C312.954 28.8561 313.109 29.3893 313.109 29.9863H311.058C311.058 29.5306 310.915 29.1774 310.628 28.9268C310.341 28.6715 309.937 28.5439 309.418 28.5439C308.917 28.5439 308.527 28.651 308.249 28.8652C307.971 29.0749 307.832 29.3529 307.832 29.6992C307.832 30.0228 307.994 30.2939 308.317 30.5127C308.645 30.7314 309.126 30.9365 309.76 31.1279C310.926 31.4788 311.776 31.9141 312.309 32.4336C312.843 32.9531 313.109 33.6003 313.109 34.375C313.109 35.2363 312.783 35.9131 312.132 36.4053C311.48 36.8929 310.603 37.1367 309.5 37.1367C308.734 37.1367 308.037 36.9977 307.408 36.7197C306.779 36.4372 306.298 36.0521 305.966 35.5645C305.638 35.0768 305.473 34.5117 305.473 33.8691H307.531C307.531 34.9674 308.187 35.5166 309.5 35.5166C309.987 35.5166 310.368 35.4186 310.641 35.2227C310.915 35.0221 311.052 34.7441 311.052 34.3887ZM317.778 37.1367C316.694 37.1367 315.809 36.804 315.126 36.1387C314.447 35.4733 314.107 34.5869 314.107 33.4795V33.2881C314.107 32.5452 314.251 31.8822 314.538 31.2988C314.825 30.7109 315.231 30.2598 315.755 29.9453C316.283 29.6263 316.885 29.4668 317.559 29.4668C318.571 29.4668 319.366 29.7858 319.945 30.4238C320.529 31.0618 320.82 31.9665 320.82 33.1377V33.9443H316.11C316.174 34.4274 316.365 34.8148 316.684 35.1064C317.008 35.3981 317.416 35.5439 317.908 35.5439C318.669 35.5439 319.264 35.2682 319.692 34.7168L320.663 35.8037C320.367 36.223 319.966 36.5511 319.46 36.7881C318.954 37.0205 318.393 37.1367 317.778 37.1367ZM317.553 31.0664C317.161 31.0664 316.842 31.1986 316.596 31.4629C316.354 31.7272 316.199 32.1055 316.131 32.5977H318.879V32.4404C318.87 32.0029 318.751 31.6657 318.523 31.4287C318.295 31.1872 317.972 31.0664 317.553 31.0664ZM326.104 31.4561C325.835 31.4196 325.598 31.4014 325.393 31.4014C324.646 31.4014 324.156 31.6543 323.924 32.1602V37H321.948V29.6035H323.814L323.869 30.4854C324.265 29.8063 324.815 29.4668 325.516 29.4668C325.735 29.4668 325.94 29.4964 326.132 29.5557L326.104 31.4561ZM329.953 34.5869L331.327 29.6035H333.391L330.896 37H329.01L326.515 29.6035H328.579L329.953 34.5869ZM336.351 37H334.369V29.6035H336.351V37ZM334.253 27.6895C334.253 27.3932 334.351 27.1494 334.547 26.958C334.747 26.7666 335.018 26.6709 335.36 26.6709C335.697 26.6709 335.966 26.7666 336.167 26.958C336.367 27.1494 336.468 27.3932 336.468 27.6895C336.468 27.9902 336.365 28.2363 336.16 28.4277C335.959 28.6191 335.693 28.7148 335.36 28.7148C335.028 28.7148 334.759 28.6191 334.554 28.4277C334.353 28.2363 334.253 27.9902 334.253 27.6895ZM341.061 35.5439C341.426 35.5439 341.722 35.4437 341.95 35.2432C342.178 35.0426 342.296 34.776 342.306 34.4434H344.158C344.154 34.9447 344.017 35.4049 343.748 35.8242C343.479 36.2389 343.11 36.5625 342.64 36.7949C342.176 37.0228 341.661 37.1367 341.096 37.1367C340.038 37.1367 339.204 36.8018 338.594 36.1318C337.983 35.4574 337.678 34.5277 337.678 33.3428V33.2129C337.678 32.0736 337.981 31.1644 338.587 30.4854C339.193 29.8063 340.025 29.4668 341.082 29.4668C342.007 29.4668 342.748 29.7311 343.304 30.2598C343.864 30.7839 344.149 31.4834 344.158 32.3584H342.306C342.296 31.9756 342.178 31.6657 341.95 31.4287C341.722 31.1872 341.421 31.0664 341.048 31.0664C340.587 31.0664 340.239 31.235 340.002 31.5723C339.769 31.9049 339.653 32.4473 339.653 33.1992V33.4043C339.653 34.1654 339.769 34.7122 340.002 35.0449C340.234 35.3776 340.587 35.5439 341.061 35.5439ZM348.69 37.1367C347.606 37.1367 346.722 36.804 346.038 36.1387C345.359 35.4733 345.019 34.5869 345.019 33.4795V33.2881C345.019 32.5452 345.163 31.8822 345.45 31.2988C345.737 30.7109 346.143 30.2598 346.667 29.9453C347.195 29.6263 347.797 29.4668 348.472 29.4668C349.483 29.4668 350.279 29.7858 350.857 30.4238C351.441 31.0618 351.732 31.9665 351.732 33.1377V33.9443H347.022C347.086 34.4274 347.278 34.8148 347.597 35.1064C347.92 35.3981 348.328 35.5439 348.82 35.5439C349.581 35.5439 350.176 35.2682 350.604 34.7168L351.575 35.8037C351.279 36.223 350.878 36.5511 350.372 36.7881C349.866 37.0205 349.306 37.1367 348.69 37.1367ZM348.465 31.0664C348.073 31.0664 347.754 31.1986 347.508 31.4629C347.266 31.7272 347.111 32.1055 347.043 32.5977H349.791V32.4404C349.782 32.0029 349.663 31.6657 349.435 31.4287C349.208 31.1872 348.884 31.0664 348.465 31.0664ZM362.096 34.9492H358.5L357.816 37H355.636L359.341 27.0469H361.241L364.967 37H362.786L362.096 34.9492ZM359.054 33.2881H361.542L360.291 29.5625L359.054 33.2881Z" fill="black"/>
<rect x="303.002" y="104.469" width="57.5626" height="21.0852" fill="#A0BFF9"/>
<path d="M319.896 115.156H315.958V117.822H320.579V119.469H313.907V109.516H320.566V111.177H315.958V113.549H319.896V115.156ZM323.471 112.073L323.532 112.927C324.061 112.266 324.77 111.936 325.658 111.936C326.442 111.936 327.026 112.166 327.408 112.626C327.791 113.087 327.987 113.775 327.996 114.691V119.469H326.021V114.739C326.021 114.319 325.93 114.016 325.747 113.829C325.565 113.638 325.262 113.542 324.838 113.542C324.282 113.542 323.865 113.779 323.587 114.253V119.469H321.612V112.073H323.471ZM332.269 117.056L333.643 112.073H335.707L333.212 119.469H331.325L328.83 112.073H330.895L332.269 117.056ZM336.165 115.702C336.165 114.969 336.307 114.315 336.589 113.741C336.872 113.166 337.277 112.722 337.806 112.408C338.339 112.093 338.957 111.936 339.658 111.936C340.657 111.936 341.47 112.241 342.099 112.852C342.732 113.463 343.086 114.292 343.158 115.34L343.172 115.846C343.172 116.981 342.855 117.892 342.222 118.58C341.588 119.264 340.739 119.606 339.672 119.606C338.606 119.606 337.754 119.264 337.115 118.58C336.482 117.897 336.165 116.967 336.165 115.791V115.702ZM338.141 115.846C338.141 116.548 338.273 117.086 338.537 117.459C338.802 117.828 339.18 118.013 339.672 118.013C340.151 118.013 340.524 117.831 340.793 117.466C341.062 117.097 341.197 116.509 341.197 115.702C341.197 115.014 341.062 114.481 340.793 114.103C340.524 113.725 340.146 113.535 339.658 113.535C339.175 113.535 338.802 113.725 338.537 114.103C338.273 114.477 338.141 115.058 338.141 115.846ZM347.041 116.673L348.408 112.073H350.528L347.554 120.618L347.39 121.007C346.948 121.973 346.219 122.456 345.202 122.456C344.915 122.456 344.624 122.413 344.327 122.327V120.829L344.628 120.836C345.002 120.836 345.28 120.779 345.462 120.665C345.649 120.551 345.795 120.362 345.9 120.098L346.132 119.49L343.541 112.073H345.667L347.041 116.673Z" fill="black"/>
<rect x="303.002" y="68.4777" width="57.5626" height="29.7355" fill="#A6E48C"/>
<path d="M321.656 85.8931C321.656 85.6516 321.536 85.4625 321.294 85.3257C321.057 85.1845 320.674 85.0591 320.146 84.9498C318.387 84.5806 317.507 83.8332 317.507 82.7076C317.507 82.0513 317.778 81.5045 318.32 81.067C318.867 80.6249 319.581 80.4039 320.46 80.4039C321.399 80.4039 322.149 80.6249 322.709 81.067C323.274 81.509 323.557 82.0832 323.557 82.7896H321.581C321.581 82.5071 321.49 82.2746 321.308 82.0923C321.125 81.9055 320.841 81.8121 320.453 81.8121C320.121 81.8121 319.863 81.8873 319.681 82.0377C319.499 82.188 319.407 82.3795 319.407 82.6119C319.407 82.8306 319.51 83.0084 319.715 83.1451C319.925 83.2772 320.276 83.3935 320.768 83.4937C321.26 83.5894 321.675 83.6988 322.012 83.8218C323.055 84.2047 323.577 84.8677 323.577 85.8111C323.577 86.4856 323.288 87.0325 322.709 87.4517C322.13 87.8664 321.383 88.0738 320.467 88.0738C319.847 88.0738 319.296 87.9644 318.813 87.7457C318.334 87.5224 317.958 87.2193 317.685 86.8365C317.411 86.4491 317.275 86.0321 317.275 85.5855H319.148C319.166 85.9364 319.296 86.2053 319.537 86.3922C319.779 86.579 320.102 86.6724 320.508 86.6724C320.886 86.6724 321.171 86.6018 321.362 86.4605C321.558 86.3147 321.656 86.1255 321.656 85.8931ZM327.624 85.524L328.998 80.5406H331.063L328.568 87.9371H326.681L324.186 80.5406H326.25L327.624 85.524ZM334.918 86.481C335.283 86.481 335.579 86.3808 335.807 86.1802C336.035 85.9797 336.153 85.7131 336.162 85.3804H338.015C338.01 85.8817 337.874 86.342 337.605 86.7613C337.336 87.176 336.967 87.4996 336.497 87.732C336.032 87.9599 335.517 88.0738 334.952 88.0738C333.895 88.0738 333.061 87.7388 332.45 87.0689C331.84 86.3944 331.534 85.4647 331.534 84.2798V84.15C331.534 83.0106 331.837 82.1015 332.444 81.4224C333.05 80.7434 333.881 80.4039 334.939 80.4039C335.864 80.4039 336.604 80.6682 337.16 81.1968C337.721 81.7209 338.006 82.4205 338.015 83.2955H336.162C336.153 82.9127 336.035 82.6028 335.807 82.3658C335.579 82.1242 335.278 82.0035 334.904 82.0035C334.444 82.0035 334.096 82.1721 333.859 82.5093C333.626 82.842 333.51 83.3843 333.51 84.1363V84.3414C333.51 85.1024 333.626 85.6493 333.859 85.982C334.091 86.3147 334.444 86.481 334.918 86.481ZM344.892 85.8863H341.296L340.612 87.9371H338.432L342.137 77.9839H344.037L347.763 87.9371H345.582L344.892 85.8863ZM341.85 84.2252H344.338L343.087 80.4996L341.85 84.2252Z" fill="black"/>
<path d="M308.566 61.4932V65H306.516V55.0469H310.398C311.146 55.0469 311.802 55.1836 312.367 55.457C312.937 55.7305 313.374 56.1201 313.68 56.626C313.985 57.1273 314.138 57.6992 314.138 58.3418C314.138 59.3171 313.803 60.0872 313.133 60.6523C312.467 61.2129 311.545 61.4932 310.364 61.4932H308.566ZM308.566 59.832H310.398C310.941 59.832 311.353 59.7044 311.636 59.4492C311.923 59.194 312.066 58.8294 312.066 58.3555C312.066 57.8678 311.923 57.4736 311.636 57.1729C311.349 56.8721 310.952 56.7171 310.446 56.708H308.566V59.832ZM315.02 61.2334C315.02 60.4997 315.161 59.8457 315.443 59.2715C315.726 58.6973 316.132 58.2529 316.66 57.9385C317.193 57.624 317.811 57.4668 318.513 57.4668C319.511 57.4668 320.324 57.7721 320.953 58.3828C321.587 58.9935 321.94 59.8229 322.013 60.8711L322.026 61.377C322.026 62.5117 321.71 63.4232 321.076 64.1113C320.443 64.7949 319.593 65.1367 318.526 65.1367C317.46 65.1367 316.608 64.7949 315.97 64.1113C315.336 63.4277 315.02 62.498 315.02 61.3223V61.2334ZM316.995 61.377C316.995 62.0788 317.127 62.6165 317.392 62.9902C317.656 63.3594 318.034 63.5439 318.526 63.5439C319.005 63.5439 319.379 63.3617 319.647 62.9971C319.916 62.6279 320.051 62.04 320.051 61.2334C320.051 60.5452 319.916 60.012 319.647 59.6338C319.379 59.2555 319 59.0664 318.513 59.0664C318.03 59.0664 317.656 59.2555 317.392 59.6338C317.127 60.0075 316.995 60.5885 316.995 61.377ZM322.936 61.2471C322.936 60.0941 323.193 59.1758 323.708 58.4922C324.228 57.8086 324.936 57.4668 325.834 57.4668C326.554 57.4668 327.149 57.7357 327.618 58.2734V54.5H329.601V65H327.816L327.721 64.2139C327.229 64.8291 326.595 65.1367 325.82 65.1367C324.95 65.1367 324.25 64.7949 323.722 64.1113C323.198 63.4232 322.936 62.4684 322.936 61.2471ZM324.911 61.3906C324.911 62.0833 325.032 62.6143 325.273 62.9834C325.515 63.3525 325.866 63.5371 326.326 63.5371C326.937 63.5371 327.368 63.2796 327.618 62.7646V59.8457C327.372 59.3307 326.946 59.0732 326.34 59.0732C325.387 59.0732 324.911 59.8457 324.911 61.3906Z" fill="black"/>
<circle cx="201" cy="80.1732" r="8" fill="black"/>
<circle cx="227" cy="80.1732" r="8" fill="black"/>
<circle cx="253" cy="80.1732" r="8" fill="black"/>
<path d="M118 125C118 125 118 138.615 118 147.692C118 156.769 120.874 160.173 130.99 160.173C141.107 160.173 424.584 160.173 431.927 160.173C439.271 160.173 446 163.577 446 170.385C446 177.192 446 184 446 184" stroke="black" stroke-width="3"/>
<path d="M330 130C330 130 330 132.756 330 141.024C330 149.292 335.089 152.785 343.994 152.785C352.899 152.785 439.405 152.785 448.734 152.785C458.063 152.785 464 154.803 464 162.153C464 169.502 464 183 464 183" stroke="black" stroke-width="3"/>
<path d="M464 186L457.938 176.25H470.062L464 186Z" fill="black"/>
<path d="M446 187L439.938 177.25H452.062L446 187Z" fill="black"/>
<path d="M43.2412 9.60352L43.3027 10.4307C43.8268 9.78809 44.5355 9.4668 45.4287 9.4668C46.3812 9.4668 47.0352 9.84277 47.3906 10.5947C47.9102 9.84277 48.6507 9.4668 49.6123 9.4668C50.4144 9.4668 51.0114 9.7015 51.4033 10.1709C51.7952 10.6357 51.9912 11.3376 51.9912 12.2764V17H50.0088V12.2832C50.0088 11.8639 49.9268 11.5586 49.7627 11.3672C49.5986 11.1712 49.3092 11.0732 48.8945 11.0732C48.3021 11.0732 47.8919 11.3558 47.6641 11.9209L47.6709 17H45.6953V12.29C45.6953 11.8617 45.611 11.5518 45.4424 11.3604C45.2738 11.1689 44.9867 11.0732 44.5811 11.0732C44.0205 11.0732 43.6149 11.3057 43.3643 11.7705V17H41.3887V9.60352H43.2412ZM56.9199 17.1367C55.8353 17.1367 54.9512 16.804 54.2676 16.1387C53.5885 15.4733 53.249 14.5869 53.249 13.4795V13.2881C53.249 12.5452 53.3926 11.8822 53.6797 11.2988C53.9668 10.7109 54.3724 10.2598 54.8965 9.94531C55.4251 9.6263 56.0267 9.4668 56.7012 9.4668C57.7129 9.4668 58.5081 9.78581 59.0869 10.4238C59.6702 11.0618 59.9619 11.9665 59.9619 13.1377V13.9443H55.252C55.3158 14.4274 55.5072 14.8148 55.8262 15.1064C56.1497 15.3981 56.5576 15.5439 57.0498 15.5439C57.8109 15.5439 58.4056 15.2682 58.834 14.7168L59.8047 15.8037C59.5085 16.223 59.1074 16.5511 58.6016 16.7881C58.0957 17.0205 57.5352 17.1367 56.9199 17.1367ZM56.6943 11.0664C56.3024 11.0664 55.9834 11.1986 55.7373 11.4629C55.4958 11.7272 55.3408 12.1055 55.2725 12.5977H58.0205V12.4404C58.0114 12.0029 57.8929 11.6657 57.665 11.4287C57.4372 11.1872 57.1136 11.0664 56.6943 11.0664ZM65.0957 14.9561C65.0957 14.7145 64.9749 14.5254 64.7334 14.3887C64.4964 14.2474 64.1136 14.1221 63.585 14.0127C61.8258 13.6436 60.9463 12.8962 60.9463 11.7705C60.9463 11.1143 61.2174 10.5674 61.7598 10.1299C62.3066 9.68783 63.0199 9.4668 63.8994 9.4668C64.8382 9.4668 65.5879 9.68783 66.1484 10.1299C66.7135 10.5719 66.9961 11.1462 66.9961 11.8525H65.0205C65.0205 11.57 64.9294 11.3376 64.7471 11.1553C64.5648 10.9684 64.2799 10.875 63.8926 10.875C63.5599 10.875 63.3024 10.9502 63.1201 11.1006C62.9378 11.251 62.8467 11.4424 62.8467 11.6748C62.8467 11.8936 62.9492 12.0713 63.1543 12.208C63.3639 12.3402 63.7148 12.4564 64.207 12.5566C64.6992 12.6523 65.1139 12.7617 65.4512 12.8848C66.4948 13.2676 67.0166 13.9307 67.0166 14.874C67.0166 15.5485 66.7272 16.0954 66.1484 16.5146C65.5697 16.9294 64.8223 17.1367 63.9062 17.1367C63.2865 17.1367 62.735 17.0273 62.252 16.8086C61.7734 16.5853 61.3975 16.2822 61.124 15.8994C60.8506 15.512 60.7139 15.0951 60.7139 14.6484H62.5869C62.6051 14.9993 62.735 15.2682 62.9766 15.4551C63.2181 15.6419 63.5417 15.7354 63.9473 15.7354C64.3255 15.7354 64.6104 15.6647 64.8018 15.5234C64.9977 15.3776 65.0957 15.1885 65.0957 14.9561ZM70.2227 10.4102C70.7467 9.78125 71.4053 9.4668 72.1982 9.4668C73.8024 9.4668 74.6159 10.3988 74.6387 12.2627V17H72.6631V12.3174C72.6631 11.8936 72.5719 11.5814 72.3896 11.3809C72.2074 11.1758 71.9043 11.0732 71.4805 11.0732C70.9017 11.0732 70.4824 11.2965 70.2227 11.7432V17H68.2471V6.5H70.2227V10.4102Z" fill="black"/>
<path d="M40.6299 18.3672H75.3701V19.0508H40.6299V18.3672Z" fill="black"/>
</g>
<defs>
<clipPath id="clip0">
<rect width="640" height="186" fill="white"/>
</clipPath>
</defs>
</svg>
